%TF.GenerationSoftware,KiCad,Pcbnew,(5.1.10-1-10_14)*%
%TF.CreationDate,2022-07-31T12:18:55+02:00*%
%TF.ProjectId,RO Flow Counter,524f2046-6c6f-4772-9043-6f756e746572,rev?*%
%TF.SameCoordinates,Original*%
%TF.FileFunction,Soldermask,Top*%
%TF.FilePolarity,Negative*%
%FSLAX46Y46*%
G04 Gerber Fmt 4.6, Leading zero omitted, Abs format (unit mm)*
G04 Created by KiCad (PCBNEW (5.1.10-1-10_14)) date 2022-07-31 12:18:55*
%MOMM*%
%LPD*%
G01*
G04 APERTURE LIST*
%ADD10C,3.500000*%
%ADD11O,1.700000X1.700000*%
%ADD12R,1.700000X1.700000*%
%ADD13O,1.700000X1.950000*%
%ADD14C,1.500000*%
%ADD15R,3.500000X3.500000*%
%ADD16O,1.350000X1.350000*%
%ADD17R,1.350000X1.350000*%
%ADD18C,2.300000*%
%ADD19R,2.300000X2.300000*%
%ADD20R,2.000000X2.000000*%
%ADD21C,2.000000*%
%ADD22C,3.200000*%
%ADD23R,0.800000X0.900000*%
%ADD24C,5.600000*%
%ADD25C,1.600000*%
%ADD26R,1.600000X1.600000*%
G04 APERTURE END LIST*
D10*
%TO.C,J7*%
X212740000Y-99060000D03*
G36*
G01*
X203990000Y-100559999D02*
X203990000Y-97560001D01*
G75*
G02*
X204240001Y-97310000I250001J0D01*
G01*
X207239999Y-97310000D01*
G75*
G02*
X207490000Y-97560001I0J-250001D01*
G01*
X207490000Y-100559999D01*
G75*
G02*
X207239999Y-100810000I-250001J0D01*
G01*
X204240001Y-100810000D01*
G75*
G02*
X203990000Y-100559999I0J250001D01*
G01*
G37*
%TD*%
D11*
%TO.C,J1*%
X198882000Y-84582000D03*
D12*
X198882000Y-82042000D03*
%TD*%
D13*
%TO.C,J6*%
X144406000Y-62738000D03*
X141906000Y-62738000D03*
X139406000Y-62738000D03*
G36*
G01*
X136056000Y-63463000D02*
X136056000Y-62013000D01*
G75*
G02*
X136306000Y-61763000I250000J0D01*
G01*
X137506000Y-61763000D01*
G75*
G02*
X137756000Y-62013000I0J-250000D01*
G01*
X137756000Y-63463000D01*
G75*
G02*
X137506000Y-63713000I-250000J0D01*
G01*
X136306000Y-63713000D01*
G75*
G02*
X136056000Y-63463000I0J250000D01*
G01*
G37*
%TD*%
%TO.C,J5*%
X157000000Y-62738000D03*
X154500000Y-62738000D03*
G36*
G01*
X151150000Y-63463000D02*
X151150000Y-62013000D01*
G75*
G02*
X151400000Y-61763000I250000J0D01*
G01*
X152600000Y-61763000D01*
G75*
G02*
X152850000Y-62013000I0J-250000D01*
G01*
X152850000Y-63463000D01*
G75*
G02*
X152600000Y-63713000I-250000J0D01*
G01*
X151400000Y-63713000D01*
G75*
G02*
X151150000Y-63463000I0J250000D01*
G01*
G37*
%TD*%
D11*
%TO.C,J8*%
X150876000Y-92456000D03*
X150876000Y-89916000D03*
X150876000Y-87376000D03*
D12*
X150876000Y-84836000D03*
%TD*%
%TO.C,F1*%
G36*
G01*
X210553000Y-102753000D02*
X210553000Y-104003000D01*
G75*
G02*
X210303000Y-104253000I-250000J0D01*
G01*
X209553000Y-104253000D01*
G75*
G02*
X209303000Y-104003000I0J250000D01*
G01*
X209303000Y-102753000D01*
G75*
G02*
X209553000Y-102503000I250000J0D01*
G01*
X210303000Y-102503000D01*
G75*
G02*
X210553000Y-102753000I0J-250000D01*
G01*
G37*
G36*
G01*
X213353000Y-102753000D02*
X213353000Y-104003000D01*
G75*
G02*
X213103000Y-104253000I-250000J0D01*
G01*
X212353000Y-104253000D01*
G75*
G02*
X212103000Y-104003000I0J250000D01*
G01*
X212103000Y-102753000D01*
G75*
G02*
X212353000Y-102503000I250000J0D01*
G01*
X213103000Y-102503000D01*
G75*
G02*
X213353000Y-102753000I0J-250000D01*
G01*
G37*
%TD*%
D14*
%TO.C,TP8*%
X172212000Y-100838000D03*
%TD*%
%TO.C,TP6*%
X164084000Y-103632000D03*
%TD*%
%TO.C,TP4*%
X176276000Y-105918000D03*
%TD*%
%TO.C,TP11*%
X166116000Y-100838000D03*
%TD*%
%TO.C,J3*%
G36*
G01*
X140175000Y-100750000D02*
X138425000Y-100750000D01*
G75*
G02*
X137550000Y-99875000I0J875000D01*
G01*
X137550000Y-98125000D01*
G75*
G02*
X138425000Y-97250000I875000J0D01*
G01*
X140175000Y-97250000D01*
G75*
G02*
X141050000Y-98125000I0J-875000D01*
G01*
X141050000Y-99875000D01*
G75*
G02*
X140175000Y-100750000I-875000J0D01*
G01*
G37*
G36*
G01*
X145000000Y-103500000D02*
X143000000Y-103500000D01*
G75*
G02*
X142250000Y-102750000I0J750000D01*
G01*
X142250000Y-101250000D01*
G75*
G02*
X143000000Y-100500000I750000J0D01*
G01*
X145000000Y-100500000D01*
G75*
G02*
X145750000Y-101250000I0J-750000D01*
G01*
X145750000Y-102750000D01*
G75*
G02*
X145000000Y-103500000I-750000J0D01*
G01*
G37*
D15*
X144000000Y-96000000D03*
%TD*%
D16*
%TO.C,J2*%
X150212000Y-97536000D03*
X152212000Y-97536000D03*
X154212000Y-97536000D03*
X156212000Y-97536000D03*
X158212000Y-97536000D03*
X160212000Y-97536000D03*
X162212000Y-97536000D03*
X164212000Y-97536000D03*
X166212000Y-97536000D03*
X168212000Y-97536000D03*
X170212000Y-97536000D03*
D17*
X172212000Y-97536000D03*
%TD*%
D18*
%TO.C,K1*%
X181102000Y-105918000D03*
X198882000Y-98298000D03*
X191262000Y-98298000D03*
D19*
X181102000Y-98298000D03*
%TD*%
D20*
%TO.C,SW2*%
X205994000Y-80518000D03*
D21*
X205994000Y-83018000D03*
X205994000Y-85518000D03*
D22*
X213494000Y-77418000D03*
X213494000Y-88618000D03*
D21*
X220494000Y-80518000D03*
X220494000Y-85518000D03*
%TD*%
%TO.C,R6*%
G36*
G01*
X160006000Y-101023000D02*
X160006000Y-100653000D01*
G75*
G02*
X160141000Y-100518000I135000J0D01*
G01*
X160411000Y-100518000D01*
G75*
G02*
X160546000Y-100653000I0J-135000D01*
G01*
X160546000Y-101023000D01*
G75*
G02*
X160411000Y-101158000I-135000J0D01*
G01*
X160141000Y-101158000D01*
G75*
G02*
X160006000Y-101023000I0J135000D01*
G01*
G37*
G36*
G01*
X158986000Y-101023000D02*
X158986000Y-100653000D01*
G75*
G02*
X159121000Y-100518000I135000J0D01*
G01*
X159391000Y-100518000D01*
G75*
G02*
X159526000Y-100653000I0J-135000D01*
G01*
X159526000Y-101023000D01*
G75*
G02*
X159391000Y-101158000I-135000J0D01*
G01*
X159121000Y-101158000D01*
G75*
G02*
X158986000Y-101023000I0J135000D01*
G01*
G37*
%TD*%
%TO.C,R4*%
G36*
G01*
X217101000Y-71640000D02*
X216731000Y-71640000D01*
G75*
G02*
X216596000Y-71505000I0J135000D01*
G01*
X216596000Y-71235000D01*
G75*
G02*
X216731000Y-71100000I135000J0D01*
G01*
X217101000Y-71100000D01*
G75*
G02*
X217236000Y-71235000I0J-135000D01*
G01*
X217236000Y-71505000D01*
G75*
G02*
X217101000Y-71640000I-135000J0D01*
G01*
G37*
G36*
G01*
X217101000Y-72660000D02*
X216731000Y-72660000D01*
G75*
G02*
X216596000Y-72525000I0J135000D01*
G01*
X216596000Y-72255000D01*
G75*
G02*
X216731000Y-72120000I135000J0D01*
G01*
X217101000Y-72120000D01*
G75*
G02*
X217236000Y-72255000I0J-135000D01*
G01*
X217236000Y-72525000D01*
G75*
G02*
X217101000Y-72660000I-135000J0D01*
G01*
G37*
%TD*%
%TO.C,R3*%
G36*
G01*
X214941000Y-64604000D02*
X214571000Y-64604000D01*
G75*
G02*
X214436000Y-64469000I0J135000D01*
G01*
X214436000Y-64199000D01*
G75*
G02*
X214571000Y-64064000I135000J0D01*
G01*
X214941000Y-64064000D01*
G75*
G02*
X215076000Y-64199000I0J-135000D01*
G01*
X215076000Y-64469000D01*
G75*
G02*
X214941000Y-64604000I-135000J0D01*
G01*
G37*
G36*
G01*
X214941000Y-65624000D02*
X214571000Y-65624000D01*
G75*
G02*
X214436000Y-65489000I0J135000D01*
G01*
X214436000Y-65219000D01*
G75*
G02*
X214571000Y-65084000I135000J0D01*
G01*
X214941000Y-65084000D01*
G75*
G02*
X215076000Y-65219000I0J-135000D01*
G01*
X215076000Y-65489000D01*
G75*
G02*
X214941000Y-65624000I-135000J0D01*
G01*
G37*
%TD*%
%TO.C,R2*%
G36*
G01*
X206106000Y-66553000D02*
X206106000Y-66183000D01*
G75*
G02*
X206241000Y-66048000I135000J0D01*
G01*
X206511000Y-66048000D01*
G75*
G02*
X206646000Y-66183000I0J-135000D01*
G01*
X206646000Y-66553000D01*
G75*
G02*
X206511000Y-66688000I-135000J0D01*
G01*
X206241000Y-66688000D01*
G75*
G02*
X206106000Y-66553000I0J135000D01*
G01*
G37*
G36*
G01*
X205086000Y-66553000D02*
X205086000Y-66183000D01*
G75*
G02*
X205221000Y-66048000I135000J0D01*
G01*
X205491000Y-66048000D01*
G75*
G02*
X205626000Y-66183000I0J-135000D01*
G01*
X205626000Y-66553000D01*
G75*
G02*
X205491000Y-66688000I-135000J0D01*
G01*
X205221000Y-66688000D01*
G75*
G02*
X205086000Y-66553000I0J135000D01*
G01*
G37*
%TD*%
%TO.C,R1*%
G36*
G01*
X206486000Y-73083000D02*
X206486000Y-72713000D01*
G75*
G02*
X206621000Y-72578000I135000J0D01*
G01*
X206891000Y-72578000D01*
G75*
G02*
X207026000Y-72713000I0J-135000D01*
G01*
X207026000Y-73083000D01*
G75*
G02*
X206891000Y-73218000I-135000J0D01*
G01*
X206621000Y-73218000D01*
G75*
G02*
X206486000Y-73083000I0J135000D01*
G01*
G37*
G36*
G01*
X205466000Y-73083000D02*
X205466000Y-72713000D01*
G75*
G02*
X205601000Y-72578000I135000J0D01*
G01*
X205871000Y-72578000D01*
G75*
G02*
X206006000Y-72713000I0J-135000D01*
G01*
X206006000Y-73083000D01*
G75*
G02*
X205871000Y-73218000I-135000J0D01*
G01*
X205601000Y-73218000D01*
G75*
G02*
X205466000Y-73083000I0J135000D01*
G01*
G37*
%TD*%
D23*
%TO.C,Q2*%
X209550000Y-67294000D03*
X208600000Y-65294000D03*
X210500000Y-65294000D03*
%TD*%
%TO.C,Q1*%
X209804000Y-73898000D03*
X208854000Y-71898000D03*
X210754000Y-71898000D03*
%TD*%
D24*
%TO.C,H4*%
X129000000Y-60000000D03*
%TD*%
%TO.C,H3*%
X129000000Y-105000000D03*
%TD*%
%TO.C,H2*%
X219000000Y-60000000D03*
%TD*%
%TO.C,H1*%
X219000000Y-105000000D03*
%TD*%
%TO.C,D2*%
G36*
G01*
X213496500Y-71425750D02*
X213496500Y-72338250D01*
G75*
G02*
X213252750Y-72582000I-243750J0D01*
G01*
X212765250Y-72582000D01*
G75*
G02*
X212521500Y-72338250I0J243750D01*
G01*
X212521500Y-71425750D01*
G75*
G02*
X212765250Y-71182000I243750J0D01*
G01*
X213252750Y-71182000D01*
G75*
G02*
X213496500Y-71425750I0J-243750D01*
G01*
G37*
G36*
G01*
X215371500Y-71425750D02*
X215371500Y-72338250D01*
G75*
G02*
X215127750Y-72582000I-243750J0D01*
G01*
X214640250Y-72582000D01*
G75*
G02*
X214396500Y-72338250I0J243750D01*
G01*
X214396500Y-71425750D01*
G75*
G02*
X214640250Y-71182000I243750J0D01*
G01*
X215127750Y-71182000D01*
G75*
G02*
X215371500Y-71425750I0J-243750D01*
G01*
G37*
%TD*%
%TO.C,D1*%
G36*
G01*
X213465500Y-66673750D02*
X213465500Y-67586250D01*
G75*
G02*
X213221750Y-67830000I-243750J0D01*
G01*
X212734250Y-67830000D01*
G75*
G02*
X212490500Y-67586250I0J243750D01*
G01*
X212490500Y-66673750D01*
G75*
G02*
X212734250Y-66430000I243750J0D01*
G01*
X213221750Y-66430000D01*
G75*
G02*
X213465500Y-66673750I0J-243750D01*
G01*
G37*
G36*
G01*
X215340500Y-66673750D02*
X215340500Y-67586250D01*
G75*
G02*
X215096750Y-67830000I-243750J0D01*
G01*
X214609250Y-67830000D01*
G75*
G02*
X214365500Y-67586250I0J243750D01*
G01*
X214365500Y-66673750D01*
G75*
G02*
X214609250Y-66430000I243750J0D01*
G01*
X215096750Y-66430000D01*
G75*
G02*
X215340500Y-66673750I0J-243750D01*
G01*
G37*
%TD*%
D25*
%TO.C,C6*%
X149352000Y-80986000D03*
D26*
X149352000Y-78486000D03*
%TD*%
%TO.C,C4*%
G36*
G01*
X135694000Y-92489000D02*
X135694000Y-93439000D01*
G75*
G02*
X135444000Y-93689000I-250000J0D01*
G01*
X134944000Y-93689000D01*
G75*
G02*
X134694000Y-93439000I0J250000D01*
G01*
X134694000Y-92489000D01*
G75*
G02*
X134944000Y-92239000I250000J0D01*
G01*
X135444000Y-92239000D01*
G75*
G02*
X135694000Y-92489000I0J-250000D01*
G01*
G37*
G36*
G01*
X137594000Y-92489000D02*
X137594000Y-93439000D01*
G75*
G02*
X137344000Y-93689000I-250000J0D01*
G01*
X136844000Y-93689000D01*
G75*
G02*
X136594000Y-93439000I0J250000D01*
G01*
X136594000Y-92489000D01*
G75*
G02*
X136844000Y-92239000I250000J0D01*
G01*
X137344000Y-92239000D01*
G75*
G02*
X137594000Y-92489000I0J-250000D01*
G01*
G37*
%TD*%
%TO.C,C3*%
G36*
G01*
X151330000Y-101008000D02*
X151330000Y-100668000D01*
G75*
G02*
X151470000Y-100528000I140000J0D01*
G01*
X151750000Y-100528000D01*
G75*
G02*
X151890000Y-100668000I0J-140000D01*
G01*
X151890000Y-101008000D01*
G75*
G02*
X151750000Y-101148000I-140000J0D01*
G01*
X151470000Y-101148000D01*
G75*
G02*
X151330000Y-101008000I0J140000D01*
G01*
G37*
G36*
G01*
X150370000Y-101008000D02*
X150370000Y-100668000D01*
G75*
G02*
X150510000Y-100528000I140000J0D01*
G01*
X150790000Y-100528000D01*
G75*
G02*
X150930000Y-100668000I0J-140000D01*
G01*
X150930000Y-101008000D01*
G75*
G02*
X150790000Y-101148000I-140000J0D01*
G01*
X150510000Y-101148000D01*
G75*
G02*
X150370000Y-101008000I0J140000D01*
G01*
G37*
%TD*%
%TO.C,C2*%
G36*
G01*
X161882000Y-100586000D02*
X162222000Y-100586000D01*
G75*
G02*
X162362000Y-100726000I0J-140000D01*
G01*
X162362000Y-101006000D01*
G75*
G02*
X162222000Y-101146000I-140000J0D01*
G01*
X161882000Y-101146000D01*
G75*
G02*
X161742000Y-101006000I0J140000D01*
G01*
X161742000Y-100726000D01*
G75*
G02*
X161882000Y-100586000I140000J0D01*
G01*
G37*
G36*
G01*
X161882000Y-101546000D02*
X162222000Y-101546000D01*
G75*
G02*
X162362000Y-101686000I0J-140000D01*
G01*
X162362000Y-101966000D01*
G75*
G02*
X162222000Y-102106000I-140000J0D01*
G01*
X161882000Y-102106000D01*
G75*
G02*
X161742000Y-101966000I0J140000D01*
G01*
X161742000Y-101686000D01*
G75*
G02*
X161882000Y-101546000I140000J0D01*
G01*
G37*
%TD*%
M02*
