%TF.GenerationSoftware,KiCad,Pcbnew,(5.1.10-1-10_14)*%
%TF.CreationDate,2022-07-31T12:18:55+02:00*%
%TF.ProjectId,RO Flow Counter,524f2046-6c6f-4772-9043-6f756e746572,rev?*%
%TF.SameCoordinates,Original*%
%TF.FileFunction,Copper,L1,Top*%
%TF.FilePolarity,Positive*%
%FSLAX46Y46*%
G04 Gerber Fmt 4.6, Leading zero omitted, Abs format (unit mm)*
G04 Created by KiCad (PCBNEW (5.1.10-1-10_14)) date 2022-07-31 12:18:55*
%MOMM*%
%LPD*%
G01*
G04 APERTURE LIST*
%TA.AperFunction,ComponentPad*%
%ADD10C,3.500000*%
%TD*%
%TA.AperFunction,ComponentPad*%
%ADD11O,1.700000X1.700000*%
%TD*%
%TA.AperFunction,ComponentPad*%
%ADD12R,1.700000X1.700000*%
%TD*%
%TA.AperFunction,ComponentPad*%
%ADD13O,1.700000X1.950000*%
%TD*%
%TA.AperFunction,SMDPad,CuDef*%
%ADD14C,1.500000*%
%TD*%
%TA.AperFunction,ComponentPad*%
%ADD15R,3.500000X3.500000*%
%TD*%
%TA.AperFunction,ComponentPad*%
%ADD16O,1.350000X1.350000*%
%TD*%
%TA.AperFunction,ComponentPad*%
%ADD17R,1.350000X1.350000*%
%TD*%
%TA.AperFunction,ComponentPad*%
%ADD18C,2.300000*%
%TD*%
%TA.AperFunction,ComponentPad*%
%ADD19R,2.300000X2.300000*%
%TD*%
%TA.AperFunction,ComponentPad*%
%ADD20R,2.000000X2.000000*%
%TD*%
%TA.AperFunction,ComponentPad*%
%ADD21C,2.000000*%
%TD*%
%TA.AperFunction,ComponentPad*%
%ADD22C,3.200000*%
%TD*%
%TA.AperFunction,SMDPad,CuDef*%
%ADD23R,0.800000X0.900000*%
%TD*%
%TA.AperFunction,ComponentPad*%
%ADD24C,5.600000*%
%TD*%
%TA.AperFunction,ComponentPad*%
%ADD25C,1.600000*%
%TD*%
%TA.AperFunction,ComponentPad*%
%ADD26R,1.600000X1.600000*%
%TD*%
%TA.AperFunction,ViaPad*%
%ADD27C,0.800000*%
%TD*%
%TA.AperFunction,Conductor*%
%ADD28C,0.508000*%
%TD*%
%TA.AperFunction,Conductor*%
%ADD29C,0.254000*%
%TD*%
%TA.AperFunction,Conductor*%
%ADD30C,1.270000*%
%TD*%
%TA.AperFunction,Conductor*%
%ADD31C,0.100000*%
%TD*%
G04 APERTURE END LIST*
D10*
%TO.P,J7,2*%
%TO.N,Net-(F1-Pad1)*%
X212740000Y-99060000D03*
%TO.P,J7,1*%
%TO.N,Net-(J7-Pad1)*%
%TA.AperFunction,ComponentPad*%
G36*
G01*
X203990000Y-100559999D02*
X203990000Y-97560001D01*
G75*
G02*
X204240001Y-97310000I250001J0D01*
G01*
X207239999Y-97310000D01*
G75*
G02*
X207490000Y-97560001I0J-250001D01*
G01*
X207490000Y-100559999D01*
G75*
G02*
X207239999Y-100810000I-250001J0D01*
G01*
X204240001Y-100810000D01*
G75*
G02*
X203990000Y-100559999I0J250001D01*
G01*
G37*
%TD.AperFunction*%
%TD*%
D11*
%TO.P,J1,2*%
%TO.N,Net-(J1-Pad2)*%
X198882000Y-84582000D03*
D12*
%TO.P,J1,1*%
%TO.N,Net-(J1-Pad1)*%
X198882000Y-82042000D03*
%TD*%
D13*
%TO.P,J6,4*%
%TO.N,GND*%
X144406000Y-62738000D03*
%TO.P,J6,3*%
X141906000Y-62738000D03*
%TO.P,J6,2*%
%TO.N,+24V*%
X139406000Y-62738000D03*
%TO.P,J6,1*%
%TO.N,Net-(J6-Pad1)*%
%TA.AperFunction,ComponentPad*%
G36*
G01*
X136056000Y-63463000D02*
X136056000Y-62013000D01*
G75*
G02*
X136306000Y-61763000I250000J0D01*
G01*
X137506000Y-61763000D01*
G75*
G02*
X137756000Y-62013000I0J-250000D01*
G01*
X137756000Y-63463000D01*
G75*
G02*
X137506000Y-63713000I-250000J0D01*
G01*
X136306000Y-63713000D01*
G75*
G02*
X136056000Y-63463000I0J250000D01*
G01*
G37*
%TD.AperFunction*%
%TD*%
%TO.P,J5,3*%
%TO.N,Net-(J5-Pad3)*%
X157000000Y-62738000D03*
%TO.P,J5,2*%
%TO.N,GND*%
X154500000Y-62738000D03*
%TO.P,J5,1*%
%TO.N,+24V*%
%TA.AperFunction,ComponentPad*%
G36*
G01*
X151150000Y-63463000D02*
X151150000Y-62013000D01*
G75*
G02*
X151400000Y-61763000I250000J0D01*
G01*
X152600000Y-61763000D01*
G75*
G02*
X152850000Y-62013000I0J-250000D01*
G01*
X152850000Y-63463000D01*
G75*
G02*
X152600000Y-63713000I-250000J0D01*
G01*
X151400000Y-63713000D01*
G75*
G02*
X151150000Y-63463000I0J250000D01*
G01*
G37*
%TD.AperFunction*%
%TD*%
D11*
%TO.P,J8,4*%
%TO.N,GND*%
X150876000Y-92456000D03*
%TO.P,J8,3*%
%TO.N,/mcu/RX*%
X150876000Y-89916000D03*
%TO.P,J8,2*%
%TO.N,/mcu/TX*%
X150876000Y-87376000D03*
D12*
%TO.P,J8,1*%
%TO.N,+3V3*%
X150876000Y-84836000D03*
%TD*%
%TO.P,F1,2*%
%TO.N,GND*%
%TA.AperFunction,SMDPad,CuDef*%
G36*
G01*
X210553000Y-102753000D02*
X210553000Y-104003000D01*
G75*
G02*
X210303000Y-104253000I-250000J0D01*
G01*
X209553000Y-104253000D01*
G75*
G02*
X209303000Y-104003000I0J250000D01*
G01*
X209303000Y-102753000D01*
G75*
G02*
X209553000Y-102503000I250000J0D01*
G01*
X210303000Y-102503000D01*
G75*
G02*
X210553000Y-102753000I0J-250000D01*
G01*
G37*
%TD.AperFunction*%
%TO.P,F1,1*%
%TO.N,Net-(F1-Pad1)*%
%TA.AperFunction,SMDPad,CuDef*%
G36*
G01*
X213353000Y-102753000D02*
X213353000Y-104003000D01*
G75*
G02*
X213103000Y-104253000I-250000J0D01*
G01*
X212353000Y-104253000D01*
G75*
G02*
X212103000Y-104003000I0J250000D01*
G01*
X212103000Y-102753000D01*
G75*
G02*
X212353000Y-102503000I250000J0D01*
G01*
X213103000Y-102503000D01*
G75*
G02*
X213353000Y-102753000I0J-250000D01*
G01*
G37*
%TD.AperFunction*%
%TD*%
D14*
%TO.P,TP8,1*%
%TO.N,/display/RESET_DISPLAY*%
X172212000Y-100838000D03*
%TD*%
%TO.P,TP6,1*%
%TO.N,/display/SDA*%
X164084000Y-103632000D03*
%TD*%
%TO.P,TP4,1*%
%TO.N,Net-(Q3-Pad1)*%
X176276000Y-105918000D03*
%TD*%
%TO.P,TP11,1*%
%TO.N,/display/SCL*%
X166116000Y-100838000D03*
%TD*%
%TO.P,J3,3*%
%TO.N,N/C*%
%TA.AperFunction,ComponentPad*%
G36*
G01*
X140175000Y-100750000D02*
X138425000Y-100750000D01*
G75*
G02*
X137550000Y-99875000I0J875000D01*
G01*
X137550000Y-98125000D01*
G75*
G02*
X138425000Y-97250000I875000J0D01*
G01*
X140175000Y-97250000D01*
G75*
G02*
X141050000Y-98125000I0J-875000D01*
G01*
X141050000Y-99875000D01*
G75*
G02*
X140175000Y-100750000I-875000J0D01*
G01*
G37*
%TD.AperFunction*%
%TO.P,J3,2*%
%TO.N,GND*%
%TA.AperFunction,ComponentPad*%
G36*
G01*
X145000000Y-103500000D02*
X143000000Y-103500000D01*
G75*
G02*
X142250000Y-102750000I0J750000D01*
G01*
X142250000Y-101250000D01*
G75*
G02*
X143000000Y-100500000I750000J0D01*
G01*
X145000000Y-100500000D01*
G75*
G02*
X145750000Y-101250000I0J-750000D01*
G01*
X145750000Y-102750000D01*
G75*
G02*
X145000000Y-103500000I-750000J0D01*
G01*
G37*
%TD.AperFunction*%
D15*
%TO.P,J3,1*%
%TO.N,+24V*%
X144000000Y-96000000D03*
%TD*%
D16*
%TO.P,J2,12*%
%TO.N,Net-(C3-Pad1)*%
X150212000Y-97536000D03*
%TO.P,J2,11*%
%TO.N,Net-(C3-Pad2)*%
X152212000Y-97536000D03*
%TO.P,J2,10*%
%TO.N,GND*%
X154212000Y-97536000D03*
%TO.P,J2,9*%
%TO.N,Net-(J2-Pad9)*%
X156212000Y-97536000D03*
%TO.P,J2,8*%
%TO.N,N/C*%
X158212000Y-97536000D03*
%TO.P,J2,7*%
%TO.N,+3V3*%
X160212000Y-97536000D03*
%TO.P,J2,6*%
%TO.N,GND*%
X162212000Y-97536000D03*
%TO.P,J2,5*%
%TO.N,/display/SDA*%
X164212000Y-97536000D03*
%TO.P,J2,4*%
%TO.N,/display/SCL*%
X166212000Y-97536000D03*
%TO.P,J2,3*%
%TO.N,N/C*%
X168212000Y-97536000D03*
%TO.P,J2,2*%
X170212000Y-97536000D03*
D17*
%TO.P,J2,1*%
%TO.N,/display/RESET_DISPLAY*%
X172212000Y-97536000D03*
%TD*%
D18*
%TO.P,K1,5*%
%TO.N,+24V*%
X181102000Y-105918000D03*
%TO.P,K1,3*%
X198882000Y-98298000D03*
%TO.P,K1,2*%
%TO.N,Net-(J7-Pad1)*%
X191262000Y-98298000D03*
D19*
%TO.P,K1,1*%
%TO.N,Net-(K1-Pad1)*%
X181102000Y-98298000D03*
%TD*%
D20*
%TO.P,SW2,A*%
%TO.N,Net-(R9-Pad1)*%
X205994000Y-80518000D03*
D21*
%TO.P,SW2,C*%
%TO.N,+3V3*%
X205994000Y-83018000D03*
%TO.P,SW2,B*%
%TO.N,Net-(R10-Pad1)*%
X205994000Y-85518000D03*
D22*
%TO.P,SW2,MP*%
%TO.N,N/C*%
X213494000Y-77418000D03*
X213494000Y-88618000D03*
D21*
%TO.P,SW2,S2*%
%TO.N,Net-(R11-Pad2)*%
X220494000Y-80518000D03*
%TO.P,SW2,S1*%
%TO.N,+3V3*%
X220494000Y-85518000D03*
%TD*%
%TO.P,R6,2*%
%TO.N,+3V3*%
%TA.AperFunction,SMDPad,CuDef*%
G36*
G01*
X160006000Y-101023000D02*
X160006000Y-100653000D01*
G75*
G02*
X160141000Y-100518000I135000J0D01*
G01*
X160411000Y-100518000D01*
G75*
G02*
X160546000Y-100653000I0J-135000D01*
G01*
X160546000Y-101023000D01*
G75*
G02*
X160411000Y-101158000I-135000J0D01*
G01*
X160141000Y-101158000D01*
G75*
G02*
X160006000Y-101023000I0J135000D01*
G01*
G37*
%TD.AperFunction*%
%TO.P,R6,1*%
%TO.N,Net-(J2-Pad9)*%
%TA.AperFunction,SMDPad,CuDef*%
G36*
G01*
X158986000Y-101023000D02*
X158986000Y-100653000D01*
G75*
G02*
X159121000Y-100518000I135000J0D01*
G01*
X159391000Y-100518000D01*
G75*
G02*
X159526000Y-100653000I0J-135000D01*
G01*
X159526000Y-101023000D01*
G75*
G02*
X159391000Y-101158000I-135000J0D01*
G01*
X159121000Y-101158000D01*
G75*
G02*
X158986000Y-101023000I0J135000D01*
G01*
G37*
%TD.AperFunction*%
%TD*%
%TO.P,R4,2*%
%TO.N,GND*%
%TA.AperFunction,SMDPad,CuDef*%
G36*
G01*
X217101000Y-71640000D02*
X216731000Y-71640000D01*
G75*
G02*
X216596000Y-71505000I0J135000D01*
G01*
X216596000Y-71235000D01*
G75*
G02*
X216731000Y-71100000I135000J0D01*
G01*
X217101000Y-71100000D01*
G75*
G02*
X217236000Y-71235000I0J-135000D01*
G01*
X217236000Y-71505000D01*
G75*
G02*
X217101000Y-71640000I-135000J0D01*
G01*
G37*
%TD.AperFunction*%
%TO.P,R4,1*%
%TO.N,Net-(D2-Pad1)*%
%TA.AperFunction,SMDPad,CuDef*%
G36*
G01*
X217101000Y-72660000D02*
X216731000Y-72660000D01*
G75*
G02*
X216596000Y-72525000I0J135000D01*
G01*
X216596000Y-72255000D01*
G75*
G02*
X216731000Y-72120000I135000J0D01*
G01*
X217101000Y-72120000D01*
G75*
G02*
X217236000Y-72255000I0J-135000D01*
G01*
X217236000Y-72525000D01*
G75*
G02*
X217101000Y-72660000I-135000J0D01*
G01*
G37*
%TD.AperFunction*%
%TD*%
%TO.P,R3,2*%
%TO.N,GND*%
%TA.AperFunction,SMDPad,CuDef*%
G36*
G01*
X214941000Y-64604000D02*
X214571000Y-64604000D01*
G75*
G02*
X214436000Y-64469000I0J135000D01*
G01*
X214436000Y-64199000D01*
G75*
G02*
X214571000Y-64064000I135000J0D01*
G01*
X214941000Y-64064000D01*
G75*
G02*
X215076000Y-64199000I0J-135000D01*
G01*
X215076000Y-64469000D01*
G75*
G02*
X214941000Y-64604000I-135000J0D01*
G01*
G37*
%TD.AperFunction*%
%TO.P,R3,1*%
%TO.N,Net-(D1-Pad1)*%
%TA.AperFunction,SMDPad,CuDef*%
G36*
G01*
X214941000Y-65624000D02*
X214571000Y-65624000D01*
G75*
G02*
X214436000Y-65489000I0J135000D01*
G01*
X214436000Y-65219000D01*
G75*
G02*
X214571000Y-65084000I135000J0D01*
G01*
X214941000Y-65084000D01*
G75*
G02*
X215076000Y-65219000I0J-135000D01*
G01*
X215076000Y-65489000D01*
G75*
G02*
X214941000Y-65624000I-135000J0D01*
G01*
G37*
%TD.AperFunction*%
%TD*%
%TO.P,R2,2*%
%TO.N,Net-(Q2-Pad1)*%
%TA.AperFunction,SMDPad,CuDef*%
G36*
G01*
X206106000Y-66553000D02*
X206106000Y-66183000D01*
G75*
G02*
X206241000Y-66048000I135000J0D01*
G01*
X206511000Y-66048000D01*
G75*
G02*
X206646000Y-66183000I0J-135000D01*
G01*
X206646000Y-66553000D01*
G75*
G02*
X206511000Y-66688000I-135000J0D01*
G01*
X206241000Y-66688000D01*
G75*
G02*
X206106000Y-66553000I0J135000D01*
G01*
G37*
%TD.AperFunction*%
%TO.P,R2,1*%
%TO.N,/mcu/ERROR_OUT*%
%TA.AperFunction,SMDPad,CuDef*%
G36*
G01*
X205086000Y-66553000D02*
X205086000Y-66183000D01*
G75*
G02*
X205221000Y-66048000I135000J0D01*
G01*
X205491000Y-66048000D01*
G75*
G02*
X205626000Y-66183000I0J-135000D01*
G01*
X205626000Y-66553000D01*
G75*
G02*
X205491000Y-66688000I-135000J0D01*
G01*
X205221000Y-66688000D01*
G75*
G02*
X205086000Y-66553000I0J135000D01*
G01*
G37*
%TD.AperFunction*%
%TD*%
%TO.P,R1,2*%
%TO.N,Net-(Q1-Pad1)*%
%TA.AperFunction,SMDPad,CuDef*%
G36*
G01*
X206486000Y-73083000D02*
X206486000Y-72713000D01*
G75*
G02*
X206621000Y-72578000I135000J0D01*
G01*
X206891000Y-72578000D01*
G75*
G02*
X207026000Y-72713000I0J-135000D01*
G01*
X207026000Y-73083000D01*
G75*
G02*
X206891000Y-73218000I-135000J0D01*
G01*
X206621000Y-73218000D01*
G75*
G02*
X206486000Y-73083000I0J135000D01*
G01*
G37*
%TD.AperFunction*%
%TO.P,R1,1*%
%TO.N,/mcu/NORMAL_OPERATION_OUT*%
%TA.AperFunction,SMDPad,CuDef*%
G36*
G01*
X205466000Y-73083000D02*
X205466000Y-72713000D01*
G75*
G02*
X205601000Y-72578000I135000J0D01*
G01*
X205871000Y-72578000D01*
G75*
G02*
X206006000Y-72713000I0J-135000D01*
G01*
X206006000Y-73083000D01*
G75*
G02*
X205871000Y-73218000I-135000J0D01*
G01*
X205601000Y-73218000D01*
G75*
G02*
X205466000Y-73083000I0J135000D01*
G01*
G37*
%TD.AperFunction*%
%TD*%
D23*
%TO.P,Q2,3*%
%TO.N,Net-(D1-Pad2)*%
X209550000Y-67294000D03*
%TO.P,Q2,2*%
%TO.N,+3V3*%
X208600000Y-65294000D03*
%TO.P,Q2,1*%
%TO.N,Net-(Q2-Pad1)*%
X210500000Y-65294000D03*
%TD*%
%TO.P,Q1,3*%
%TO.N,Net-(D2-Pad2)*%
X209804000Y-73898000D03*
%TO.P,Q1,2*%
%TO.N,+3V3*%
X208854000Y-71898000D03*
%TO.P,Q1,1*%
%TO.N,Net-(Q1-Pad1)*%
X210754000Y-71898000D03*
%TD*%
D24*
%TO.P,H4,1*%
%TO.N,N/C*%
X129000000Y-60000000D03*
%TD*%
%TO.P,H3,1*%
%TO.N,N/C*%
X129000000Y-105000000D03*
%TD*%
%TO.P,H2,1*%
%TO.N,N/C*%
X219000000Y-60000000D03*
%TD*%
%TO.P,H1,1*%
%TO.N,N/C*%
X219000000Y-105000000D03*
%TD*%
%TO.P,D2,2*%
%TO.N,Net-(D2-Pad2)*%
%TA.AperFunction,SMDPad,CuDef*%
G36*
G01*
X213496500Y-71425750D02*
X213496500Y-72338250D01*
G75*
G02*
X213252750Y-72582000I-243750J0D01*
G01*
X212765250Y-72582000D01*
G75*
G02*
X212521500Y-72338250I0J243750D01*
G01*
X212521500Y-71425750D01*
G75*
G02*
X212765250Y-71182000I243750J0D01*
G01*
X213252750Y-71182000D01*
G75*
G02*
X213496500Y-71425750I0J-243750D01*
G01*
G37*
%TD.AperFunction*%
%TO.P,D2,1*%
%TO.N,Net-(D2-Pad1)*%
%TA.AperFunction,SMDPad,CuDef*%
G36*
G01*
X215371500Y-71425750D02*
X215371500Y-72338250D01*
G75*
G02*
X215127750Y-72582000I-243750J0D01*
G01*
X214640250Y-72582000D01*
G75*
G02*
X214396500Y-72338250I0J243750D01*
G01*
X214396500Y-71425750D01*
G75*
G02*
X214640250Y-71182000I243750J0D01*
G01*
X215127750Y-71182000D01*
G75*
G02*
X215371500Y-71425750I0J-243750D01*
G01*
G37*
%TD.AperFunction*%
%TD*%
%TO.P,D1,2*%
%TO.N,Net-(D1-Pad2)*%
%TA.AperFunction,SMDPad,CuDef*%
G36*
G01*
X213465500Y-66673750D02*
X213465500Y-67586250D01*
G75*
G02*
X213221750Y-67830000I-243750J0D01*
G01*
X212734250Y-67830000D01*
G75*
G02*
X212490500Y-67586250I0J243750D01*
G01*
X212490500Y-66673750D01*
G75*
G02*
X212734250Y-66430000I243750J0D01*
G01*
X213221750Y-66430000D01*
G75*
G02*
X213465500Y-66673750I0J-243750D01*
G01*
G37*
%TD.AperFunction*%
%TO.P,D1,1*%
%TO.N,Net-(D1-Pad1)*%
%TA.AperFunction,SMDPad,CuDef*%
G36*
G01*
X215340500Y-66673750D02*
X215340500Y-67586250D01*
G75*
G02*
X215096750Y-67830000I-243750J0D01*
G01*
X214609250Y-67830000D01*
G75*
G02*
X214365500Y-67586250I0J243750D01*
G01*
X214365500Y-66673750D01*
G75*
G02*
X214609250Y-66430000I243750J0D01*
G01*
X215096750Y-66430000D01*
G75*
G02*
X215340500Y-66673750I0J-243750D01*
G01*
G37*
%TD.AperFunction*%
%TD*%
D25*
%TO.P,C6,2*%
%TO.N,GND*%
X149352000Y-80986000D03*
D26*
%TO.P,C6,1*%
%TO.N,+3V3*%
X149352000Y-78486000D03*
%TD*%
%TO.P,C4,2*%
%TO.N,GND*%
%TA.AperFunction,SMDPad,CuDef*%
G36*
G01*
X135694000Y-92489000D02*
X135694000Y-93439000D01*
G75*
G02*
X135444000Y-93689000I-250000J0D01*
G01*
X134944000Y-93689000D01*
G75*
G02*
X134694000Y-93439000I0J250000D01*
G01*
X134694000Y-92489000D01*
G75*
G02*
X134944000Y-92239000I250000J0D01*
G01*
X135444000Y-92239000D01*
G75*
G02*
X135694000Y-92489000I0J-250000D01*
G01*
G37*
%TD.AperFunction*%
%TO.P,C4,1*%
%TO.N,+24V*%
%TA.AperFunction,SMDPad,CuDef*%
G36*
G01*
X137594000Y-92489000D02*
X137594000Y-93439000D01*
G75*
G02*
X137344000Y-93689000I-250000J0D01*
G01*
X136844000Y-93689000D01*
G75*
G02*
X136594000Y-93439000I0J250000D01*
G01*
X136594000Y-92489000D01*
G75*
G02*
X136844000Y-92239000I250000J0D01*
G01*
X137344000Y-92239000D01*
G75*
G02*
X137594000Y-92489000I0J-250000D01*
G01*
G37*
%TD.AperFunction*%
%TD*%
%TO.P,C3,2*%
%TO.N,Net-(C3-Pad2)*%
%TA.AperFunction,SMDPad,CuDef*%
G36*
G01*
X151330000Y-101008000D02*
X151330000Y-100668000D01*
G75*
G02*
X151470000Y-100528000I140000J0D01*
G01*
X151750000Y-100528000D01*
G75*
G02*
X151890000Y-100668000I0J-140000D01*
G01*
X151890000Y-101008000D01*
G75*
G02*
X151750000Y-101148000I-140000J0D01*
G01*
X151470000Y-101148000D01*
G75*
G02*
X151330000Y-101008000I0J140000D01*
G01*
G37*
%TD.AperFunction*%
%TO.P,C3,1*%
%TO.N,Net-(C3-Pad1)*%
%TA.AperFunction,SMDPad,CuDef*%
G36*
G01*
X150370000Y-101008000D02*
X150370000Y-100668000D01*
G75*
G02*
X150510000Y-100528000I140000J0D01*
G01*
X150790000Y-100528000D01*
G75*
G02*
X150930000Y-100668000I0J-140000D01*
G01*
X150930000Y-101008000D01*
G75*
G02*
X150790000Y-101148000I-140000J0D01*
G01*
X150510000Y-101148000D01*
G75*
G02*
X150370000Y-101008000I0J140000D01*
G01*
G37*
%TD.AperFunction*%
%TD*%
%TO.P,C2,1*%
%TO.N,+3V3*%
%TA.AperFunction,SMDPad,CuDef*%
G36*
G01*
X161882000Y-100586000D02*
X162222000Y-100586000D01*
G75*
G02*
X162362000Y-100726000I0J-140000D01*
G01*
X162362000Y-101006000D01*
G75*
G02*
X162222000Y-101146000I-140000J0D01*
G01*
X161882000Y-101146000D01*
G75*
G02*
X161742000Y-101006000I0J140000D01*
G01*
X161742000Y-100726000D01*
G75*
G02*
X161882000Y-100586000I140000J0D01*
G01*
G37*
%TD.AperFunction*%
%TO.P,C2,2*%
%TO.N,GND*%
%TA.AperFunction,SMDPad,CuDef*%
G36*
G01*
X161882000Y-101546000D02*
X162222000Y-101546000D01*
G75*
G02*
X162362000Y-101686000I0J-140000D01*
G01*
X162362000Y-101966000D01*
G75*
G02*
X162222000Y-102106000I-140000J0D01*
G01*
X161882000Y-102106000D01*
G75*
G02*
X161742000Y-101966000I0J140000D01*
G01*
X161742000Y-101686000D01*
G75*
G02*
X161882000Y-101546000I140000J0D01*
G01*
G37*
%TD.AperFunction*%
%TD*%
D27*
%TO.N,+24V*%
X200403999Y-78737999D03*
X204470000Y-91186000D03*
%TO.N,GND*%
X158750000Y-89154000D03*
X158750000Y-93472000D03*
X196088000Y-81026000D03*
X200406000Y-86360000D03*
%TO.N,/display/SCL*%
X169418000Y-86868000D03*
%TO.N,/mcu/NORMAL_OPERATION_OUT*%
X201929994Y-72898000D03*
%TO.N,/mcu/ERROR_OUT*%
X201929992Y-69088000D03*
%TO.N,+3V3*%
X184912000Y-76708000D03*
X203691986Y-65294000D03*
X160212000Y-90740000D03*
%TO.N,Net-(Q3-Pad1)*%
X178054000Y-98806000D03*
%TO.N,Net-(J1-Pad2)*%
X198882000Y-88392000D03*
%TO.N,/display/BACKLIGHT_LCD*%
X184912000Y-93218000D03*
X170942000Y-89154000D03*
%TO.N,/display/SDA*%
X168148000Y-86868000D03*
%TO.N,Net-(R13-Pad2)*%
X177800000Y-77978000D03*
X157480000Y-85344000D03*
%TO.N,Net-(D4-Pad1)*%
X155194000Y-78740000D03*
X157988000Y-81534000D03*
%TO.N,Net-(D5-Pad1)*%
X156972000Y-82296000D03*
X156972000Y-82296000D03*
X154178000Y-79502000D03*
%TD*%
D28*
%TO.N,+24V*%
X137094000Y-92964000D02*
X138430000Y-92964000D01*
X141466000Y-96000000D02*
X144000000Y-96000000D01*
X138430000Y-92964000D02*
X141466000Y-96000000D01*
X139406000Y-64746000D02*
X139406000Y-62738000D01*
X139406000Y-73366000D02*
X139406000Y-64746000D01*
X144000000Y-77960000D02*
X139406000Y-73366000D01*
X144000000Y-96000000D02*
X144000000Y-77960000D01*
X139406000Y-61000000D02*
X140208000Y-60198000D01*
X140208000Y-60198000D02*
X151130000Y-60198000D01*
X151130000Y-60198000D02*
X152000000Y-61068000D01*
X139406000Y-62738000D02*
X139406000Y-61000000D01*
D29*
X204470000Y-91186000D02*
X204470000Y-91186000D01*
D28*
X152000000Y-61068000D02*
X152000000Y-62738000D01*
D29*
X204470000Y-90170000D02*
X204470000Y-91186000D01*
X202438000Y-88138000D02*
X204470000Y-90170000D01*
X202438000Y-81280000D02*
X202438000Y-88138000D01*
X200403999Y-79245999D02*
X202438000Y-81280000D01*
X200403999Y-78737999D02*
X200403999Y-79245999D01*
%TO.N,Net-(C3-Pad2)*%
X152212000Y-97536000D02*
X152212000Y-98486000D01*
X151610000Y-99088000D02*
X151610000Y-100076000D01*
X152212000Y-98486000D02*
X151610000Y-99088000D01*
X151610000Y-100076000D02*
X151610000Y-100838000D01*
%TO.N,Net-(C3-Pad1)*%
X150212000Y-98904000D02*
X150212000Y-97536000D01*
X150650000Y-99342000D02*
X150212000Y-98904000D01*
X150650000Y-99794000D02*
X150650000Y-100838000D01*
X150650000Y-100076000D02*
X150650000Y-99794000D01*
X150650000Y-99794000D02*
X150650000Y-99342000D01*
%TO.N,Net-(D1-Pad2)*%
X209640000Y-67384000D02*
X209550000Y-67294000D01*
X212978000Y-67130000D02*
X209640000Y-67130000D01*
%TO.N,Net-(D1-Pad1)*%
X214853000Y-65451000D02*
X214756000Y-65354000D01*
X214853000Y-67130000D02*
X214853000Y-65451000D01*
%TO.N,Net-(D2-Pad2)*%
X209804000Y-73898000D02*
X212360000Y-73898000D01*
X213009000Y-73249000D02*
X213009000Y-71882000D01*
X212360000Y-73898000D02*
X213009000Y-73249000D01*
%TO.N,Net-(D2-Pad1)*%
X214884000Y-71882000D02*
X215646000Y-71882000D01*
X216154000Y-72390000D02*
X216916000Y-72390000D01*
X215646000Y-71882000D02*
X216154000Y-72390000D01*
%TO.N,/display/SCL*%
X166116000Y-97632000D02*
X166212000Y-97536000D01*
X166116000Y-100838000D02*
X166116000Y-97632000D01*
X169418000Y-90170000D02*
X169418000Y-86868000D01*
X166212000Y-93376000D02*
X169418000Y-90170000D01*
X166212000Y-97536000D02*
X166212000Y-93376000D01*
%TO.N,Net-(Q1-Pad1)*%
X206756000Y-72898000D02*
X210566000Y-72898000D01*
X210754000Y-72710000D02*
X210754000Y-71898000D01*
X210566000Y-72898000D02*
X210754000Y-72710000D01*
%TO.N,Net-(Q2-Pad1)*%
X206376000Y-66368000D02*
X210238000Y-66368000D01*
X210500000Y-66106000D02*
X210500000Y-65294000D01*
X210238000Y-66368000D02*
X210500000Y-66106000D01*
%TO.N,/mcu/NORMAL_OPERATION_OUT*%
X205736000Y-72898000D02*
X201929994Y-72898000D01*
%TO.N,/mcu/ERROR_OUT*%
X201929992Y-68834008D02*
X201929992Y-69088000D01*
X204396000Y-66368000D02*
X201929992Y-68834008D01*
X205356000Y-66368000D02*
X204396000Y-66368000D01*
D28*
%TO.N,+3V3*%
X183261000Y-78359000D02*
X184912000Y-76708000D01*
X183261000Y-84963000D02*
X183261000Y-78359000D01*
X208854000Y-71898000D02*
X202200000Y-71898000D01*
X202200000Y-71898000D02*
X200894998Y-70592998D01*
X200894998Y-70592998D02*
X200894998Y-68090988D01*
X200894998Y-68090988D02*
X203691986Y-65294000D01*
X208600000Y-65294000D02*
X203691986Y-65294000D01*
X160212000Y-97536000D02*
X160212000Y-90740000D01*
D29*
X160306000Y-100866000D02*
X160274000Y-100834000D01*
X162052000Y-100866000D02*
X160306000Y-100866000D01*
D28*
X203692000Y-65294000D02*
X203692000Y-65294000D01*
D29*
X160274000Y-100834000D02*
X160274000Y-97598000D01*
X160274000Y-97598000D02*
X160212000Y-97536000D01*
D28*
X180975000Y-84963000D02*
X183261000Y-84963000D01*
X160039002Y-86887002D02*
X163556998Y-86887002D01*
X165481000Y-84963000D02*
X180975000Y-84963000D01*
X163556998Y-86887002D02*
X165481000Y-84963000D01*
X149352000Y-78486000D02*
X150622000Y-78486000D01*
X151130000Y-84582000D02*
X150876000Y-84836000D01*
X151130000Y-78994000D02*
X151130000Y-84582000D01*
X150622000Y-78486000D02*
X151130000Y-78994000D01*
X155213002Y-86887002D02*
X160000998Y-86887002D01*
X153162000Y-84836000D02*
X155213002Y-86887002D01*
X150876000Y-84836000D02*
X153162000Y-84836000D01*
X160212000Y-87060000D02*
X160039002Y-86887002D01*
X160212000Y-90740000D02*
X160212000Y-87060000D01*
X211796000Y-83018000D02*
X205994000Y-83018000D01*
X214296000Y-85518000D02*
X211796000Y-83018000D01*
X220494000Y-85518000D02*
X214296000Y-85518000D01*
X215646000Y-93218000D02*
X220494000Y-88370000D01*
X187960000Y-93218000D02*
X215646000Y-93218000D01*
X220494000Y-88370000D02*
X220494000Y-85518000D01*
X183261000Y-88519000D02*
X187960000Y-93218000D01*
X183261000Y-84963000D02*
X183261000Y-88519000D01*
D30*
%TO.N,Net-(J7-Pad1)*%
X191262000Y-98298000D02*
X191262000Y-100076000D01*
X191262000Y-100076000D02*
X192786000Y-101600000D01*
X192786000Y-101600000D02*
X200660000Y-101600000D01*
X202946000Y-99314000D02*
X205994000Y-99314000D01*
X200660000Y-101600000D02*
X202946000Y-99314000D01*
D29*
%TO.N,Net-(Q3-Pad1)*%
X176276000Y-105918000D02*
X176276000Y-100584000D01*
X176276000Y-100584000D02*
X178054000Y-98806000D01*
X178054000Y-98806000D02*
X178054000Y-98806000D01*
D28*
%TO.N,Net-(R10-Pad1)*%
X205994000Y-85050000D02*
X205907000Y-84963000D01*
D30*
%TO.N,Net-(F1-Pad1)*%
X212740000Y-103366000D02*
X212728000Y-103378000D01*
X212740000Y-99060000D02*
X212740000Y-103366000D01*
D28*
%TO.N,Net-(J1-Pad2)*%
X198882000Y-84582000D02*
X198882000Y-88392000D01*
D29*
%TO.N,/display/BACKLIGHT_LCD*%
X170942000Y-89154000D02*
X170942000Y-89154000D01*
X175260000Y-89154000D02*
X170942000Y-89154000D01*
X179324000Y-93218000D02*
X175260000Y-89154000D01*
X184912000Y-93218000D02*
X179324000Y-93218000D01*
%TO.N,Net-(J2-Pad9)*%
X156210000Y-97538000D02*
X156212000Y-97536000D01*
X156210000Y-99314000D02*
X156210000Y-97538000D01*
X157734000Y-100838000D02*
X156210000Y-99314000D01*
X159256000Y-100838000D02*
X157734000Y-100838000D01*
%TO.N,/display/SDA*%
X164084000Y-97664000D02*
X164212000Y-97536000D01*
X164084000Y-103632000D02*
X164084000Y-97664000D01*
X168148000Y-89408000D02*
X168148000Y-86868000D01*
X164212000Y-93344000D02*
X168148000Y-89408000D01*
X164212000Y-97536000D02*
X164212000Y-93344000D01*
%TO.N,/display/RESET_DISPLAY*%
X172212000Y-97536000D02*
X172212000Y-100838000D01*
%TO.N,Net-(R13-Pad2)*%
X162814000Y-85344000D02*
X157480000Y-85344000D01*
X170180000Y-77978000D02*
X162814000Y-85344000D01*
X177800000Y-77978000D02*
X170180000Y-77978000D01*
%TO.N,Net-(D4-Pad1)*%
X155194000Y-78740000D02*
X157988000Y-81534000D01*
X157988000Y-81534000D02*
X157988000Y-81534000D01*
%TO.N,Net-(D5-Pad1)*%
X156972000Y-82296000D02*
X154178000Y-79502000D01*
X154178000Y-79502000D02*
X154178000Y-79502000D01*
%TD*%
%TO.N,GND*%
X219813246Y-55480194D02*
X220600773Y-55695638D01*
X221337716Y-56047141D01*
X222000760Y-56523587D01*
X222568956Y-57109919D01*
X223024338Y-57787600D01*
X223352519Y-58535216D01*
X223543870Y-59332251D01*
X223594000Y-60014892D01*
X223594001Y-104981904D01*
X223519806Y-105813246D01*
X223304362Y-106600774D01*
X222952859Y-107337716D01*
X222476413Y-108000760D01*
X221890081Y-108568956D01*
X221212400Y-109024338D01*
X220464784Y-109352519D01*
X219667749Y-109543870D01*
X218985108Y-109594000D01*
X129018085Y-109594000D01*
X128186754Y-109519806D01*
X127399226Y-109304362D01*
X126662284Y-108952859D01*
X125999240Y-108476413D01*
X125431044Y-107890081D01*
X124975662Y-107212400D01*
X124647481Y-106464784D01*
X124456130Y-105667749D01*
X124406000Y-104985108D01*
X124406000Y-104686699D01*
X125819000Y-104686699D01*
X125819000Y-105313301D01*
X125941245Y-105927863D01*
X126181035Y-106506768D01*
X126529156Y-107027769D01*
X126972231Y-107470844D01*
X127493232Y-107818965D01*
X128072137Y-108058755D01*
X128686699Y-108181000D01*
X129313301Y-108181000D01*
X129927863Y-108058755D01*
X130506768Y-107818965D01*
X131027769Y-107470844D01*
X131470844Y-107027769D01*
X131818965Y-106506768D01*
X132058755Y-105927863D01*
X132082874Y-105806606D01*
X175145000Y-105806606D01*
X175145000Y-106029394D01*
X175188464Y-106247900D01*
X175273721Y-106453729D01*
X175397495Y-106638970D01*
X175555030Y-106796505D01*
X175740271Y-106920279D01*
X175946100Y-107005536D01*
X176164606Y-107049000D01*
X176387394Y-107049000D01*
X176605900Y-107005536D01*
X176811729Y-106920279D01*
X176996970Y-106796505D01*
X177154505Y-106638970D01*
X177278279Y-106453729D01*
X177363536Y-106247900D01*
X177407000Y-106029394D01*
X177407000Y-105806606D01*
X177399164Y-105767210D01*
X179571000Y-105767210D01*
X179571000Y-106068790D01*
X179629835Y-106364576D01*
X179745245Y-106643201D01*
X179912795Y-106893956D01*
X180126044Y-107107205D01*
X180376799Y-107274755D01*
X180655424Y-107390165D01*
X180951210Y-107449000D01*
X181252790Y-107449000D01*
X181548576Y-107390165D01*
X181827201Y-107274755D01*
X182077956Y-107107205D01*
X182291205Y-106893956D01*
X182458755Y-106643201D01*
X182574165Y-106364576D01*
X182633000Y-106068790D01*
X182633000Y-105767210D01*
X182574165Y-105471424D01*
X182458755Y-105192799D01*
X182291205Y-104942044D01*
X182077956Y-104728795D01*
X182014956Y-104686699D01*
X215819000Y-104686699D01*
X215819000Y-105313301D01*
X215941245Y-105927863D01*
X216181035Y-106506768D01*
X216529156Y-107027769D01*
X216972231Y-107470844D01*
X217493232Y-107818965D01*
X218072137Y-108058755D01*
X218686699Y-108181000D01*
X219313301Y-108181000D01*
X219927863Y-108058755D01*
X220506768Y-107818965D01*
X221027769Y-107470844D01*
X221470844Y-107027769D01*
X221818965Y-106506768D01*
X222058755Y-105927863D01*
X222181000Y-105313301D01*
X222181000Y-104686699D01*
X222058755Y-104072137D01*
X221818965Y-103493232D01*
X221470844Y-102972231D01*
X221027769Y-102529156D01*
X220506768Y-102181035D01*
X219927863Y-101941245D01*
X219313301Y-101819000D01*
X218686699Y-101819000D01*
X218072137Y-101941245D01*
X217493232Y-102181035D01*
X216972231Y-102529156D01*
X216529156Y-102972231D01*
X216181035Y-103493232D01*
X215941245Y-104072137D01*
X215819000Y-104686699D01*
X182014956Y-104686699D01*
X181827201Y-104561245D01*
X181548576Y-104445835D01*
X181252790Y-104387000D01*
X180951210Y-104387000D01*
X180655424Y-104445835D01*
X180376799Y-104561245D01*
X180126044Y-104728795D01*
X179912795Y-104942044D01*
X179745245Y-105192799D01*
X179629835Y-105471424D01*
X179571000Y-105767210D01*
X177399164Y-105767210D01*
X177363536Y-105588100D01*
X177278279Y-105382271D01*
X177154505Y-105197030D01*
X176996970Y-105039495D01*
X176811729Y-104915721D01*
X176784000Y-104904235D01*
X176784000Y-100794420D01*
X177991420Y-99587000D01*
X178130922Y-99587000D01*
X178281809Y-99556987D01*
X178423942Y-99498113D01*
X178551859Y-99412642D01*
X178660642Y-99303859D01*
X178746113Y-99175942D01*
X178804987Y-99033809D01*
X178835000Y-98882922D01*
X178835000Y-98729078D01*
X178804987Y-98578191D01*
X178746113Y-98436058D01*
X178660642Y-98308141D01*
X178551859Y-98199358D01*
X178423942Y-98113887D01*
X178281809Y-98055013D01*
X178130922Y-98025000D01*
X177977078Y-98025000D01*
X177826191Y-98055013D01*
X177684058Y-98113887D01*
X177556141Y-98199358D01*
X177447358Y-98308141D01*
X177361887Y-98436058D01*
X177303013Y-98578191D01*
X177273000Y-98729078D01*
X177273000Y-98868580D01*
X175934430Y-100207150D01*
X175915053Y-100223052D01*
X175899151Y-100242429D01*
X175899150Y-100242430D01*
X175851571Y-100300405D01*
X175804400Y-100388657D01*
X175775352Y-100484416D01*
X175765543Y-100584000D01*
X175768001Y-100608954D01*
X175768000Y-104904235D01*
X175740271Y-104915721D01*
X175555030Y-105039495D01*
X175397495Y-105197030D01*
X175273721Y-105382271D01*
X175188464Y-105588100D01*
X175145000Y-105806606D01*
X132082874Y-105806606D01*
X132181000Y-105313301D01*
X132181000Y-104686699D01*
X132058755Y-104072137D01*
X131830304Y-103520606D01*
X162953000Y-103520606D01*
X162953000Y-103743394D01*
X162996464Y-103961900D01*
X163081721Y-104167729D01*
X163205495Y-104352970D01*
X163363030Y-104510505D01*
X163548271Y-104634279D01*
X163754100Y-104719536D01*
X163972606Y-104763000D01*
X164195394Y-104763000D01*
X164413900Y-104719536D01*
X164619729Y-104634279D01*
X164804970Y-104510505D01*
X164962505Y-104352970D01*
X165086279Y-104167729D01*
X165171536Y-103961900D01*
X165215000Y-103743394D01*
X165215000Y-103520606D01*
X165171536Y-103302100D01*
X165086279Y-103096271D01*
X164962505Y-102911030D01*
X164804970Y-102753495D01*
X164619729Y-102629721D01*
X164592000Y-102618235D01*
X164592000Y-98521605D01*
X164712204Y-98471815D01*
X164885161Y-98356249D01*
X165032249Y-98209161D01*
X165147815Y-98036204D01*
X165212000Y-97881249D01*
X165276185Y-98036204D01*
X165391751Y-98209161D01*
X165538839Y-98356249D01*
X165608001Y-98402461D01*
X165608000Y-99824235D01*
X165580271Y-99835721D01*
X165395030Y-99959495D01*
X165237495Y-100117030D01*
X165113721Y-100302271D01*
X165028464Y-100508100D01*
X164985000Y-100726606D01*
X164985000Y-100949394D01*
X165028464Y-101167900D01*
X165113721Y-101373729D01*
X165237495Y-101558970D01*
X165395030Y-101716505D01*
X165580271Y-101840279D01*
X165786100Y-101925536D01*
X166004606Y-101969000D01*
X166227394Y-101969000D01*
X166445900Y-101925536D01*
X166651729Y-101840279D01*
X166836970Y-101716505D01*
X166994505Y-101558970D01*
X167118279Y-101373729D01*
X167203536Y-101167900D01*
X167247000Y-100949394D01*
X167247000Y-100726606D01*
X167203536Y-100508100D01*
X167118279Y-100302271D01*
X166994505Y-100117030D01*
X166836970Y-99959495D01*
X166651729Y-99835721D01*
X166624000Y-99824235D01*
X166624000Y-98508350D01*
X166712204Y-98471815D01*
X166885161Y-98356249D01*
X167032249Y-98209161D01*
X167147815Y-98036204D01*
X167212000Y-97881249D01*
X167276185Y-98036204D01*
X167391751Y-98209161D01*
X167538839Y-98356249D01*
X167711796Y-98471815D01*
X167903976Y-98551419D01*
X168107993Y-98592000D01*
X168316007Y-98592000D01*
X168520024Y-98551419D01*
X168712204Y-98471815D01*
X168885161Y-98356249D01*
X169032249Y-98209161D01*
X169147815Y-98036204D01*
X169212000Y-97881249D01*
X169276185Y-98036204D01*
X169391751Y-98209161D01*
X169538839Y-98356249D01*
X169711796Y-98471815D01*
X169903976Y-98551419D01*
X170107993Y-98592000D01*
X170316007Y-98592000D01*
X170520024Y-98551419D01*
X170712204Y-98471815D01*
X170885161Y-98356249D01*
X171032249Y-98209161D01*
X171147815Y-98036204D01*
X171154157Y-98020893D01*
X171154157Y-98211000D01*
X171161513Y-98285689D01*
X171183299Y-98357508D01*
X171218678Y-98423696D01*
X171266289Y-98481711D01*
X171324304Y-98529322D01*
X171390492Y-98564701D01*
X171462311Y-98586487D01*
X171537000Y-98593843D01*
X171704000Y-98593843D01*
X171704001Y-99824235D01*
X171676271Y-99835721D01*
X171491030Y-99959495D01*
X171333495Y-100117030D01*
X171209721Y-100302271D01*
X171124464Y-100508100D01*
X171081000Y-100726606D01*
X171081000Y-100949394D01*
X171124464Y-101167900D01*
X171209721Y-101373729D01*
X171333495Y-101558970D01*
X171491030Y-101716505D01*
X171676271Y-101840279D01*
X171882100Y-101925536D01*
X172100606Y-101969000D01*
X172323394Y-101969000D01*
X172541900Y-101925536D01*
X172747729Y-101840279D01*
X172932970Y-101716505D01*
X173090505Y-101558970D01*
X173214279Y-101373729D01*
X173299536Y-101167900D01*
X173343000Y-100949394D01*
X173343000Y-100726606D01*
X173299536Y-100508100D01*
X173214279Y-100302271D01*
X173090505Y-100117030D01*
X172932970Y-99959495D01*
X172747729Y-99835721D01*
X172720000Y-99824235D01*
X172720000Y-98593843D01*
X172887000Y-98593843D01*
X172961689Y-98586487D01*
X173033508Y-98564701D01*
X173099696Y-98529322D01*
X173157711Y-98481711D01*
X173205322Y-98423696D01*
X173240701Y-98357508D01*
X173262487Y-98285689D01*
X173269843Y-98211000D01*
X173269843Y-97148000D01*
X179569157Y-97148000D01*
X179569157Y-99448000D01*
X179576513Y-99522689D01*
X179598299Y-99594508D01*
X179633678Y-99660696D01*
X179681289Y-99718711D01*
X179739304Y-99766322D01*
X179805492Y-99801701D01*
X179877311Y-99823487D01*
X179952000Y-99830843D01*
X182252000Y-99830843D01*
X182326689Y-99823487D01*
X182398508Y-99801701D01*
X182464696Y-99766322D01*
X182522711Y-99718711D01*
X182570322Y-99660696D01*
X182605701Y-99594508D01*
X182627487Y-99522689D01*
X182634843Y-99448000D01*
X182634843Y-98147210D01*
X189731000Y-98147210D01*
X189731000Y-98448790D01*
X189789835Y-98744576D01*
X189905245Y-99023201D01*
X190072795Y-99273956D01*
X190246001Y-99447162D01*
X190246001Y-100026089D01*
X190241085Y-100076000D01*
X190260702Y-100275170D01*
X190301473Y-100409571D01*
X190318799Y-100466687D01*
X190413141Y-100643190D01*
X190540105Y-100797896D01*
X190578868Y-100829708D01*
X192032292Y-102283133D01*
X192064104Y-102321896D01*
X192218810Y-102448860D01*
X192395313Y-102543202D01*
X192528732Y-102583674D01*
X192586828Y-102601298D01*
X192606177Y-102603204D01*
X192736098Y-102616000D01*
X192736105Y-102616000D01*
X192785999Y-102620914D01*
X192835893Y-102616000D01*
X200610098Y-102616000D01*
X200660000Y-102620915D01*
X200709902Y-102616000D01*
X200859171Y-102601298D01*
X201050687Y-102543202D01*
X201227190Y-102448860D01*
X201381896Y-102321896D01*
X201413712Y-102283128D01*
X203366841Y-100330000D01*
X203607157Y-100330000D01*
X203607157Y-100559999D01*
X203619317Y-100683461D01*
X203655329Y-100802178D01*
X203713810Y-100911588D01*
X203792513Y-101007487D01*
X203888412Y-101086190D01*
X203997822Y-101144671D01*
X204116539Y-101180683D01*
X204240001Y-101192843D01*
X207239999Y-101192843D01*
X207363461Y-101180683D01*
X207482178Y-101144671D01*
X207591588Y-101086190D01*
X207687487Y-101007487D01*
X207766190Y-100911588D01*
X207824671Y-100802178D01*
X207860683Y-100683461D01*
X207872843Y-100559999D01*
X207872843Y-98850115D01*
X210609000Y-98850115D01*
X210609000Y-99269885D01*
X210690893Y-99681590D01*
X210851532Y-100069407D01*
X211084744Y-100418433D01*
X211381567Y-100715256D01*
X211724000Y-100944063D01*
X211724001Y-102713973D01*
X211720157Y-102753000D01*
X211720157Y-103245281D01*
X211707085Y-103378000D01*
X211720157Y-103510719D01*
X211720157Y-104003000D01*
X211732317Y-104126462D01*
X211768329Y-104245179D01*
X211826810Y-104354589D01*
X211905512Y-104450488D01*
X212001411Y-104529190D01*
X212110821Y-104587671D01*
X212229538Y-104623683D01*
X212353000Y-104635843D01*
X213103000Y-104635843D01*
X213226462Y-104623683D01*
X213345179Y-104587671D01*
X213454589Y-104529190D01*
X213550488Y-104450488D01*
X213629190Y-104354589D01*
X213687671Y-104245179D01*
X213723683Y-104126462D01*
X213735843Y-104003000D01*
X213735843Y-103583154D01*
X213741298Y-103565171D01*
X213756000Y-103415902D01*
X213760915Y-103366000D01*
X213756000Y-103316098D01*
X213756000Y-100944063D01*
X214098433Y-100715256D01*
X214395256Y-100418433D01*
X214628468Y-100069407D01*
X214789107Y-99681590D01*
X214871000Y-99269885D01*
X214871000Y-98850115D01*
X214789107Y-98438410D01*
X214628468Y-98050593D01*
X214395256Y-97701567D01*
X214098433Y-97404744D01*
X213749407Y-97171532D01*
X213361590Y-97010893D01*
X212949885Y-96929000D01*
X212530115Y-96929000D01*
X212118410Y-97010893D01*
X211730593Y-97171532D01*
X211381567Y-97404744D01*
X211084744Y-97701567D01*
X210851532Y-98050593D01*
X210690893Y-98438410D01*
X210609000Y-98850115D01*
X207872843Y-98850115D01*
X207872843Y-97560001D01*
X207860683Y-97436539D01*
X207824671Y-97317822D01*
X207766190Y-97208412D01*
X207687487Y-97112513D01*
X207591588Y-97033810D01*
X207482178Y-96975329D01*
X207363461Y-96939317D01*
X207239999Y-96927157D01*
X204240001Y-96927157D01*
X204116539Y-96939317D01*
X203997822Y-96975329D01*
X203888412Y-97033810D01*
X203792513Y-97112513D01*
X203713810Y-97208412D01*
X203655329Y-97317822D01*
X203619317Y-97436539D01*
X203607157Y-97560001D01*
X203607157Y-98298000D01*
X202995893Y-98298000D01*
X202945999Y-98293086D01*
X202896105Y-98298000D01*
X202896098Y-98298000D01*
X202746829Y-98312702D01*
X202555313Y-98370798D01*
X202378810Y-98465140D01*
X202224104Y-98592104D01*
X202192292Y-98630867D01*
X200239160Y-100584000D01*
X193206841Y-100584000D01*
X192278000Y-99655160D01*
X192278000Y-99447161D01*
X192451205Y-99273956D01*
X192618755Y-99023201D01*
X192734165Y-98744576D01*
X192793000Y-98448790D01*
X192793000Y-98147210D01*
X197351000Y-98147210D01*
X197351000Y-98448790D01*
X197409835Y-98744576D01*
X197525245Y-99023201D01*
X197692795Y-99273956D01*
X197906044Y-99487205D01*
X198156799Y-99654755D01*
X198435424Y-99770165D01*
X198731210Y-99829000D01*
X199032790Y-99829000D01*
X199328576Y-99770165D01*
X199607201Y-99654755D01*
X199857956Y-99487205D01*
X200071205Y-99273956D01*
X200238755Y-99023201D01*
X200354165Y-98744576D01*
X200413000Y-98448790D01*
X200413000Y-98147210D01*
X200354165Y-97851424D01*
X200238755Y-97572799D01*
X200071205Y-97322044D01*
X199857956Y-97108795D01*
X199607201Y-96941245D01*
X199328576Y-96825835D01*
X199032790Y-96767000D01*
X198731210Y-96767000D01*
X198435424Y-96825835D01*
X198156799Y-96941245D01*
X197906044Y-97108795D01*
X197692795Y-97322044D01*
X197525245Y-97572799D01*
X197409835Y-97851424D01*
X197351000Y-98147210D01*
X192793000Y-98147210D01*
X192734165Y-97851424D01*
X192618755Y-97572799D01*
X192451205Y-97322044D01*
X192237956Y-97108795D01*
X191987201Y-96941245D01*
X191708576Y-96825835D01*
X191412790Y-96767000D01*
X191111210Y-96767000D01*
X190815424Y-96825835D01*
X190536799Y-96941245D01*
X190286044Y-97108795D01*
X190072795Y-97322044D01*
X189905245Y-97572799D01*
X189789835Y-97851424D01*
X189731000Y-98147210D01*
X182634843Y-98147210D01*
X182634843Y-97148000D01*
X182627487Y-97073311D01*
X182605701Y-97001492D01*
X182570322Y-96935304D01*
X182522711Y-96877289D01*
X182464696Y-96829678D01*
X182398508Y-96794299D01*
X182326689Y-96772513D01*
X182252000Y-96765157D01*
X179952000Y-96765157D01*
X179877311Y-96772513D01*
X179805492Y-96794299D01*
X179739304Y-96829678D01*
X179681289Y-96877289D01*
X179633678Y-96935304D01*
X179598299Y-97001492D01*
X179576513Y-97073311D01*
X179569157Y-97148000D01*
X173269843Y-97148000D01*
X173269843Y-96861000D01*
X173262487Y-96786311D01*
X173240701Y-96714492D01*
X173205322Y-96648304D01*
X173157711Y-96590289D01*
X173099696Y-96542678D01*
X173033508Y-96507299D01*
X172961689Y-96485513D01*
X172887000Y-96478157D01*
X171537000Y-96478157D01*
X171462311Y-96485513D01*
X171390492Y-96507299D01*
X171324304Y-96542678D01*
X171266289Y-96590289D01*
X171218678Y-96648304D01*
X171183299Y-96714492D01*
X171161513Y-96786311D01*
X171154157Y-96861000D01*
X171154157Y-97051107D01*
X171147815Y-97035796D01*
X171032249Y-96862839D01*
X170885161Y-96715751D01*
X170712204Y-96600185D01*
X170520024Y-96520581D01*
X170316007Y-96480000D01*
X170107993Y-96480000D01*
X169903976Y-96520581D01*
X169711796Y-96600185D01*
X169538839Y-96715751D01*
X169391751Y-96862839D01*
X169276185Y-97035796D01*
X169212000Y-97190751D01*
X169147815Y-97035796D01*
X169032249Y-96862839D01*
X168885161Y-96715751D01*
X168712204Y-96600185D01*
X168520024Y-96520581D01*
X168316007Y-96480000D01*
X168107993Y-96480000D01*
X167903976Y-96520581D01*
X167711796Y-96600185D01*
X167538839Y-96715751D01*
X167391751Y-96862839D01*
X167276185Y-97035796D01*
X167212000Y-97190751D01*
X167147815Y-97035796D01*
X167032249Y-96862839D01*
X166885161Y-96715751D01*
X166720000Y-96605394D01*
X166720000Y-93586420D01*
X169759565Y-90546855D01*
X169778948Y-90530948D01*
X169842429Y-90453595D01*
X169889601Y-90365343D01*
X169918649Y-90269585D01*
X169926000Y-90194947D01*
X169926000Y-90194944D01*
X169928457Y-90170000D01*
X169926000Y-90145053D01*
X169926000Y-89077078D01*
X170161000Y-89077078D01*
X170161000Y-89230922D01*
X170191013Y-89381809D01*
X170249887Y-89523942D01*
X170335358Y-89651859D01*
X170444141Y-89760642D01*
X170572058Y-89846113D01*
X170714191Y-89904987D01*
X170865078Y-89935000D01*
X171018922Y-89935000D01*
X171169809Y-89904987D01*
X171311942Y-89846113D01*
X171439859Y-89760642D01*
X171538501Y-89662000D01*
X175049580Y-89662000D01*
X178947145Y-93559565D01*
X178963052Y-93578948D01*
X179012288Y-93619354D01*
X179040404Y-93642429D01*
X179072520Y-93659595D01*
X179128657Y-93689601D01*
X179224415Y-93718649D01*
X179299053Y-93726000D01*
X179299056Y-93726000D01*
X179324000Y-93728457D01*
X179348944Y-93726000D01*
X184315499Y-93726000D01*
X184414141Y-93824642D01*
X184542058Y-93910113D01*
X184684191Y-93968987D01*
X184835078Y-93999000D01*
X184988922Y-93999000D01*
X185139809Y-93968987D01*
X185281942Y-93910113D01*
X185409859Y-93824642D01*
X185518642Y-93715859D01*
X185604113Y-93587942D01*
X185662987Y-93445809D01*
X185693000Y-93294922D01*
X185693000Y-93141078D01*
X185662987Y-92990191D01*
X185604113Y-92848058D01*
X185518642Y-92720141D01*
X185409859Y-92611358D01*
X185281942Y-92525887D01*
X185139809Y-92467013D01*
X184988922Y-92437000D01*
X184835078Y-92437000D01*
X184684191Y-92467013D01*
X184542058Y-92525887D01*
X184414141Y-92611358D01*
X184315499Y-92710000D01*
X179534420Y-92710000D01*
X175636855Y-88812435D01*
X175620948Y-88793052D01*
X175543595Y-88729571D01*
X175455343Y-88682399D01*
X175359585Y-88653351D01*
X175284947Y-88646000D01*
X175284944Y-88646000D01*
X175260000Y-88643543D01*
X175235056Y-88646000D01*
X171538501Y-88646000D01*
X171439859Y-88547358D01*
X171311942Y-88461887D01*
X171169809Y-88403013D01*
X171018922Y-88373000D01*
X170865078Y-88373000D01*
X170714191Y-88403013D01*
X170572058Y-88461887D01*
X170444141Y-88547358D01*
X170335358Y-88656141D01*
X170249887Y-88784058D01*
X170191013Y-88926191D01*
X170161000Y-89077078D01*
X169926000Y-89077078D01*
X169926000Y-87464501D01*
X170024642Y-87365859D01*
X170110113Y-87237942D01*
X170168987Y-87095809D01*
X170199000Y-86944922D01*
X170199000Y-86791078D01*
X170168987Y-86640191D01*
X170110113Y-86498058D01*
X170024642Y-86370141D01*
X169915859Y-86261358D01*
X169787942Y-86175887D01*
X169645809Y-86117013D01*
X169494922Y-86087000D01*
X169341078Y-86087000D01*
X169190191Y-86117013D01*
X169048058Y-86175887D01*
X168920141Y-86261358D01*
X168811358Y-86370141D01*
X168783000Y-86412582D01*
X168754642Y-86370141D01*
X168645859Y-86261358D01*
X168517942Y-86175887D01*
X168375809Y-86117013D01*
X168224922Y-86087000D01*
X168071078Y-86087000D01*
X167920191Y-86117013D01*
X167778058Y-86175887D01*
X167650141Y-86261358D01*
X167541358Y-86370141D01*
X167455887Y-86498058D01*
X167397013Y-86640191D01*
X167367000Y-86791078D01*
X167367000Y-86944922D01*
X167397013Y-87095809D01*
X167455887Y-87237942D01*
X167541358Y-87365859D01*
X167640001Y-87464502D01*
X167640000Y-89197580D01*
X163870430Y-92967150D01*
X163851053Y-92983052D01*
X163835151Y-93002429D01*
X163835150Y-93002430D01*
X163787571Y-93060405D01*
X163740400Y-93148657D01*
X163711352Y-93244416D01*
X163701543Y-93344000D01*
X163704001Y-93368954D01*
X163704000Y-96605394D01*
X163538839Y-96715751D01*
X163391751Y-96862839D01*
X163276185Y-97035796D01*
X163196581Y-97227976D01*
X163156000Y-97431993D01*
X163156000Y-97640007D01*
X163196581Y-97844024D01*
X163276185Y-98036204D01*
X163391751Y-98209161D01*
X163538839Y-98356249D01*
X163576001Y-98381080D01*
X163576000Y-102618235D01*
X163548271Y-102629721D01*
X163363030Y-102753495D01*
X163205495Y-102911030D01*
X163081721Y-103096271D01*
X162996464Y-103302100D01*
X162953000Y-103520606D01*
X131830304Y-103520606D01*
X131818965Y-103493232D01*
X131470844Y-102972231D01*
X131027769Y-102529156D01*
X130506768Y-102181035D01*
X129927863Y-101941245D01*
X129313301Y-101819000D01*
X128686699Y-101819000D01*
X128072137Y-101941245D01*
X127493232Y-102181035D01*
X126972231Y-102529156D01*
X126529156Y-102972231D01*
X126181035Y-103493232D01*
X125941245Y-104072137D01*
X125819000Y-104686699D01*
X124406000Y-104686699D01*
X124406000Y-98125000D01*
X137167157Y-98125000D01*
X137167157Y-99875000D01*
X137191326Y-100120393D01*
X137262905Y-100356356D01*
X137379142Y-100573820D01*
X137535571Y-100764429D01*
X137726180Y-100920858D01*
X137943644Y-101037095D01*
X138179607Y-101108674D01*
X138425000Y-101132843D01*
X140175000Y-101132843D01*
X140420393Y-101108674D01*
X140656356Y-101037095D01*
X140873820Y-100920858D01*
X141064429Y-100764429D01*
X141220858Y-100573820D01*
X141337095Y-100356356D01*
X141408674Y-100120393D01*
X141432843Y-99875000D01*
X141432843Y-98125000D01*
X141408674Y-97879607D01*
X141337095Y-97643644D01*
X141220858Y-97426180D01*
X141064429Y-97235571D01*
X140873820Y-97079142D01*
X140656356Y-96962905D01*
X140420393Y-96891326D01*
X140175000Y-96867157D01*
X138425000Y-96867157D01*
X138179607Y-96891326D01*
X137943644Y-96962905D01*
X137726180Y-97079142D01*
X137535571Y-97235571D01*
X137379142Y-97426180D01*
X137262905Y-97643644D01*
X137191326Y-97879607D01*
X137167157Y-98125000D01*
X124406000Y-98125000D01*
X124406000Y-92489000D01*
X136211157Y-92489000D01*
X136211157Y-93439000D01*
X136223317Y-93562462D01*
X136259329Y-93681179D01*
X136317810Y-93790589D01*
X136396512Y-93886488D01*
X136492411Y-93965190D01*
X136601821Y-94023671D01*
X136720538Y-94059683D01*
X136844000Y-94071843D01*
X137344000Y-94071843D01*
X137467462Y-94059683D01*
X137586179Y-94023671D01*
X137695589Y-93965190D01*
X137791488Y-93886488D01*
X137870190Y-93790589D01*
X137928671Y-93681179D01*
X137953599Y-93599000D01*
X138166976Y-93599000D01*
X140994930Y-96426955D01*
X141014815Y-96451185D01*
X141039043Y-96471068D01*
X141111505Y-96530537D01*
X141149931Y-96551076D01*
X141221820Y-96589502D01*
X141341518Y-96625812D01*
X141434808Y-96635000D01*
X141434818Y-96635000D01*
X141465999Y-96638071D01*
X141497180Y-96635000D01*
X141867157Y-96635000D01*
X141867157Y-97750000D01*
X141874513Y-97824689D01*
X141896299Y-97896508D01*
X141931678Y-97962696D01*
X141979289Y-98020711D01*
X142037304Y-98068322D01*
X142103492Y-98103701D01*
X142175311Y-98125487D01*
X142250000Y-98132843D01*
X145750000Y-98132843D01*
X145824689Y-98125487D01*
X145896508Y-98103701D01*
X145962696Y-98068322D01*
X146020711Y-98020711D01*
X146068322Y-97962696D01*
X146103701Y-97896508D01*
X146125487Y-97824689D01*
X146132843Y-97750000D01*
X146132843Y-97431993D01*
X149156000Y-97431993D01*
X149156000Y-97640007D01*
X149196581Y-97844024D01*
X149276185Y-98036204D01*
X149391751Y-98209161D01*
X149538839Y-98356249D01*
X149704000Y-98466606D01*
X149704000Y-98879055D01*
X149701543Y-98904000D01*
X149704000Y-98928944D01*
X149704000Y-98928946D01*
X149711351Y-99003584D01*
X149740399Y-99099342D01*
X149787571Y-99187595D01*
X149851052Y-99264948D01*
X149870435Y-99280855D01*
X150142001Y-99552421D01*
X150142000Y-99769052D01*
X150142000Y-100296894D01*
X150140294Y-100298294D01*
X150075272Y-100377524D01*
X150026956Y-100467917D01*
X149997203Y-100565998D01*
X149987157Y-100668000D01*
X149987157Y-101008000D01*
X149997203Y-101110002D01*
X150026956Y-101208083D01*
X150075272Y-101298476D01*
X150140294Y-101377706D01*
X150219524Y-101442728D01*
X150309917Y-101491044D01*
X150407998Y-101520797D01*
X150510000Y-101530843D01*
X150790000Y-101530843D01*
X150892002Y-101520797D01*
X150990083Y-101491044D01*
X151080476Y-101442728D01*
X151130000Y-101402085D01*
X151179524Y-101442728D01*
X151269917Y-101491044D01*
X151367998Y-101520797D01*
X151470000Y-101530843D01*
X151750000Y-101530843D01*
X151852002Y-101520797D01*
X151950083Y-101491044D01*
X152040476Y-101442728D01*
X152119706Y-101377706D01*
X152184728Y-101298476D01*
X152233044Y-101208083D01*
X152262797Y-101110002D01*
X152272843Y-101008000D01*
X152272843Y-100668000D01*
X152262797Y-100565998D01*
X152233044Y-100467917D01*
X152184728Y-100377524D01*
X152119706Y-100298294D01*
X152118000Y-100296894D01*
X152118000Y-99298420D01*
X152553565Y-98862855D01*
X152572948Y-98846948D01*
X152636429Y-98769595D01*
X152683601Y-98681343D01*
X152712649Y-98585585D01*
X152720000Y-98510947D01*
X152720000Y-98510944D01*
X152722457Y-98486000D01*
X152720513Y-98466263D01*
X152885161Y-98356249D01*
X153032249Y-98209161D01*
X153147815Y-98036204D01*
X153227419Y-97844024D01*
X153268000Y-97640007D01*
X153268000Y-97431993D01*
X153227419Y-97227976D01*
X153147815Y-97035796D01*
X153032249Y-96862839D01*
X152885161Y-96715751D01*
X152712204Y-96600185D01*
X152520024Y-96520581D01*
X152316007Y-96480000D01*
X152107993Y-96480000D01*
X151903976Y-96520581D01*
X151711796Y-96600185D01*
X151538839Y-96715751D01*
X151391751Y-96862839D01*
X151276185Y-97035796D01*
X151212000Y-97190751D01*
X151147815Y-97035796D01*
X151032249Y-96862839D01*
X150885161Y-96715751D01*
X150712204Y-96600185D01*
X150520024Y-96520581D01*
X150316007Y-96480000D01*
X150107993Y-96480000D01*
X149903976Y-96520581D01*
X149711796Y-96600185D01*
X149538839Y-96715751D01*
X149391751Y-96862839D01*
X149276185Y-97035796D01*
X149196581Y-97227976D01*
X149156000Y-97431993D01*
X146132843Y-97431993D01*
X146132843Y-94250000D01*
X146125487Y-94175311D01*
X146103701Y-94103492D01*
X146068322Y-94037304D01*
X146020711Y-93979289D01*
X145962696Y-93931678D01*
X145896508Y-93896299D01*
X145824689Y-93874513D01*
X145750000Y-93867157D01*
X144635000Y-93867157D01*
X144635000Y-89794757D01*
X149645000Y-89794757D01*
X149645000Y-90037243D01*
X149692307Y-90275069D01*
X149785102Y-90499097D01*
X149919820Y-90700717D01*
X150091283Y-90872180D01*
X150292903Y-91006898D01*
X150516931Y-91099693D01*
X150754757Y-91147000D01*
X150997243Y-91147000D01*
X151235069Y-91099693D01*
X151459097Y-91006898D01*
X151660717Y-90872180D01*
X151832180Y-90700717D01*
X151966898Y-90499097D01*
X152059693Y-90275069D01*
X152107000Y-90037243D01*
X152107000Y-89794757D01*
X152059693Y-89556931D01*
X151966898Y-89332903D01*
X151832180Y-89131283D01*
X151660717Y-88959820D01*
X151459097Y-88825102D01*
X151235069Y-88732307D01*
X150997243Y-88685000D01*
X150754757Y-88685000D01*
X150516931Y-88732307D01*
X150292903Y-88825102D01*
X150091283Y-88959820D01*
X149919820Y-89131283D01*
X149785102Y-89332903D01*
X149692307Y-89556931D01*
X149645000Y-89794757D01*
X144635000Y-89794757D01*
X144635000Y-87254757D01*
X149645000Y-87254757D01*
X149645000Y-87497243D01*
X149692307Y-87735069D01*
X149785102Y-87959097D01*
X149919820Y-88160717D01*
X150091283Y-88332180D01*
X150292903Y-88466898D01*
X150516931Y-88559693D01*
X150754757Y-88607000D01*
X150997243Y-88607000D01*
X151235069Y-88559693D01*
X151459097Y-88466898D01*
X151660717Y-88332180D01*
X151832180Y-88160717D01*
X151966898Y-87959097D01*
X152059693Y-87735069D01*
X152107000Y-87497243D01*
X152107000Y-87254757D01*
X152059693Y-87016931D01*
X151966898Y-86792903D01*
X151832180Y-86591283D01*
X151660717Y-86419820D01*
X151459097Y-86285102D01*
X151235069Y-86192307D01*
X150997243Y-86145000D01*
X150754757Y-86145000D01*
X150516931Y-86192307D01*
X150292903Y-86285102D01*
X150091283Y-86419820D01*
X149919820Y-86591283D01*
X149785102Y-86792903D01*
X149692307Y-87016931D01*
X149645000Y-87254757D01*
X144635000Y-87254757D01*
X144635000Y-77991180D01*
X144638071Y-77959999D01*
X144635000Y-77928818D01*
X144635000Y-77928808D01*
X144625812Y-77835518D01*
X144589502Y-77715820D01*
X144573563Y-77686000D01*
X148169157Y-77686000D01*
X148169157Y-79286000D01*
X148176513Y-79360689D01*
X148198299Y-79432508D01*
X148233678Y-79498696D01*
X148281289Y-79556711D01*
X148339304Y-79604322D01*
X148405492Y-79639701D01*
X148477311Y-79661487D01*
X148552000Y-79668843D01*
X150152000Y-79668843D01*
X150226689Y-79661487D01*
X150298508Y-79639701D01*
X150364696Y-79604322D01*
X150422711Y-79556711D01*
X150470322Y-79498696D01*
X150495000Y-79452528D01*
X150495001Y-83603157D01*
X150026000Y-83603157D01*
X149951311Y-83610513D01*
X149879492Y-83632299D01*
X149813304Y-83667678D01*
X149755289Y-83715289D01*
X149707678Y-83773304D01*
X149672299Y-83839492D01*
X149650513Y-83911311D01*
X149643157Y-83986000D01*
X149643157Y-85686000D01*
X149650513Y-85760689D01*
X149672299Y-85832508D01*
X149707678Y-85898696D01*
X149755289Y-85956711D01*
X149813304Y-86004322D01*
X149879492Y-86039701D01*
X149951311Y-86061487D01*
X150026000Y-86068843D01*
X151726000Y-86068843D01*
X151800689Y-86061487D01*
X151872508Y-86039701D01*
X151938696Y-86004322D01*
X151996711Y-85956711D01*
X152044322Y-85898696D01*
X152079701Y-85832508D01*
X152101487Y-85760689D01*
X152108843Y-85686000D01*
X152108843Y-85471000D01*
X152898976Y-85471000D01*
X154741932Y-87313957D01*
X154761817Y-87338187D01*
X154786045Y-87358070D01*
X154858508Y-87417540D01*
X154965338Y-87474642D01*
X154968822Y-87476504D01*
X155088520Y-87512814D01*
X155181810Y-87522002D01*
X155181813Y-87522002D01*
X155213002Y-87525074D01*
X155244191Y-87522002D01*
X159577001Y-87522002D01*
X159577000Y-90284582D01*
X159519887Y-90370058D01*
X159461013Y-90512191D01*
X159431000Y-90663078D01*
X159431000Y-90816922D01*
X159461013Y-90967809D01*
X159519887Y-91109942D01*
X159577001Y-91195419D01*
X159577000Y-96690253D01*
X159538839Y-96715751D01*
X159391751Y-96862839D01*
X159276185Y-97035796D01*
X159212000Y-97190751D01*
X159147815Y-97035796D01*
X159032249Y-96862839D01*
X158885161Y-96715751D01*
X158712204Y-96600185D01*
X158520024Y-96520581D01*
X158316007Y-96480000D01*
X158107993Y-96480000D01*
X157903976Y-96520581D01*
X157711796Y-96600185D01*
X157538839Y-96715751D01*
X157391751Y-96862839D01*
X157276185Y-97035796D01*
X157212000Y-97190751D01*
X157147815Y-97035796D01*
X157032249Y-96862839D01*
X156885161Y-96715751D01*
X156712204Y-96600185D01*
X156520024Y-96520581D01*
X156316007Y-96480000D01*
X156107993Y-96480000D01*
X155903976Y-96520581D01*
X155711796Y-96600185D01*
X155538839Y-96715751D01*
X155391751Y-96862839D01*
X155276185Y-97035796D01*
X155196581Y-97227976D01*
X155156000Y-97431993D01*
X155156000Y-97640007D01*
X155196581Y-97844024D01*
X155276185Y-98036204D01*
X155391751Y-98209161D01*
X155538839Y-98356249D01*
X155702000Y-98465270D01*
X155702000Y-99289055D01*
X155699543Y-99314000D01*
X155702000Y-99338944D01*
X155702000Y-99338946D01*
X155709351Y-99413584D01*
X155738399Y-99509342D01*
X155785571Y-99597595D01*
X155849052Y-99674948D01*
X155868435Y-99690855D01*
X157357150Y-101179571D01*
X157373052Y-101198948D01*
X157392429Y-101214850D01*
X157450404Y-101262429D01*
X157538655Y-101309600D01*
X157538657Y-101309601D01*
X157634415Y-101338649D01*
X157709053Y-101346000D01*
X157709055Y-101346000D01*
X157733999Y-101348457D01*
X157758943Y-101346000D01*
X158719401Y-101346000D01*
X158754830Y-101389170D01*
X158833302Y-101453571D01*
X158922830Y-101501425D01*
X159019974Y-101530893D01*
X159121000Y-101540843D01*
X159391000Y-101540843D01*
X159492026Y-101530893D01*
X159589170Y-101501425D01*
X159678698Y-101453571D01*
X159757170Y-101389170D01*
X159766000Y-101378411D01*
X159774830Y-101389170D01*
X159853302Y-101453571D01*
X159942830Y-101501425D01*
X160039974Y-101530893D01*
X160141000Y-101540843D01*
X160411000Y-101540843D01*
X160512026Y-101530893D01*
X160609170Y-101501425D01*
X160698698Y-101453571D01*
X160777170Y-101389170D01*
X160789620Y-101374000D01*
X161510894Y-101374000D01*
X161512294Y-101375706D01*
X161591524Y-101440728D01*
X161681917Y-101489044D01*
X161779998Y-101518797D01*
X161882000Y-101528843D01*
X162222000Y-101528843D01*
X162324002Y-101518797D01*
X162422083Y-101489044D01*
X162512476Y-101440728D01*
X162591706Y-101375706D01*
X162656728Y-101296476D01*
X162705044Y-101206083D01*
X162734797Y-101108002D01*
X162744843Y-101006000D01*
X162744843Y-100726000D01*
X162734797Y-100623998D01*
X162705044Y-100525917D01*
X162656728Y-100435524D01*
X162591706Y-100356294D01*
X162512476Y-100291272D01*
X162422083Y-100242956D01*
X162324002Y-100213203D01*
X162222000Y-100203157D01*
X161882000Y-100203157D01*
X161779998Y-100213203D01*
X161681917Y-100242956D01*
X161591524Y-100291272D01*
X161512294Y-100356294D01*
X161510894Y-100358000D01*
X160835578Y-100358000D01*
X160782000Y-100292715D01*
X160782000Y-98425179D01*
X160885161Y-98356249D01*
X161032249Y-98209161D01*
X161147815Y-98036204D01*
X161227419Y-97844024D01*
X161268000Y-97640007D01*
X161268000Y-97431993D01*
X161227419Y-97227976D01*
X161147815Y-97035796D01*
X161032249Y-96862839D01*
X160885161Y-96715751D01*
X160847000Y-96690253D01*
X160847000Y-91195418D01*
X160904113Y-91109942D01*
X160962987Y-90967809D01*
X160993000Y-90816922D01*
X160993000Y-90663078D01*
X160962987Y-90512191D01*
X160904113Y-90370058D01*
X160847000Y-90284582D01*
X160847000Y-87522002D01*
X163525817Y-87522002D01*
X163556998Y-87525073D01*
X163588179Y-87522002D01*
X163588190Y-87522002D01*
X163681480Y-87512814D01*
X163801178Y-87476504D01*
X163911492Y-87417539D01*
X164008183Y-87338187D01*
X164028072Y-87313952D01*
X165744026Y-85598000D01*
X182626000Y-85598000D01*
X182626001Y-88487809D01*
X182622929Y-88519000D01*
X182626001Y-88550191D01*
X182626001Y-88550192D01*
X182632858Y-88619809D01*
X182635189Y-88643481D01*
X182671498Y-88763179D01*
X182730463Y-88873493D01*
X182758250Y-88907352D01*
X182809816Y-88970185D01*
X182834046Y-88990070D01*
X187488935Y-93644961D01*
X187508815Y-93669185D01*
X187533039Y-93689065D01*
X187533043Y-93689069D01*
X187605506Y-93748538D01*
X187715820Y-93807502D01*
X187835518Y-93843812D01*
X187928808Y-93853000D01*
X187928811Y-93853000D01*
X187960000Y-93856072D01*
X187991189Y-93853000D01*
X215614819Y-93853000D01*
X215646000Y-93856071D01*
X215677181Y-93853000D01*
X215677192Y-93853000D01*
X215770482Y-93843812D01*
X215890180Y-93807502D01*
X216000494Y-93748537D01*
X216097185Y-93669185D01*
X216117074Y-93644950D01*
X220920956Y-88841069D01*
X220945185Y-88821185D01*
X220982574Y-88775627D01*
X221024537Y-88724495D01*
X221061073Y-88656141D01*
X221083502Y-88614180D01*
X221119812Y-88494482D01*
X221129000Y-88401192D01*
X221129000Y-88401182D01*
X221132071Y-88370001D01*
X221129000Y-88338820D01*
X221129000Y-86749758D01*
X221148149Y-86741826D01*
X221374336Y-86590693D01*
X221566693Y-86398336D01*
X221717826Y-86172149D01*
X221821929Y-85920823D01*
X221875000Y-85654017D01*
X221875000Y-85381983D01*
X221821929Y-85115177D01*
X221717826Y-84863851D01*
X221566693Y-84637664D01*
X221374336Y-84445307D01*
X221148149Y-84294174D01*
X220896823Y-84190071D01*
X220630017Y-84137000D01*
X220357983Y-84137000D01*
X220091177Y-84190071D01*
X219839851Y-84294174D01*
X219613664Y-84445307D01*
X219421307Y-84637664D01*
X219270174Y-84863851D01*
X219262242Y-84883000D01*
X214559025Y-84883000D01*
X212267074Y-82591050D01*
X212247185Y-82566815D01*
X212150494Y-82487463D01*
X212040180Y-82428498D01*
X211920482Y-82392188D01*
X211827192Y-82383000D01*
X211827181Y-82383000D01*
X211796000Y-82379929D01*
X211764819Y-82383000D01*
X207225758Y-82383000D01*
X207217826Y-82363851D01*
X207066693Y-82137664D01*
X206874336Y-81945307D01*
X206807791Y-81900843D01*
X206994000Y-81900843D01*
X207068689Y-81893487D01*
X207140508Y-81871701D01*
X207206696Y-81836322D01*
X207264711Y-81788711D01*
X207312322Y-81730696D01*
X207347701Y-81664508D01*
X207369487Y-81592689D01*
X207376843Y-81518000D01*
X207376843Y-80381983D01*
X219113000Y-80381983D01*
X219113000Y-80654017D01*
X219166071Y-80920823D01*
X219270174Y-81172149D01*
X219421307Y-81398336D01*
X219613664Y-81590693D01*
X219839851Y-81741826D01*
X220091177Y-81845929D01*
X220357983Y-81899000D01*
X220630017Y-81899000D01*
X220896823Y-81845929D01*
X221148149Y-81741826D01*
X221374336Y-81590693D01*
X221566693Y-81398336D01*
X221717826Y-81172149D01*
X221821929Y-80920823D01*
X221875000Y-80654017D01*
X221875000Y-80381983D01*
X221821929Y-80115177D01*
X221717826Y-79863851D01*
X221566693Y-79637664D01*
X221374336Y-79445307D01*
X221148149Y-79294174D01*
X220896823Y-79190071D01*
X220630017Y-79137000D01*
X220357983Y-79137000D01*
X220091177Y-79190071D01*
X219839851Y-79294174D01*
X219613664Y-79445307D01*
X219421307Y-79637664D01*
X219270174Y-79863851D01*
X219166071Y-80115177D01*
X219113000Y-80381983D01*
X207376843Y-80381983D01*
X207376843Y-79518000D01*
X207369487Y-79443311D01*
X207347701Y-79371492D01*
X207312322Y-79305304D01*
X207264711Y-79247289D01*
X207206696Y-79199678D01*
X207140508Y-79164299D01*
X207068689Y-79142513D01*
X206994000Y-79135157D01*
X204994000Y-79135157D01*
X204919311Y-79142513D01*
X204847492Y-79164299D01*
X204781304Y-79199678D01*
X204723289Y-79247289D01*
X204675678Y-79305304D01*
X204640299Y-79371492D01*
X204618513Y-79443311D01*
X204611157Y-79518000D01*
X204611157Y-81518000D01*
X204618513Y-81592689D01*
X204640299Y-81664508D01*
X204675678Y-81730696D01*
X204723289Y-81788711D01*
X204781304Y-81836322D01*
X204847492Y-81871701D01*
X204919311Y-81893487D01*
X204994000Y-81900843D01*
X205180209Y-81900843D01*
X205113664Y-81945307D01*
X204921307Y-82137664D01*
X204770174Y-82363851D01*
X204666071Y-82615177D01*
X204613000Y-82881983D01*
X204613000Y-83154017D01*
X204666071Y-83420823D01*
X204770174Y-83672149D01*
X204921307Y-83898336D01*
X205113664Y-84090693D01*
X205339851Y-84241826D01*
X205403040Y-84268000D01*
X205339851Y-84294174D01*
X205113664Y-84445307D01*
X204921307Y-84637664D01*
X204770174Y-84863851D01*
X204666071Y-85115177D01*
X204613000Y-85381983D01*
X204613000Y-85654017D01*
X204666071Y-85920823D01*
X204770174Y-86172149D01*
X204921307Y-86398336D01*
X205113664Y-86590693D01*
X205339851Y-86741826D01*
X205591177Y-86845929D01*
X205857983Y-86899000D01*
X206130017Y-86899000D01*
X206396823Y-86845929D01*
X206648149Y-86741826D01*
X206874336Y-86590693D01*
X207066693Y-86398336D01*
X207217826Y-86172149D01*
X207321929Y-85920823D01*
X207375000Y-85654017D01*
X207375000Y-85381983D01*
X207321929Y-85115177D01*
X207217826Y-84863851D01*
X207066693Y-84637664D01*
X206874336Y-84445307D01*
X206648149Y-84294174D01*
X206584960Y-84268000D01*
X206648149Y-84241826D01*
X206874336Y-84090693D01*
X207066693Y-83898336D01*
X207217826Y-83672149D01*
X207225758Y-83653000D01*
X211532976Y-83653000D01*
X213824930Y-85944955D01*
X213844815Y-85969185D01*
X213869043Y-85989068D01*
X213941506Y-86048538D01*
X214028406Y-86094987D01*
X214051820Y-86107502D01*
X214171518Y-86143812D01*
X214264808Y-86153000D01*
X214264811Y-86153000D01*
X214296000Y-86156072D01*
X214327189Y-86153000D01*
X219262242Y-86153000D01*
X219270174Y-86172149D01*
X219421307Y-86398336D01*
X219613664Y-86590693D01*
X219839851Y-86741826D01*
X219859001Y-86749758D01*
X219859000Y-88106975D01*
X215382976Y-92583000D01*
X188223026Y-92583000D01*
X183896000Y-88255976D01*
X183896000Y-84994191D01*
X183899072Y-84963000D01*
X183896000Y-84931808D01*
X183896000Y-84460757D01*
X197651000Y-84460757D01*
X197651000Y-84703243D01*
X197698307Y-84941069D01*
X197791102Y-85165097D01*
X197925820Y-85366717D01*
X198097283Y-85538180D01*
X198247000Y-85638218D01*
X198247001Y-87936581D01*
X198189887Y-88022058D01*
X198131013Y-88164191D01*
X198101000Y-88315078D01*
X198101000Y-88468922D01*
X198131013Y-88619809D01*
X198189887Y-88761942D01*
X198275358Y-88889859D01*
X198384141Y-88998642D01*
X198512058Y-89084113D01*
X198654191Y-89142987D01*
X198805078Y-89173000D01*
X198958922Y-89173000D01*
X199109809Y-89142987D01*
X199251942Y-89084113D01*
X199379859Y-88998642D01*
X199488642Y-88889859D01*
X199574113Y-88761942D01*
X199632987Y-88619809D01*
X199663000Y-88468922D01*
X199663000Y-88315078D01*
X199632987Y-88164191D01*
X199574113Y-88022058D01*
X199517000Y-87936582D01*
X199517000Y-85638218D01*
X199666717Y-85538180D01*
X199838180Y-85366717D01*
X199972898Y-85165097D01*
X200065693Y-84941069D01*
X200113000Y-84703243D01*
X200113000Y-84460757D01*
X200065693Y-84222931D01*
X199972898Y-83998903D01*
X199838180Y-83797283D01*
X199666717Y-83625820D01*
X199465097Y-83491102D01*
X199241069Y-83398307D01*
X199003243Y-83351000D01*
X198760757Y-83351000D01*
X198522931Y-83398307D01*
X198298903Y-83491102D01*
X198097283Y-83625820D01*
X197925820Y-83797283D01*
X197791102Y-83998903D01*
X197698307Y-84222931D01*
X197651000Y-84460757D01*
X183896000Y-84460757D01*
X183896000Y-81192000D01*
X197649157Y-81192000D01*
X197649157Y-82892000D01*
X197656513Y-82966689D01*
X197678299Y-83038508D01*
X197713678Y-83104696D01*
X197761289Y-83162711D01*
X197819304Y-83210322D01*
X197885492Y-83245701D01*
X197957311Y-83267487D01*
X198032000Y-83274843D01*
X199732000Y-83274843D01*
X199806689Y-83267487D01*
X199878508Y-83245701D01*
X199944696Y-83210322D01*
X200002711Y-83162711D01*
X200050322Y-83104696D01*
X200085701Y-83038508D01*
X200107487Y-82966689D01*
X200114843Y-82892000D01*
X200114843Y-81192000D01*
X200107487Y-81117311D01*
X200085701Y-81045492D01*
X200050322Y-80979304D01*
X200002711Y-80921289D01*
X199944696Y-80873678D01*
X199878508Y-80838299D01*
X199806689Y-80816513D01*
X199732000Y-80809157D01*
X198032000Y-80809157D01*
X197957311Y-80816513D01*
X197885492Y-80838299D01*
X197819304Y-80873678D01*
X197761289Y-80921289D01*
X197713678Y-80979304D01*
X197678299Y-81045492D01*
X197656513Y-81117311D01*
X197649157Y-81192000D01*
X183896000Y-81192000D01*
X183896000Y-78661077D01*
X199622999Y-78661077D01*
X199622999Y-78814921D01*
X199653012Y-78965808D01*
X199711886Y-79107941D01*
X199797357Y-79235858D01*
X199902943Y-79341444D01*
X199903351Y-79345584D01*
X199907933Y-79360689D01*
X199932399Y-79441342D01*
X199979570Y-79529594D01*
X200027149Y-79587569D01*
X200043052Y-79606947D01*
X200062429Y-79622849D01*
X201930000Y-81490420D01*
X201930001Y-88113046D01*
X201927543Y-88138000D01*
X201936474Y-88228674D01*
X201937352Y-88237585D01*
X201960859Y-88315078D01*
X201966400Y-88333343D01*
X202013571Y-88421595D01*
X202061150Y-88479570D01*
X202077053Y-88498948D01*
X202096430Y-88514850D01*
X203962000Y-90380421D01*
X203962000Y-90589499D01*
X203863358Y-90688141D01*
X203777887Y-90816058D01*
X203719013Y-90958191D01*
X203689000Y-91109078D01*
X203689000Y-91262922D01*
X203719013Y-91413809D01*
X203777887Y-91555942D01*
X203863358Y-91683859D01*
X203972141Y-91792642D01*
X204100058Y-91878113D01*
X204242191Y-91936987D01*
X204393078Y-91967000D01*
X204546922Y-91967000D01*
X204697809Y-91936987D01*
X204839942Y-91878113D01*
X204967859Y-91792642D01*
X205076642Y-91683859D01*
X205162113Y-91555942D01*
X205220987Y-91413809D01*
X205251000Y-91262922D01*
X205251000Y-91109078D01*
X205220987Y-90958191D01*
X205162113Y-90816058D01*
X205076642Y-90688141D01*
X204978000Y-90589499D01*
X204978000Y-90194944D01*
X204980457Y-90170000D01*
X204974960Y-90114188D01*
X204970649Y-90070415D01*
X204941601Y-89974657D01*
X204906319Y-89908649D01*
X204894429Y-89886404D01*
X204846850Y-89828429D01*
X204830948Y-89809052D01*
X204811571Y-89793150D01*
X203441310Y-88422889D01*
X211513000Y-88422889D01*
X211513000Y-88813111D01*
X211589129Y-89195836D01*
X211738461Y-89556355D01*
X211955257Y-89880814D01*
X212231186Y-90156743D01*
X212555645Y-90373539D01*
X212916164Y-90522871D01*
X213298889Y-90599000D01*
X213689111Y-90599000D01*
X214071836Y-90522871D01*
X214432355Y-90373539D01*
X214756814Y-90156743D01*
X215032743Y-89880814D01*
X215249539Y-89556355D01*
X215398871Y-89195836D01*
X215475000Y-88813111D01*
X215475000Y-88422889D01*
X215398871Y-88040164D01*
X215249539Y-87679645D01*
X215032743Y-87355186D01*
X214756814Y-87079257D01*
X214432355Y-86862461D01*
X214071836Y-86713129D01*
X213689111Y-86637000D01*
X213298889Y-86637000D01*
X212916164Y-86713129D01*
X212555645Y-86862461D01*
X212231186Y-87079257D01*
X211955257Y-87355186D01*
X211738461Y-87679645D01*
X211589129Y-88040164D01*
X211513000Y-88422889D01*
X203441310Y-88422889D01*
X202946000Y-87927580D01*
X202946000Y-81304944D01*
X202948457Y-81280000D01*
X202945542Y-81250405D01*
X202938649Y-81180415D01*
X202909601Y-81084657D01*
X202862429Y-80996405D01*
X202798948Y-80919052D01*
X202779565Y-80903145D01*
X201051351Y-79174931D01*
X201096112Y-79107941D01*
X201154986Y-78965808D01*
X201184999Y-78814921D01*
X201184999Y-78661077D01*
X201154986Y-78510190D01*
X201096112Y-78368057D01*
X201010641Y-78240140D01*
X200901858Y-78131357D01*
X200773941Y-78045886D01*
X200631808Y-77987012D01*
X200480921Y-77956999D01*
X200327077Y-77956999D01*
X200176190Y-77987012D01*
X200034057Y-78045886D01*
X199906140Y-78131357D01*
X199797357Y-78240140D01*
X199711886Y-78368057D01*
X199653012Y-78510190D01*
X199622999Y-78661077D01*
X183896000Y-78661077D01*
X183896000Y-78622024D01*
X185038983Y-77479042D01*
X185139809Y-77458987D01*
X185281942Y-77400113D01*
X185409859Y-77314642D01*
X185501612Y-77222889D01*
X211513000Y-77222889D01*
X211513000Y-77613111D01*
X211589129Y-77995836D01*
X211738461Y-78356355D01*
X211955257Y-78680814D01*
X212231186Y-78956743D01*
X212555645Y-79173539D01*
X212916164Y-79322871D01*
X213298889Y-79399000D01*
X213689111Y-79399000D01*
X214071836Y-79322871D01*
X214432355Y-79173539D01*
X214756814Y-78956743D01*
X215032743Y-78680814D01*
X215249539Y-78356355D01*
X215398871Y-77995836D01*
X215475000Y-77613111D01*
X215475000Y-77222889D01*
X215398871Y-76840164D01*
X215249539Y-76479645D01*
X215032743Y-76155186D01*
X214756814Y-75879257D01*
X214432355Y-75662461D01*
X214071836Y-75513129D01*
X213689111Y-75437000D01*
X213298889Y-75437000D01*
X212916164Y-75513129D01*
X212555645Y-75662461D01*
X212231186Y-75879257D01*
X211955257Y-76155186D01*
X211738461Y-76479645D01*
X211589129Y-76840164D01*
X211513000Y-77222889D01*
X185501612Y-77222889D01*
X185518642Y-77205859D01*
X185604113Y-77077942D01*
X185662987Y-76935809D01*
X185693000Y-76784922D01*
X185693000Y-76631078D01*
X185662987Y-76480191D01*
X185604113Y-76338058D01*
X185518642Y-76210141D01*
X185409859Y-76101358D01*
X185281942Y-76015887D01*
X185139809Y-75957013D01*
X184988922Y-75927000D01*
X184835078Y-75927000D01*
X184684191Y-75957013D01*
X184542058Y-76015887D01*
X184414141Y-76101358D01*
X184305358Y-76210141D01*
X184219887Y-76338058D01*
X184161013Y-76480191D01*
X184140958Y-76581017D01*
X182834046Y-77887930D01*
X182809816Y-77907815D01*
X182789932Y-77932044D01*
X182730463Y-78004507D01*
X182671498Y-78114821D01*
X182635189Y-78234519D01*
X182622929Y-78359000D01*
X182626001Y-78390191D01*
X182626000Y-84328000D01*
X165512189Y-84328000D01*
X165481000Y-84324928D01*
X165449811Y-84328000D01*
X165449808Y-84328000D01*
X165356518Y-84337188D01*
X165236820Y-84373498D01*
X165126506Y-84432462D01*
X165054043Y-84491931D01*
X165054039Y-84491935D01*
X165029815Y-84511815D01*
X165009934Y-84536040D01*
X163293974Y-86252002D01*
X160070183Y-86252002D01*
X160039002Y-86248931D01*
X160007821Y-86252002D01*
X155476027Y-86252002D01*
X154491103Y-85267078D01*
X156699000Y-85267078D01*
X156699000Y-85420922D01*
X156729013Y-85571809D01*
X156787887Y-85713942D01*
X156873358Y-85841859D01*
X156982141Y-85950642D01*
X157110058Y-86036113D01*
X157252191Y-86094987D01*
X157403078Y-86125000D01*
X157556922Y-86125000D01*
X157707809Y-86094987D01*
X157849942Y-86036113D01*
X157977859Y-85950642D01*
X158076501Y-85852000D01*
X162789056Y-85852000D01*
X162814000Y-85854457D01*
X162838944Y-85852000D01*
X162838947Y-85852000D01*
X162913585Y-85844649D01*
X163009343Y-85815601D01*
X163097595Y-85768429D01*
X163174948Y-85704948D01*
X163190855Y-85685565D01*
X170390421Y-78486000D01*
X177203499Y-78486000D01*
X177302141Y-78584642D01*
X177430058Y-78670113D01*
X177572191Y-78728987D01*
X177723078Y-78759000D01*
X177876922Y-78759000D01*
X178027809Y-78728987D01*
X178169942Y-78670113D01*
X178297859Y-78584642D01*
X178406642Y-78475859D01*
X178492113Y-78347942D01*
X178550987Y-78205809D01*
X178581000Y-78054922D01*
X178581000Y-77901078D01*
X178550987Y-77750191D01*
X178492113Y-77608058D01*
X178406642Y-77480141D01*
X178297859Y-77371358D01*
X178169942Y-77285887D01*
X178027809Y-77227013D01*
X177876922Y-77197000D01*
X177723078Y-77197000D01*
X177572191Y-77227013D01*
X177430058Y-77285887D01*
X177302141Y-77371358D01*
X177203499Y-77470000D01*
X170204943Y-77470000D01*
X170179999Y-77467543D01*
X170155055Y-77470000D01*
X170155053Y-77470000D01*
X170080415Y-77477351D01*
X169984657Y-77506399D01*
X169943576Y-77528357D01*
X169896404Y-77553571D01*
X169841810Y-77598376D01*
X169819052Y-77617052D01*
X169803150Y-77636429D01*
X162603580Y-84836000D01*
X158076501Y-84836000D01*
X157977859Y-84737358D01*
X157849942Y-84651887D01*
X157707809Y-84593013D01*
X157556922Y-84563000D01*
X157403078Y-84563000D01*
X157252191Y-84593013D01*
X157110058Y-84651887D01*
X156982141Y-84737358D01*
X156873358Y-84846141D01*
X156787887Y-84974058D01*
X156729013Y-85116191D01*
X156699000Y-85267078D01*
X154491103Y-85267078D01*
X153633074Y-84409050D01*
X153613185Y-84384815D01*
X153516494Y-84305463D01*
X153406180Y-84246498D01*
X153286482Y-84210188D01*
X153193192Y-84201000D01*
X153193181Y-84201000D01*
X153162000Y-84197929D01*
X153130819Y-84201000D01*
X152108843Y-84201000D01*
X152108843Y-83986000D01*
X152101487Y-83911311D01*
X152079701Y-83839492D01*
X152044322Y-83773304D01*
X151996711Y-83715289D01*
X151938696Y-83667678D01*
X151872508Y-83632299D01*
X151800689Y-83610513D01*
X151765000Y-83606998D01*
X151765000Y-79425078D01*
X153397000Y-79425078D01*
X153397000Y-79578922D01*
X153427013Y-79729809D01*
X153485887Y-79871942D01*
X153571358Y-79999859D01*
X153680141Y-80108642D01*
X153808058Y-80194113D01*
X153950191Y-80252987D01*
X154101078Y-80283000D01*
X154240580Y-80283000D01*
X156191000Y-82233420D01*
X156191000Y-82372922D01*
X156221013Y-82523809D01*
X156279887Y-82665942D01*
X156365358Y-82793859D01*
X156474141Y-82902642D01*
X156602058Y-82988113D01*
X156744191Y-83046987D01*
X156895078Y-83077000D01*
X157048922Y-83077000D01*
X157199809Y-83046987D01*
X157341942Y-82988113D01*
X157469859Y-82902642D01*
X157578642Y-82793859D01*
X157664113Y-82665942D01*
X157722987Y-82523809D01*
X157753000Y-82372922D01*
X157753000Y-82282008D01*
X157760191Y-82284987D01*
X157911078Y-82315000D01*
X158064922Y-82315000D01*
X158215809Y-82284987D01*
X158357942Y-82226113D01*
X158485859Y-82140642D01*
X158594642Y-82031859D01*
X158680113Y-81903942D01*
X158738987Y-81761809D01*
X158769000Y-81610922D01*
X158769000Y-81457078D01*
X158738987Y-81306191D01*
X158680113Y-81164058D01*
X158594642Y-81036141D01*
X158485859Y-80927358D01*
X158357942Y-80841887D01*
X158215809Y-80783013D01*
X158064922Y-80753000D01*
X157925420Y-80753000D01*
X155975000Y-78802580D01*
X155975000Y-78663078D01*
X155944987Y-78512191D01*
X155886113Y-78370058D01*
X155800642Y-78242141D01*
X155691859Y-78133358D01*
X155563942Y-78047887D01*
X155421809Y-77989013D01*
X155270922Y-77959000D01*
X155117078Y-77959000D01*
X154966191Y-77989013D01*
X154824058Y-78047887D01*
X154696141Y-78133358D01*
X154587358Y-78242141D01*
X154501887Y-78370058D01*
X154443013Y-78512191D01*
X154413000Y-78663078D01*
X154413000Y-78753992D01*
X154405809Y-78751013D01*
X154254922Y-78721000D01*
X154101078Y-78721000D01*
X153950191Y-78751013D01*
X153808058Y-78809887D01*
X153680141Y-78895358D01*
X153571358Y-79004141D01*
X153485887Y-79132058D01*
X153427013Y-79274191D01*
X153397000Y-79425078D01*
X151765000Y-79425078D01*
X151765000Y-79025180D01*
X151768071Y-78993999D01*
X151765000Y-78962818D01*
X151765000Y-78962808D01*
X151755812Y-78869518D01*
X151719502Y-78749820D01*
X151672067Y-78661077D01*
X151660537Y-78639505D01*
X151601068Y-78567042D01*
X151601065Y-78567039D01*
X151581185Y-78542815D01*
X151556961Y-78522935D01*
X151093074Y-78059050D01*
X151073185Y-78034815D01*
X150976494Y-77955463D01*
X150866180Y-77896498D01*
X150746482Y-77860188D01*
X150653192Y-77851000D01*
X150653181Y-77851000D01*
X150622000Y-77847929D01*
X150590819Y-77851000D01*
X150534843Y-77851000D01*
X150534843Y-77686000D01*
X150527487Y-77611311D01*
X150505701Y-77539492D01*
X150470322Y-77473304D01*
X150422711Y-77415289D01*
X150364696Y-77367678D01*
X150298508Y-77332299D01*
X150226689Y-77310513D01*
X150152000Y-77303157D01*
X148552000Y-77303157D01*
X148477311Y-77310513D01*
X148405492Y-77332299D01*
X148339304Y-77367678D01*
X148281289Y-77415289D01*
X148233678Y-77473304D01*
X148198299Y-77539492D01*
X148176513Y-77611311D01*
X148169157Y-77686000D01*
X144573563Y-77686000D01*
X144530537Y-77605506D01*
X144451185Y-77508815D01*
X144426955Y-77488930D01*
X140041000Y-73102976D01*
X140041000Y-63919401D01*
X140093216Y-63891491D01*
X140280660Y-63737660D01*
X140434491Y-63550215D01*
X140548798Y-63336362D01*
X140619188Y-63104317D01*
X140637000Y-62923471D01*
X140637000Y-62552528D01*
X140619188Y-62371682D01*
X140548798Y-62139637D01*
X140434491Y-61925784D01*
X140280660Y-61738340D01*
X140093215Y-61584509D01*
X140041000Y-61556599D01*
X140041000Y-61263024D01*
X140471025Y-60833000D01*
X150866976Y-60833000D01*
X151365000Y-61331026D01*
X151365000Y-61383604D01*
X151276538Y-61392317D01*
X151157821Y-61428329D01*
X151048411Y-61486810D01*
X150952512Y-61565512D01*
X150873810Y-61661411D01*
X150815329Y-61770821D01*
X150779317Y-61889538D01*
X150767157Y-62013000D01*
X150767157Y-63463000D01*
X150779317Y-63586462D01*
X150815329Y-63705179D01*
X150873810Y-63814589D01*
X150952512Y-63910488D01*
X151048411Y-63989190D01*
X151157821Y-64047671D01*
X151276538Y-64083683D01*
X151400000Y-64095843D01*
X152600000Y-64095843D01*
X152723462Y-64083683D01*
X152842179Y-64047671D01*
X152951589Y-63989190D01*
X153047488Y-63910488D01*
X153126190Y-63814589D01*
X153184671Y-63705179D01*
X153220683Y-63586462D01*
X153232843Y-63463000D01*
X153232843Y-62552529D01*
X155769000Y-62552529D01*
X155769000Y-62923472D01*
X155786812Y-63104318D01*
X155857202Y-63336363D01*
X155971509Y-63550216D01*
X156125341Y-63737660D01*
X156312785Y-63891491D01*
X156526638Y-64005798D01*
X156758683Y-64076188D01*
X157000000Y-64099956D01*
X157241318Y-64076188D01*
X157473363Y-64005798D01*
X157687216Y-63891491D01*
X157874660Y-63737660D01*
X158028491Y-63550215D01*
X158142798Y-63336362D01*
X158213188Y-63104317D01*
X158231000Y-62923471D01*
X158231000Y-62552528D01*
X158224251Y-62484000D01*
X160147000Y-62484000D01*
X160147000Y-73914000D01*
X160149440Y-73938776D01*
X160156667Y-73962601D01*
X160168403Y-73984557D01*
X160184197Y-74003803D01*
X160203443Y-74019597D01*
X160225399Y-74031333D01*
X160249224Y-74038560D01*
X160274000Y-74041000D01*
X188468000Y-74041000D01*
X188492776Y-74038560D01*
X188516601Y-74031333D01*
X188538557Y-74019597D01*
X188557803Y-74003803D01*
X188573597Y-73984557D01*
X188585333Y-73962601D01*
X188592560Y-73938776D01*
X188595000Y-73914000D01*
X188595000Y-68090988D01*
X200256927Y-68090988D01*
X200259999Y-68122179D01*
X200259998Y-70561817D01*
X200256927Y-70592998D01*
X200259998Y-70624179D01*
X200259998Y-70624189D01*
X200269186Y-70717479D01*
X200305496Y-70837177D01*
X200364461Y-70947491D01*
X200443813Y-71044183D01*
X200468048Y-71064072D01*
X201595272Y-72191298D01*
X201560052Y-72205887D01*
X201432135Y-72291358D01*
X201323352Y-72400141D01*
X201237881Y-72528058D01*
X201179007Y-72670191D01*
X201148994Y-72821078D01*
X201148994Y-72974922D01*
X201179007Y-73125809D01*
X201237881Y-73267942D01*
X201323352Y-73395859D01*
X201432135Y-73504642D01*
X201560052Y-73590113D01*
X201702185Y-73648987D01*
X201853072Y-73679000D01*
X202006916Y-73679000D01*
X202157803Y-73648987D01*
X202299936Y-73590113D01*
X202427853Y-73504642D01*
X202526495Y-73406000D01*
X205199401Y-73406000D01*
X205234830Y-73449170D01*
X205313302Y-73513571D01*
X205402830Y-73561425D01*
X205499974Y-73590893D01*
X205601000Y-73600843D01*
X205871000Y-73600843D01*
X205972026Y-73590893D01*
X206069170Y-73561425D01*
X206158698Y-73513571D01*
X206237170Y-73449170D01*
X206246000Y-73438411D01*
X206254830Y-73449170D01*
X206333302Y-73513571D01*
X206422830Y-73561425D01*
X206519974Y-73590893D01*
X206621000Y-73600843D01*
X206891000Y-73600843D01*
X206992026Y-73590893D01*
X207089170Y-73561425D01*
X207178698Y-73513571D01*
X207257170Y-73449170D01*
X207292599Y-73406000D01*
X209025294Y-73406000D01*
X209021157Y-73448000D01*
X209021157Y-74348000D01*
X209028513Y-74422689D01*
X209050299Y-74494508D01*
X209085678Y-74560696D01*
X209133289Y-74618711D01*
X209191304Y-74666322D01*
X209257492Y-74701701D01*
X209329311Y-74723487D01*
X209404000Y-74730843D01*
X210204000Y-74730843D01*
X210278689Y-74723487D01*
X210350508Y-74701701D01*
X210416696Y-74666322D01*
X210474711Y-74618711D01*
X210522322Y-74560696D01*
X210557701Y-74494508D01*
X210579487Y-74422689D01*
X210581131Y-74406000D01*
X212335056Y-74406000D01*
X212360000Y-74408457D01*
X212384944Y-74406000D01*
X212384947Y-74406000D01*
X212459585Y-74398649D01*
X212555343Y-74369601D01*
X212643595Y-74322429D01*
X212720948Y-74258948D01*
X212736855Y-74239565D01*
X213350565Y-73625855D01*
X213369948Y-73609948D01*
X213433429Y-73532595D01*
X213480601Y-73444343D01*
X213509649Y-73348585D01*
X213517000Y-73273947D01*
X213517000Y-73273944D01*
X213519457Y-73249000D01*
X213517000Y-73224056D01*
X213517000Y-72904070D01*
X213600866Y-72859243D01*
X213695818Y-72781318D01*
X213773743Y-72686366D01*
X213831646Y-72578037D01*
X213867303Y-72460492D01*
X213879343Y-72338250D01*
X213879343Y-71425750D01*
X214013657Y-71425750D01*
X214013657Y-72338250D01*
X214025697Y-72460492D01*
X214061354Y-72578037D01*
X214119257Y-72686366D01*
X214197182Y-72781318D01*
X214292134Y-72859243D01*
X214400463Y-72917146D01*
X214518008Y-72952803D01*
X214640250Y-72964843D01*
X215127750Y-72964843D01*
X215249992Y-72952803D01*
X215367537Y-72917146D01*
X215475866Y-72859243D01*
X215570818Y-72781318D01*
X215648743Y-72686366D01*
X215677725Y-72632145D01*
X215777149Y-72731570D01*
X215793052Y-72750948D01*
X215812429Y-72766850D01*
X215870404Y-72814429D01*
X215958655Y-72861600D01*
X215958657Y-72861601D01*
X216054415Y-72890649D01*
X216129053Y-72898000D01*
X216129055Y-72898000D01*
X216153999Y-72900457D01*
X216178943Y-72898000D01*
X216373152Y-72898000D01*
X216443302Y-72955571D01*
X216532830Y-73003425D01*
X216629974Y-73032893D01*
X216731000Y-73042843D01*
X217101000Y-73042843D01*
X217202026Y-73032893D01*
X217299170Y-73003425D01*
X217388698Y-72955571D01*
X217467170Y-72891170D01*
X217531571Y-72812698D01*
X217579425Y-72723170D01*
X217608893Y-72626026D01*
X217618843Y-72525000D01*
X217618843Y-72255000D01*
X217608893Y-72153974D01*
X217579425Y-72056830D01*
X217531571Y-71967302D01*
X217467170Y-71888830D01*
X217388698Y-71824429D01*
X217299170Y-71776575D01*
X217202026Y-71747107D01*
X217101000Y-71737157D01*
X216731000Y-71737157D01*
X216629974Y-71747107D01*
X216532830Y-71776575D01*
X216443302Y-71824429D01*
X216373152Y-71882000D01*
X216364421Y-71882000D01*
X216022855Y-71540434D01*
X216006948Y-71521052D01*
X215929595Y-71457571D01*
X215841343Y-71410399D01*
X215750105Y-71382722D01*
X215742303Y-71303508D01*
X215706646Y-71185963D01*
X215648743Y-71077634D01*
X215570818Y-70982682D01*
X215475866Y-70904757D01*
X215367537Y-70846854D01*
X215249992Y-70811197D01*
X215127750Y-70799157D01*
X214640250Y-70799157D01*
X214518008Y-70811197D01*
X214400463Y-70846854D01*
X214292134Y-70904757D01*
X214197182Y-70982682D01*
X214119257Y-71077634D01*
X214061354Y-71185963D01*
X214025697Y-71303508D01*
X214013657Y-71425750D01*
X213879343Y-71425750D01*
X213867303Y-71303508D01*
X213831646Y-71185963D01*
X213773743Y-71077634D01*
X213695818Y-70982682D01*
X213600866Y-70904757D01*
X213492537Y-70846854D01*
X213374992Y-70811197D01*
X213252750Y-70799157D01*
X212765250Y-70799157D01*
X212643008Y-70811197D01*
X212525463Y-70846854D01*
X212417134Y-70904757D01*
X212322182Y-70982682D01*
X212244257Y-71077634D01*
X212186354Y-71185963D01*
X212150697Y-71303508D01*
X212138657Y-71425750D01*
X212138657Y-72338250D01*
X212150697Y-72460492D01*
X212186354Y-72578037D01*
X212244257Y-72686366D01*
X212322182Y-72781318D01*
X212417134Y-72859243D01*
X212501000Y-72904070D01*
X212501000Y-73038580D01*
X212149580Y-73390000D01*
X210694097Y-73390000D01*
X210761343Y-73369601D01*
X210849595Y-73322429D01*
X210926948Y-73258948D01*
X210942855Y-73239565D01*
X211095565Y-73086855D01*
X211114948Y-73070948D01*
X211178429Y-72993595D01*
X211225601Y-72905343D01*
X211254649Y-72809585D01*
X211262000Y-72734947D01*
X211262000Y-72734945D01*
X211264189Y-72712718D01*
X211300508Y-72701701D01*
X211366696Y-72666322D01*
X211424711Y-72618711D01*
X211472322Y-72560696D01*
X211507701Y-72494508D01*
X211529487Y-72422689D01*
X211536843Y-72348000D01*
X211536843Y-71448000D01*
X211529487Y-71373311D01*
X211507701Y-71301492D01*
X211472322Y-71235304D01*
X211424711Y-71177289D01*
X211366696Y-71129678D01*
X211300508Y-71094299D01*
X211228689Y-71072513D01*
X211154000Y-71065157D01*
X210354000Y-71065157D01*
X210279311Y-71072513D01*
X210207492Y-71094299D01*
X210141304Y-71129678D01*
X210083289Y-71177289D01*
X210035678Y-71235304D01*
X210000299Y-71301492D01*
X209978513Y-71373311D01*
X209971157Y-71448000D01*
X209971157Y-72348000D01*
X209975294Y-72390000D01*
X209632706Y-72390000D01*
X209636843Y-72348000D01*
X209636843Y-71448000D01*
X209629487Y-71373311D01*
X209607701Y-71301492D01*
X209572322Y-71235304D01*
X209524711Y-71177289D01*
X209466696Y-71129678D01*
X209400508Y-71094299D01*
X209328689Y-71072513D01*
X209254000Y-71065157D01*
X208454000Y-71065157D01*
X208379311Y-71072513D01*
X208307492Y-71094299D01*
X208241304Y-71129678D01*
X208183289Y-71177289D01*
X208135678Y-71235304D01*
X208120874Y-71263000D01*
X202463026Y-71263000D01*
X201529998Y-70329974D01*
X201529998Y-69760033D01*
X201560050Y-69780113D01*
X201702183Y-69838987D01*
X201853070Y-69869000D01*
X202006914Y-69869000D01*
X202157801Y-69838987D01*
X202299934Y-69780113D01*
X202427851Y-69694642D01*
X202536634Y-69585859D01*
X202622105Y-69457942D01*
X202680979Y-69315809D01*
X202710992Y-69164922D01*
X202710992Y-69011078D01*
X202680979Y-68860191D01*
X202663771Y-68818649D01*
X204606421Y-66876000D01*
X204819401Y-66876000D01*
X204854830Y-66919170D01*
X204933302Y-66983571D01*
X205022830Y-67031425D01*
X205119974Y-67060893D01*
X205221000Y-67070843D01*
X205491000Y-67070843D01*
X205592026Y-67060893D01*
X205689170Y-67031425D01*
X205778698Y-66983571D01*
X205857170Y-66919170D01*
X205866000Y-66908411D01*
X205874830Y-66919170D01*
X205953302Y-66983571D01*
X206042830Y-67031425D01*
X206139974Y-67060893D01*
X206241000Y-67070843D01*
X206511000Y-67070843D01*
X206612026Y-67060893D01*
X206709170Y-67031425D01*
X206798698Y-66983571D01*
X206877170Y-66919170D01*
X206912599Y-66876000D01*
X208767157Y-66876000D01*
X208767157Y-67744000D01*
X208774513Y-67818689D01*
X208796299Y-67890508D01*
X208831678Y-67956696D01*
X208879289Y-68014711D01*
X208937304Y-68062322D01*
X209003492Y-68097701D01*
X209075311Y-68119487D01*
X209150000Y-68126843D01*
X209950000Y-68126843D01*
X210024689Y-68119487D01*
X210096508Y-68097701D01*
X210162696Y-68062322D01*
X210220711Y-68014711D01*
X210268322Y-67956696D01*
X210303701Y-67890508D01*
X210325487Y-67818689D01*
X210332843Y-67744000D01*
X210332843Y-67638000D01*
X212112754Y-67638000D01*
X212119697Y-67708492D01*
X212155354Y-67826037D01*
X212213257Y-67934366D01*
X212291182Y-68029318D01*
X212386134Y-68107243D01*
X212494463Y-68165146D01*
X212612008Y-68200803D01*
X212734250Y-68212843D01*
X213221750Y-68212843D01*
X213343992Y-68200803D01*
X213461537Y-68165146D01*
X213569866Y-68107243D01*
X213664818Y-68029318D01*
X213742743Y-67934366D01*
X213800646Y-67826037D01*
X213836303Y-67708492D01*
X213848343Y-67586250D01*
X213848343Y-66673750D01*
X213982657Y-66673750D01*
X213982657Y-67586250D01*
X213994697Y-67708492D01*
X214030354Y-67826037D01*
X214088257Y-67934366D01*
X214166182Y-68029318D01*
X214261134Y-68107243D01*
X214369463Y-68165146D01*
X214487008Y-68200803D01*
X214609250Y-68212843D01*
X215096750Y-68212843D01*
X215218992Y-68200803D01*
X215336537Y-68165146D01*
X215444866Y-68107243D01*
X215539818Y-68029318D01*
X215617743Y-67934366D01*
X215675646Y-67826037D01*
X215711303Y-67708492D01*
X215723343Y-67586250D01*
X215723343Y-66673750D01*
X215711303Y-66551508D01*
X215675646Y-66433963D01*
X215617743Y-66325634D01*
X215539818Y-66230682D01*
X215444866Y-66152757D01*
X215361000Y-66107930D01*
X215361000Y-65789579D01*
X215371571Y-65776698D01*
X215419425Y-65687170D01*
X215448893Y-65590026D01*
X215458843Y-65489000D01*
X215458843Y-65219000D01*
X215448893Y-65117974D01*
X215419425Y-65020830D01*
X215371571Y-64931302D01*
X215307170Y-64852830D01*
X215228698Y-64788429D01*
X215139170Y-64740575D01*
X215042026Y-64711107D01*
X214941000Y-64701157D01*
X214571000Y-64701157D01*
X214469974Y-64711107D01*
X214372830Y-64740575D01*
X214283302Y-64788429D01*
X214204830Y-64852830D01*
X214140429Y-64931302D01*
X214092575Y-65020830D01*
X214063107Y-65117974D01*
X214053157Y-65219000D01*
X214053157Y-65489000D01*
X214063107Y-65590026D01*
X214092575Y-65687170D01*
X214140429Y-65776698D01*
X214204830Y-65855170D01*
X214283302Y-65919571D01*
X214345001Y-65952550D01*
X214345001Y-66107929D01*
X214261134Y-66152757D01*
X214166182Y-66230682D01*
X214088257Y-66325634D01*
X214030354Y-66433963D01*
X213994697Y-66551508D01*
X213982657Y-66673750D01*
X213848343Y-66673750D01*
X213836303Y-66551508D01*
X213800646Y-66433963D01*
X213742743Y-66325634D01*
X213664818Y-66230682D01*
X213569866Y-66152757D01*
X213461537Y-66094854D01*
X213343992Y-66059197D01*
X213221750Y-66047157D01*
X212734250Y-66047157D01*
X212612008Y-66059197D01*
X212494463Y-66094854D01*
X212386134Y-66152757D01*
X212291182Y-66230682D01*
X212213257Y-66325634D01*
X212155354Y-66433963D01*
X212119697Y-66551508D01*
X212112754Y-66622000D01*
X210702420Y-66622000D01*
X210841565Y-66482855D01*
X210860948Y-66466948D01*
X210924429Y-66389595D01*
X210971601Y-66301343D01*
X211000649Y-66205585D01*
X211008000Y-66130947D01*
X211008000Y-66130944D01*
X211010189Y-66108718D01*
X211046508Y-66097701D01*
X211112696Y-66062322D01*
X211170711Y-66014711D01*
X211218322Y-65956696D01*
X211253701Y-65890508D01*
X211275487Y-65818689D01*
X211282843Y-65744000D01*
X211282843Y-64844000D01*
X211275487Y-64769311D01*
X211253701Y-64697492D01*
X211218322Y-64631304D01*
X211170711Y-64573289D01*
X211112696Y-64525678D01*
X211046508Y-64490299D01*
X210974689Y-64468513D01*
X210900000Y-64461157D01*
X210100000Y-64461157D01*
X210025311Y-64468513D01*
X209953492Y-64490299D01*
X209887304Y-64525678D01*
X209829289Y-64573289D01*
X209781678Y-64631304D01*
X209746299Y-64697492D01*
X209724513Y-64769311D01*
X209717157Y-64844000D01*
X209717157Y-65744000D01*
X209724513Y-65818689D01*
X209737045Y-65860000D01*
X209362955Y-65860000D01*
X209375487Y-65818689D01*
X209382843Y-65744000D01*
X209382843Y-64844000D01*
X209375487Y-64769311D01*
X209353701Y-64697492D01*
X209318322Y-64631304D01*
X209270711Y-64573289D01*
X209212696Y-64525678D01*
X209146508Y-64490299D01*
X209074689Y-64468513D01*
X209000000Y-64461157D01*
X208200000Y-64461157D01*
X208125311Y-64468513D01*
X208053492Y-64490299D01*
X207987304Y-64525678D01*
X207929289Y-64573289D01*
X207881678Y-64631304D01*
X207866874Y-64659000D01*
X204147404Y-64659000D01*
X204061928Y-64601887D01*
X203919795Y-64543013D01*
X203768908Y-64513000D01*
X203615064Y-64513000D01*
X203464177Y-64543013D01*
X203322044Y-64601887D01*
X203194127Y-64687358D01*
X203085344Y-64796141D01*
X202999873Y-64924058D01*
X202940999Y-65066191D01*
X202920944Y-65167018D01*
X200468044Y-67619918D01*
X200443814Y-67639803D01*
X200423930Y-67664032D01*
X200364461Y-67736495D01*
X200305496Y-67846809D01*
X200269187Y-67966507D01*
X200256927Y-68090988D01*
X188595000Y-68090988D01*
X188595000Y-62484000D01*
X188592560Y-62459224D01*
X188585333Y-62435399D01*
X188573597Y-62413443D01*
X188557803Y-62394197D01*
X188538557Y-62378403D01*
X188516601Y-62366667D01*
X188492776Y-62359440D01*
X188468000Y-62357000D01*
X160274000Y-62357000D01*
X160249224Y-62359440D01*
X160225399Y-62366667D01*
X160203443Y-62378403D01*
X160184197Y-62394197D01*
X160168403Y-62413443D01*
X160156667Y-62435399D01*
X160149440Y-62459224D01*
X160147000Y-62484000D01*
X158224251Y-62484000D01*
X158213188Y-62371682D01*
X158142798Y-62139637D01*
X158028491Y-61925784D01*
X157874660Y-61738340D01*
X157687215Y-61584509D01*
X157473362Y-61470202D01*
X157241317Y-61399812D01*
X157000000Y-61376044D01*
X156758682Y-61399812D01*
X156526637Y-61470202D01*
X156312784Y-61584509D01*
X156125340Y-61738340D01*
X155971509Y-61925785D01*
X155857202Y-62139638D01*
X155786812Y-62371683D01*
X155769000Y-62552529D01*
X153232843Y-62552529D01*
X153232843Y-62013000D01*
X153220683Y-61889538D01*
X153184671Y-61770821D01*
X153126190Y-61661411D01*
X153047488Y-61565512D01*
X152951589Y-61486810D01*
X152842179Y-61428329D01*
X152723462Y-61392317D01*
X152635000Y-61383604D01*
X152635000Y-61099189D01*
X152638072Y-61068000D01*
X152635000Y-61036808D01*
X152625812Y-60943518D01*
X152589502Y-60823820D01*
X152589498Y-60823812D01*
X152530538Y-60713506D01*
X152471069Y-60641043D01*
X152471065Y-60641039D01*
X152451185Y-60616815D01*
X152426961Y-60596935D01*
X151601074Y-59771050D01*
X151581185Y-59746815D01*
X151507934Y-59686699D01*
X215819000Y-59686699D01*
X215819000Y-60313301D01*
X215941245Y-60927863D01*
X216181035Y-61506768D01*
X216529156Y-62027769D01*
X216972231Y-62470844D01*
X217493232Y-62818965D01*
X218072137Y-63058755D01*
X218686699Y-63181000D01*
X219313301Y-63181000D01*
X219927863Y-63058755D01*
X220506768Y-62818965D01*
X221027769Y-62470844D01*
X221470844Y-62027769D01*
X221818965Y-61506768D01*
X222058755Y-60927863D01*
X222181000Y-60313301D01*
X222181000Y-59686699D01*
X222058755Y-59072137D01*
X221818965Y-58493232D01*
X221470844Y-57972231D01*
X221027769Y-57529156D01*
X220506768Y-57181035D01*
X219927863Y-56941245D01*
X219313301Y-56819000D01*
X218686699Y-56819000D01*
X218072137Y-56941245D01*
X217493232Y-57181035D01*
X216972231Y-57529156D01*
X216529156Y-57972231D01*
X216181035Y-58493232D01*
X215941245Y-59072137D01*
X215819000Y-59686699D01*
X151507934Y-59686699D01*
X151484494Y-59667463D01*
X151374180Y-59608498D01*
X151254482Y-59572188D01*
X151161192Y-59563000D01*
X151161181Y-59563000D01*
X151130000Y-59559929D01*
X151098819Y-59563000D01*
X140239180Y-59563000D01*
X140207999Y-59559929D01*
X140176818Y-59563000D01*
X140176808Y-59563000D01*
X140083518Y-59572188D01*
X139963820Y-59608498D01*
X139912303Y-59636035D01*
X139853505Y-59667463D01*
X139802373Y-59709426D01*
X139756815Y-59746815D01*
X139736930Y-59771045D01*
X138979046Y-60528930D01*
X138954816Y-60548815D01*
X138934932Y-60573044D01*
X138875463Y-60645507D01*
X138816498Y-60755821D01*
X138780189Y-60875519D01*
X138767929Y-61000000D01*
X138771001Y-61031191D01*
X138771001Y-61556599D01*
X138718784Y-61584509D01*
X138531340Y-61738340D01*
X138377509Y-61925785D01*
X138263202Y-62139638D01*
X138192812Y-62371683D01*
X138175000Y-62552529D01*
X138175000Y-62923472D01*
X138192812Y-63104318D01*
X138263202Y-63336363D01*
X138377509Y-63550216D01*
X138531341Y-63737660D01*
X138718785Y-63891491D01*
X138771000Y-63919401D01*
X138771000Y-64777191D01*
X138771001Y-64777201D01*
X138771000Y-73334819D01*
X138767929Y-73366000D01*
X138771000Y-73397181D01*
X138771000Y-73397191D01*
X138780188Y-73490481D01*
X138816498Y-73610179D01*
X138875463Y-73720493D01*
X138954815Y-73817185D01*
X138979050Y-73837074D01*
X143365001Y-78223026D01*
X143365000Y-93867157D01*
X142250000Y-93867157D01*
X142175311Y-93874513D01*
X142103492Y-93896299D01*
X142037304Y-93931678D01*
X141979289Y-93979289D01*
X141931678Y-94037304D01*
X141896299Y-94103492D01*
X141874513Y-94175311D01*
X141867157Y-94250000D01*
X141867157Y-95365000D01*
X141729025Y-95365000D01*
X138901074Y-92537050D01*
X138881185Y-92512815D01*
X138784494Y-92433463D01*
X138674180Y-92374498D01*
X138554482Y-92338188D01*
X138461192Y-92329000D01*
X138461181Y-92329000D01*
X138430000Y-92325929D01*
X138398819Y-92329000D01*
X137953599Y-92329000D01*
X137928671Y-92246821D01*
X137870190Y-92137411D01*
X137791488Y-92041512D01*
X137695589Y-91962810D01*
X137586179Y-91904329D01*
X137467462Y-91868317D01*
X137344000Y-91856157D01*
X136844000Y-91856157D01*
X136720538Y-91868317D01*
X136601821Y-91904329D01*
X136492411Y-91962810D01*
X136396512Y-92041512D01*
X136317810Y-92137411D01*
X136259329Y-92246821D01*
X136223317Y-92365538D01*
X136211157Y-92489000D01*
X124406000Y-92489000D01*
X124406000Y-60018085D01*
X124435575Y-59686699D01*
X125819000Y-59686699D01*
X125819000Y-60313301D01*
X125941245Y-60927863D01*
X126181035Y-61506768D01*
X126529156Y-62027769D01*
X126972231Y-62470844D01*
X127493232Y-62818965D01*
X128072137Y-63058755D01*
X128686699Y-63181000D01*
X129313301Y-63181000D01*
X129927863Y-63058755D01*
X130506768Y-62818965D01*
X131027769Y-62470844D01*
X131470844Y-62027769D01*
X131480712Y-62013000D01*
X135673157Y-62013000D01*
X135673157Y-63463000D01*
X135685317Y-63586462D01*
X135721329Y-63705179D01*
X135779810Y-63814589D01*
X135858512Y-63910488D01*
X135954411Y-63989190D01*
X136063821Y-64047671D01*
X136182538Y-64083683D01*
X136306000Y-64095843D01*
X137506000Y-64095843D01*
X137629462Y-64083683D01*
X137748179Y-64047671D01*
X137857589Y-63989190D01*
X137953488Y-63910488D01*
X138032190Y-63814589D01*
X138090671Y-63705179D01*
X138126683Y-63586462D01*
X138138843Y-63463000D01*
X138138843Y-62013000D01*
X138126683Y-61889538D01*
X138090671Y-61770821D01*
X138032190Y-61661411D01*
X137953488Y-61565512D01*
X137857589Y-61486810D01*
X137748179Y-61428329D01*
X137629462Y-61392317D01*
X137506000Y-61380157D01*
X136306000Y-61380157D01*
X136182538Y-61392317D01*
X136063821Y-61428329D01*
X135954411Y-61486810D01*
X135858512Y-61565512D01*
X135779810Y-61661411D01*
X135721329Y-61770821D01*
X135685317Y-61889538D01*
X135673157Y-62013000D01*
X131480712Y-62013000D01*
X131818965Y-61506768D01*
X132058755Y-60927863D01*
X132181000Y-60313301D01*
X132181000Y-59686699D01*
X132058755Y-59072137D01*
X131818965Y-58493232D01*
X131470844Y-57972231D01*
X131027769Y-57529156D01*
X130506768Y-57181035D01*
X129927863Y-56941245D01*
X129313301Y-56819000D01*
X128686699Y-56819000D01*
X128072137Y-56941245D01*
X127493232Y-57181035D01*
X126972231Y-57529156D01*
X126529156Y-57972231D01*
X126181035Y-58493232D01*
X125941245Y-59072137D01*
X125819000Y-59686699D01*
X124435575Y-59686699D01*
X124480194Y-59186754D01*
X124695638Y-58399227D01*
X125047141Y-57662284D01*
X125523587Y-56999240D01*
X126109919Y-56431044D01*
X126787600Y-55975662D01*
X127535216Y-55647481D01*
X128332251Y-55456130D01*
X129014892Y-55406000D01*
X218981915Y-55406000D01*
X219813246Y-55480194D01*
%TA.AperFunction,Conductor*%
D31*
G36*
X219813246Y-55480194D02*
G01*
X220600773Y-55695638D01*
X221337716Y-56047141D01*
X222000760Y-56523587D01*
X222568956Y-57109919D01*
X223024338Y-57787600D01*
X223352519Y-58535216D01*
X223543870Y-59332251D01*
X223594000Y-60014892D01*
X223594001Y-104981904D01*
X223519806Y-105813246D01*
X223304362Y-106600774D01*
X222952859Y-107337716D01*
X222476413Y-108000760D01*
X221890081Y-108568956D01*
X221212400Y-109024338D01*
X220464784Y-109352519D01*
X219667749Y-109543870D01*
X218985108Y-109594000D01*
X129018085Y-109594000D01*
X128186754Y-109519806D01*
X127399226Y-109304362D01*
X126662284Y-108952859D01*
X125999240Y-108476413D01*
X125431044Y-107890081D01*
X124975662Y-107212400D01*
X124647481Y-106464784D01*
X124456130Y-105667749D01*
X124406000Y-104985108D01*
X124406000Y-104686699D01*
X125819000Y-104686699D01*
X125819000Y-105313301D01*
X125941245Y-105927863D01*
X126181035Y-106506768D01*
X126529156Y-107027769D01*
X126972231Y-107470844D01*
X127493232Y-107818965D01*
X128072137Y-108058755D01*
X128686699Y-108181000D01*
X129313301Y-108181000D01*
X129927863Y-108058755D01*
X130506768Y-107818965D01*
X131027769Y-107470844D01*
X131470844Y-107027769D01*
X131818965Y-106506768D01*
X132058755Y-105927863D01*
X132082874Y-105806606D01*
X175145000Y-105806606D01*
X175145000Y-106029394D01*
X175188464Y-106247900D01*
X175273721Y-106453729D01*
X175397495Y-106638970D01*
X175555030Y-106796505D01*
X175740271Y-106920279D01*
X175946100Y-107005536D01*
X176164606Y-107049000D01*
X176387394Y-107049000D01*
X176605900Y-107005536D01*
X176811729Y-106920279D01*
X176996970Y-106796505D01*
X177154505Y-106638970D01*
X177278279Y-106453729D01*
X177363536Y-106247900D01*
X177407000Y-106029394D01*
X177407000Y-105806606D01*
X177399164Y-105767210D01*
X179571000Y-105767210D01*
X179571000Y-106068790D01*
X179629835Y-106364576D01*
X179745245Y-106643201D01*
X179912795Y-106893956D01*
X180126044Y-107107205D01*
X180376799Y-107274755D01*
X180655424Y-107390165D01*
X180951210Y-107449000D01*
X181252790Y-107449000D01*
X181548576Y-107390165D01*
X181827201Y-107274755D01*
X182077956Y-107107205D01*
X182291205Y-106893956D01*
X182458755Y-106643201D01*
X182574165Y-106364576D01*
X182633000Y-106068790D01*
X182633000Y-105767210D01*
X182574165Y-105471424D01*
X182458755Y-105192799D01*
X182291205Y-104942044D01*
X182077956Y-104728795D01*
X182014956Y-104686699D01*
X215819000Y-104686699D01*
X215819000Y-105313301D01*
X215941245Y-105927863D01*
X216181035Y-106506768D01*
X216529156Y-107027769D01*
X216972231Y-107470844D01*
X217493232Y-107818965D01*
X218072137Y-108058755D01*
X218686699Y-108181000D01*
X219313301Y-108181000D01*
X219927863Y-108058755D01*
X220506768Y-107818965D01*
X221027769Y-107470844D01*
X221470844Y-107027769D01*
X221818965Y-106506768D01*
X222058755Y-105927863D01*
X222181000Y-105313301D01*
X222181000Y-104686699D01*
X222058755Y-104072137D01*
X221818965Y-103493232D01*
X221470844Y-102972231D01*
X221027769Y-102529156D01*
X220506768Y-102181035D01*
X219927863Y-101941245D01*
X219313301Y-101819000D01*
X218686699Y-101819000D01*
X218072137Y-101941245D01*
X217493232Y-102181035D01*
X216972231Y-102529156D01*
X216529156Y-102972231D01*
X216181035Y-103493232D01*
X215941245Y-104072137D01*
X215819000Y-104686699D01*
X182014956Y-104686699D01*
X181827201Y-104561245D01*
X181548576Y-104445835D01*
X181252790Y-104387000D01*
X180951210Y-104387000D01*
X180655424Y-104445835D01*
X180376799Y-104561245D01*
X180126044Y-104728795D01*
X179912795Y-104942044D01*
X179745245Y-105192799D01*
X179629835Y-105471424D01*
X179571000Y-105767210D01*
X177399164Y-105767210D01*
X177363536Y-105588100D01*
X177278279Y-105382271D01*
X177154505Y-105197030D01*
X176996970Y-105039495D01*
X176811729Y-104915721D01*
X176784000Y-104904235D01*
X176784000Y-100794420D01*
X177991420Y-99587000D01*
X178130922Y-99587000D01*
X178281809Y-99556987D01*
X178423942Y-99498113D01*
X178551859Y-99412642D01*
X178660642Y-99303859D01*
X178746113Y-99175942D01*
X178804987Y-99033809D01*
X178835000Y-98882922D01*
X178835000Y-98729078D01*
X178804987Y-98578191D01*
X178746113Y-98436058D01*
X178660642Y-98308141D01*
X178551859Y-98199358D01*
X178423942Y-98113887D01*
X178281809Y-98055013D01*
X178130922Y-98025000D01*
X177977078Y-98025000D01*
X177826191Y-98055013D01*
X177684058Y-98113887D01*
X177556141Y-98199358D01*
X177447358Y-98308141D01*
X177361887Y-98436058D01*
X177303013Y-98578191D01*
X177273000Y-98729078D01*
X177273000Y-98868580D01*
X175934430Y-100207150D01*
X175915053Y-100223052D01*
X175899151Y-100242429D01*
X175899150Y-100242430D01*
X175851571Y-100300405D01*
X175804400Y-100388657D01*
X175775352Y-100484416D01*
X175765543Y-100584000D01*
X175768001Y-100608954D01*
X175768000Y-104904235D01*
X175740271Y-104915721D01*
X175555030Y-105039495D01*
X175397495Y-105197030D01*
X175273721Y-105382271D01*
X175188464Y-105588100D01*
X175145000Y-105806606D01*
X132082874Y-105806606D01*
X132181000Y-105313301D01*
X132181000Y-104686699D01*
X132058755Y-104072137D01*
X131830304Y-103520606D01*
X162953000Y-103520606D01*
X162953000Y-103743394D01*
X162996464Y-103961900D01*
X163081721Y-104167729D01*
X163205495Y-104352970D01*
X163363030Y-104510505D01*
X163548271Y-104634279D01*
X163754100Y-104719536D01*
X163972606Y-104763000D01*
X164195394Y-104763000D01*
X164413900Y-104719536D01*
X164619729Y-104634279D01*
X164804970Y-104510505D01*
X164962505Y-104352970D01*
X165086279Y-104167729D01*
X165171536Y-103961900D01*
X165215000Y-103743394D01*
X165215000Y-103520606D01*
X165171536Y-103302100D01*
X165086279Y-103096271D01*
X164962505Y-102911030D01*
X164804970Y-102753495D01*
X164619729Y-102629721D01*
X164592000Y-102618235D01*
X164592000Y-98521605D01*
X164712204Y-98471815D01*
X164885161Y-98356249D01*
X165032249Y-98209161D01*
X165147815Y-98036204D01*
X165212000Y-97881249D01*
X165276185Y-98036204D01*
X165391751Y-98209161D01*
X165538839Y-98356249D01*
X165608001Y-98402461D01*
X165608000Y-99824235D01*
X165580271Y-99835721D01*
X165395030Y-99959495D01*
X165237495Y-100117030D01*
X165113721Y-100302271D01*
X165028464Y-100508100D01*
X164985000Y-100726606D01*
X164985000Y-100949394D01*
X165028464Y-101167900D01*
X165113721Y-101373729D01*
X165237495Y-101558970D01*
X165395030Y-101716505D01*
X165580271Y-101840279D01*
X165786100Y-101925536D01*
X166004606Y-101969000D01*
X166227394Y-101969000D01*
X166445900Y-101925536D01*
X166651729Y-101840279D01*
X166836970Y-101716505D01*
X166994505Y-101558970D01*
X167118279Y-101373729D01*
X167203536Y-101167900D01*
X167247000Y-100949394D01*
X167247000Y-100726606D01*
X167203536Y-100508100D01*
X167118279Y-100302271D01*
X166994505Y-100117030D01*
X166836970Y-99959495D01*
X166651729Y-99835721D01*
X166624000Y-99824235D01*
X166624000Y-98508350D01*
X166712204Y-98471815D01*
X166885161Y-98356249D01*
X167032249Y-98209161D01*
X167147815Y-98036204D01*
X167212000Y-97881249D01*
X167276185Y-98036204D01*
X167391751Y-98209161D01*
X167538839Y-98356249D01*
X167711796Y-98471815D01*
X167903976Y-98551419D01*
X168107993Y-98592000D01*
X168316007Y-98592000D01*
X168520024Y-98551419D01*
X168712204Y-98471815D01*
X168885161Y-98356249D01*
X169032249Y-98209161D01*
X169147815Y-98036204D01*
X169212000Y-97881249D01*
X169276185Y-98036204D01*
X169391751Y-98209161D01*
X169538839Y-98356249D01*
X169711796Y-98471815D01*
X169903976Y-98551419D01*
X170107993Y-98592000D01*
X170316007Y-98592000D01*
X170520024Y-98551419D01*
X170712204Y-98471815D01*
X170885161Y-98356249D01*
X171032249Y-98209161D01*
X171147815Y-98036204D01*
X171154157Y-98020893D01*
X171154157Y-98211000D01*
X171161513Y-98285689D01*
X171183299Y-98357508D01*
X171218678Y-98423696D01*
X171266289Y-98481711D01*
X171324304Y-98529322D01*
X171390492Y-98564701D01*
X171462311Y-98586487D01*
X171537000Y-98593843D01*
X171704000Y-98593843D01*
X171704001Y-99824235D01*
X171676271Y-99835721D01*
X171491030Y-99959495D01*
X171333495Y-100117030D01*
X171209721Y-100302271D01*
X171124464Y-100508100D01*
X171081000Y-100726606D01*
X171081000Y-100949394D01*
X171124464Y-101167900D01*
X171209721Y-101373729D01*
X171333495Y-101558970D01*
X171491030Y-101716505D01*
X171676271Y-101840279D01*
X171882100Y-101925536D01*
X172100606Y-101969000D01*
X172323394Y-101969000D01*
X172541900Y-101925536D01*
X172747729Y-101840279D01*
X172932970Y-101716505D01*
X173090505Y-101558970D01*
X173214279Y-101373729D01*
X173299536Y-101167900D01*
X173343000Y-100949394D01*
X173343000Y-100726606D01*
X173299536Y-100508100D01*
X173214279Y-100302271D01*
X173090505Y-100117030D01*
X172932970Y-99959495D01*
X172747729Y-99835721D01*
X172720000Y-99824235D01*
X172720000Y-98593843D01*
X172887000Y-98593843D01*
X172961689Y-98586487D01*
X173033508Y-98564701D01*
X173099696Y-98529322D01*
X173157711Y-98481711D01*
X173205322Y-98423696D01*
X173240701Y-98357508D01*
X173262487Y-98285689D01*
X173269843Y-98211000D01*
X173269843Y-97148000D01*
X179569157Y-97148000D01*
X179569157Y-99448000D01*
X179576513Y-99522689D01*
X179598299Y-99594508D01*
X179633678Y-99660696D01*
X179681289Y-99718711D01*
X179739304Y-99766322D01*
X179805492Y-99801701D01*
X179877311Y-99823487D01*
X179952000Y-99830843D01*
X182252000Y-99830843D01*
X182326689Y-99823487D01*
X182398508Y-99801701D01*
X182464696Y-99766322D01*
X182522711Y-99718711D01*
X182570322Y-99660696D01*
X182605701Y-99594508D01*
X182627487Y-99522689D01*
X182634843Y-99448000D01*
X182634843Y-98147210D01*
X189731000Y-98147210D01*
X189731000Y-98448790D01*
X189789835Y-98744576D01*
X189905245Y-99023201D01*
X190072795Y-99273956D01*
X190246001Y-99447162D01*
X190246001Y-100026089D01*
X190241085Y-100076000D01*
X190260702Y-100275170D01*
X190301473Y-100409571D01*
X190318799Y-100466687D01*
X190413141Y-100643190D01*
X190540105Y-100797896D01*
X190578868Y-100829708D01*
X192032292Y-102283133D01*
X192064104Y-102321896D01*
X192218810Y-102448860D01*
X192395313Y-102543202D01*
X192528732Y-102583674D01*
X192586828Y-102601298D01*
X192606177Y-102603204D01*
X192736098Y-102616000D01*
X192736105Y-102616000D01*
X192785999Y-102620914D01*
X192835893Y-102616000D01*
X200610098Y-102616000D01*
X200660000Y-102620915D01*
X200709902Y-102616000D01*
X200859171Y-102601298D01*
X201050687Y-102543202D01*
X201227190Y-102448860D01*
X201381896Y-102321896D01*
X201413712Y-102283128D01*
X203366841Y-100330000D01*
X203607157Y-100330000D01*
X203607157Y-100559999D01*
X203619317Y-100683461D01*
X203655329Y-100802178D01*
X203713810Y-100911588D01*
X203792513Y-101007487D01*
X203888412Y-101086190D01*
X203997822Y-101144671D01*
X204116539Y-101180683D01*
X204240001Y-101192843D01*
X207239999Y-101192843D01*
X207363461Y-101180683D01*
X207482178Y-101144671D01*
X207591588Y-101086190D01*
X207687487Y-101007487D01*
X207766190Y-100911588D01*
X207824671Y-100802178D01*
X207860683Y-100683461D01*
X207872843Y-100559999D01*
X207872843Y-98850115D01*
X210609000Y-98850115D01*
X210609000Y-99269885D01*
X210690893Y-99681590D01*
X210851532Y-100069407D01*
X211084744Y-100418433D01*
X211381567Y-100715256D01*
X211724000Y-100944063D01*
X211724001Y-102713973D01*
X211720157Y-102753000D01*
X211720157Y-103245281D01*
X211707085Y-103378000D01*
X211720157Y-103510719D01*
X211720157Y-104003000D01*
X211732317Y-104126462D01*
X211768329Y-104245179D01*
X211826810Y-104354589D01*
X211905512Y-104450488D01*
X212001411Y-104529190D01*
X212110821Y-104587671D01*
X212229538Y-104623683D01*
X212353000Y-104635843D01*
X213103000Y-104635843D01*
X213226462Y-104623683D01*
X213345179Y-104587671D01*
X213454589Y-104529190D01*
X213550488Y-104450488D01*
X213629190Y-104354589D01*
X213687671Y-104245179D01*
X213723683Y-104126462D01*
X213735843Y-104003000D01*
X213735843Y-103583154D01*
X213741298Y-103565171D01*
X213756000Y-103415902D01*
X213760915Y-103366000D01*
X213756000Y-103316098D01*
X213756000Y-100944063D01*
X214098433Y-100715256D01*
X214395256Y-100418433D01*
X214628468Y-100069407D01*
X214789107Y-99681590D01*
X214871000Y-99269885D01*
X214871000Y-98850115D01*
X214789107Y-98438410D01*
X214628468Y-98050593D01*
X214395256Y-97701567D01*
X214098433Y-97404744D01*
X213749407Y-97171532D01*
X213361590Y-97010893D01*
X212949885Y-96929000D01*
X212530115Y-96929000D01*
X212118410Y-97010893D01*
X211730593Y-97171532D01*
X211381567Y-97404744D01*
X211084744Y-97701567D01*
X210851532Y-98050593D01*
X210690893Y-98438410D01*
X210609000Y-98850115D01*
X207872843Y-98850115D01*
X207872843Y-97560001D01*
X207860683Y-97436539D01*
X207824671Y-97317822D01*
X207766190Y-97208412D01*
X207687487Y-97112513D01*
X207591588Y-97033810D01*
X207482178Y-96975329D01*
X207363461Y-96939317D01*
X207239999Y-96927157D01*
X204240001Y-96927157D01*
X204116539Y-96939317D01*
X203997822Y-96975329D01*
X203888412Y-97033810D01*
X203792513Y-97112513D01*
X203713810Y-97208412D01*
X203655329Y-97317822D01*
X203619317Y-97436539D01*
X203607157Y-97560001D01*
X203607157Y-98298000D01*
X202995893Y-98298000D01*
X202945999Y-98293086D01*
X202896105Y-98298000D01*
X202896098Y-98298000D01*
X202746829Y-98312702D01*
X202555313Y-98370798D01*
X202378810Y-98465140D01*
X202224104Y-98592104D01*
X202192292Y-98630867D01*
X200239160Y-100584000D01*
X193206841Y-100584000D01*
X192278000Y-99655160D01*
X192278000Y-99447161D01*
X192451205Y-99273956D01*
X192618755Y-99023201D01*
X192734165Y-98744576D01*
X192793000Y-98448790D01*
X192793000Y-98147210D01*
X197351000Y-98147210D01*
X197351000Y-98448790D01*
X197409835Y-98744576D01*
X197525245Y-99023201D01*
X197692795Y-99273956D01*
X197906044Y-99487205D01*
X198156799Y-99654755D01*
X198435424Y-99770165D01*
X198731210Y-99829000D01*
X199032790Y-99829000D01*
X199328576Y-99770165D01*
X199607201Y-99654755D01*
X199857956Y-99487205D01*
X200071205Y-99273956D01*
X200238755Y-99023201D01*
X200354165Y-98744576D01*
X200413000Y-98448790D01*
X200413000Y-98147210D01*
X200354165Y-97851424D01*
X200238755Y-97572799D01*
X200071205Y-97322044D01*
X199857956Y-97108795D01*
X199607201Y-96941245D01*
X199328576Y-96825835D01*
X199032790Y-96767000D01*
X198731210Y-96767000D01*
X198435424Y-96825835D01*
X198156799Y-96941245D01*
X197906044Y-97108795D01*
X197692795Y-97322044D01*
X197525245Y-97572799D01*
X197409835Y-97851424D01*
X197351000Y-98147210D01*
X192793000Y-98147210D01*
X192734165Y-97851424D01*
X192618755Y-97572799D01*
X192451205Y-97322044D01*
X192237956Y-97108795D01*
X191987201Y-96941245D01*
X191708576Y-96825835D01*
X191412790Y-96767000D01*
X191111210Y-96767000D01*
X190815424Y-96825835D01*
X190536799Y-96941245D01*
X190286044Y-97108795D01*
X190072795Y-97322044D01*
X189905245Y-97572799D01*
X189789835Y-97851424D01*
X189731000Y-98147210D01*
X182634843Y-98147210D01*
X182634843Y-97148000D01*
X182627487Y-97073311D01*
X182605701Y-97001492D01*
X182570322Y-96935304D01*
X182522711Y-96877289D01*
X182464696Y-96829678D01*
X182398508Y-96794299D01*
X182326689Y-96772513D01*
X182252000Y-96765157D01*
X179952000Y-96765157D01*
X179877311Y-96772513D01*
X179805492Y-96794299D01*
X179739304Y-96829678D01*
X179681289Y-96877289D01*
X179633678Y-96935304D01*
X179598299Y-97001492D01*
X179576513Y-97073311D01*
X179569157Y-97148000D01*
X173269843Y-97148000D01*
X173269843Y-96861000D01*
X173262487Y-96786311D01*
X173240701Y-96714492D01*
X173205322Y-96648304D01*
X173157711Y-96590289D01*
X173099696Y-96542678D01*
X173033508Y-96507299D01*
X172961689Y-96485513D01*
X172887000Y-96478157D01*
X171537000Y-96478157D01*
X171462311Y-96485513D01*
X171390492Y-96507299D01*
X171324304Y-96542678D01*
X171266289Y-96590289D01*
X171218678Y-96648304D01*
X171183299Y-96714492D01*
X171161513Y-96786311D01*
X171154157Y-96861000D01*
X171154157Y-97051107D01*
X171147815Y-97035796D01*
X171032249Y-96862839D01*
X170885161Y-96715751D01*
X170712204Y-96600185D01*
X170520024Y-96520581D01*
X170316007Y-96480000D01*
X170107993Y-96480000D01*
X169903976Y-96520581D01*
X169711796Y-96600185D01*
X169538839Y-96715751D01*
X169391751Y-96862839D01*
X169276185Y-97035796D01*
X169212000Y-97190751D01*
X169147815Y-97035796D01*
X169032249Y-96862839D01*
X168885161Y-96715751D01*
X168712204Y-96600185D01*
X168520024Y-96520581D01*
X168316007Y-96480000D01*
X168107993Y-96480000D01*
X167903976Y-96520581D01*
X167711796Y-96600185D01*
X167538839Y-96715751D01*
X167391751Y-96862839D01*
X167276185Y-97035796D01*
X167212000Y-97190751D01*
X167147815Y-97035796D01*
X167032249Y-96862839D01*
X166885161Y-96715751D01*
X166720000Y-96605394D01*
X166720000Y-93586420D01*
X169759565Y-90546855D01*
X169778948Y-90530948D01*
X169842429Y-90453595D01*
X169889601Y-90365343D01*
X169918649Y-90269585D01*
X169926000Y-90194947D01*
X169926000Y-90194944D01*
X169928457Y-90170000D01*
X169926000Y-90145053D01*
X169926000Y-89077078D01*
X170161000Y-89077078D01*
X170161000Y-89230922D01*
X170191013Y-89381809D01*
X170249887Y-89523942D01*
X170335358Y-89651859D01*
X170444141Y-89760642D01*
X170572058Y-89846113D01*
X170714191Y-89904987D01*
X170865078Y-89935000D01*
X171018922Y-89935000D01*
X171169809Y-89904987D01*
X171311942Y-89846113D01*
X171439859Y-89760642D01*
X171538501Y-89662000D01*
X175049580Y-89662000D01*
X178947145Y-93559565D01*
X178963052Y-93578948D01*
X179012288Y-93619354D01*
X179040404Y-93642429D01*
X179072520Y-93659595D01*
X179128657Y-93689601D01*
X179224415Y-93718649D01*
X179299053Y-93726000D01*
X179299056Y-93726000D01*
X179324000Y-93728457D01*
X179348944Y-93726000D01*
X184315499Y-93726000D01*
X184414141Y-93824642D01*
X184542058Y-93910113D01*
X184684191Y-93968987D01*
X184835078Y-93999000D01*
X184988922Y-93999000D01*
X185139809Y-93968987D01*
X185281942Y-93910113D01*
X185409859Y-93824642D01*
X185518642Y-93715859D01*
X185604113Y-93587942D01*
X185662987Y-93445809D01*
X185693000Y-93294922D01*
X185693000Y-93141078D01*
X185662987Y-92990191D01*
X185604113Y-92848058D01*
X185518642Y-92720141D01*
X185409859Y-92611358D01*
X185281942Y-92525887D01*
X185139809Y-92467013D01*
X184988922Y-92437000D01*
X184835078Y-92437000D01*
X184684191Y-92467013D01*
X184542058Y-92525887D01*
X184414141Y-92611358D01*
X184315499Y-92710000D01*
X179534420Y-92710000D01*
X175636855Y-88812435D01*
X175620948Y-88793052D01*
X175543595Y-88729571D01*
X175455343Y-88682399D01*
X175359585Y-88653351D01*
X175284947Y-88646000D01*
X175284944Y-88646000D01*
X175260000Y-88643543D01*
X175235056Y-88646000D01*
X171538501Y-88646000D01*
X171439859Y-88547358D01*
X171311942Y-88461887D01*
X171169809Y-88403013D01*
X171018922Y-88373000D01*
X170865078Y-88373000D01*
X170714191Y-88403013D01*
X170572058Y-88461887D01*
X170444141Y-88547358D01*
X170335358Y-88656141D01*
X170249887Y-88784058D01*
X170191013Y-88926191D01*
X170161000Y-89077078D01*
X169926000Y-89077078D01*
X169926000Y-87464501D01*
X170024642Y-87365859D01*
X170110113Y-87237942D01*
X170168987Y-87095809D01*
X170199000Y-86944922D01*
X170199000Y-86791078D01*
X170168987Y-86640191D01*
X170110113Y-86498058D01*
X170024642Y-86370141D01*
X169915859Y-86261358D01*
X169787942Y-86175887D01*
X169645809Y-86117013D01*
X169494922Y-86087000D01*
X169341078Y-86087000D01*
X169190191Y-86117013D01*
X169048058Y-86175887D01*
X168920141Y-86261358D01*
X168811358Y-86370141D01*
X168783000Y-86412582D01*
X168754642Y-86370141D01*
X168645859Y-86261358D01*
X168517942Y-86175887D01*
X168375809Y-86117013D01*
X168224922Y-86087000D01*
X168071078Y-86087000D01*
X167920191Y-86117013D01*
X167778058Y-86175887D01*
X167650141Y-86261358D01*
X167541358Y-86370141D01*
X167455887Y-86498058D01*
X167397013Y-86640191D01*
X167367000Y-86791078D01*
X167367000Y-86944922D01*
X167397013Y-87095809D01*
X167455887Y-87237942D01*
X167541358Y-87365859D01*
X167640001Y-87464502D01*
X167640000Y-89197580D01*
X163870430Y-92967150D01*
X163851053Y-92983052D01*
X163835151Y-93002429D01*
X163835150Y-93002430D01*
X163787571Y-93060405D01*
X163740400Y-93148657D01*
X163711352Y-93244416D01*
X163701543Y-93344000D01*
X163704001Y-93368954D01*
X163704000Y-96605394D01*
X163538839Y-96715751D01*
X163391751Y-96862839D01*
X163276185Y-97035796D01*
X163196581Y-97227976D01*
X163156000Y-97431993D01*
X163156000Y-97640007D01*
X163196581Y-97844024D01*
X163276185Y-98036204D01*
X163391751Y-98209161D01*
X163538839Y-98356249D01*
X163576001Y-98381080D01*
X163576000Y-102618235D01*
X163548271Y-102629721D01*
X163363030Y-102753495D01*
X163205495Y-102911030D01*
X163081721Y-103096271D01*
X162996464Y-103302100D01*
X162953000Y-103520606D01*
X131830304Y-103520606D01*
X131818965Y-103493232D01*
X131470844Y-102972231D01*
X131027769Y-102529156D01*
X130506768Y-102181035D01*
X129927863Y-101941245D01*
X129313301Y-101819000D01*
X128686699Y-101819000D01*
X128072137Y-101941245D01*
X127493232Y-102181035D01*
X126972231Y-102529156D01*
X126529156Y-102972231D01*
X126181035Y-103493232D01*
X125941245Y-104072137D01*
X125819000Y-104686699D01*
X124406000Y-104686699D01*
X124406000Y-98125000D01*
X137167157Y-98125000D01*
X137167157Y-99875000D01*
X137191326Y-100120393D01*
X137262905Y-100356356D01*
X137379142Y-100573820D01*
X137535571Y-100764429D01*
X137726180Y-100920858D01*
X137943644Y-101037095D01*
X138179607Y-101108674D01*
X138425000Y-101132843D01*
X140175000Y-101132843D01*
X140420393Y-101108674D01*
X140656356Y-101037095D01*
X140873820Y-100920858D01*
X141064429Y-100764429D01*
X141220858Y-100573820D01*
X141337095Y-100356356D01*
X141408674Y-100120393D01*
X141432843Y-99875000D01*
X141432843Y-98125000D01*
X141408674Y-97879607D01*
X141337095Y-97643644D01*
X141220858Y-97426180D01*
X141064429Y-97235571D01*
X140873820Y-97079142D01*
X140656356Y-96962905D01*
X140420393Y-96891326D01*
X140175000Y-96867157D01*
X138425000Y-96867157D01*
X138179607Y-96891326D01*
X137943644Y-96962905D01*
X137726180Y-97079142D01*
X137535571Y-97235571D01*
X137379142Y-97426180D01*
X137262905Y-97643644D01*
X137191326Y-97879607D01*
X137167157Y-98125000D01*
X124406000Y-98125000D01*
X124406000Y-92489000D01*
X136211157Y-92489000D01*
X136211157Y-93439000D01*
X136223317Y-93562462D01*
X136259329Y-93681179D01*
X136317810Y-93790589D01*
X136396512Y-93886488D01*
X136492411Y-93965190D01*
X136601821Y-94023671D01*
X136720538Y-94059683D01*
X136844000Y-94071843D01*
X137344000Y-94071843D01*
X137467462Y-94059683D01*
X137586179Y-94023671D01*
X137695589Y-93965190D01*
X137791488Y-93886488D01*
X137870190Y-93790589D01*
X137928671Y-93681179D01*
X137953599Y-93599000D01*
X138166976Y-93599000D01*
X140994930Y-96426955D01*
X141014815Y-96451185D01*
X141039043Y-96471068D01*
X141111505Y-96530537D01*
X141149931Y-96551076D01*
X141221820Y-96589502D01*
X141341518Y-96625812D01*
X141434808Y-96635000D01*
X141434818Y-96635000D01*
X141465999Y-96638071D01*
X141497180Y-96635000D01*
X141867157Y-96635000D01*
X141867157Y-97750000D01*
X141874513Y-97824689D01*
X141896299Y-97896508D01*
X141931678Y-97962696D01*
X141979289Y-98020711D01*
X142037304Y-98068322D01*
X142103492Y-98103701D01*
X142175311Y-98125487D01*
X142250000Y-98132843D01*
X145750000Y-98132843D01*
X145824689Y-98125487D01*
X145896508Y-98103701D01*
X145962696Y-98068322D01*
X146020711Y-98020711D01*
X146068322Y-97962696D01*
X146103701Y-97896508D01*
X146125487Y-97824689D01*
X146132843Y-97750000D01*
X146132843Y-97431993D01*
X149156000Y-97431993D01*
X149156000Y-97640007D01*
X149196581Y-97844024D01*
X149276185Y-98036204D01*
X149391751Y-98209161D01*
X149538839Y-98356249D01*
X149704000Y-98466606D01*
X149704000Y-98879055D01*
X149701543Y-98904000D01*
X149704000Y-98928944D01*
X149704000Y-98928946D01*
X149711351Y-99003584D01*
X149740399Y-99099342D01*
X149787571Y-99187595D01*
X149851052Y-99264948D01*
X149870435Y-99280855D01*
X150142001Y-99552421D01*
X150142000Y-99769052D01*
X150142000Y-100296894D01*
X150140294Y-100298294D01*
X150075272Y-100377524D01*
X150026956Y-100467917D01*
X149997203Y-100565998D01*
X149987157Y-100668000D01*
X149987157Y-101008000D01*
X149997203Y-101110002D01*
X150026956Y-101208083D01*
X150075272Y-101298476D01*
X150140294Y-101377706D01*
X150219524Y-101442728D01*
X150309917Y-101491044D01*
X150407998Y-101520797D01*
X150510000Y-101530843D01*
X150790000Y-101530843D01*
X150892002Y-101520797D01*
X150990083Y-101491044D01*
X151080476Y-101442728D01*
X151130000Y-101402085D01*
X151179524Y-101442728D01*
X151269917Y-101491044D01*
X151367998Y-101520797D01*
X151470000Y-101530843D01*
X151750000Y-101530843D01*
X151852002Y-101520797D01*
X151950083Y-101491044D01*
X152040476Y-101442728D01*
X152119706Y-101377706D01*
X152184728Y-101298476D01*
X152233044Y-101208083D01*
X152262797Y-101110002D01*
X152272843Y-101008000D01*
X152272843Y-100668000D01*
X152262797Y-100565998D01*
X152233044Y-100467917D01*
X152184728Y-100377524D01*
X152119706Y-100298294D01*
X152118000Y-100296894D01*
X152118000Y-99298420D01*
X152553565Y-98862855D01*
X152572948Y-98846948D01*
X152636429Y-98769595D01*
X152683601Y-98681343D01*
X152712649Y-98585585D01*
X152720000Y-98510947D01*
X152720000Y-98510944D01*
X152722457Y-98486000D01*
X152720513Y-98466263D01*
X152885161Y-98356249D01*
X153032249Y-98209161D01*
X153147815Y-98036204D01*
X153227419Y-97844024D01*
X153268000Y-97640007D01*
X153268000Y-97431993D01*
X153227419Y-97227976D01*
X153147815Y-97035796D01*
X153032249Y-96862839D01*
X152885161Y-96715751D01*
X152712204Y-96600185D01*
X152520024Y-96520581D01*
X152316007Y-96480000D01*
X152107993Y-96480000D01*
X151903976Y-96520581D01*
X151711796Y-96600185D01*
X151538839Y-96715751D01*
X151391751Y-96862839D01*
X151276185Y-97035796D01*
X151212000Y-97190751D01*
X151147815Y-97035796D01*
X151032249Y-96862839D01*
X150885161Y-96715751D01*
X150712204Y-96600185D01*
X150520024Y-96520581D01*
X150316007Y-96480000D01*
X150107993Y-96480000D01*
X149903976Y-96520581D01*
X149711796Y-96600185D01*
X149538839Y-96715751D01*
X149391751Y-96862839D01*
X149276185Y-97035796D01*
X149196581Y-97227976D01*
X149156000Y-97431993D01*
X146132843Y-97431993D01*
X146132843Y-94250000D01*
X146125487Y-94175311D01*
X146103701Y-94103492D01*
X146068322Y-94037304D01*
X146020711Y-93979289D01*
X145962696Y-93931678D01*
X145896508Y-93896299D01*
X145824689Y-93874513D01*
X145750000Y-93867157D01*
X144635000Y-93867157D01*
X144635000Y-89794757D01*
X149645000Y-89794757D01*
X149645000Y-90037243D01*
X149692307Y-90275069D01*
X149785102Y-90499097D01*
X149919820Y-90700717D01*
X150091283Y-90872180D01*
X150292903Y-91006898D01*
X150516931Y-91099693D01*
X150754757Y-91147000D01*
X150997243Y-91147000D01*
X151235069Y-91099693D01*
X151459097Y-91006898D01*
X151660717Y-90872180D01*
X151832180Y-90700717D01*
X151966898Y-90499097D01*
X152059693Y-90275069D01*
X152107000Y-90037243D01*
X152107000Y-89794757D01*
X152059693Y-89556931D01*
X151966898Y-89332903D01*
X151832180Y-89131283D01*
X151660717Y-88959820D01*
X151459097Y-88825102D01*
X151235069Y-88732307D01*
X150997243Y-88685000D01*
X150754757Y-88685000D01*
X150516931Y-88732307D01*
X150292903Y-88825102D01*
X150091283Y-88959820D01*
X149919820Y-89131283D01*
X149785102Y-89332903D01*
X149692307Y-89556931D01*
X149645000Y-89794757D01*
X144635000Y-89794757D01*
X144635000Y-87254757D01*
X149645000Y-87254757D01*
X149645000Y-87497243D01*
X149692307Y-87735069D01*
X149785102Y-87959097D01*
X149919820Y-88160717D01*
X150091283Y-88332180D01*
X150292903Y-88466898D01*
X150516931Y-88559693D01*
X150754757Y-88607000D01*
X150997243Y-88607000D01*
X151235069Y-88559693D01*
X151459097Y-88466898D01*
X151660717Y-88332180D01*
X151832180Y-88160717D01*
X151966898Y-87959097D01*
X152059693Y-87735069D01*
X152107000Y-87497243D01*
X152107000Y-87254757D01*
X152059693Y-87016931D01*
X151966898Y-86792903D01*
X151832180Y-86591283D01*
X151660717Y-86419820D01*
X151459097Y-86285102D01*
X151235069Y-86192307D01*
X150997243Y-86145000D01*
X150754757Y-86145000D01*
X150516931Y-86192307D01*
X150292903Y-86285102D01*
X150091283Y-86419820D01*
X149919820Y-86591283D01*
X149785102Y-86792903D01*
X149692307Y-87016931D01*
X149645000Y-87254757D01*
X144635000Y-87254757D01*
X144635000Y-77991180D01*
X144638071Y-77959999D01*
X144635000Y-77928818D01*
X144635000Y-77928808D01*
X144625812Y-77835518D01*
X144589502Y-77715820D01*
X144573563Y-77686000D01*
X148169157Y-77686000D01*
X148169157Y-79286000D01*
X148176513Y-79360689D01*
X148198299Y-79432508D01*
X148233678Y-79498696D01*
X148281289Y-79556711D01*
X148339304Y-79604322D01*
X148405492Y-79639701D01*
X148477311Y-79661487D01*
X148552000Y-79668843D01*
X150152000Y-79668843D01*
X150226689Y-79661487D01*
X150298508Y-79639701D01*
X150364696Y-79604322D01*
X150422711Y-79556711D01*
X150470322Y-79498696D01*
X150495000Y-79452528D01*
X150495001Y-83603157D01*
X150026000Y-83603157D01*
X149951311Y-83610513D01*
X149879492Y-83632299D01*
X149813304Y-83667678D01*
X149755289Y-83715289D01*
X149707678Y-83773304D01*
X149672299Y-83839492D01*
X149650513Y-83911311D01*
X149643157Y-83986000D01*
X149643157Y-85686000D01*
X149650513Y-85760689D01*
X149672299Y-85832508D01*
X149707678Y-85898696D01*
X149755289Y-85956711D01*
X149813304Y-86004322D01*
X149879492Y-86039701D01*
X149951311Y-86061487D01*
X150026000Y-86068843D01*
X151726000Y-86068843D01*
X151800689Y-86061487D01*
X151872508Y-86039701D01*
X151938696Y-86004322D01*
X151996711Y-85956711D01*
X152044322Y-85898696D01*
X152079701Y-85832508D01*
X152101487Y-85760689D01*
X152108843Y-85686000D01*
X152108843Y-85471000D01*
X152898976Y-85471000D01*
X154741932Y-87313957D01*
X154761817Y-87338187D01*
X154786045Y-87358070D01*
X154858508Y-87417540D01*
X154965338Y-87474642D01*
X154968822Y-87476504D01*
X155088520Y-87512814D01*
X155181810Y-87522002D01*
X155181813Y-87522002D01*
X155213002Y-87525074D01*
X155244191Y-87522002D01*
X159577001Y-87522002D01*
X159577000Y-90284582D01*
X159519887Y-90370058D01*
X159461013Y-90512191D01*
X159431000Y-90663078D01*
X159431000Y-90816922D01*
X159461013Y-90967809D01*
X159519887Y-91109942D01*
X159577001Y-91195419D01*
X159577000Y-96690253D01*
X159538839Y-96715751D01*
X159391751Y-96862839D01*
X159276185Y-97035796D01*
X159212000Y-97190751D01*
X159147815Y-97035796D01*
X159032249Y-96862839D01*
X158885161Y-96715751D01*
X158712204Y-96600185D01*
X158520024Y-96520581D01*
X158316007Y-96480000D01*
X158107993Y-96480000D01*
X157903976Y-96520581D01*
X157711796Y-96600185D01*
X157538839Y-96715751D01*
X157391751Y-96862839D01*
X157276185Y-97035796D01*
X157212000Y-97190751D01*
X157147815Y-97035796D01*
X157032249Y-96862839D01*
X156885161Y-96715751D01*
X156712204Y-96600185D01*
X156520024Y-96520581D01*
X156316007Y-96480000D01*
X156107993Y-96480000D01*
X155903976Y-96520581D01*
X155711796Y-96600185D01*
X155538839Y-96715751D01*
X155391751Y-96862839D01*
X155276185Y-97035796D01*
X155196581Y-97227976D01*
X155156000Y-97431993D01*
X155156000Y-97640007D01*
X155196581Y-97844024D01*
X155276185Y-98036204D01*
X155391751Y-98209161D01*
X155538839Y-98356249D01*
X155702000Y-98465270D01*
X155702000Y-99289055D01*
X155699543Y-99314000D01*
X155702000Y-99338944D01*
X155702000Y-99338946D01*
X155709351Y-99413584D01*
X155738399Y-99509342D01*
X155785571Y-99597595D01*
X155849052Y-99674948D01*
X155868435Y-99690855D01*
X157357150Y-101179571D01*
X157373052Y-101198948D01*
X157392429Y-101214850D01*
X157450404Y-101262429D01*
X157538655Y-101309600D01*
X157538657Y-101309601D01*
X157634415Y-101338649D01*
X157709053Y-101346000D01*
X157709055Y-101346000D01*
X157733999Y-101348457D01*
X157758943Y-101346000D01*
X158719401Y-101346000D01*
X158754830Y-101389170D01*
X158833302Y-101453571D01*
X158922830Y-101501425D01*
X159019974Y-101530893D01*
X159121000Y-101540843D01*
X159391000Y-101540843D01*
X159492026Y-101530893D01*
X159589170Y-101501425D01*
X159678698Y-101453571D01*
X159757170Y-101389170D01*
X159766000Y-101378411D01*
X159774830Y-101389170D01*
X159853302Y-101453571D01*
X159942830Y-101501425D01*
X160039974Y-101530893D01*
X160141000Y-101540843D01*
X160411000Y-101540843D01*
X160512026Y-101530893D01*
X160609170Y-101501425D01*
X160698698Y-101453571D01*
X160777170Y-101389170D01*
X160789620Y-101374000D01*
X161510894Y-101374000D01*
X161512294Y-101375706D01*
X161591524Y-101440728D01*
X161681917Y-101489044D01*
X161779998Y-101518797D01*
X161882000Y-101528843D01*
X162222000Y-101528843D01*
X162324002Y-101518797D01*
X162422083Y-101489044D01*
X162512476Y-101440728D01*
X162591706Y-101375706D01*
X162656728Y-101296476D01*
X162705044Y-101206083D01*
X162734797Y-101108002D01*
X162744843Y-101006000D01*
X162744843Y-100726000D01*
X162734797Y-100623998D01*
X162705044Y-100525917D01*
X162656728Y-100435524D01*
X162591706Y-100356294D01*
X162512476Y-100291272D01*
X162422083Y-100242956D01*
X162324002Y-100213203D01*
X162222000Y-100203157D01*
X161882000Y-100203157D01*
X161779998Y-100213203D01*
X161681917Y-100242956D01*
X161591524Y-100291272D01*
X161512294Y-100356294D01*
X161510894Y-100358000D01*
X160835578Y-100358000D01*
X160782000Y-100292715D01*
X160782000Y-98425179D01*
X160885161Y-98356249D01*
X161032249Y-98209161D01*
X161147815Y-98036204D01*
X161227419Y-97844024D01*
X161268000Y-97640007D01*
X161268000Y-97431993D01*
X161227419Y-97227976D01*
X161147815Y-97035796D01*
X161032249Y-96862839D01*
X160885161Y-96715751D01*
X160847000Y-96690253D01*
X160847000Y-91195418D01*
X160904113Y-91109942D01*
X160962987Y-90967809D01*
X160993000Y-90816922D01*
X160993000Y-90663078D01*
X160962987Y-90512191D01*
X160904113Y-90370058D01*
X160847000Y-90284582D01*
X160847000Y-87522002D01*
X163525817Y-87522002D01*
X163556998Y-87525073D01*
X163588179Y-87522002D01*
X163588190Y-87522002D01*
X163681480Y-87512814D01*
X163801178Y-87476504D01*
X163911492Y-87417539D01*
X164008183Y-87338187D01*
X164028072Y-87313952D01*
X165744026Y-85598000D01*
X182626000Y-85598000D01*
X182626001Y-88487809D01*
X182622929Y-88519000D01*
X182626001Y-88550191D01*
X182626001Y-88550192D01*
X182632858Y-88619809D01*
X182635189Y-88643481D01*
X182671498Y-88763179D01*
X182730463Y-88873493D01*
X182758250Y-88907352D01*
X182809816Y-88970185D01*
X182834046Y-88990070D01*
X187488935Y-93644961D01*
X187508815Y-93669185D01*
X187533039Y-93689065D01*
X187533043Y-93689069D01*
X187605506Y-93748538D01*
X187715820Y-93807502D01*
X187835518Y-93843812D01*
X187928808Y-93853000D01*
X187928811Y-93853000D01*
X187960000Y-93856072D01*
X187991189Y-93853000D01*
X215614819Y-93853000D01*
X215646000Y-93856071D01*
X215677181Y-93853000D01*
X215677192Y-93853000D01*
X215770482Y-93843812D01*
X215890180Y-93807502D01*
X216000494Y-93748537D01*
X216097185Y-93669185D01*
X216117074Y-93644950D01*
X220920956Y-88841069D01*
X220945185Y-88821185D01*
X220982574Y-88775627D01*
X221024537Y-88724495D01*
X221061073Y-88656141D01*
X221083502Y-88614180D01*
X221119812Y-88494482D01*
X221129000Y-88401192D01*
X221129000Y-88401182D01*
X221132071Y-88370001D01*
X221129000Y-88338820D01*
X221129000Y-86749758D01*
X221148149Y-86741826D01*
X221374336Y-86590693D01*
X221566693Y-86398336D01*
X221717826Y-86172149D01*
X221821929Y-85920823D01*
X221875000Y-85654017D01*
X221875000Y-85381983D01*
X221821929Y-85115177D01*
X221717826Y-84863851D01*
X221566693Y-84637664D01*
X221374336Y-84445307D01*
X221148149Y-84294174D01*
X220896823Y-84190071D01*
X220630017Y-84137000D01*
X220357983Y-84137000D01*
X220091177Y-84190071D01*
X219839851Y-84294174D01*
X219613664Y-84445307D01*
X219421307Y-84637664D01*
X219270174Y-84863851D01*
X219262242Y-84883000D01*
X214559025Y-84883000D01*
X212267074Y-82591050D01*
X212247185Y-82566815D01*
X212150494Y-82487463D01*
X212040180Y-82428498D01*
X211920482Y-82392188D01*
X211827192Y-82383000D01*
X211827181Y-82383000D01*
X211796000Y-82379929D01*
X211764819Y-82383000D01*
X207225758Y-82383000D01*
X207217826Y-82363851D01*
X207066693Y-82137664D01*
X206874336Y-81945307D01*
X206807791Y-81900843D01*
X206994000Y-81900843D01*
X207068689Y-81893487D01*
X207140508Y-81871701D01*
X207206696Y-81836322D01*
X207264711Y-81788711D01*
X207312322Y-81730696D01*
X207347701Y-81664508D01*
X207369487Y-81592689D01*
X207376843Y-81518000D01*
X207376843Y-80381983D01*
X219113000Y-80381983D01*
X219113000Y-80654017D01*
X219166071Y-80920823D01*
X219270174Y-81172149D01*
X219421307Y-81398336D01*
X219613664Y-81590693D01*
X219839851Y-81741826D01*
X220091177Y-81845929D01*
X220357983Y-81899000D01*
X220630017Y-81899000D01*
X220896823Y-81845929D01*
X221148149Y-81741826D01*
X221374336Y-81590693D01*
X221566693Y-81398336D01*
X221717826Y-81172149D01*
X221821929Y-80920823D01*
X221875000Y-80654017D01*
X221875000Y-80381983D01*
X221821929Y-80115177D01*
X221717826Y-79863851D01*
X221566693Y-79637664D01*
X221374336Y-79445307D01*
X221148149Y-79294174D01*
X220896823Y-79190071D01*
X220630017Y-79137000D01*
X220357983Y-79137000D01*
X220091177Y-79190071D01*
X219839851Y-79294174D01*
X219613664Y-79445307D01*
X219421307Y-79637664D01*
X219270174Y-79863851D01*
X219166071Y-80115177D01*
X219113000Y-80381983D01*
X207376843Y-80381983D01*
X207376843Y-79518000D01*
X207369487Y-79443311D01*
X207347701Y-79371492D01*
X207312322Y-79305304D01*
X207264711Y-79247289D01*
X207206696Y-79199678D01*
X207140508Y-79164299D01*
X207068689Y-79142513D01*
X206994000Y-79135157D01*
X204994000Y-79135157D01*
X204919311Y-79142513D01*
X204847492Y-79164299D01*
X204781304Y-79199678D01*
X204723289Y-79247289D01*
X204675678Y-79305304D01*
X204640299Y-79371492D01*
X204618513Y-79443311D01*
X204611157Y-79518000D01*
X204611157Y-81518000D01*
X204618513Y-81592689D01*
X204640299Y-81664508D01*
X204675678Y-81730696D01*
X204723289Y-81788711D01*
X204781304Y-81836322D01*
X204847492Y-81871701D01*
X204919311Y-81893487D01*
X204994000Y-81900843D01*
X205180209Y-81900843D01*
X205113664Y-81945307D01*
X204921307Y-82137664D01*
X204770174Y-82363851D01*
X204666071Y-82615177D01*
X204613000Y-82881983D01*
X204613000Y-83154017D01*
X204666071Y-83420823D01*
X204770174Y-83672149D01*
X204921307Y-83898336D01*
X205113664Y-84090693D01*
X205339851Y-84241826D01*
X205403040Y-84268000D01*
X205339851Y-84294174D01*
X205113664Y-84445307D01*
X204921307Y-84637664D01*
X204770174Y-84863851D01*
X204666071Y-85115177D01*
X204613000Y-85381983D01*
X204613000Y-85654017D01*
X204666071Y-85920823D01*
X204770174Y-86172149D01*
X204921307Y-86398336D01*
X205113664Y-86590693D01*
X205339851Y-86741826D01*
X205591177Y-86845929D01*
X205857983Y-86899000D01*
X206130017Y-86899000D01*
X206396823Y-86845929D01*
X206648149Y-86741826D01*
X206874336Y-86590693D01*
X207066693Y-86398336D01*
X207217826Y-86172149D01*
X207321929Y-85920823D01*
X207375000Y-85654017D01*
X207375000Y-85381983D01*
X207321929Y-85115177D01*
X207217826Y-84863851D01*
X207066693Y-84637664D01*
X206874336Y-84445307D01*
X206648149Y-84294174D01*
X206584960Y-84268000D01*
X206648149Y-84241826D01*
X206874336Y-84090693D01*
X207066693Y-83898336D01*
X207217826Y-83672149D01*
X207225758Y-83653000D01*
X211532976Y-83653000D01*
X213824930Y-85944955D01*
X213844815Y-85969185D01*
X213869043Y-85989068D01*
X213941506Y-86048538D01*
X214028406Y-86094987D01*
X214051820Y-86107502D01*
X214171518Y-86143812D01*
X214264808Y-86153000D01*
X214264811Y-86153000D01*
X214296000Y-86156072D01*
X214327189Y-86153000D01*
X219262242Y-86153000D01*
X219270174Y-86172149D01*
X219421307Y-86398336D01*
X219613664Y-86590693D01*
X219839851Y-86741826D01*
X219859001Y-86749758D01*
X219859000Y-88106975D01*
X215382976Y-92583000D01*
X188223026Y-92583000D01*
X183896000Y-88255976D01*
X183896000Y-84994191D01*
X183899072Y-84963000D01*
X183896000Y-84931808D01*
X183896000Y-84460757D01*
X197651000Y-84460757D01*
X197651000Y-84703243D01*
X197698307Y-84941069D01*
X197791102Y-85165097D01*
X197925820Y-85366717D01*
X198097283Y-85538180D01*
X198247000Y-85638218D01*
X198247001Y-87936581D01*
X198189887Y-88022058D01*
X198131013Y-88164191D01*
X198101000Y-88315078D01*
X198101000Y-88468922D01*
X198131013Y-88619809D01*
X198189887Y-88761942D01*
X198275358Y-88889859D01*
X198384141Y-88998642D01*
X198512058Y-89084113D01*
X198654191Y-89142987D01*
X198805078Y-89173000D01*
X198958922Y-89173000D01*
X199109809Y-89142987D01*
X199251942Y-89084113D01*
X199379859Y-88998642D01*
X199488642Y-88889859D01*
X199574113Y-88761942D01*
X199632987Y-88619809D01*
X199663000Y-88468922D01*
X199663000Y-88315078D01*
X199632987Y-88164191D01*
X199574113Y-88022058D01*
X199517000Y-87936582D01*
X199517000Y-85638218D01*
X199666717Y-85538180D01*
X199838180Y-85366717D01*
X199972898Y-85165097D01*
X200065693Y-84941069D01*
X200113000Y-84703243D01*
X200113000Y-84460757D01*
X200065693Y-84222931D01*
X199972898Y-83998903D01*
X199838180Y-83797283D01*
X199666717Y-83625820D01*
X199465097Y-83491102D01*
X199241069Y-83398307D01*
X199003243Y-83351000D01*
X198760757Y-83351000D01*
X198522931Y-83398307D01*
X198298903Y-83491102D01*
X198097283Y-83625820D01*
X197925820Y-83797283D01*
X197791102Y-83998903D01*
X197698307Y-84222931D01*
X197651000Y-84460757D01*
X183896000Y-84460757D01*
X183896000Y-81192000D01*
X197649157Y-81192000D01*
X197649157Y-82892000D01*
X197656513Y-82966689D01*
X197678299Y-83038508D01*
X197713678Y-83104696D01*
X197761289Y-83162711D01*
X197819304Y-83210322D01*
X197885492Y-83245701D01*
X197957311Y-83267487D01*
X198032000Y-83274843D01*
X199732000Y-83274843D01*
X199806689Y-83267487D01*
X199878508Y-83245701D01*
X199944696Y-83210322D01*
X200002711Y-83162711D01*
X200050322Y-83104696D01*
X200085701Y-83038508D01*
X200107487Y-82966689D01*
X200114843Y-82892000D01*
X200114843Y-81192000D01*
X200107487Y-81117311D01*
X200085701Y-81045492D01*
X200050322Y-80979304D01*
X200002711Y-80921289D01*
X199944696Y-80873678D01*
X199878508Y-80838299D01*
X199806689Y-80816513D01*
X199732000Y-80809157D01*
X198032000Y-80809157D01*
X197957311Y-80816513D01*
X197885492Y-80838299D01*
X197819304Y-80873678D01*
X197761289Y-80921289D01*
X197713678Y-80979304D01*
X197678299Y-81045492D01*
X197656513Y-81117311D01*
X197649157Y-81192000D01*
X183896000Y-81192000D01*
X183896000Y-78661077D01*
X199622999Y-78661077D01*
X199622999Y-78814921D01*
X199653012Y-78965808D01*
X199711886Y-79107941D01*
X199797357Y-79235858D01*
X199902943Y-79341444D01*
X199903351Y-79345584D01*
X199907933Y-79360689D01*
X199932399Y-79441342D01*
X199979570Y-79529594D01*
X200027149Y-79587569D01*
X200043052Y-79606947D01*
X200062429Y-79622849D01*
X201930000Y-81490420D01*
X201930001Y-88113046D01*
X201927543Y-88138000D01*
X201936474Y-88228674D01*
X201937352Y-88237585D01*
X201960859Y-88315078D01*
X201966400Y-88333343D01*
X202013571Y-88421595D01*
X202061150Y-88479570D01*
X202077053Y-88498948D01*
X202096430Y-88514850D01*
X203962000Y-90380421D01*
X203962000Y-90589499D01*
X203863358Y-90688141D01*
X203777887Y-90816058D01*
X203719013Y-90958191D01*
X203689000Y-91109078D01*
X203689000Y-91262922D01*
X203719013Y-91413809D01*
X203777887Y-91555942D01*
X203863358Y-91683859D01*
X203972141Y-91792642D01*
X204100058Y-91878113D01*
X204242191Y-91936987D01*
X204393078Y-91967000D01*
X204546922Y-91967000D01*
X204697809Y-91936987D01*
X204839942Y-91878113D01*
X204967859Y-91792642D01*
X205076642Y-91683859D01*
X205162113Y-91555942D01*
X205220987Y-91413809D01*
X205251000Y-91262922D01*
X205251000Y-91109078D01*
X205220987Y-90958191D01*
X205162113Y-90816058D01*
X205076642Y-90688141D01*
X204978000Y-90589499D01*
X204978000Y-90194944D01*
X204980457Y-90170000D01*
X204974960Y-90114188D01*
X204970649Y-90070415D01*
X204941601Y-89974657D01*
X204906319Y-89908649D01*
X204894429Y-89886404D01*
X204846850Y-89828429D01*
X204830948Y-89809052D01*
X204811571Y-89793150D01*
X203441310Y-88422889D01*
X211513000Y-88422889D01*
X211513000Y-88813111D01*
X211589129Y-89195836D01*
X211738461Y-89556355D01*
X211955257Y-89880814D01*
X212231186Y-90156743D01*
X212555645Y-90373539D01*
X212916164Y-90522871D01*
X213298889Y-90599000D01*
X213689111Y-90599000D01*
X214071836Y-90522871D01*
X214432355Y-90373539D01*
X214756814Y-90156743D01*
X215032743Y-89880814D01*
X215249539Y-89556355D01*
X215398871Y-89195836D01*
X215475000Y-88813111D01*
X215475000Y-88422889D01*
X215398871Y-88040164D01*
X215249539Y-87679645D01*
X215032743Y-87355186D01*
X214756814Y-87079257D01*
X214432355Y-86862461D01*
X214071836Y-86713129D01*
X213689111Y-86637000D01*
X213298889Y-86637000D01*
X212916164Y-86713129D01*
X212555645Y-86862461D01*
X212231186Y-87079257D01*
X211955257Y-87355186D01*
X211738461Y-87679645D01*
X211589129Y-88040164D01*
X211513000Y-88422889D01*
X203441310Y-88422889D01*
X202946000Y-87927580D01*
X202946000Y-81304944D01*
X202948457Y-81280000D01*
X202945542Y-81250405D01*
X202938649Y-81180415D01*
X202909601Y-81084657D01*
X202862429Y-80996405D01*
X202798948Y-80919052D01*
X202779565Y-80903145D01*
X201051351Y-79174931D01*
X201096112Y-79107941D01*
X201154986Y-78965808D01*
X201184999Y-78814921D01*
X201184999Y-78661077D01*
X201154986Y-78510190D01*
X201096112Y-78368057D01*
X201010641Y-78240140D01*
X200901858Y-78131357D01*
X200773941Y-78045886D01*
X200631808Y-77987012D01*
X200480921Y-77956999D01*
X200327077Y-77956999D01*
X200176190Y-77987012D01*
X200034057Y-78045886D01*
X199906140Y-78131357D01*
X199797357Y-78240140D01*
X199711886Y-78368057D01*
X199653012Y-78510190D01*
X199622999Y-78661077D01*
X183896000Y-78661077D01*
X183896000Y-78622024D01*
X185038983Y-77479042D01*
X185139809Y-77458987D01*
X185281942Y-77400113D01*
X185409859Y-77314642D01*
X185501612Y-77222889D01*
X211513000Y-77222889D01*
X211513000Y-77613111D01*
X211589129Y-77995836D01*
X211738461Y-78356355D01*
X211955257Y-78680814D01*
X212231186Y-78956743D01*
X212555645Y-79173539D01*
X212916164Y-79322871D01*
X213298889Y-79399000D01*
X213689111Y-79399000D01*
X214071836Y-79322871D01*
X214432355Y-79173539D01*
X214756814Y-78956743D01*
X215032743Y-78680814D01*
X215249539Y-78356355D01*
X215398871Y-77995836D01*
X215475000Y-77613111D01*
X215475000Y-77222889D01*
X215398871Y-76840164D01*
X215249539Y-76479645D01*
X215032743Y-76155186D01*
X214756814Y-75879257D01*
X214432355Y-75662461D01*
X214071836Y-75513129D01*
X213689111Y-75437000D01*
X213298889Y-75437000D01*
X212916164Y-75513129D01*
X212555645Y-75662461D01*
X212231186Y-75879257D01*
X211955257Y-76155186D01*
X211738461Y-76479645D01*
X211589129Y-76840164D01*
X211513000Y-77222889D01*
X185501612Y-77222889D01*
X185518642Y-77205859D01*
X185604113Y-77077942D01*
X185662987Y-76935809D01*
X185693000Y-76784922D01*
X185693000Y-76631078D01*
X185662987Y-76480191D01*
X185604113Y-76338058D01*
X185518642Y-76210141D01*
X185409859Y-76101358D01*
X185281942Y-76015887D01*
X185139809Y-75957013D01*
X184988922Y-75927000D01*
X184835078Y-75927000D01*
X184684191Y-75957013D01*
X184542058Y-76015887D01*
X184414141Y-76101358D01*
X184305358Y-76210141D01*
X184219887Y-76338058D01*
X184161013Y-76480191D01*
X184140958Y-76581017D01*
X182834046Y-77887930D01*
X182809816Y-77907815D01*
X182789932Y-77932044D01*
X182730463Y-78004507D01*
X182671498Y-78114821D01*
X182635189Y-78234519D01*
X182622929Y-78359000D01*
X182626001Y-78390191D01*
X182626000Y-84328000D01*
X165512189Y-84328000D01*
X165481000Y-84324928D01*
X165449811Y-84328000D01*
X165449808Y-84328000D01*
X165356518Y-84337188D01*
X165236820Y-84373498D01*
X165126506Y-84432462D01*
X165054043Y-84491931D01*
X165054039Y-84491935D01*
X165029815Y-84511815D01*
X165009934Y-84536040D01*
X163293974Y-86252002D01*
X160070183Y-86252002D01*
X160039002Y-86248931D01*
X160007821Y-86252002D01*
X155476027Y-86252002D01*
X154491103Y-85267078D01*
X156699000Y-85267078D01*
X156699000Y-85420922D01*
X156729013Y-85571809D01*
X156787887Y-85713942D01*
X156873358Y-85841859D01*
X156982141Y-85950642D01*
X157110058Y-86036113D01*
X157252191Y-86094987D01*
X157403078Y-86125000D01*
X157556922Y-86125000D01*
X157707809Y-86094987D01*
X157849942Y-86036113D01*
X157977859Y-85950642D01*
X158076501Y-85852000D01*
X162789056Y-85852000D01*
X162814000Y-85854457D01*
X162838944Y-85852000D01*
X162838947Y-85852000D01*
X162913585Y-85844649D01*
X163009343Y-85815601D01*
X163097595Y-85768429D01*
X163174948Y-85704948D01*
X163190855Y-85685565D01*
X170390421Y-78486000D01*
X177203499Y-78486000D01*
X177302141Y-78584642D01*
X177430058Y-78670113D01*
X177572191Y-78728987D01*
X177723078Y-78759000D01*
X177876922Y-78759000D01*
X178027809Y-78728987D01*
X178169942Y-78670113D01*
X178297859Y-78584642D01*
X178406642Y-78475859D01*
X178492113Y-78347942D01*
X178550987Y-78205809D01*
X178581000Y-78054922D01*
X178581000Y-77901078D01*
X178550987Y-77750191D01*
X178492113Y-77608058D01*
X178406642Y-77480141D01*
X178297859Y-77371358D01*
X178169942Y-77285887D01*
X178027809Y-77227013D01*
X177876922Y-77197000D01*
X177723078Y-77197000D01*
X177572191Y-77227013D01*
X177430058Y-77285887D01*
X177302141Y-77371358D01*
X177203499Y-77470000D01*
X170204943Y-77470000D01*
X170179999Y-77467543D01*
X170155055Y-77470000D01*
X170155053Y-77470000D01*
X170080415Y-77477351D01*
X169984657Y-77506399D01*
X169943576Y-77528357D01*
X169896404Y-77553571D01*
X169841810Y-77598376D01*
X169819052Y-77617052D01*
X169803150Y-77636429D01*
X162603580Y-84836000D01*
X158076501Y-84836000D01*
X157977859Y-84737358D01*
X157849942Y-84651887D01*
X157707809Y-84593013D01*
X157556922Y-84563000D01*
X157403078Y-84563000D01*
X157252191Y-84593013D01*
X157110058Y-84651887D01*
X156982141Y-84737358D01*
X156873358Y-84846141D01*
X156787887Y-84974058D01*
X156729013Y-85116191D01*
X156699000Y-85267078D01*
X154491103Y-85267078D01*
X153633074Y-84409050D01*
X153613185Y-84384815D01*
X153516494Y-84305463D01*
X153406180Y-84246498D01*
X153286482Y-84210188D01*
X153193192Y-84201000D01*
X153193181Y-84201000D01*
X153162000Y-84197929D01*
X153130819Y-84201000D01*
X152108843Y-84201000D01*
X152108843Y-83986000D01*
X152101487Y-83911311D01*
X152079701Y-83839492D01*
X152044322Y-83773304D01*
X151996711Y-83715289D01*
X151938696Y-83667678D01*
X151872508Y-83632299D01*
X151800689Y-83610513D01*
X151765000Y-83606998D01*
X151765000Y-79425078D01*
X153397000Y-79425078D01*
X153397000Y-79578922D01*
X153427013Y-79729809D01*
X153485887Y-79871942D01*
X153571358Y-79999859D01*
X153680141Y-80108642D01*
X153808058Y-80194113D01*
X153950191Y-80252987D01*
X154101078Y-80283000D01*
X154240580Y-80283000D01*
X156191000Y-82233420D01*
X156191000Y-82372922D01*
X156221013Y-82523809D01*
X156279887Y-82665942D01*
X156365358Y-82793859D01*
X156474141Y-82902642D01*
X156602058Y-82988113D01*
X156744191Y-83046987D01*
X156895078Y-83077000D01*
X157048922Y-83077000D01*
X157199809Y-83046987D01*
X157341942Y-82988113D01*
X157469859Y-82902642D01*
X157578642Y-82793859D01*
X157664113Y-82665942D01*
X157722987Y-82523809D01*
X157753000Y-82372922D01*
X157753000Y-82282008D01*
X157760191Y-82284987D01*
X157911078Y-82315000D01*
X158064922Y-82315000D01*
X158215809Y-82284987D01*
X158357942Y-82226113D01*
X158485859Y-82140642D01*
X158594642Y-82031859D01*
X158680113Y-81903942D01*
X158738987Y-81761809D01*
X158769000Y-81610922D01*
X158769000Y-81457078D01*
X158738987Y-81306191D01*
X158680113Y-81164058D01*
X158594642Y-81036141D01*
X158485859Y-80927358D01*
X158357942Y-80841887D01*
X158215809Y-80783013D01*
X158064922Y-80753000D01*
X157925420Y-80753000D01*
X155975000Y-78802580D01*
X155975000Y-78663078D01*
X155944987Y-78512191D01*
X155886113Y-78370058D01*
X155800642Y-78242141D01*
X155691859Y-78133358D01*
X155563942Y-78047887D01*
X155421809Y-77989013D01*
X155270922Y-77959000D01*
X155117078Y-77959000D01*
X154966191Y-77989013D01*
X154824058Y-78047887D01*
X154696141Y-78133358D01*
X154587358Y-78242141D01*
X154501887Y-78370058D01*
X154443013Y-78512191D01*
X154413000Y-78663078D01*
X154413000Y-78753992D01*
X154405809Y-78751013D01*
X154254922Y-78721000D01*
X154101078Y-78721000D01*
X153950191Y-78751013D01*
X153808058Y-78809887D01*
X153680141Y-78895358D01*
X153571358Y-79004141D01*
X153485887Y-79132058D01*
X153427013Y-79274191D01*
X153397000Y-79425078D01*
X151765000Y-79425078D01*
X151765000Y-79025180D01*
X151768071Y-78993999D01*
X151765000Y-78962818D01*
X151765000Y-78962808D01*
X151755812Y-78869518D01*
X151719502Y-78749820D01*
X151672067Y-78661077D01*
X151660537Y-78639505D01*
X151601068Y-78567042D01*
X151601065Y-78567039D01*
X151581185Y-78542815D01*
X151556961Y-78522935D01*
X151093074Y-78059050D01*
X151073185Y-78034815D01*
X150976494Y-77955463D01*
X150866180Y-77896498D01*
X150746482Y-77860188D01*
X150653192Y-77851000D01*
X150653181Y-77851000D01*
X150622000Y-77847929D01*
X150590819Y-77851000D01*
X150534843Y-77851000D01*
X150534843Y-77686000D01*
X150527487Y-77611311D01*
X150505701Y-77539492D01*
X150470322Y-77473304D01*
X150422711Y-77415289D01*
X150364696Y-77367678D01*
X150298508Y-77332299D01*
X150226689Y-77310513D01*
X150152000Y-77303157D01*
X148552000Y-77303157D01*
X148477311Y-77310513D01*
X148405492Y-77332299D01*
X148339304Y-77367678D01*
X148281289Y-77415289D01*
X148233678Y-77473304D01*
X148198299Y-77539492D01*
X148176513Y-77611311D01*
X148169157Y-77686000D01*
X144573563Y-77686000D01*
X144530537Y-77605506D01*
X144451185Y-77508815D01*
X144426955Y-77488930D01*
X140041000Y-73102976D01*
X140041000Y-63919401D01*
X140093216Y-63891491D01*
X140280660Y-63737660D01*
X140434491Y-63550215D01*
X140548798Y-63336362D01*
X140619188Y-63104317D01*
X140637000Y-62923471D01*
X140637000Y-62552528D01*
X140619188Y-62371682D01*
X140548798Y-62139637D01*
X140434491Y-61925784D01*
X140280660Y-61738340D01*
X140093215Y-61584509D01*
X140041000Y-61556599D01*
X140041000Y-61263024D01*
X140471025Y-60833000D01*
X150866976Y-60833000D01*
X151365000Y-61331026D01*
X151365000Y-61383604D01*
X151276538Y-61392317D01*
X151157821Y-61428329D01*
X151048411Y-61486810D01*
X150952512Y-61565512D01*
X150873810Y-61661411D01*
X150815329Y-61770821D01*
X150779317Y-61889538D01*
X150767157Y-62013000D01*
X150767157Y-63463000D01*
X150779317Y-63586462D01*
X150815329Y-63705179D01*
X150873810Y-63814589D01*
X150952512Y-63910488D01*
X151048411Y-63989190D01*
X151157821Y-64047671D01*
X151276538Y-64083683D01*
X151400000Y-64095843D01*
X152600000Y-64095843D01*
X152723462Y-64083683D01*
X152842179Y-64047671D01*
X152951589Y-63989190D01*
X153047488Y-63910488D01*
X153126190Y-63814589D01*
X153184671Y-63705179D01*
X153220683Y-63586462D01*
X153232843Y-63463000D01*
X153232843Y-62552529D01*
X155769000Y-62552529D01*
X155769000Y-62923472D01*
X155786812Y-63104318D01*
X155857202Y-63336363D01*
X155971509Y-63550216D01*
X156125341Y-63737660D01*
X156312785Y-63891491D01*
X156526638Y-64005798D01*
X156758683Y-64076188D01*
X157000000Y-64099956D01*
X157241318Y-64076188D01*
X157473363Y-64005798D01*
X157687216Y-63891491D01*
X157874660Y-63737660D01*
X158028491Y-63550215D01*
X158142798Y-63336362D01*
X158213188Y-63104317D01*
X158231000Y-62923471D01*
X158231000Y-62552528D01*
X158224251Y-62484000D01*
X160147000Y-62484000D01*
X160147000Y-73914000D01*
X160149440Y-73938776D01*
X160156667Y-73962601D01*
X160168403Y-73984557D01*
X160184197Y-74003803D01*
X160203443Y-74019597D01*
X160225399Y-74031333D01*
X160249224Y-74038560D01*
X160274000Y-74041000D01*
X188468000Y-74041000D01*
X188492776Y-74038560D01*
X188516601Y-74031333D01*
X188538557Y-74019597D01*
X188557803Y-74003803D01*
X188573597Y-73984557D01*
X188585333Y-73962601D01*
X188592560Y-73938776D01*
X188595000Y-73914000D01*
X188595000Y-68090988D01*
X200256927Y-68090988D01*
X200259999Y-68122179D01*
X200259998Y-70561817D01*
X200256927Y-70592998D01*
X200259998Y-70624179D01*
X200259998Y-70624189D01*
X200269186Y-70717479D01*
X200305496Y-70837177D01*
X200364461Y-70947491D01*
X200443813Y-71044183D01*
X200468048Y-71064072D01*
X201595272Y-72191298D01*
X201560052Y-72205887D01*
X201432135Y-72291358D01*
X201323352Y-72400141D01*
X201237881Y-72528058D01*
X201179007Y-72670191D01*
X201148994Y-72821078D01*
X201148994Y-72974922D01*
X201179007Y-73125809D01*
X201237881Y-73267942D01*
X201323352Y-73395859D01*
X201432135Y-73504642D01*
X201560052Y-73590113D01*
X201702185Y-73648987D01*
X201853072Y-73679000D01*
X202006916Y-73679000D01*
X202157803Y-73648987D01*
X202299936Y-73590113D01*
X202427853Y-73504642D01*
X202526495Y-73406000D01*
X205199401Y-73406000D01*
X205234830Y-73449170D01*
X205313302Y-73513571D01*
X205402830Y-73561425D01*
X205499974Y-73590893D01*
X205601000Y-73600843D01*
X205871000Y-73600843D01*
X205972026Y-73590893D01*
X206069170Y-73561425D01*
X206158698Y-73513571D01*
X206237170Y-73449170D01*
X206246000Y-73438411D01*
X206254830Y-73449170D01*
X206333302Y-73513571D01*
X206422830Y-73561425D01*
X206519974Y-73590893D01*
X206621000Y-73600843D01*
X206891000Y-73600843D01*
X206992026Y-73590893D01*
X207089170Y-73561425D01*
X207178698Y-73513571D01*
X207257170Y-73449170D01*
X207292599Y-73406000D01*
X209025294Y-73406000D01*
X209021157Y-73448000D01*
X209021157Y-74348000D01*
X209028513Y-74422689D01*
X209050299Y-74494508D01*
X209085678Y-74560696D01*
X209133289Y-74618711D01*
X209191304Y-74666322D01*
X209257492Y-74701701D01*
X209329311Y-74723487D01*
X209404000Y-74730843D01*
X210204000Y-74730843D01*
X210278689Y-74723487D01*
X210350508Y-74701701D01*
X210416696Y-74666322D01*
X210474711Y-74618711D01*
X210522322Y-74560696D01*
X210557701Y-74494508D01*
X210579487Y-74422689D01*
X210581131Y-74406000D01*
X212335056Y-74406000D01*
X212360000Y-74408457D01*
X212384944Y-74406000D01*
X212384947Y-74406000D01*
X212459585Y-74398649D01*
X212555343Y-74369601D01*
X212643595Y-74322429D01*
X212720948Y-74258948D01*
X212736855Y-74239565D01*
X213350565Y-73625855D01*
X213369948Y-73609948D01*
X213433429Y-73532595D01*
X213480601Y-73444343D01*
X213509649Y-73348585D01*
X213517000Y-73273947D01*
X213517000Y-73273944D01*
X213519457Y-73249000D01*
X213517000Y-73224056D01*
X213517000Y-72904070D01*
X213600866Y-72859243D01*
X213695818Y-72781318D01*
X213773743Y-72686366D01*
X213831646Y-72578037D01*
X213867303Y-72460492D01*
X213879343Y-72338250D01*
X213879343Y-71425750D01*
X214013657Y-71425750D01*
X214013657Y-72338250D01*
X214025697Y-72460492D01*
X214061354Y-72578037D01*
X214119257Y-72686366D01*
X214197182Y-72781318D01*
X214292134Y-72859243D01*
X214400463Y-72917146D01*
X214518008Y-72952803D01*
X214640250Y-72964843D01*
X215127750Y-72964843D01*
X215249992Y-72952803D01*
X215367537Y-72917146D01*
X215475866Y-72859243D01*
X215570818Y-72781318D01*
X215648743Y-72686366D01*
X215677725Y-72632145D01*
X215777149Y-72731570D01*
X215793052Y-72750948D01*
X215812429Y-72766850D01*
X215870404Y-72814429D01*
X215958655Y-72861600D01*
X215958657Y-72861601D01*
X216054415Y-72890649D01*
X216129053Y-72898000D01*
X216129055Y-72898000D01*
X216153999Y-72900457D01*
X216178943Y-72898000D01*
X216373152Y-72898000D01*
X216443302Y-72955571D01*
X216532830Y-73003425D01*
X216629974Y-73032893D01*
X216731000Y-73042843D01*
X217101000Y-73042843D01*
X217202026Y-73032893D01*
X217299170Y-73003425D01*
X217388698Y-72955571D01*
X217467170Y-72891170D01*
X217531571Y-72812698D01*
X217579425Y-72723170D01*
X217608893Y-72626026D01*
X217618843Y-72525000D01*
X217618843Y-72255000D01*
X217608893Y-72153974D01*
X217579425Y-72056830D01*
X217531571Y-71967302D01*
X217467170Y-71888830D01*
X217388698Y-71824429D01*
X217299170Y-71776575D01*
X217202026Y-71747107D01*
X217101000Y-71737157D01*
X216731000Y-71737157D01*
X216629974Y-71747107D01*
X216532830Y-71776575D01*
X216443302Y-71824429D01*
X216373152Y-71882000D01*
X216364421Y-71882000D01*
X216022855Y-71540434D01*
X216006948Y-71521052D01*
X215929595Y-71457571D01*
X215841343Y-71410399D01*
X215750105Y-71382722D01*
X215742303Y-71303508D01*
X215706646Y-71185963D01*
X215648743Y-71077634D01*
X215570818Y-70982682D01*
X215475866Y-70904757D01*
X215367537Y-70846854D01*
X215249992Y-70811197D01*
X215127750Y-70799157D01*
X214640250Y-70799157D01*
X214518008Y-70811197D01*
X214400463Y-70846854D01*
X214292134Y-70904757D01*
X214197182Y-70982682D01*
X214119257Y-71077634D01*
X214061354Y-71185963D01*
X214025697Y-71303508D01*
X214013657Y-71425750D01*
X213879343Y-71425750D01*
X213867303Y-71303508D01*
X213831646Y-71185963D01*
X213773743Y-71077634D01*
X213695818Y-70982682D01*
X213600866Y-70904757D01*
X213492537Y-70846854D01*
X213374992Y-70811197D01*
X213252750Y-70799157D01*
X212765250Y-70799157D01*
X212643008Y-70811197D01*
X212525463Y-70846854D01*
X212417134Y-70904757D01*
X212322182Y-70982682D01*
X212244257Y-71077634D01*
X212186354Y-71185963D01*
X212150697Y-71303508D01*
X212138657Y-71425750D01*
X212138657Y-72338250D01*
X212150697Y-72460492D01*
X212186354Y-72578037D01*
X212244257Y-72686366D01*
X212322182Y-72781318D01*
X212417134Y-72859243D01*
X212501000Y-72904070D01*
X212501000Y-73038580D01*
X212149580Y-73390000D01*
X210694097Y-73390000D01*
X210761343Y-73369601D01*
X210849595Y-73322429D01*
X210926948Y-73258948D01*
X210942855Y-73239565D01*
X211095565Y-73086855D01*
X211114948Y-73070948D01*
X211178429Y-72993595D01*
X211225601Y-72905343D01*
X211254649Y-72809585D01*
X211262000Y-72734947D01*
X211262000Y-72734945D01*
X211264189Y-72712718D01*
X211300508Y-72701701D01*
X211366696Y-72666322D01*
X211424711Y-72618711D01*
X211472322Y-72560696D01*
X211507701Y-72494508D01*
X211529487Y-72422689D01*
X211536843Y-72348000D01*
X211536843Y-71448000D01*
X211529487Y-71373311D01*
X211507701Y-71301492D01*
X211472322Y-71235304D01*
X211424711Y-71177289D01*
X211366696Y-71129678D01*
X211300508Y-71094299D01*
X211228689Y-71072513D01*
X211154000Y-71065157D01*
X210354000Y-71065157D01*
X210279311Y-71072513D01*
X210207492Y-71094299D01*
X210141304Y-71129678D01*
X210083289Y-71177289D01*
X210035678Y-71235304D01*
X210000299Y-71301492D01*
X209978513Y-71373311D01*
X209971157Y-71448000D01*
X209971157Y-72348000D01*
X209975294Y-72390000D01*
X209632706Y-72390000D01*
X209636843Y-72348000D01*
X209636843Y-71448000D01*
X209629487Y-71373311D01*
X209607701Y-71301492D01*
X209572322Y-71235304D01*
X209524711Y-71177289D01*
X209466696Y-71129678D01*
X209400508Y-71094299D01*
X209328689Y-71072513D01*
X209254000Y-71065157D01*
X208454000Y-71065157D01*
X208379311Y-71072513D01*
X208307492Y-71094299D01*
X208241304Y-71129678D01*
X208183289Y-71177289D01*
X208135678Y-71235304D01*
X208120874Y-71263000D01*
X202463026Y-71263000D01*
X201529998Y-70329974D01*
X201529998Y-69760033D01*
X201560050Y-69780113D01*
X201702183Y-69838987D01*
X201853070Y-69869000D01*
X202006914Y-69869000D01*
X202157801Y-69838987D01*
X202299934Y-69780113D01*
X202427851Y-69694642D01*
X202536634Y-69585859D01*
X202622105Y-69457942D01*
X202680979Y-69315809D01*
X202710992Y-69164922D01*
X202710992Y-69011078D01*
X202680979Y-68860191D01*
X202663771Y-68818649D01*
X204606421Y-66876000D01*
X204819401Y-66876000D01*
X204854830Y-66919170D01*
X204933302Y-66983571D01*
X205022830Y-67031425D01*
X205119974Y-67060893D01*
X205221000Y-67070843D01*
X205491000Y-67070843D01*
X205592026Y-67060893D01*
X205689170Y-67031425D01*
X205778698Y-66983571D01*
X205857170Y-66919170D01*
X205866000Y-66908411D01*
X205874830Y-66919170D01*
X205953302Y-66983571D01*
X206042830Y-67031425D01*
X206139974Y-67060893D01*
X206241000Y-67070843D01*
X206511000Y-67070843D01*
X206612026Y-67060893D01*
X206709170Y-67031425D01*
X206798698Y-66983571D01*
X206877170Y-66919170D01*
X206912599Y-66876000D01*
X208767157Y-66876000D01*
X208767157Y-67744000D01*
X208774513Y-67818689D01*
X208796299Y-67890508D01*
X208831678Y-67956696D01*
X208879289Y-68014711D01*
X208937304Y-68062322D01*
X209003492Y-68097701D01*
X209075311Y-68119487D01*
X209150000Y-68126843D01*
X209950000Y-68126843D01*
X210024689Y-68119487D01*
X210096508Y-68097701D01*
X210162696Y-68062322D01*
X210220711Y-68014711D01*
X210268322Y-67956696D01*
X210303701Y-67890508D01*
X210325487Y-67818689D01*
X210332843Y-67744000D01*
X210332843Y-67638000D01*
X212112754Y-67638000D01*
X212119697Y-67708492D01*
X212155354Y-67826037D01*
X212213257Y-67934366D01*
X212291182Y-68029318D01*
X212386134Y-68107243D01*
X212494463Y-68165146D01*
X212612008Y-68200803D01*
X212734250Y-68212843D01*
X213221750Y-68212843D01*
X213343992Y-68200803D01*
X213461537Y-68165146D01*
X213569866Y-68107243D01*
X213664818Y-68029318D01*
X213742743Y-67934366D01*
X213800646Y-67826037D01*
X213836303Y-67708492D01*
X213848343Y-67586250D01*
X213848343Y-66673750D01*
X213982657Y-66673750D01*
X213982657Y-67586250D01*
X213994697Y-67708492D01*
X214030354Y-67826037D01*
X214088257Y-67934366D01*
X214166182Y-68029318D01*
X214261134Y-68107243D01*
X214369463Y-68165146D01*
X214487008Y-68200803D01*
X214609250Y-68212843D01*
X215096750Y-68212843D01*
X215218992Y-68200803D01*
X215336537Y-68165146D01*
X215444866Y-68107243D01*
X215539818Y-68029318D01*
X215617743Y-67934366D01*
X215675646Y-67826037D01*
X215711303Y-67708492D01*
X215723343Y-67586250D01*
X215723343Y-66673750D01*
X215711303Y-66551508D01*
X215675646Y-66433963D01*
X215617743Y-66325634D01*
X215539818Y-66230682D01*
X215444866Y-66152757D01*
X215361000Y-66107930D01*
X215361000Y-65789579D01*
X215371571Y-65776698D01*
X215419425Y-65687170D01*
X215448893Y-65590026D01*
X215458843Y-65489000D01*
X215458843Y-65219000D01*
X215448893Y-65117974D01*
X215419425Y-65020830D01*
X215371571Y-64931302D01*
X215307170Y-64852830D01*
X215228698Y-64788429D01*
X215139170Y-64740575D01*
X215042026Y-64711107D01*
X214941000Y-64701157D01*
X214571000Y-64701157D01*
X214469974Y-64711107D01*
X214372830Y-64740575D01*
X214283302Y-64788429D01*
X214204830Y-64852830D01*
X214140429Y-64931302D01*
X214092575Y-65020830D01*
X214063107Y-65117974D01*
X214053157Y-65219000D01*
X214053157Y-65489000D01*
X214063107Y-65590026D01*
X214092575Y-65687170D01*
X214140429Y-65776698D01*
X214204830Y-65855170D01*
X214283302Y-65919571D01*
X214345001Y-65952550D01*
X214345001Y-66107929D01*
X214261134Y-66152757D01*
X214166182Y-66230682D01*
X214088257Y-66325634D01*
X214030354Y-66433963D01*
X213994697Y-66551508D01*
X213982657Y-66673750D01*
X213848343Y-66673750D01*
X213836303Y-66551508D01*
X213800646Y-66433963D01*
X213742743Y-66325634D01*
X213664818Y-66230682D01*
X213569866Y-66152757D01*
X213461537Y-66094854D01*
X213343992Y-66059197D01*
X213221750Y-66047157D01*
X212734250Y-66047157D01*
X212612008Y-66059197D01*
X212494463Y-66094854D01*
X212386134Y-66152757D01*
X212291182Y-66230682D01*
X212213257Y-66325634D01*
X212155354Y-66433963D01*
X212119697Y-66551508D01*
X212112754Y-66622000D01*
X210702420Y-66622000D01*
X210841565Y-66482855D01*
X210860948Y-66466948D01*
X210924429Y-66389595D01*
X210971601Y-66301343D01*
X211000649Y-66205585D01*
X211008000Y-66130947D01*
X211008000Y-66130944D01*
X211010189Y-66108718D01*
X211046508Y-66097701D01*
X211112696Y-66062322D01*
X211170711Y-66014711D01*
X211218322Y-65956696D01*
X211253701Y-65890508D01*
X211275487Y-65818689D01*
X211282843Y-65744000D01*
X211282843Y-64844000D01*
X211275487Y-64769311D01*
X211253701Y-64697492D01*
X211218322Y-64631304D01*
X211170711Y-64573289D01*
X211112696Y-64525678D01*
X211046508Y-64490299D01*
X210974689Y-64468513D01*
X210900000Y-64461157D01*
X210100000Y-64461157D01*
X210025311Y-64468513D01*
X209953492Y-64490299D01*
X209887304Y-64525678D01*
X209829289Y-64573289D01*
X209781678Y-64631304D01*
X209746299Y-64697492D01*
X209724513Y-64769311D01*
X209717157Y-64844000D01*
X209717157Y-65744000D01*
X209724513Y-65818689D01*
X209737045Y-65860000D01*
X209362955Y-65860000D01*
X209375487Y-65818689D01*
X209382843Y-65744000D01*
X209382843Y-64844000D01*
X209375487Y-64769311D01*
X209353701Y-64697492D01*
X209318322Y-64631304D01*
X209270711Y-64573289D01*
X209212696Y-64525678D01*
X209146508Y-64490299D01*
X209074689Y-64468513D01*
X209000000Y-64461157D01*
X208200000Y-64461157D01*
X208125311Y-64468513D01*
X208053492Y-64490299D01*
X207987304Y-64525678D01*
X207929289Y-64573289D01*
X207881678Y-64631304D01*
X207866874Y-64659000D01*
X204147404Y-64659000D01*
X204061928Y-64601887D01*
X203919795Y-64543013D01*
X203768908Y-64513000D01*
X203615064Y-64513000D01*
X203464177Y-64543013D01*
X203322044Y-64601887D01*
X203194127Y-64687358D01*
X203085344Y-64796141D01*
X202999873Y-64924058D01*
X202940999Y-65066191D01*
X202920944Y-65167018D01*
X200468044Y-67619918D01*
X200443814Y-67639803D01*
X200423930Y-67664032D01*
X200364461Y-67736495D01*
X200305496Y-67846809D01*
X200269187Y-67966507D01*
X200256927Y-68090988D01*
X188595000Y-68090988D01*
X188595000Y-62484000D01*
X188592560Y-62459224D01*
X188585333Y-62435399D01*
X188573597Y-62413443D01*
X188557803Y-62394197D01*
X188538557Y-62378403D01*
X188516601Y-62366667D01*
X188492776Y-62359440D01*
X188468000Y-62357000D01*
X160274000Y-62357000D01*
X160249224Y-62359440D01*
X160225399Y-62366667D01*
X160203443Y-62378403D01*
X160184197Y-62394197D01*
X160168403Y-62413443D01*
X160156667Y-62435399D01*
X160149440Y-62459224D01*
X160147000Y-62484000D01*
X158224251Y-62484000D01*
X158213188Y-62371682D01*
X158142798Y-62139637D01*
X158028491Y-61925784D01*
X157874660Y-61738340D01*
X157687215Y-61584509D01*
X157473362Y-61470202D01*
X157241317Y-61399812D01*
X157000000Y-61376044D01*
X156758682Y-61399812D01*
X156526637Y-61470202D01*
X156312784Y-61584509D01*
X156125340Y-61738340D01*
X155971509Y-61925785D01*
X155857202Y-62139638D01*
X155786812Y-62371683D01*
X155769000Y-62552529D01*
X153232843Y-62552529D01*
X153232843Y-62013000D01*
X153220683Y-61889538D01*
X153184671Y-61770821D01*
X153126190Y-61661411D01*
X153047488Y-61565512D01*
X152951589Y-61486810D01*
X152842179Y-61428329D01*
X152723462Y-61392317D01*
X152635000Y-61383604D01*
X152635000Y-61099189D01*
X152638072Y-61068000D01*
X152635000Y-61036808D01*
X152625812Y-60943518D01*
X152589502Y-60823820D01*
X152589498Y-60823812D01*
X152530538Y-60713506D01*
X152471069Y-60641043D01*
X152471065Y-60641039D01*
X152451185Y-60616815D01*
X152426961Y-60596935D01*
X151601074Y-59771050D01*
X151581185Y-59746815D01*
X151507934Y-59686699D01*
X215819000Y-59686699D01*
X215819000Y-60313301D01*
X215941245Y-60927863D01*
X216181035Y-61506768D01*
X216529156Y-62027769D01*
X216972231Y-62470844D01*
X217493232Y-62818965D01*
X218072137Y-63058755D01*
X218686699Y-63181000D01*
X219313301Y-63181000D01*
X219927863Y-63058755D01*
X220506768Y-62818965D01*
X221027769Y-62470844D01*
X221470844Y-62027769D01*
X221818965Y-61506768D01*
X222058755Y-60927863D01*
X222181000Y-60313301D01*
X222181000Y-59686699D01*
X222058755Y-59072137D01*
X221818965Y-58493232D01*
X221470844Y-57972231D01*
X221027769Y-57529156D01*
X220506768Y-57181035D01*
X219927863Y-56941245D01*
X219313301Y-56819000D01*
X218686699Y-56819000D01*
X218072137Y-56941245D01*
X217493232Y-57181035D01*
X216972231Y-57529156D01*
X216529156Y-57972231D01*
X216181035Y-58493232D01*
X215941245Y-59072137D01*
X215819000Y-59686699D01*
X151507934Y-59686699D01*
X151484494Y-59667463D01*
X151374180Y-59608498D01*
X151254482Y-59572188D01*
X151161192Y-59563000D01*
X151161181Y-59563000D01*
X151130000Y-59559929D01*
X151098819Y-59563000D01*
X140239180Y-59563000D01*
X140207999Y-59559929D01*
X140176818Y-59563000D01*
X140176808Y-59563000D01*
X140083518Y-59572188D01*
X139963820Y-59608498D01*
X139912303Y-59636035D01*
X139853505Y-59667463D01*
X139802373Y-59709426D01*
X139756815Y-59746815D01*
X139736930Y-59771045D01*
X138979046Y-60528930D01*
X138954816Y-60548815D01*
X138934932Y-60573044D01*
X138875463Y-60645507D01*
X138816498Y-60755821D01*
X138780189Y-60875519D01*
X138767929Y-61000000D01*
X138771001Y-61031191D01*
X138771001Y-61556599D01*
X138718784Y-61584509D01*
X138531340Y-61738340D01*
X138377509Y-61925785D01*
X138263202Y-62139638D01*
X138192812Y-62371683D01*
X138175000Y-62552529D01*
X138175000Y-62923472D01*
X138192812Y-63104318D01*
X138263202Y-63336363D01*
X138377509Y-63550216D01*
X138531341Y-63737660D01*
X138718785Y-63891491D01*
X138771000Y-63919401D01*
X138771000Y-64777191D01*
X138771001Y-64777201D01*
X138771000Y-73334819D01*
X138767929Y-73366000D01*
X138771000Y-73397181D01*
X138771000Y-73397191D01*
X138780188Y-73490481D01*
X138816498Y-73610179D01*
X138875463Y-73720493D01*
X138954815Y-73817185D01*
X138979050Y-73837074D01*
X143365001Y-78223026D01*
X143365000Y-93867157D01*
X142250000Y-93867157D01*
X142175311Y-93874513D01*
X142103492Y-93896299D01*
X142037304Y-93931678D01*
X141979289Y-93979289D01*
X141931678Y-94037304D01*
X141896299Y-94103492D01*
X141874513Y-94175311D01*
X141867157Y-94250000D01*
X141867157Y-95365000D01*
X141729025Y-95365000D01*
X138901074Y-92537050D01*
X138881185Y-92512815D01*
X138784494Y-92433463D01*
X138674180Y-92374498D01*
X138554482Y-92338188D01*
X138461192Y-92329000D01*
X138461181Y-92329000D01*
X138430000Y-92325929D01*
X138398819Y-92329000D01*
X137953599Y-92329000D01*
X137928671Y-92246821D01*
X137870190Y-92137411D01*
X137791488Y-92041512D01*
X137695589Y-91962810D01*
X137586179Y-91904329D01*
X137467462Y-91868317D01*
X137344000Y-91856157D01*
X136844000Y-91856157D01*
X136720538Y-91868317D01*
X136601821Y-91904329D01*
X136492411Y-91962810D01*
X136396512Y-92041512D01*
X136317810Y-92137411D01*
X136259329Y-92246821D01*
X136223317Y-92365538D01*
X136211157Y-92489000D01*
X124406000Y-92489000D01*
X124406000Y-60018085D01*
X124435575Y-59686699D01*
X125819000Y-59686699D01*
X125819000Y-60313301D01*
X125941245Y-60927863D01*
X126181035Y-61506768D01*
X126529156Y-62027769D01*
X126972231Y-62470844D01*
X127493232Y-62818965D01*
X128072137Y-63058755D01*
X128686699Y-63181000D01*
X129313301Y-63181000D01*
X129927863Y-63058755D01*
X130506768Y-62818965D01*
X131027769Y-62470844D01*
X131470844Y-62027769D01*
X131480712Y-62013000D01*
X135673157Y-62013000D01*
X135673157Y-63463000D01*
X135685317Y-63586462D01*
X135721329Y-63705179D01*
X135779810Y-63814589D01*
X135858512Y-63910488D01*
X135954411Y-63989190D01*
X136063821Y-64047671D01*
X136182538Y-64083683D01*
X136306000Y-64095843D01*
X137506000Y-64095843D01*
X137629462Y-64083683D01*
X137748179Y-64047671D01*
X137857589Y-63989190D01*
X137953488Y-63910488D01*
X138032190Y-63814589D01*
X138090671Y-63705179D01*
X138126683Y-63586462D01*
X138138843Y-63463000D01*
X138138843Y-62013000D01*
X138126683Y-61889538D01*
X138090671Y-61770821D01*
X138032190Y-61661411D01*
X137953488Y-61565512D01*
X137857589Y-61486810D01*
X137748179Y-61428329D01*
X137629462Y-61392317D01*
X137506000Y-61380157D01*
X136306000Y-61380157D01*
X136182538Y-61392317D01*
X136063821Y-61428329D01*
X135954411Y-61486810D01*
X135858512Y-61565512D01*
X135779810Y-61661411D01*
X135721329Y-61770821D01*
X135685317Y-61889538D01*
X135673157Y-62013000D01*
X131480712Y-62013000D01*
X131818965Y-61506768D01*
X132058755Y-60927863D01*
X132181000Y-60313301D01*
X132181000Y-59686699D01*
X132058755Y-59072137D01*
X131818965Y-58493232D01*
X131470844Y-57972231D01*
X131027769Y-57529156D01*
X130506768Y-57181035D01*
X129927863Y-56941245D01*
X129313301Y-56819000D01*
X128686699Y-56819000D01*
X128072137Y-56941245D01*
X127493232Y-57181035D01*
X126972231Y-57529156D01*
X126529156Y-57972231D01*
X126181035Y-58493232D01*
X125941245Y-59072137D01*
X125819000Y-59686699D01*
X124435575Y-59686699D01*
X124480194Y-59186754D01*
X124695638Y-58399227D01*
X125047141Y-57662284D01*
X125523587Y-56999240D01*
X126109919Y-56431044D01*
X126787600Y-55975662D01*
X127535216Y-55647481D01*
X128332251Y-55456130D01*
X129014892Y-55406000D01*
X218981915Y-55406000D01*
X219813246Y-55480194D01*
G37*
%TD.AperFunction*%
%TD*%
M02*
