%TF.GenerationSoftware,KiCad,Pcbnew,(5.1.10-1-10_14)*%
%TF.CreationDate,2022-07-31T12:18:55+02:00*%
%TF.ProjectId,RO Flow Counter,524f2046-6c6f-4772-9043-6f756e746572,rev?*%
%TF.SameCoordinates,Original*%
%TF.FileFunction,Legend,Bot*%
%TF.FilePolarity,Positive*%
%FSLAX46Y46*%
G04 Gerber Fmt 4.6, Leading zero omitted, Abs format (unit mm)*
G04 Created by KiCad (PCBNEW (5.1.10-1-10_14)) date 2022-07-31 12:18:55*
%MOMM*%
%LPD*%
G01*
G04 APERTURE LIST*
%ADD10C,0.375000*%
%ADD11C,0.150000*%
%ADD12C,0.010000*%
%ADD13C,0.120000*%
G04 APERTURE END LIST*
D10*
X202623142Y-65420761D02*
X203123142Y-64468380D01*
X203480285Y-65420761D02*
X203480285Y-63420761D01*
X202908857Y-63420761D01*
X202766000Y-63516000D01*
X202694571Y-63611238D01*
X202623142Y-63801714D01*
X202623142Y-64087428D01*
X202694571Y-64277904D01*
X202766000Y-64373142D01*
X202908857Y-64468380D01*
X203480285Y-64468380D01*
X201694571Y-63420761D02*
X201408857Y-63420761D01*
X201266000Y-63516000D01*
X201123142Y-63706476D01*
X201051714Y-64087428D01*
X201051714Y-64754095D01*
X201123142Y-65135047D01*
X201266000Y-65325523D01*
X201408857Y-65420761D01*
X201694571Y-65420761D01*
X201837428Y-65325523D01*
X201980285Y-65135047D01*
X202051714Y-64754095D01*
X202051714Y-64087428D01*
X201980285Y-63706476D01*
X201837428Y-63516000D01*
X201694571Y-63420761D01*
X198766000Y-64373142D02*
X199266000Y-64373142D01*
X199266000Y-65420761D02*
X199266000Y-63420761D01*
X198551714Y-63420761D01*
X197766000Y-65420761D02*
X197908857Y-65325523D01*
X197980285Y-65135047D01*
X197980285Y-63420761D01*
X196980285Y-65420761D02*
X197123142Y-65325523D01*
X197194571Y-65230285D01*
X197266000Y-65039809D01*
X197266000Y-64468380D01*
X197194571Y-64277904D01*
X197123142Y-64182666D01*
X196980285Y-64087428D01*
X196766000Y-64087428D01*
X196623142Y-64182666D01*
X196551714Y-64277904D01*
X196480285Y-64468380D01*
X196480285Y-65039809D01*
X196551714Y-65230285D01*
X196623142Y-65325523D01*
X196766000Y-65420761D01*
X196980285Y-65420761D01*
X195980285Y-64087428D02*
X195694571Y-65420761D01*
X195408857Y-64468380D01*
X195123142Y-65420761D01*
X194837428Y-64087428D01*
X192480285Y-65325523D02*
X192623142Y-65420761D01*
X192908857Y-65420761D01*
X193051714Y-65325523D01*
X193123142Y-65230285D01*
X193194571Y-65039809D01*
X193194571Y-64468380D01*
X193123142Y-64277904D01*
X193051714Y-64182666D01*
X192908857Y-64087428D01*
X192623142Y-64087428D01*
X192480285Y-64182666D01*
X191623142Y-65420761D02*
X191766000Y-65325523D01*
X191837428Y-65230285D01*
X191908857Y-65039809D01*
X191908857Y-64468380D01*
X191837428Y-64277904D01*
X191766000Y-64182666D01*
X191623142Y-64087428D01*
X191408857Y-64087428D01*
X191266000Y-64182666D01*
X191194571Y-64277904D01*
X191123142Y-64468380D01*
X191123142Y-65039809D01*
X191194571Y-65230285D01*
X191266000Y-65325523D01*
X191408857Y-65420761D01*
X191623142Y-65420761D01*
X189837428Y-64087428D02*
X189837428Y-65420761D01*
X190480285Y-64087428D02*
X190480285Y-65135047D01*
X190408857Y-65325523D01*
X190266000Y-65420761D01*
X190051714Y-65420761D01*
X189908857Y-65325523D01*
X189837428Y-65230285D01*
X189123142Y-64087428D02*
X189123142Y-65420761D01*
X189123142Y-64277904D02*
X189051714Y-64182666D01*
X188908857Y-64087428D01*
X188694571Y-64087428D01*
X188551714Y-64182666D01*
X188480285Y-64373142D01*
X188480285Y-65420761D01*
X187980285Y-64087428D02*
X187408857Y-64087428D01*
X187766000Y-63420761D02*
X187766000Y-65135047D01*
X187694571Y-65325523D01*
X187551714Y-65420761D01*
X187408857Y-65420761D01*
X186337428Y-65325523D02*
X186480285Y-65420761D01*
X186766000Y-65420761D01*
X186908857Y-65325523D01*
X186980285Y-65135047D01*
X186980285Y-64373142D01*
X186908857Y-64182666D01*
X186766000Y-64087428D01*
X186480285Y-64087428D01*
X186337428Y-64182666D01*
X186266000Y-64373142D01*
X186266000Y-64563619D01*
X186980285Y-64754095D01*
X185623142Y-65420761D02*
X185623142Y-64087428D01*
X185623142Y-64468380D02*
X185551714Y-64277904D01*
X185480285Y-64182666D01*
X185337428Y-64087428D01*
X185194571Y-64087428D01*
X183694571Y-64087428D02*
X183337428Y-65420761D01*
X182980285Y-64087428D01*
X182123142Y-63420761D02*
X181980285Y-63420761D01*
X181837428Y-63516000D01*
X181766000Y-63611238D01*
X181694571Y-63801714D01*
X181623142Y-64182666D01*
X181623142Y-64658857D01*
X181694571Y-65039809D01*
X181766000Y-65230285D01*
X181837428Y-65325523D01*
X181980285Y-65420761D01*
X182123142Y-65420761D01*
X182266000Y-65325523D01*
X182337428Y-65230285D01*
X182408857Y-65039809D01*
X182480285Y-64658857D01*
X182480285Y-64182666D01*
X182408857Y-63801714D01*
X182337428Y-63611238D01*
X182266000Y-63516000D01*
X182123142Y-63420761D01*
X180980285Y-65230285D02*
X180908857Y-65325523D01*
X180980285Y-65420761D01*
X181051714Y-65325523D01*
X180980285Y-65230285D01*
X180980285Y-65420761D01*
X179480285Y-65420761D02*
X180337428Y-65420761D01*
X179908857Y-65420761D02*
X179908857Y-63420761D01*
X180051714Y-63706476D01*
X180194571Y-63896952D01*
X180337428Y-63992190D01*
D11*
X153765238Y-90368380D02*
X154098571Y-89892190D01*
X154336666Y-90368380D02*
X154336666Y-89368380D01*
X153955714Y-89368380D01*
X153860476Y-89416000D01*
X153812857Y-89463619D01*
X153765238Y-89558857D01*
X153765238Y-89701714D01*
X153812857Y-89796952D01*
X153860476Y-89844571D01*
X153955714Y-89892190D01*
X154336666Y-89892190D01*
X153431904Y-90368380D02*
X152908095Y-89701714D01*
X153431904Y-89701714D02*
X152908095Y-90368380D01*
X154360476Y-86828380D02*
X153789047Y-86828380D01*
X154074761Y-87828380D02*
X154074761Y-86828380D01*
X153550952Y-87828380D02*
X153027142Y-87161714D01*
X153550952Y-87161714D02*
X153027142Y-87828380D01*
D12*
%TO.C,G\u002A\u002A\u002A*%
G36*
X208204032Y-57436489D02*
G01*
X208076750Y-57438488D01*
X207973848Y-57442679D01*
X207886356Y-57449704D01*
X207805302Y-57460204D01*
X207721715Y-57474817D01*
X207666166Y-57485920D01*
X207276350Y-57587084D01*
X206905631Y-57725357D01*
X206555789Y-57899476D01*
X206228605Y-58108181D01*
X205925859Y-58350210D01*
X205649330Y-58624302D01*
X205400800Y-58929197D01*
X205200139Y-59232913D01*
X205021261Y-59573154D01*
X204882428Y-59925756D01*
X204783342Y-60291825D01*
X204723706Y-60672468D01*
X204703223Y-61068791D01*
X204703213Y-61083811D01*
X204716017Y-61431253D01*
X204755024Y-61753281D01*
X204822303Y-62059261D01*
X204919919Y-62358559D01*
X205049940Y-62660540D01*
X205052328Y-62665513D01*
X205241911Y-63012010D01*
X205463995Y-63332435D01*
X205716536Y-63625191D01*
X205997490Y-63888677D01*
X206304813Y-64121294D01*
X206636464Y-64321442D01*
X206990397Y-64487523D01*
X207364570Y-64617936D01*
X207634416Y-64686493D01*
X207771468Y-64709358D01*
X207939554Y-64726652D01*
X208127889Y-64738194D01*
X208325689Y-64743804D01*
X208522171Y-64743299D01*
X208706549Y-64736500D01*
X208868039Y-64723226D01*
X208967916Y-64708863D01*
X209363147Y-64615850D01*
X209738931Y-64485622D01*
X210093896Y-64319077D01*
X210426669Y-64117115D01*
X210735876Y-63880635D01*
X211020145Y-63610536D01*
X211278102Y-63307717D01*
X211428300Y-63097833D01*
X211586683Y-62831315D01*
X211727537Y-62535025D01*
X211846622Y-62219386D01*
X211939696Y-61894820D01*
X211966618Y-61774916D01*
X211983475Y-61688045D01*
X211995970Y-61607254D01*
X212004726Y-61523696D01*
X212010361Y-61428524D01*
X212013496Y-61312890D01*
X212014753Y-61167948D01*
X212014871Y-61087000D01*
X212014675Y-61032692D01*
X211560420Y-61032692D01*
X211545115Y-61173183D01*
X211499267Y-61286518D01*
X211424494Y-61370741D01*
X211322411Y-61423895D01*
X211221653Y-61442772D01*
X211109959Y-61439519D01*
X211019974Y-61407809D01*
X210937941Y-61342302D01*
X210923422Y-61327014D01*
X210872723Y-61257377D01*
X210840423Y-61174084D01*
X210823812Y-61067439D01*
X210820000Y-60956702D01*
X210809930Y-60760196D01*
X210781279Y-60536814D01*
X210736381Y-60296486D01*
X210677574Y-60049139D01*
X210607192Y-59804703D01*
X210527572Y-59573105D01*
X210449971Y-59383907D01*
X210376608Y-59236185D01*
X210293369Y-59094582D01*
X210204898Y-58965152D01*
X210115840Y-58853947D01*
X210030842Y-58767022D01*
X209954548Y-58710429D01*
X209921817Y-58695629D01*
X209833462Y-58686424D01*
X209751218Y-58712905D01*
X209683508Y-58768486D01*
X209638754Y-58846582D01*
X209625045Y-58927672D01*
X209630983Y-58976873D01*
X209652904Y-59025577D01*
X209696967Y-59085314D01*
X209729546Y-59123284D01*
X209871603Y-59312082D01*
X209998183Y-59537207D01*
X210108121Y-59795148D01*
X210200255Y-60082393D01*
X210273422Y-60395429D01*
X210326459Y-60730744D01*
X210353155Y-61006211D01*
X210363069Y-61130882D01*
X210373670Y-61223953D01*
X210387045Y-61296133D01*
X210405281Y-61358131D01*
X210430464Y-61420657D01*
X210436555Y-61434251D01*
X210526268Y-61585542D01*
X210644443Y-61713649D01*
X210784580Y-61814996D01*
X210940179Y-61886007D01*
X211104741Y-61923107D01*
X211271764Y-61922720D01*
X211312995Y-61916374D01*
X211381371Y-61904876D01*
X211430707Y-61898870D01*
X211448873Y-61899317D01*
X211447654Y-61924069D01*
X211432683Y-61979685D01*
X211406918Y-62058133D01*
X211373315Y-62151381D01*
X211334831Y-62251396D01*
X211294423Y-62350147D01*
X211255049Y-62439601D01*
X211232928Y-62485916D01*
X211050776Y-62806363D01*
X210837424Y-63100670D01*
X210595521Y-63366931D01*
X210327715Y-63603241D01*
X210036657Y-63807692D01*
X209724993Y-63978380D01*
X209395374Y-64113399D01*
X209050449Y-64210842D01*
X208766833Y-64260262D01*
X208693929Y-64269649D01*
X208638368Y-64276977D01*
X208613375Y-64280482D01*
X208607564Y-64261628D01*
X208602708Y-64208078D01*
X208599237Y-64127467D01*
X208597580Y-64027427D01*
X208597500Y-63998843D01*
X208597927Y-63883791D01*
X208599853Y-63804128D01*
X208604240Y-63752909D01*
X208612053Y-63723191D01*
X208624257Y-63708033D01*
X208638800Y-63701411D01*
X208689624Y-63677496D01*
X208762413Y-63633702D01*
X208846691Y-63577343D01*
X208931979Y-63515734D01*
X209007801Y-63456190D01*
X209063678Y-63406026D01*
X209067425Y-63402165D01*
X209144557Y-63302781D01*
X209190170Y-63203659D01*
X209205199Y-63110383D01*
X209190582Y-63028536D01*
X209147255Y-62963698D01*
X209076155Y-62921454D01*
X208984391Y-62907333D01*
X208926030Y-62909958D01*
X208837924Y-62917095D01*
X208732287Y-62927636D01*
X208627412Y-62939719D01*
X208507171Y-62953443D01*
X208412377Y-62960491D01*
X208326675Y-62960864D01*
X208233708Y-62954561D01*
X208117120Y-62941583D01*
X208101921Y-62939719D01*
X207927282Y-62920283D01*
X207791611Y-62909961D01*
X207692557Y-62908661D01*
X207627766Y-62916290D01*
X207614198Y-62920481D01*
X207573501Y-62955115D01*
X207539738Y-63016807D01*
X207520206Y-63090283D01*
X207518000Y-63121849D01*
X207538709Y-63228338D01*
X207599460Y-63336912D01*
X207698188Y-63445272D01*
X207832831Y-63551121D01*
X207987714Y-63644884D01*
X208131115Y-63722250D01*
X208131833Y-64277966D01*
X208031291Y-64267951D01*
X207908488Y-64251225D01*
X207762087Y-64224442D01*
X207608574Y-64191159D01*
X207464433Y-64154935D01*
X207352140Y-64121356D01*
X207024272Y-63989598D01*
X206712081Y-63821086D01*
X206419329Y-63619153D01*
X206149779Y-63387130D01*
X205907194Y-63128347D01*
X205695336Y-62846136D01*
X205517967Y-62543829D01*
X205477763Y-62461918D01*
X205436392Y-62369309D01*
X205394723Y-62267686D01*
X205355536Y-62164945D01*
X205321614Y-62068979D01*
X205295737Y-61987683D01*
X205280689Y-61928952D01*
X205279251Y-61900681D01*
X205279766Y-61900011D01*
X205304036Y-61898768D01*
X205356266Y-61905755D01*
X205401047Y-61914416D01*
X205559341Y-61927721D01*
X205722024Y-61904298D01*
X205880644Y-61847759D01*
X206026750Y-61761712D01*
X206151888Y-61649768D01*
X206217401Y-61565704D01*
X206268374Y-61480790D01*
X206306702Y-61394894D01*
X206334805Y-61298754D01*
X206355105Y-61183109D01*
X206370023Y-61038696D01*
X206375748Y-60960000D01*
X206405129Y-60669597D01*
X206453557Y-60383587D01*
X206519133Y-60107690D01*
X206599956Y-59847625D01*
X206694128Y-59609114D01*
X206799747Y-59397878D01*
X206914915Y-59219637D01*
X206980575Y-59138931D01*
X207038852Y-59070968D01*
X207073233Y-59021237D01*
X207089788Y-58978064D01*
X207094584Y-58929776D01*
X207094666Y-58919471D01*
X207076857Y-58820430D01*
X207024935Y-58745165D01*
X206941158Y-58696909D01*
X206938634Y-58696063D01*
X206865481Y-58684536D01*
X206793571Y-58702380D01*
X206715148Y-58752628D01*
X206653448Y-58807521D01*
X206525498Y-58953779D01*
X206404108Y-59137331D01*
X206291109Y-59353400D01*
X206188330Y-59597214D01*
X206097600Y-59863995D01*
X206020749Y-60148970D01*
X205959607Y-60447364D01*
X205919584Y-60722910D01*
X205907287Y-60836706D01*
X205897247Y-60946133D01*
X205890522Y-61038506D01*
X205888166Y-61099615D01*
X205869682Y-61216332D01*
X205813352Y-61315976D01*
X205718329Y-61400558D01*
X205630628Y-61437217D01*
X205525986Y-61446874D01*
X205419371Y-61430344D01*
X205325753Y-61388442D01*
X205311603Y-61378395D01*
X205253205Y-61327264D01*
X205212309Y-61272121D01*
X205186660Y-61204969D01*
X205174008Y-61117813D01*
X205172101Y-61002659D01*
X205176139Y-60897474D01*
X205215365Y-60541246D01*
X205294683Y-60194601D01*
X205412363Y-59860561D01*
X205566675Y-59542148D01*
X205755889Y-59242385D01*
X205978276Y-58964293D01*
X206232106Y-58710894D01*
X206515649Y-58485211D01*
X206583845Y-58438238D01*
X206719170Y-58349654D01*
X206834092Y-58280152D01*
X206941643Y-58222847D01*
X207054852Y-58170855D01*
X207186750Y-58117288D01*
X207203644Y-58110740D01*
X207551775Y-57998456D01*
X207906662Y-57926912D01*
X208264946Y-57895938D01*
X208623270Y-57905364D01*
X208978276Y-57955018D01*
X209326606Y-58044730D01*
X209664902Y-58174329D01*
X209808188Y-58243166D01*
X210127213Y-58429551D01*
X210418976Y-58647599D01*
X210681884Y-58895312D01*
X210914346Y-59170692D01*
X211114770Y-59471740D01*
X211281565Y-59796459D01*
X211413138Y-60142850D01*
X211465176Y-60323382D01*
X211489612Y-60434228D01*
X211513175Y-60570031D01*
X211533900Y-60716164D01*
X211549824Y-60857998D01*
X211558983Y-60980906D01*
X211560420Y-61032692D01*
X212014675Y-61032692D01*
X212014286Y-60925258D01*
X212012119Y-60796994D01*
X212007747Y-60693364D01*
X212000551Y-60605524D01*
X211989908Y-60524630D01*
X211975198Y-60441837D01*
X211966563Y-60399083D01*
X211866148Y-60014525D01*
X211728955Y-59647235D01*
X211556824Y-59299594D01*
X211351595Y-58973985D01*
X211115109Y-58672788D01*
X210849204Y-58398387D01*
X210555723Y-58153163D01*
X210236503Y-57939498D01*
X209947071Y-57784840D01*
X209638492Y-57654842D01*
X209310204Y-57548017D01*
X209052583Y-57484873D01*
X208965814Y-57467925D01*
X208885199Y-57455349D01*
X208801897Y-57446518D01*
X208707065Y-57440805D01*
X208591862Y-57437581D01*
X208447446Y-57436220D01*
X208364666Y-57436043D01*
X208204032Y-57436489D01*
G37*
X208204032Y-57436489D02*
X208076750Y-57438488D01*
X207973848Y-57442679D01*
X207886356Y-57449704D01*
X207805302Y-57460204D01*
X207721715Y-57474817D01*
X207666166Y-57485920D01*
X207276350Y-57587084D01*
X206905631Y-57725357D01*
X206555789Y-57899476D01*
X206228605Y-58108181D01*
X205925859Y-58350210D01*
X205649330Y-58624302D01*
X205400800Y-58929197D01*
X205200139Y-59232913D01*
X205021261Y-59573154D01*
X204882428Y-59925756D01*
X204783342Y-60291825D01*
X204723706Y-60672468D01*
X204703223Y-61068791D01*
X204703213Y-61083811D01*
X204716017Y-61431253D01*
X204755024Y-61753281D01*
X204822303Y-62059261D01*
X204919919Y-62358559D01*
X205049940Y-62660540D01*
X205052328Y-62665513D01*
X205241911Y-63012010D01*
X205463995Y-63332435D01*
X205716536Y-63625191D01*
X205997490Y-63888677D01*
X206304813Y-64121294D01*
X206636464Y-64321442D01*
X206990397Y-64487523D01*
X207364570Y-64617936D01*
X207634416Y-64686493D01*
X207771468Y-64709358D01*
X207939554Y-64726652D01*
X208127889Y-64738194D01*
X208325689Y-64743804D01*
X208522171Y-64743299D01*
X208706549Y-64736500D01*
X208868039Y-64723226D01*
X208967916Y-64708863D01*
X209363147Y-64615850D01*
X209738931Y-64485622D01*
X210093896Y-64319077D01*
X210426669Y-64117115D01*
X210735876Y-63880635D01*
X211020145Y-63610536D01*
X211278102Y-63307717D01*
X211428300Y-63097833D01*
X211586683Y-62831315D01*
X211727537Y-62535025D01*
X211846622Y-62219386D01*
X211939696Y-61894820D01*
X211966618Y-61774916D01*
X211983475Y-61688045D01*
X211995970Y-61607254D01*
X212004726Y-61523696D01*
X212010361Y-61428524D01*
X212013496Y-61312890D01*
X212014753Y-61167948D01*
X212014871Y-61087000D01*
X212014675Y-61032692D01*
X211560420Y-61032692D01*
X211545115Y-61173183D01*
X211499267Y-61286518D01*
X211424494Y-61370741D01*
X211322411Y-61423895D01*
X211221653Y-61442772D01*
X211109959Y-61439519D01*
X211019974Y-61407809D01*
X210937941Y-61342302D01*
X210923422Y-61327014D01*
X210872723Y-61257377D01*
X210840423Y-61174084D01*
X210823812Y-61067439D01*
X210820000Y-60956702D01*
X210809930Y-60760196D01*
X210781279Y-60536814D01*
X210736381Y-60296486D01*
X210677574Y-60049139D01*
X210607192Y-59804703D01*
X210527572Y-59573105D01*
X210449971Y-59383907D01*
X210376608Y-59236185D01*
X210293369Y-59094582D01*
X210204898Y-58965152D01*
X210115840Y-58853947D01*
X210030842Y-58767022D01*
X209954548Y-58710429D01*
X209921817Y-58695629D01*
X209833462Y-58686424D01*
X209751218Y-58712905D01*
X209683508Y-58768486D01*
X209638754Y-58846582D01*
X209625045Y-58927672D01*
X209630983Y-58976873D01*
X209652904Y-59025577D01*
X209696967Y-59085314D01*
X209729546Y-59123284D01*
X209871603Y-59312082D01*
X209998183Y-59537207D01*
X210108121Y-59795148D01*
X210200255Y-60082393D01*
X210273422Y-60395429D01*
X210326459Y-60730744D01*
X210353155Y-61006211D01*
X210363069Y-61130882D01*
X210373670Y-61223953D01*
X210387045Y-61296133D01*
X210405281Y-61358131D01*
X210430464Y-61420657D01*
X210436555Y-61434251D01*
X210526268Y-61585542D01*
X210644443Y-61713649D01*
X210784580Y-61814996D01*
X210940179Y-61886007D01*
X211104741Y-61923107D01*
X211271764Y-61922720D01*
X211312995Y-61916374D01*
X211381371Y-61904876D01*
X211430707Y-61898870D01*
X211448873Y-61899317D01*
X211447654Y-61924069D01*
X211432683Y-61979685D01*
X211406918Y-62058133D01*
X211373315Y-62151381D01*
X211334831Y-62251396D01*
X211294423Y-62350147D01*
X211255049Y-62439601D01*
X211232928Y-62485916D01*
X211050776Y-62806363D01*
X210837424Y-63100670D01*
X210595521Y-63366931D01*
X210327715Y-63603241D01*
X210036657Y-63807692D01*
X209724993Y-63978380D01*
X209395374Y-64113399D01*
X209050449Y-64210842D01*
X208766833Y-64260262D01*
X208693929Y-64269649D01*
X208638368Y-64276977D01*
X208613375Y-64280482D01*
X208607564Y-64261628D01*
X208602708Y-64208078D01*
X208599237Y-64127467D01*
X208597580Y-64027427D01*
X208597500Y-63998843D01*
X208597927Y-63883791D01*
X208599853Y-63804128D01*
X208604240Y-63752909D01*
X208612053Y-63723191D01*
X208624257Y-63708033D01*
X208638800Y-63701411D01*
X208689624Y-63677496D01*
X208762413Y-63633702D01*
X208846691Y-63577343D01*
X208931979Y-63515734D01*
X209007801Y-63456190D01*
X209063678Y-63406026D01*
X209067425Y-63402165D01*
X209144557Y-63302781D01*
X209190170Y-63203659D01*
X209205199Y-63110383D01*
X209190582Y-63028536D01*
X209147255Y-62963698D01*
X209076155Y-62921454D01*
X208984391Y-62907333D01*
X208926030Y-62909958D01*
X208837924Y-62917095D01*
X208732287Y-62927636D01*
X208627412Y-62939719D01*
X208507171Y-62953443D01*
X208412377Y-62960491D01*
X208326675Y-62960864D01*
X208233708Y-62954561D01*
X208117120Y-62941583D01*
X208101921Y-62939719D01*
X207927282Y-62920283D01*
X207791611Y-62909961D01*
X207692557Y-62908661D01*
X207627766Y-62916290D01*
X207614198Y-62920481D01*
X207573501Y-62955115D01*
X207539738Y-63016807D01*
X207520206Y-63090283D01*
X207518000Y-63121849D01*
X207538709Y-63228338D01*
X207599460Y-63336912D01*
X207698188Y-63445272D01*
X207832831Y-63551121D01*
X207987714Y-63644884D01*
X208131115Y-63722250D01*
X208131833Y-64277966D01*
X208031291Y-64267951D01*
X207908488Y-64251225D01*
X207762087Y-64224442D01*
X207608574Y-64191159D01*
X207464433Y-64154935D01*
X207352140Y-64121356D01*
X207024272Y-63989598D01*
X206712081Y-63821086D01*
X206419329Y-63619153D01*
X206149779Y-63387130D01*
X205907194Y-63128347D01*
X205695336Y-62846136D01*
X205517967Y-62543829D01*
X205477763Y-62461918D01*
X205436392Y-62369309D01*
X205394723Y-62267686D01*
X205355536Y-62164945D01*
X205321614Y-62068979D01*
X205295737Y-61987683D01*
X205280689Y-61928952D01*
X205279251Y-61900681D01*
X205279766Y-61900011D01*
X205304036Y-61898768D01*
X205356266Y-61905755D01*
X205401047Y-61914416D01*
X205559341Y-61927721D01*
X205722024Y-61904298D01*
X205880644Y-61847759D01*
X206026750Y-61761712D01*
X206151888Y-61649768D01*
X206217401Y-61565704D01*
X206268374Y-61480790D01*
X206306702Y-61394894D01*
X206334805Y-61298754D01*
X206355105Y-61183109D01*
X206370023Y-61038696D01*
X206375748Y-60960000D01*
X206405129Y-60669597D01*
X206453557Y-60383587D01*
X206519133Y-60107690D01*
X206599956Y-59847625D01*
X206694128Y-59609114D01*
X206799747Y-59397878D01*
X206914915Y-59219637D01*
X206980575Y-59138931D01*
X207038852Y-59070968D01*
X207073233Y-59021237D01*
X207089788Y-58978064D01*
X207094584Y-58929776D01*
X207094666Y-58919471D01*
X207076857Y-58820430D01*
X207024935Y-58745165D01*
X206941158Y-58696909D01*
X206938634Y-58696063D01*
X206865481Y-58684536D01*
X206793571Y-58702380D01*
X206715148Y-58752628D01*
X206653448Y-58807521D01*
X206525498Y-58953779D01*
X206404108Y-59137331D01*
X206291109Y-59353400D01*
X206188330Y-59597214D01*
X206097600Y-59863995D01*
X206020749Y-60148970D01*
X205959607Y-60447364D01*
X205919584Y-60722910D01*
X205907287Y-60836706D01*
X205897247Y-60946133D01*
X205890522Y-61038506D01*
X205888166Y-61099615D01*
X205869682Y-61216332D01*
X205813352Y-61315976D01*
X205718329Y-61400558D01*
X205630628Y-61437217D01*
X205525986Y-61446874D01*
X205419371Y-61430344D01*
X205325753Y-61388442D01*
X205311603Y-61378395D01*
X205253205Y-61327264D01*
X205212309Y-61272121D01*
X205186660Y-61204969D01*
X205174008Y-61117813D01*
X205172101Y-61002659D01*
X205176139Y-60897474D01*
X205215365Y-60541246D01*
X205294683Y-60194601D01*
X205412363Y-59860561D01*
X205566675Y-59542148D01*
X205755889Y-59242385D01*
X205978276Y-58964293D01*
X206232106Y-58710894D01*
X206515649Y-58485211D01*
X206583845Y-58438238D01*
X206719170Y-58349654D01*
X206834092Y-58280152D01*
X206941643Y-58222847D01*
X207054852Y-58170855D01*
X207186750Y-58117288D01*
X207203644Y-58110740D01*
X207551775Y-57998456D01*
X207906662Y-57926912D01*
X208264946Y-57895938D01*
X208623270Y-57905364D01*
X208978276Y-57955018D01*
X209326606Y-58044730D01*
X209664902Y-58174329D01*
X209808188Y-58243166D01*
X210127213Y-58429551D01*
X210418976Y-58647599D01*
X210681884Y-58895312D01*
X210914346Y-59170692D01*
X211114770Y-59471740D01*
X211281565Y-59796459D01*
X211413138Y-60142850D01*
X211465176Y-60323382D01*
X211489612Y-60434228D01*
X211513175Y-60570031D01*
X211533900Y-60716164D01*
X211549824Y-60857998D01*
X211558983Y-60980906D01*
X211560420Y-61032692D01*
X212014675Y-61032692D01*
X212014286Y-60925258D01*
X212012119Y-60796994D01*
X212007747Y-60693364D01*
X212000551Y-60605524D01*
X211989908Y-60524630D01*
X211975198Y-60441837D01*
X211966563Y-60399083D01*
X211866148Y-60014525D01*
X211728955Y-59647235D01*
X211556824Y-59299594D01*
X211351595Y-58973985D01*
X211115109Y-58672788D01*
X210849204Y-58398387D01*
X210555723Y-58153163D01*
X210236503Y-57939498D01*
X209947071Y-57784840D01*
X209638492Y-57654842D01*
X209310204Y-57548017D01*
X209052583Y-57484873D01*
X208965814Y-57467925D01*
X208885199Y-57455349D01*
X208801897Y-57446518D01*
X208707065Y-57440805D01*
X208591862Y-57437581D01*
X208447446Y-57436220D01*
X208364666Y-57436043D01*
X208204032Y-57436489D01*
G36*
X199794539Y-60772078D02*
G01*
X199702233Y-60806128D01*
X199617415Y-60870804D01*
X199576276Y-60913415D01*
X199503578Y-61014697D01*
X199455526Y-61133538D01*
X199429997Y-61277100D01*
X199424435Y-61425666D01*
X199432481Y-61576089D01*
X199455752Y-61698499D01*
X199497705Y-61805548D01*
X199553424Y-61897963D01*
X199640986Y-61991736D01*
X199751309Y-62060498D01*
X199875047Y-62102164D01*
X200002851Y-62114649D01*
X200125374Y-62095866D01*
X200226838Y-62048204D01*
X200300166Y-61998442D01*
X200300166Y-62526333D01*
X200617666Y-62526333D01*
X200617666Y-61154885D01*
X200300166Y-61154885D01*
X200300166Y-61456328D01*
X200299629Y-61576912D01*
X200297443Y-61662412D01*
X200292751Y-61720071D01*
X200284692Y-61757132D01*
X200272407Y-61780837D01*
X200260108Y-61794025D01*
X200181128Y-61839765D01*
X200083324Y-61859805D01*
X199982202Y-61853215D01*
X199893269Y-61819063D01*
X199888931Y-61816295D01*
X199829034Y-61755042D01*
X199788334Y-61661203D01*
X199766161Y-61532614D01*
X199761302Y-61404886D01*
X199764387Y-61292532D01*
X199773425Y-61212274D01*
X199789831Y-61154120D01*
X199799749Y-61132957D01*
X199859208Y-61062151D01*
X199940353Y-61021105D01*
X200033896Y-61010722D01*
X200130552Y-61031906D01*
X200221032Y-61085559D01*
X200227795Y-61091342D01*
X200300166Y-61154885D01*
X200617666Y-61154885D01*
X200617666Y-60788646D01*
X200486640Y-60794948D01*
X200414595Y-60799500D01*
X200373661Y-60808161D01*
X200352645Y-60826614D01*
X200340356Y-60860542D01*
X200337735Y-60870555D01*
X200319856Y-60939861D01*
X200251803Y-60888929D01*
X200146492Y-60819494D01*
X200050321Y-60779422D01*
X199948412Y-60763219D01*
X199908583Y-60762170D01*
X199794539Y-60772078D01*
G37*
X199794539Y-60772078D02*
X199702233Y-60806128D01*
X199617415Y-60870804D01*
X199576276Y-60913415D01*
X199503578Y-61014697D01*
X199455526Y-61133538D01*
X199429997Y-61277100D01*
X199424435Y-61425666D01*
X199432481Y-61576089D01*
X199455752Y-61698499D01*
X199497705Y-61805548D01*
X199553424Y-61897963D01*
X199640986Y-61991736D01*
X199751309Y-62060498D01*
X199875047Y-62102164D01*
X200002851Y-62114649D01*
X200125374Y-62095866D01*
X200226838Y-62048204D01*
X200300166Y-61998442D01*
X200300166Y-62526333D01*
X200617666Y-62526333D01*
X200617666Y-61154885D01*
X200300166Y-61154885D01*
X200300166Y-61456328D01*
X200299629Y-61576912D01*
X200297443Y-61662412D01*
X200292751Y-61720071D01*
X200284692Y-61757132D01*
X200272407Y-61780837D01*
X200260108Y-61794025D01*
X200181128Y-61839765D01*
X200083324Y-61859805D01*
X199982202Y-61853215D01*
X199893269Y-61819063D01*
X199888931Y-61816295D01*
X199829034Y-61755042D01*
X199788334Y-61661203D01*
X199766161Y-61532614D01*
X199761302Y-61404886D01*
X199764387Y-61292532D01*
X199773425Y-61212274D01*
X199789831Y-61154120D01*
X199799749Y-61132957D01*
X199859208Y-61062151D01*
X199940353Y-61021105D01*
X200033896Y-61010722D01*
X200130552Y-61031906D01*
X200221032Y-61085559D01*
X200227795Y-61091342D01*
X200300166Y-61154885D01*
X200617666Y-61154885D01*
X200617666Y-60788646D01*
X200486640Y-60794948D01*
X200414595Y-60799500D01*
X200373661Y-60808161D01*
X200352645Y-60826614D01*
X200340356Y-60860542D01*
X200337735Y-60870555D01*
X200319856Y-60939861D01*
X200251803Y-60888929D01*
X200146492Y-60819494D01*
X200050321Y-60779422D01*
X199948412Y-60763219D01*
X199908583Y-60762170D01*
X199794539Y-60772078D01*
G36*
X198355206Y-60772078D02*
G01*
X198262900Y-60806128D01*
X198178081Y-60870804D01*
X198136942Y-60913415D01*
X198064244Y-61014697D01*
X198016193Y-61133538D01*
X197990663Y-61277100D01*
X197985102Y-61425666D01*
X197993147Y-61576089D01*
X198016419Y-61698499D01*
X198058372Y-61805548D01*
X198114090Y-61897963D01*
X198201652Y-61991736D01*
X198311976Y-62060498D01*
X198435714Y-62102164D01*
X198563518Y-62114649D01*
X198686040Y-62095866D01*
X198787504Y-62048204D01*
X198860833Y-61998442D01*
X198860833Y-62526333D01*
X199178333Y-62526333D01*
X199178333Y-61154885D01*
X198860833Y-61154885D01*
X198860833Y-61456328D01*
X198860296Y-61576912D01*
X198858110Y-61662412D01*
X198853417Y-61720071D01*
X198845358Y-61757132D01*
X198833074Y-61780837D01*
X198820774Y-61794025D01*
X198741794Y-61839765D01*
X198643991Y-61859805D01*
X198542869Y-61853215D01*
X198453936Y-61819063D01*
X198449598Y-61816295D01*
X198389701Y-61755042D01*
X198349001Y-61661203D01*
X198326828Y-61532614D01*
X198321968Y-61404886D01*
X198325053Y-61292532D01*
X198334092Y-61212274D01*
X198350498Y-61154120D01*
X198360416Y-61132957D01*
X198419874Y-61062151D01*
X198501019Y-61021105D01*
X198594563Y-61010722D01*
X198691219Y-61031906D01*
X198781699Y-61085559D01*
X198788462Y-61091342D01*
X198860833Y-61154885D01*
X199178333Y-61154885D01*
X199178333Y-60788646D01*
X199047307Y-60794948D01*
X198975262Y-60799500D01*
X198934328Y-60808161D01*
X198913312Y-60826614D01*
X198901022Y-60860542D01*
X198898402Y-60870555D01*
X198880523Y-60939861D01*
X198812470Y-60888929D01*
X198707158Y-60819494D01*
X198610988Y-60779422D01*
X198509079Y-60763219D01*
X198469250Y-60762170D01*
X198355206Y-60772078D01*
G37*
X198355206Y-60772078D02*
X198262900Y-60806128D01*
X198178081Y-60870804D01*
X198136942Y-60913415D01*
X198064244Y-61014697D01*
X198016193Y-61133538D01*
X197990663Y-61277100D01*
X197985102Y-61425666D01*
X197993147Y-61576089D01*
X198016419Y-61698499D01*
X198058372Y-61805548D01*
X198114090Y-61897963D01*
X198201652Y-61991736D01*
X198311976Y-62060498D01*
X198435714Y-62102164D01*
X198563518Y-62114649D01*
X198686040Y-62095866D01*
X198787504Y-62048204D01*
X198860833Y-61998442D01*
X198860833Y-62526333D01*
X199178333Y-62526333D01*
X199178333Y-61154885D01*
X198860833Y-61154885D01*
X198860833Y-61456328D01*
X198860296Y-61576912D01*
X198858110Y-61662412D01*
X198853417Y-61720071D01*
X198845358Y-61757132D01*
X198833074Y-61780837D01*
X198820774Y-61794025D01*
X198741794Y-61839765D01*
X198643991Y-61859805D01*
X198542869Y-61853215D01*
X198453936Y-61819063D01*
X198449598Y-61816295D01*
X198389701Y-61755042D01*
X198349001Y-61661203D01*
X198326828Y-61532614D01*
X198321968Y-61404886D01*
X198325053Y-61292532D01*
X198334092Y-61212274D01*
X198350498Y-61154120D01*
X198360416Y-61132957D01*
X198419874Y-61062151D01*
X198501019Y-61021105D01*
X198594563Y-61010722D01*
X198691219Y-61031906D01*
X198781699Y-61085559D01*
X198788462Y-61091342D01*
X198860833Y-61154885D01*
X199178333Y-61154885D01*
X199178333Y-60788646D01*
X199047307Y-60794948D01*
X198975262Y-60799500D01*
X198934328Y-60808161D01*
X198913312Y-60826614D01*
X198901022Y-60860542D01*
X198898402Y-60870555D01*
X198880523Y-60939861D01*
X198812470Y-60888929D01*
X198707158Y-60819494D01*
X198610988Y-60779422D01*
X198509079Y-60763219D01*
X198469250Y-60762170D01*
X198355206Y-60772078D01*
G36*
X196654938Y-60791623D02*
G01*
X196621230Y-60798552D01*
X196617166Y-60803368D01*
X196625234Y-60826452D01*
X196648042Y-60883476D01*
X196683496Y-60969538D01*
X196729501Y-61079735D01*
X196783963Y-61209164D01*
X196844789Y-61352924D01*
X196909884Y-61506112D01*
X196977153Y-61663826D01*
X197044504Y-61821163D01*
X197109841Y-61973221D01*
X197171071Y-62115097D01*
X197226099Y-62241889D01*
X197272832Y-62348695D01*
X197309174Y-62430613D01*
X197333033Y-62482739D01*
X197341860Y-62499875D01*
X197376857Y-62515557D01*
X197447512Y-62524545D01*
X197511023Y-62526333D01*
X197592028Y-62524231D01*
X197636318Y-62517225D01*
X197649335Y-62504266D01*
X197648301Y-62499875D01*
X197635609Y-62471216D01*
X197608857Y-62412745D01*
X197571967Y-62332976D01*
X197528869Y-62240448D01*
X197419999Y-62007479D01*
X197683666Y-61399073D01*
X197947333Y-60790666D01*
X197782258Y-60790666D01*
X197682277Y-60794339D01*
X197618105Y-60805029D01*
X197595759Y-60817125D01*
X197581666Y-60844149D01*
X197554779Y-60904197D01*
X197517806Y-60990897D01*
X197473453Y-61097879D01*
X197424429Y-61218773D01*
X197414132Y-61244485D01*
X197365671Y-61363091D01*
X197322040Y-61464834D01*
X197285680Y-61544429D01*
X197259032Y-61596593D01*
X197244538Y-61616041D01*
X197242989Y-61614902D01*
X197206298Y-61514461D01*
X197163742Y-61400851D01*
X197118028Y-61280981D01*
X197071865Y-61161760D01*
X197027963Y-61050096D01*
X196989030Y-60952900D01*
X196957773Y-60877080D01*
X196936903Y-60829545D01*
X196930221Y-60817125D01*
X196902667Y-60805838D01*
X196848841Y-60797094D01*
X196781263Y-60791444D01*
X196712456Y-60789437D01*
X196654938Y-60791623D01*
G37*
X196654938Y-60791623D02*
X196621230Y-60798552D01*
X196617166Y-60803368D01*
X196625234Y-60826452D01*
X196648042Y-60883476D01*
X196683496Y-60969538D01*
X196729501Y-61079735D01*
X196783963Y-61209164D01*
X196844789Y-61352924D01*
X196909884Y-61506112D01*
X196977153Y-61663826D01*
X197044504Y-61821163D01*
X197109841Y-61973221D01*
X197171071Y-62115097D01*
X197226099Y-62241889D01*
X197272832Y-62348695D01*
X197309174Y-62430613D01*
X197333033Y-62482739D01*
X197341860Y-62499875D01*
X197376857Y-62515557D01*
X197447512Y-62524545D01*
X197511023Y-62526333D01*
X197592028Y-62524231D01*
X197636318Y-62517225D01*
X197649335Y-62504266D01*
X197648301Y-62499875D01*
X197635609Y-62471216D01*
X197608857Y-62412745D01*
X197571967Y-62332976D01*
X197528869Y-62240448D01*
X197419999Y-62007479D01*
X197683666Y-61399073D01*
X197947333Y-60790666D01*
X197782258Y-60790666D01*
X197682277Y-60794339D01*
X197618105Y-60805029D01*
X197595759Y-60817125D01*
X197581666Y-60844149D01*
X197554779Y-60904197D01*
X197517806Y-60990897D01*
X197473453Y-61097879D01*
X197424429Y-61218773D01*
X197414132Y-61244485D01*
X197365671Y-61363091D01*
X197322040Y-61464834D01*
X197285680Y-61544429D01*
X197259032Y-61596593D01*
X197244538Y-61616041D01*
X197242989Y-61614902D01*
X197206298Y-61514461D01*
X197163742Y-61400851D01*
X197118028Y-61280981D01*
X197071865Y-61161760D01*
X197027963Y-61050096D01*
X196989030Y-60952900D01*
X196957773Y-60877080D01*
X196936903Y-60829545D01*
X196930221Y-60817125D01*
X196902667Y-60805838D01*
X196848841Y-60797094D01*
X196781263Y-60791444D01*
X196712456Y-60789437D01*
X196654938Y-60791623D01*
G36*
X201760666Y-61257724D02*
G01*
X201760144Y-61421754D01*
X201758054Y-61548993D01*
X201753613Y-61644978D01*
X201746039Y-61715243D01*
X201734546Y-61765324D01*
X201718353Y-61800758D01*
X201696676Y-61827079D01*
X201677834Y-61843035D01*
X201617604Y-61866331D01*
X201535554Y-61868547D01*
X201445851Y-61850895D01*
X201365651Y-61816357D01*
X201273833Y-61762548D01*
X201273833Y-60790666D01*
X200935166Y-60790666D01*
X200935166Y-62103000D01*
X201057933Y-62103000D01*
X201148863Y-62096625D01*
X201204199Y-62075782D01*
X201228977Y-62037892D01*
X201231500Y-62014100D01*
X201239650Y-61982113D01*
X201266740Y-61982105D01*
X201316732Y-62014282D01*
X201322658Y-62018896D01*
X201421683Y-62076431D01*
X201538213Y-62112761D01*
X201658910Y-62126013D01*
X201770442Y-62114310D01*
X201834750Y-62090880D01*
X201940448Y-62017661D01*
X202018171Y-61919016D01*
X202043593Y-61870166D01*
X202057971Y-61836015D01*
X202069069Y-61799059D01*
X202077432Y-61753159D01*
X202083603Y-61692171D01*
X202088126Y-61609954D01*
X202091545Y-61500367D01*
X202094404Y-61357267D01*
X202095614Y-61282791D01*
X202103294Y-60790666D01*
X201760666Y-60790666D01*
X201760666Y-61257724D01*
G37*
X201760666Y-61257724D02*
X201760144Y-61421754D01*
X201758054Y-61548993D01*
X201753613Y-61644978D01*
X201746039Y-61715243D01*
X201734546Y-61765324D01*
X201718353Y-61800758D01*
X201696676Y-61827079D01*
X201677834Y-61843035D01*
X201617604Y-61866331D01*
X201535554Y-61868547D01*
X201445851Y-61850895D01*
X201365651Y-61816357D01*
X201273833Y-61762548D01*
X201273833Y-60790666D01*
X200935166Y-60790666D01*
X200935166Y-62103000D01*
X201057933Y-62103000D01*
X201148863Y-62096625D01*
X201204199Y-62075782D01*
X201228977Y-62037892D01*
X201231500Y-62014100D01*
X201239650Y-61982113D01*
X201266740Y-61982105D01*
X201316732Y-62014282D01*
X201322658Y-62018896D01*
X201421683Y-62076431D01*
X201538213Y-62112761D01*
X201658910Y-62126013D01*
X201770442Y-62114310D01*
X201834750Y-62090880D01*
X201940448Y-62017661D01*
X202018171Y-61919016D01*
X202043593Y-61870166D01*
X202057971Y-61836015D01*
X202069069Y-61799059D01*
X202077432Y-61753159D01*
X202083603Y-61692171D01*
X202088126Y-61609954D01*
X202091545Y-61500367D01*
X202094404Y-61357267D01*
X202095614Y-61282791D01*
X202103294Y-60790666D01*
X201760666Y-60790666D01*
X201760666Y-61257724D01*
G36*
X193098296Y-60784477D02*
G01*
X193024292Y-60803587D01*
X192956043Y-60836723D01*
X192940400Y-60846152D01*
X192828141Y-60939494D01*
X192745703Y-61059376D01*
X192696038Y-61199626D01*
X192682094Y-61354073D01*
X192683637Y-61383333D01*
X192690750Y-61478583D01*
X193553268Y-61490059D01*
X193539110Y-61578594D01*
X193502204Y-61694540D01*
X193436279Y-61783652D01*
X193346840Y-61843596D01*
X193239392Y-61872035D01*
X193119441Y-61866634D01*
X192992493Y-61825059D01*
X192976500Y-61817250D01*
X192901816Y-61781928D01*
X192851182Y-61768509D01*
X192812045Y-61777631D01*
X192771850Y-61809935D01*
X192753512Y-61828603D01*
X192716021Y-61877056D01*
X192710150Y-61918109D01*
X192738231Y-61959765D01*
X192802594Y-62010030D01*
X192807282Y-62013237D01*
X192916504Y-62067830D01*
X193050224Y-62105014D01*
X193193582Y-62122886D01*
X193331717Y-62119541D01*
X193444658Y-62094944D01*
X193591550Y-62023627D01*
X193706503Y-61925659D01*
X193790009Y-61800246D01*
X193842563Y-61646593D01*
X193864658Y-61463904D01*
X193865483Y-61416533D01*
X193862789Y-61318371D01*
X193859997Y-61298666D01*
X193550853Y-61298666D01*
X192976500Y-61298666D01*
X192976500Y-61243724D01*
X192995824Y-61156196D01*
X193048108Y-61083566D01*
X193124818Y-61032340D01*
X193217421Y-61009025D01*
X193280824Y-61011712D01*
X193381184Y-61040267D01*
X193454808Y-61093197D01*
X193508579Y-61176953D01*
X193536161Y-61251041D01*
X193550853Y-61298666D01*
X193859997Y-61298666D01*
X193852231Y-61243873D01*
X193830060Y-61174570D01*
X193804804Y-61117522D01*
X193719035Y-60979237D01*
X193609422Y-60875837D01*
X193476677Y-60807724D01*
X193321513Y-60775299D01*
X193196258Y-60774280D01*
X193098296Y-60784477D01*
G37*
X193098296Y-60784477D02*
X193024292Y-60803587D01*
X192956043Y-60836723D01*
X192940400Y-60846152D01*
X192828141Y-60939494D01*
X192745703Y-61059376D01*
X192696038Y-61199626D01*
X192682094Y-61354073D01*
X192683637Y-61383333D01*
X192690750Y-61478583D01*
X193553268Y-61490059D01*
X193539110Y-61578594D01*
X193502204Y-61694540D01*
X193436279Y-61783652D01*
X193346840Y-61843596D01*
X193239392Y-61872035D01*
X193119441Y-61866634D01*
X192992493Y-61825059D01*
X192976500Y-61817250D01*
X192901816Y-61781928D01*
X192851182Y-61768509D01*
X192812045Y-61777631D01*
X192771850Y-61809935D01*
X192753512Y-61828603D01*
X192716021Y-61877056D01*
X192710150Y-61918109D01*
X192738231Y-61959765D01*
X192802594Y-62010030D01*
X192807282Y-62013237D01*
X192916504Y-62067830D01*
X193050224Y-62105014D01*
X193193582Y-62122886D01*
X193331717Y-62119541D01*
X193444658Y-62094944D01*
X193591550Y-62023627D01*
X193706503Y-61925659D01*
X193790009Y-61800246D01*
X193842563Y-61646593D01*
X193864658Y-61463904D01*
X193865483Y-61416533D01*
X193862789Y-61318371D01*
X193859997Y-61298666D01*
X193550853Y-61298666D01*
X192976500Y-61298666D01*
X192976500Y-61243724D01*
X192995824Y-61156196D01*
X193048108Y-61083566D01*
X193124818Y-61032340D01*
X193217421Y-61009025D01*
X193280824Y-61011712D01*
X193381184Y-61040267D01*
X193454808Y-61093197D01*
X193508579Y-61176953D01*
X193536161Y-61251041D01*
X193550853Y-61298666D01*
X193859997Y-61298666D01*
X193852231Y-61243873D01*
X193830060Y-61174570D01*
X193804804Y-61117522D01*
X193719035Y-60979237D01*
X193609422Y-60875837D01*
X193476677Y-60807724D01*
X193321513Y-60775299D01*
X193196258Y-60774280D01*
X193098296Y-60784477D01*
G36*
X191727002Y-60785900D02*
G01*
X191587742Y-60833706D01*
X191493721Y-60894440D01*
X191421984Y-60954329D01*
X191480652Y-61031248D01*
X191525787Y-61082744D01*
X191567032Y-61103733D01*
X191617586Y-61096446D01*
X191685333Y-61065833D01*
X191768349Y-61036579D01*
X191858425Y-61023593D01*
X191865458Y-61023500D01*
X191978453Y-61038371D01*
X192065508Y-61083896D01*
X192127645Y-61161444D01*
X192165884Y-61272382D01*
X192181249Y-61418078D01*
X192181661Y-61446833D01*
X192179900Y-61543989D01*
X192172238Y-61612698D01*
X192156157Y-61666709D01*
X192132857Y-61713323D01*
X192066213Y-61800645D01*
X191983306Y-61851403D01*
X191876630Y-61869905D01*
X191859646Y-61870166D01*
X191765642Y-61859623D01*
X191686231Y-61823496D01*
X191676764Y-61817250D01*
X191604735Y-61776583D01*
X191549785Y-61769202D01*
X191501666Y-61796060D01*
X191465705Y-61836860D01*
X191410385Y-61909388D01*
X191499310Y-61985504D01*
X191573299Y-62037133D01*
X191658068Y-62080087D01*
X191693542Y-62092893D01*
X191797676Y-62113348D01*
X191917119Y-62120968D01*
X192033222Y-62115552D01*
X192125281Y-62097565D01*
X192205807Y-62056454D01*
X192292265Y-61987584D01*
X192373152Y-61901771D01*
X192436969Y-61809832D01*
X192443043Y-61798694D01*
X192468127Y-61747734D01*
X192484601Y-61701212D01*
X192494249Y-61648150D01*
X192498857Y-61577568D01*
X192500211Y-61478487D01*
X192500250Y-61446833D01*
X192499451Y-61338608D01*
X192495863Y-61261719D01*
X192487695Y-61205179D01*
X192473158Y-61158000D01*
X192450463Y-61109198D01*
X192442888Y-61094665D01*
X192351103Y-60962568D01*
X192233711Y-60863599D01*
X192093179Y-60799197D01*
X191931972Y-60770805D01*
X191886416Y-60769500D01*
X191727002Y-60785900D01*
G37*
X191727002Y-60785900D02*
X191587742Y-60833706D01*
X191493721Y-60894440D01*
X191421984Y-60954329D01*
X191480652Y-61031248D01*
X191525787Y-61082744D01*
X191567032Y-61103733D01*
X191617586Y-61096446D01*
X191685333Y-61065833D01*
X191768349Y-61036579D01*
X191858425Y-61023593D01*
X191865458Y-61023500D01*
X191978453Y-61038371D01*
X192065508Y-61083896D01*
X192127645Y-61161444D01*
X192165884Y-61272382D01*
X192181249Y-61418078D01*
X192181661Y-61446833D01*
X192179900Y-61543989D01*
X192172238Y-61612698D01*
X192156157Y-61666709D01*
X192132857Y-61713323D01*
X192066213Y-61800645D01*
X191983306Y-61851403D01*
X191876630Y-61869905D01*
X191859646Y-61870166D01*
X191765642Y-61859623D01*
X191686231Y-61823496D01*
X191676764Y-61817250D01*
X191604735Y-61776583D01*
X191549785Y-61769202D01*
X191501666Y-61796060D01*
X191465705Y-61836860D01*
X191410385Y-61909388D01*
X191499310Y-61985504D01*
X191573299Y-62037133D01*
X191658068Y-62080087D01*
X191693542Y-62092893D01*
X191797676Y-62113348D01*
X191917119Y-62120968D01*
X192033222Y-62115552D01*
X192125281Y-62097565D01*
X192205807Y-62056454D01*
X192292265Y-61987584D01*
X192373152Y-61901771D01*
X192436969Y-61809832D01*
X192443043Y-61798694D01*
X192468127Y-61747734D01*
X192484601Y-61701212D01*
X192494249Y-61648150D01*
X192498857Y-61577568D01*
X192500211Y-61478487D01*
X192500250Y-61446833D01*
X192499451Y-61338608D01*
X192495863Y-61261719D01*
X192487695Y-61205179D01*
X192473158Y-61158000D01*
X192450463Y-61109198D01*
X192442888Y-61094665D01*
X192351103Y-60962568D01*
X192233711Y-60863599D01*
X192093179Y-60799197D01*
X191931972Y-60770805D01*
X191886416Y-60769500D01*
X191727002Y-60785900D01*
G36*
X190817500Y-60790666D02*
G01*
X190478833Y-60790666D01*
X190478833Y-61023500D01*
X190817500Y-61023500D01*
X190817500Y-61423074D01*
X190816959Y-61567508D01*
X190815062Y-61675168D01*
X190811398Y-61751603D01*
X190805555Y-61802362D01*
X190797122Y-61832994D01*
X190785944Y-61848839D01*
X190738191Y-61864869D01*
X190669074Y-61860356D01*
X190601906Y-61839669D01*
X190572556Y-61839849D01*
X190539800Y-61869951D01*
X190511948Y-61910338D01*
X190479964Y-61964672D01*
X190460462Y-62004876D01*
X190457666Y-62015306D01*
X190475476Y-62033535D01*
X190521256Y-62060120D01*
X190562132Y-62079226D01*
X190669204Y-62111868D01*
X190782512Y-62124255D01*
X190888014Y-62116199D01*
X190971669Y-62087512D01*
X190976250Y-62084784D01*
X191031285Y-62046625D01*
X191073962Y-62004580D01*
X191105807Y-61952919D01*
X191128347Y-61885913D01*
X191143108Y-61797830D01*
X191151615Y-61682941D01*
X191155397Y-61535517D01*
X191156048Y-61409791D01*
X191156166Y-61023500D01*
X191238569Y-61023500D01*
X191297690Y-61017153D01*
X191330758Y-60992316D01*
X191344654Y-60940290D01*
X191346666Y-60886912D01*
X191344149Y-60845241D01*
X191329340Y-60822732D01*
X191291353Y-60810686D01*
X191242221Y-60803431D01*
X191137775Y-60789576D01*
X191113603Y-60668413D01*
X191096101Y-60584788D01*
X191077944Y-60504264D01*
X191069066Y-60467875D01*
X191048701Y-60388500D01*
X190817500Y-60388500D01*
X190817500Y-60790666D01*
G37*
X190817500Y-60790666D02*
X190478833Y-60790666D01*
X190478833Y-61023500D01*
X190817500Y-61023500D01*
X190817500Y-61423074D01*
X190816959Y-61567508D01*
X190815062Y-61675168D01*
X190811398Y-61751603D01*
X190805555Y-61802362D01*
X190797122Y-61832994D01*
X190785944Y-61848839D01*
X190738191Y-61864869D01*
X190669074Y-61860356D01*
X190601906Y-61839669D01*
X190572556Y-61839849D01*
X190539800Y-61869951D01*
X190511948Y-61910338D01*
X190479964Y-61964672D01*
X190460462Y-62004876D01*
X190457666Y-62015306D01*
X190475476Y-62033535D01*
X190521256Y-62060120D01*
X190562132Y-62079226D01*
X190669204Y-62111868D01*
X190782512Y-62124255D01*
X190888014Y-62116199D01*
X190971669Y-62087512D01*
X190976250Y-62084784D01*
X191031285Y-62046625D01*
X191073962Y-62004580D01*
X191105807Y-61952919D01*
X191128347Y-61885913D01*
X191143108Y-61797830D01*
X191151615Y-61682941D01*
X191155397Y-61535517D01*
X191156048Y-61409791D01*
X191156166Y-61023500D01*
X191238569Y-61023500D01*
X191297690Y-61017153D01*
X191330758Y-60992316D01*
X191344654Y-60940290D01*
X191346666Y-60886912D01*
X191344149Y-60845241D01*
X191329340Y-60822732D01*
X191291353Y-60810686D01*
X191242221Y-60803431D01*
X191137775Y-60789576D01*
X191113603Y-60668413D01*
X191096101Y-60584788D01*
X191077944Y-60504264D01*
X191069066Y-60467875D01*
X191048701Y-60388500D01*
X190817500Y-60388500D01*
X190817500Y-60790666D01*
G36*
X188537877Y-60777196D02*
G01*
X188402274Y-60809542D01*
X188282944Y-60873778D01*
X188212050Y-60932121D01*
X188112784Y-61053107D01*
X188044974Y-61197565D01*
X188010532Y-61358646D01*
X188011370Y-61529504D01*
X188023617Y-61607029D01*
X188052406Y-61719773D01*
X188091038Y-61808453D01*
X188148839Y-61891337D01*
X188196604Y-61945888D01*
X188302980Y-62031611D01*
X188434639Y-62090709D01*
X188582546Y-62121344D01*
X188737669Y-62121681D01*
X188890973Y-62089883D01*
X188896294Y-62088132D01*
X189026015Y-62023520D01*
X189134284Y-61926454D01*
X189218178Y-61802548D01*
X189274771Y-61657412D01*
X189301138Y-61496659D01*
X189299160Y-61446833D01*
X188976000Y-61446833D01*
X188967922Y-61539018D01*
X188946677Y-61636442D01*
X188916742Y-61722576D01*
X188886840Y-61775821D01*
X188838215Y-61824905D01*
X188779770Y-61853619D01*
X188699096Y-61866646D01*
X188640508Y-61868824D01*
X188569210Y-61866417D01*
X188521118Y-61852375D01*
X188477353Y-61819639D01*
X188457482Y-61800381D01*
X188392776Y-61711985D01*
X188354704Y-61600168D01*
X188341301Y-61458956D01*
X188341236Y-61446833D01*
X188352585Y-61304450D01*
X188388157Y-61191414D01*
X188450239Y-61100867D01*
X188459927Y-61090839D01*
X188500911Y-61052247D01*
X188535720Y-61031469D01*
X188579003Y-61024135D01*
X188645411Y-61025877D01*
X188672203Y-61027527D01*
X188751497Y-61034755D01*
X188802822Y-61047538D01*
X188840542Y-61071257D01*
X188870744Y-61101912D01*
X188915827Y-61174405D01*
X188951265Y-61273318D01*
X188972289Y-61383018D01*
X188976000Y-61446833D01*
X189299160Y-61446833D01*
X189294356Y-61325899D01*
X189294186Y-61324684D01*
X189252382Y-61157540D01*
X189179185Y-61018303D01*
X189076352Y-60908598D01*
X188945642Y-60830048D01*
X188788811Y-60784277D01*
X188698153Y-60774008D01*
X188537877Y-60777196D01*
G37*
X188537877Y-60777196D02*
X188402274Y-60809542D01*
X188282944Y-60873778D01*
X188212050Y-60932121D01*
X188112784Y-61053107D01*
X188044974Y-61197565D01*
X188010532Y-61358646D01*
X188011370Y-61529504D01*
X188023617Y-61607029D01*
X188052406Y-61719773D01*
X188091038Y-61808453D01*
X188148839Y-61891337D01*
X188196604Y-61945888D01*
X188302980Y-62031611D01*
X188434639Y-62090709D01*
X188582546Y-62121344D01*
X188737669Y-62121681D01*
X188890973Y-62089883D01*
X188896294Y-62088132D01*
X189026015Y-62023520D01*
X189134284Y-61926454D01*
X189218178Y-61802548D01*
X189274771Y-61657412D01*
X189301138Y-61496659D01*
X189299160Y-61446833D01*
X188976000Y-61446833D01*
X188967922Y-61539018D01*
X188946677Y-61636442D01*
X188916742Y-61722576D01*
X188886840Y-61775821D01*
X188838215Y-61824905D01*
X188779770Y-61853619D01*
X188699096Y-61866646D01*
X188640508Y-61868824D01*
X188569210Y-61866417D01*
X188521118Y-61852375D01*
X188477353Y-61819639D01*
X188457482Y-61800381D01*
X188392776Y-61711985D01*
X188354704Y-61600168D01*
X188341301Y-61458956D01*
X188341236Y-61446833D01*
X188352585Y-61304450D01*
X188388157Y-61191414D01*
X188450239Y-61100867D01*
X188459927Y-61090839D01*
X188500911Y-61052247D01*
X188535720Y-61031469D01*
X188579003Y-61024135D01*
X188645411Y-61025877D01*
X188672203Y-61027527D01*
X188751497Y-61034755D01*
X188802822Y-61047538D01*
X188840542Y-61071257D01*
X188870744Y-61101912D01*
X188915827Y-61174405D01*
X188951265Y-61273318D01*
X188972289Y-61383018D01*
X188976000Y-61446833D01*
X189299160Y-61446833D01*
X189294356Y-61325899D01*
X189294186Y-61324684D01*
X189252382Y-61157540D01*
X189179185Y-61018303D01*
X189076352Y-60908598D01*
X188945642Y-60830048D01*
X188788811Y-60784277D01*
X188698153Y-60774008D01*
X188537877Y-60777196D01*
G36*
X184932502Y-60785900D02*
G01*
X184793242Y-60833706D01*
X184699221Y-60894440D01*
X184627484Y-60954329D01*
X184686152Y-61031248D01*
X184731287Y-61082744D01*
X184772532Y-61103733D01*
X184823086Y-61096446D01*
X184890833Y-61065833D01*
X184973849Y-61036579D01*
X185063925Y-61023593D01*
X185070958Y-61023500D01*
X185183953Y-61038371D01*
X185271008Y-61083896D01*
X185333145Y-61161444D01*
X185371384Y-61272382D01*
X185386749Y-61418078D01*
X185387161Y-61446833D01*
X185385400Y-61543989D01*
X185377738Y-61612698D01*
X185361657Y-61666709D01*
X185338357Y-61713323D01*
X185271713Y-61800645D01*
X185188806Y-61851403D01*
X185082130Y-61869905D01*
X185065146Y-61870166D01*
X184971142Y-61859623D01*
X184891731Y-61823496D01*
X184882264Y-61817250D01*
X184810235Y-61776583D01*
X184755285Y-61769202D01*
X184707166Y-61796060D01*
X184671205Y-61836860D01*
X184615885Y-61909388D01*
X184704810Y-61985504D01*
X184778799Y-62037133D01*
X184863568Y-62080087D01*
X184899042Y-62092893D01*
X185003176Y-62113348D01*
X185122619Y-62120968D01*
X185238722Y-62115552D01*
X185330781Y-62097565D01*
X185411307Y-62056454D01*
X185497765Y-61987584D01*
X185578652Y-61901771D01*
X185642469Y-61809832D01*
X185648543Y-61798694D01*
X185673627Y-61747734D01*
X185690101Y-61701212D01*
X185699749Y-61648150D01*
X185704357Y-61577568D01*
X185705711Y-61478487D01*
X185705750Y-61446833D01*
X185704951Y-61338608D01*
X185701363Y-61261719D01*
X185693195Y-61205179D01*
X185678658Y-61158000D01*
X185655963Y-61109198D01*
X185648388Y-61094665D01*
X185556603Y-60962568D01*
X185439211Y-60863599D01*
X185298679Y-60799197D01*
X185137472Y-60770805D01*
X185091916Y-60769500D01*
X184932502Y-60785900D01*
G37*
X184932502Y-60785900D02*
X184793242Y-60833706D01*
X184699221Y-60894440D01*
X184627484Y-60954329D01*
X184686152Y-61031248D01*
X184731287Y-61082744D01*
X184772532Y-61103733D01*
X184823086Y-61096446D01*
X184890833Y-61065833D01*
X184973849Y-61036579D01*
X185063925Y-61023593D01*
X185070958Y-61023500D01*
X185183953Y-61038371D01*
X185271008Y-61083896D01*
X185333145Y-61161444D01*
X185371384Y-61272382D01*
X185386749Y-61418078D01*
X185387161Y-61446833D01*
X185385400Y-61543989D01*
X185377738Y-61612698D01*
X185361657Y-61666709D01*
X185338357Y-61713323D01*
X185271713Y-61800645D01*
X185188806Y-61851403D01*
X185082130Y-61869905D01*
X185065146Y-61870166D01*
X184971142Y-61859623D01*
X184891731Y-61823496D01*
X184882264Y-61817250D01*
X184810235Y-61776583D01*
X184755285Y-61769202D01*
X184707166Y-61796060D01*
X184671205Y-61836860D01*
X184615885Y-61909388D01*
X184704810Y-61985504D01*
X184778799Y-62037133D01*
X184863568Y-62080087D01*
X184899042Y-62092893D01*
X185003176Y-62113348D01*
X185122619Y-62120968D01*
X185238722Y-62115552D01*
X185330781Y-62097565D01*
X185411307Y-62056454D01*
X185497765Y-61987584D01*
X185578652Y-61901771D01*
X185642469Y-61809832D01*
X185648543Y-61798694D01*
X185673627Y-61747734D01*
X185690101Y-61701212D01*
X185699749Y-61648150D01*
X185704357Y-61577568D01*
X185705711Y-61478487D01*
X185705750Y-61446833D01*
X185704951Y-61338608D01*
X185701363Y-61261719D01*
X185693195Y-61205179D01*
X185678658Y-61158000D01*
X185655963Y-61109198D01*
X185648388Y-61094665D01*
X185556603Y-60962568D01*
X185439211Y-60863599D01*
X185298679Y-60799197D01*
X185137472Y-60770805D01*
X185091916Y-60769500D01*
X184932502Y-60785900D01*
G36*
X183896655Y-60767253D02*
G01*
X183809253Y-60789809D01*
X183742830Y-60818759D01*
X183659247Y-60862194D01*
X183610577Y-60896976D01*
X183592461Y-60930259D01*
X183600538Y-60969194D01*
X183624872Y-61012280D01*
X183654575Y-61053323D01*
X183685184Y-61075242D01*
X183726231Y-61078828D01*
X183787249Y-61064872D01*
X183877769Y-61034164D01*
X183879828Y-61033427D01*
X183983026Y-61009547D01*
X184072010Y-61013879D01*
X184140521Y-61044055D01*
X184182302Y-61097712D01*
X184192333Y-61151581D01*
X184184118Y-61190514D01*
X184155932Y-61225209D01*
X184102467Y-61259004D01*
X184018415Y-61295235D01*
X183898468Y-61337239D01*
X183895285Y-61338286D01*
X183759130Y-61396301D01*
X183657965Y-61468521D01*
X183594382Y-61552847D01*
X183578554Y-61594798D01*
X183565438Y-61718807D01*
X183590643Y-61836864D01*
X183650164Y-61942504D01*
X183739991Y-62029265D01*
X183856118Y-62090686D01*
X183893510Y-62102660D01*
X184005101Y-62120333D01*
X184134504Y-62120624D01*
X184261305Y-62104343D01*
X184332624Y-62085269D01*
X184406394Y-62056527D01*
X184472174Y-62025537D01*
X184496666Y-62011389D01*
X184552166Y-61975024D01*
X184502277Y-61896137D01*
X184463570Y-61845888D01*
X184426182Y-61814246D01*
X184415524Y-61810004D01*
X184377978Y-61814551D01*
X184316440Y-61833573D01*
X184251252Y-61859935D01*
X184140265Y-61896960D01*
X184041749Y-61905559D01*
X183961266Y-61887344D01*
X183904376Y-61843923D01*
X183876642Y-61776907D01*
X183874833Y-61750957D01*
X183880471Y-61705920D01*
X183901600Y-61669585D01*
X183944544Y-61637259D01*
X184015626Y-61604249D01*
X184121168Y-61565860D01*
X184126784Y-61563947D01*
X184251790Y-61516848D01*
X184342613Y-61470465D01*
X184406983Y-61419547D01*
X184452628Y-61358846D01*
X184465998Y-61333518D01*
X184503728Y-61217012D01*
X184500474Y-61103037D01*
X184470047Y-61012040D01*
X184399036Y-60903135D01*
X184298897Y-60824945D01*
X184169642Y-60777476D01*
X184011281Y-60760735D01*
X183999934Y-60760710D01*
X183896655Y-60767253D01*
G37*
X183896655Y-60767253D02*
X183809253Y-60789809D01*
X183742830Y-60818759D01*
X183659247Y-60862194D01*
X183610577Y-60896976D01*
X183592461Y-60930259D01*
X183600538Y-60969194D01*
X183624872Y-61012280D01*
X183654575Y-61053323D01*
X183685184Y-61075242D01*
X183726231Y-61078828D01*
X183787249Y-61064872D01*
X183877769Y-61034164D01*
X183879828Y-61033427D01*
X183983026Y-61009547D01*
X184072010Y-61013879D01*
X184140521Y-61044055D01*
X184182302Y-61097712D01*
X184192333Y-61151581D01*
X184184118Y-61190514D01*
X184155932Y-61225209D01*
X184102467Y-61259004D01*
X184018415Y-61295235D01*
X183898468Y-61337239D01*
X183895285Y-61338286D01*
X183759130Y-61396301D01*
X183657965Y-61468521D01*
X183594382Y-61552847D01*
X183578554Y-61594798D01*
X183565438Y-61718807D01*
X183590643Y-61836864D01*
X183650164Y-61942504D01*
X183739991Y-62029265D01*
X183856118Y-62090686D01*
X183893510Y-62102660D01*
X184005101Y-62120333D01*
X184134504Y-62120624D01*
X184261305Y-62104343D01*
X184332624Y-62085269D01*
X184406394Y-62056527D01*
X184472174Y-62025537D01*
X184496666Y-62011389D01*
X184552166Y-61975024D01*
X184502277Y-61896137D01*
X184463570Y-61845888D01*
X184426182Y-61814246D01*
X184415524Y-61810004D01*
X184377978Y-61814551D01*
X184316440Y-61833573D01*
X184251252Y-61859935D01*
X184140265Y-61896960D01*
X184041749Y-61905559D01*
X183961266Y-61887344D01*
X183904376Y-61843923D01*
X183876642Y-61776907D01*
X183874833Y-61750957D01*
X183880471Y-61705920D01*
X183901600Y-61669585D01*
X183944544Y-61637259D01*
X184015626Y-61604249D01*
X184121168Y-61565860D01*
X184126784Y-61563947D01*
X184251790Y-61516848D01*
X184342613Y-61470465D01*
X184406983Y-61419547D01*
X184452628Y-61358846D01*
X184465998Y-61333518D01*
X184503728Y-61217012D01*
X184500474Y-61103037D01*
X184470047Y-61012040D01*
X184399036Y-60903135D01*
X184298897Y-60824945D01*
X184169642Y-60777476D01*
X184011281Y-60760735D01*
X183999934Y-60760710D01*
X183896655Y-60767253D01*
G36*
X203086926Y-60241010D02*
G01*
X202974119Y-60243469D01*
X202887485Y-60248353D01*
X202818951Y-60256305D01*
X202760447Y-60267967D01*
X202710104Y-60282039D01*
X202562585Y-60346051D01*
X202448530Y-60435913D01*
X202368408Y-60550992D01*
X202322692Y-60690652D01*
X202311207Y-60819960D01*
X202318559Y-60955680D01*
X202343933Y-61064072D01*
X202391650Y-61157863D01*
X202451956Y-61234447D01*
X202532021Y-61312124D01*
X202617261Y-61368443D01*
X202716498Y-61406670D01*
X202838550Y-61430069D01*
X202992240Y-61441904D01*
X203014791Y-61442756D01*
X203263500Y-61451292D01*
X203263500Y-62103000D01*
X203623333Y-62103000D01*
X203623333Y-61176716D01*
X203263500Y-61176716D01*
X203066794Y-61168112D01*
X202954817Y-61160342D01*
X202874559Y-61147192D01*
X202815541Y-61126674D01*
X202797206Y-61116944D01*
X202725277Y-61052244D01*
X202677754Y-60963448D01*
X202656123Y-60861970D01*
X202661869Y-60759227D01*
X202696478Y-60666634D01*
X202732522Y-60619887D01*
X202804403Y-60567656D01*
X202899821Y-60534264D01*
X203025152Y-60517950D01*
X203110041Y-60515618D01*
X203263500Y-60515500D01*
X203263500Y-61176716D01*
X203623333Y-61176716D01*
X203623333Y-60240333D01*
X203233979Y-60240333D01*
X203086926Y-60241010D01*
G37*
X203086926Y-60241010D02*
X202974119Y-60243469D01*
X202887485Y-60248353D01*
X202818951Y-60256305D01*
X202760447Y-60267967D01*
X202710104Y-60282039D01*
X202562585Y-60346051D01*
X202448530Y-60435913D01*
X202368408Y-60550992D01*
X202322692Y-60690652D01*
X202311207Y-60819960D01*
X202318559Y-60955680D01*
X202343933Y-61064072D01*
X202391650Y-61157863D01*
X202451956Y-61234447D01*
X202532021Y-61312124D01*
X202617261Y-61368443D01*
X202716498Y-61406670D01*
X202838550Y-61430069D01*
X202992240Y-61441904D01*
X203014791Y-61442756D01*
X203263500Y-61451292D01*
X203263500Y-62103000D01*
X203623333Y-62103000D01*
X203623333Y-61176716D01*
X203263500Y-61176716D01*
X203066794Y-61168112D01*
X202954817Y-61160342D01*
X202874559Y-61147192D01*
X202815541Y-61126674D01*
X202797206Y-61116944D01*
X202725277Y-61052244D01*
X202677754Y-60963448D01*
X202656123Y-60861970D01*
X202661869Y-60759227D01*
X202696478Y-60666634D01*
X202732522Y-60619887D01*
X202804403Y-60567656D01*
X202899821Y-60534264D01*
X203025152Y-60517950D01*
X203110041Y-60515618D01*
X203263500Y-60515500D01*
X203263500Y-61176716D01*
X203623333Y-61176716D01*
X203623333Y-60240333D01*
X203233979Y-60240333D01*
X203086926Y-60241010D01*
G36*
X194754500Y-60536666D02*
G01*
X195580000Y-60536666D01*
X195580000Y-61044666D01*
X194923833Y-61044666D01*
X194923833Y-61319833D01*
X195580000Y-61319833D01*
X195580000Y-61827833D01*
X194754500Y-61827833D01*
X194754500Y-62103000D01*
X195918666Y-62103000D01*
X195918666Y-60261500D01*
X194754500Y-60261500D01*
X194754500Y-60536666D01*
G37*
X194754500Y-60536666D02*
X195580000Y-60536666D01*
X195580000Y-61044666D01*
X194923833Y-61044666D01*
X194923833Y-61319833D01*
X195580000Y-61319833D01*
X195580000Y-61827833D01*
X194754500Y-61827833D01*
X194754500Y-62103000D01*
X195918666Y-62103000D01*
X195918666Y-60261500D01*
X194754500Y-60261500D01*
X194754500Y-60536666D01*
G36*
X194140666Y-62103000D02*
G01*
X194458166Y-62103000D01*
X194458166Y-60198000D01*
X194140666Y-60198000D01*
X194140666Y-62103000D01*
G37*
X194140666Y-62103000D02*
X194458166Y-62103000D01*
X194458166Y-60198000D01*
X194140666Y-60198000D01*
X194140666Y-62103000D01*
G36*
X189466062Y-60783380D02*
G01*
X189438050Y-60794008D01*
X189425216Y-60813914D01*
X189424468Y-60854551D01*
X189430958Y-60913409D01*
X189442832Y-61000077D01*
X189455877Y-61052225D01*
X189476120Y-61077387D01*
X189509589Y-61083097D01*
X189561814Y-61076963D01*
X189681493Y-61077222D01*
X189785057Y-61116572D01*
X189863942Y-61184278D01*
X189928500Y-61257806D01*
X189928500Y-62103000D01*
X190246000Y-62103000D01*
X190246000Y-60788646D01*
X189981670Y-60801250D01*
X189963754Y-60899734D01*
X189945839Y-60998218D01*
X189868378Y-60912373D01*
X189765219Y-60824210D01*
X189652128Y-60777058D01*
X189529680Y-60771102D01*
X189466062Y-60783380D01*
G37*
X189466062Y-60783380D02*
X189438050Y-60794008D01*
X189425216Y-60813914D01*
X189424468Y-60854551D01*
X189430958Y-60913409D01*
X189442832Y-61000077D01*
X189455877Y-61052225D01*
X189476120Y-61077387D01*
X189509589Y-61083097D01*
X189561814Y-61076963D01*
X189681493Y-61077222D01*
X189785057Y-61116572D01*
X189863942Y-61184278D01*
X189928500Y-61257806D01*
X189928500Y-62103000D01*
X190246000Y-62103000D01*
X190246000Y-60788646D01*
X189981670Y-60801250D01*
X189963754Y-60899734D01*
X189945839Y-60998218D01*
X189868378Y-60912373D01*
X189765219Y-60824210D01*
X189652128Y-60777058D01*
X189529680Y-60771102D01*
X189466062Y-60783380D01*
G36*
X186897196Y-60800816D02*
G01*
X186797202Y-60861499D01*
X186715361Y-60958821D01*
X186695809Y-60991750D01*
X186637083Y-61097583D01*
X186630113Y-61600291D01*
X186623142Y-62103000D01*
X186965166Y-62103000D01*
X186965166Y-61127409D01*
X187017121Y-61075454D01*
X187088497Y-61032048D01*
X187177252Y-61019672D01*
X187273126Y-61037290D01*
X187365857Y-61083869D01*
X187404375Y-61114501D01*
X187419803Y-61129860D01*
X187431479Y-61147870D01*
X187439925Y-61174191D01*
X187445665Y-61214485D01*
X187449219Y-61274410D01*
X187451112Y-61359627D01*
X187451864Y-61475796D01*
X187452000Y-61628578D01*
X187452000Y-62103000D01*
X187769500Y-62103000D01*
X187769500Y-60788554D01*
X187647891Y-60794902D01*
X187577771Y-60800444D01*
X187536816Y-60811950D01*
X187511863Y-60835692D01*
X187494433Y-60868003D01*
X187462583Y-60934756D01*
X187391990Y-60875541D01*
X187283395Y-60810920D01*
X187151801Y-60776620D01*
X187019805Y-60773769D01*
X186897196Y-60800816D01*
G37*
X186897196Y-60800816D02*
X186797202Y-60861499D01*
X186715361Y-60958821D01*
X186695809Y-60991750D01*
X186637083Y-61097583D01*
X186630113Y-61600291D01*
X186623142Y-62103000D01*
X186965166Y-62103000D01*
X186965166Y-61127409D01*
X187017121Y-61075454D01*
X187088497Y-61032048D01*
X187177252Y-61019672D01*
X187273126Y-61037290D01*
X187365857Y-61083869D01*
X187404375Y-61114501D01*
X187419803Y-61129860D01*
X187431479Y-61147870D01*
X187439925Y-61174191D01*
X187445665Y-61214485D01*
X187449219Y-61274410D01*
X187451112Y-61359627D01*
X187451864Y-61475796D01*
X187452000Y-61628578D01*
X187452000Y-62103000D01*
X187769500Y-62103000D01*
X187769500Y-60788554D01*
X187647891Y-60794902D01*
X187577771Y-60800444D01*
X187536816Y-60811950D01*
X187511863Y-60835692D01*
X187494433Y-60868003D01*
X187462583Y-60934756D01*
X187391990Y-60875541D01*
X187283395Y-60810920D01*
X187151801Y-60776620D01*
X187019805Y-60773769D01*
X186897196Y-60800816D01*
G36*
X185991500Y-62103000D02*
G01*
X186309000Y-62103000D01*
X186309000Y-60790666D01*
X185991500Y-60790666D01*
X185991500Y-62103000D01*
G37*
X185991500Y-62103000D02*
X186309000Y-62103000D01*
X186309000Y-60790666D01*
X185991500Y-60790666D01*
X185991500Y-62103000D01*
G36*
X186066886Y-60217312D02*
G01*
X185999513Y-60268769D01*
X185957853Y-60342646D01*
X185949166Y-60399083D01*
X185968479Y-60482446D01*
X186019936Y-60549820D01*
X186093813Y-60591479D01*
X186150250Y-60600166D01*
X186220850Y-60587827D01*
X186282658Y-60544945D01*
X186289461Y-60538294D01*
X186336070Y-60476261D01*
X186351211Y-60407518D01*
X186351333Y-60399083D01*
X186332020Y-60315719D01*
X186280564Y-60248346D01*
X186206686Y-60206686D01*
X186150250Y-60198000D01*
X186066886Y-60217312D01*
G37*
X186066886Y-60217312D02*
X185999513Y-60268769D01*
X185957853Y-60342646D01*
X185949166Y-60399083D01*
X185968479Y-60482446D01*
X186019936Y-60549820D01*
X186093813Y-60591479D01*
X186150250Y-60600166D01*
X186220850Y-60587827D01*
X186282658Y-60544945D01*
X186289461Y-60538294D01*
X186336070Y-60476261D01*
X186351211Y-60407518D01*
X186351333Y-60399083D01*
X186332020Y-60315719D01*
X186280564Y-60248346D01*
X186206686Y-60206686D01*
X186150250Y-60198000D01*
X186066886Y-60217312D01*
G36*
X209464919Y-60986055D02*
G01*
X209433402Y-60999475D01*
X209321645Y-61072428D01*
X209231143Y-61176072D01*
X209162922Y-61303907D01*
X209118010Y-61449435D01*
X209097434Y-61606158D01*
X209102221Y-61767578D01*
X209133398Y-61927196D01*
X209191993Y-62078514D01*
X209247869Y-62173129D01*
X209329029Y-62261123D01*
X209427436Y-62322045D01*
X209533951Y-62353170D01*
X209639439Y-62351771D01*
X209731213Y-62317328D01*
X209817673Y-62247359D01*
X209899183Y-62151236D01*
X209963364Y-62044480D01*
X209980489Y-62004738D01*
X210001263Y-61931409D01*
X210019124Y-61835763D01*
X210030376Y-61737808D01*
X210030741Y-61732583D01*
X210032884Y-61639194D01*
X210028263Y-61543309D01*
X210018203Y-61454210D01*
X210004029Y-61381180D01*
X209987065Y-61333502D01*
X209971832Y-61319833D01*
X209952869Y-61336110D01*
X209952166Y-61341962D01*
X209933507Y-61385846D01*
X209886427Y-61427517D01*
X209824274Y-61457873D01*
X209767338Y-61468000D01*
X209674764Y-61451973D01*
X209608876Y-61403290D01*
X209572151Y-61333399D01*
X209562747Y-61245535D01*
X209591014Y-61167100D01*
X209652352Y-61105206D01*
X209742163Y-61066960D01*
X209744925Y-61066325D01*
X209814583Y-61050643D01*
X209719333Y-61005786D01*
X209626901Y-60970767D01*
X209547910Y-60964318D01*
X209464919Y-60986055D01*
G37*
X209464919Y-60986055D02*
X209433402Y-60999475D01*
X209321645Y-61072428D01*
X209231143Y-61176072D01*
X209162922Y-61303907D01*
X209118010Y-61449435D01*
X209097434Y-61606158D01*
X209102221Y-61767578D01*
X209133398Y-61927196D01*
X209191993Y-62078514D01*
X209247869Y-62173129D01*
X209329029Y-62261123D01*
X209427436Y-62322045D01*
X209533951Y-62353170D01*
X209639439Y-62351771D01*
X209731213Y-62317328D01*
X209817673Y-62247359D01*
X209899183Y-62151236D01*
X209963364Y-62044480D01*
X209980489Y-62004738D01*
X210001263Y-61931409D01*
X210019124Y-61835763D01*
X210030376Y-61737808D01*
X210030741Y-61732583D01*
X210032884Y-61639194D01*
X210028263Y-61543309D01*
X210018203Y-61454210D01*
X210004029Y-61381180D01*
X209987065Y-61333502D01*
X209971832Y-61319833D01*
X209952869Y-61336110D01*
X209952166Y-61341962D01*
X209933507Y-61385846D01*
X209886427Y-61427517D01*
X209824274Y-61457873D01*
X209767338Y-61468000D01*
X209674764Y-61451973D01*
X209608876Y-61403290D01*
X209572151Y-61333399D01*
X209562747Y-61245535D01*
X209591014Y-61167100D01*
X209652352Y-61105206D01*
X209742163Y-61066960D01*
X209744925Y-61066325D01*
X209814583Y-61050643D01*
X209719333Y-61005786D01*
X209626901Y-60970767D01*
X209547910Y-60964318D01*
X209464919Y-60986055D01*
G36*
X207052086Y-60985989D02*
G01*
X207020402Y-60999475D01*
X206909000Y-61072250D01*
X206818819Y-61175643D01*
X206750765Y-61303132D01*
X206705745Y-61448193D01*
X206684666Y-61604304D01*
X206688435Y-61764941D01*
X206717960Y-61923582D01*
X206774146Y-62073703D01*
X206853111Y-62202571D01*
X206938196Y-62283161D01*
X207042981Y-62335154D01*
X207156309Y-62355173D01*
X207267026Y-62339842D01*
X207285166Y-62333326D01*
X207375443Y-62277108D01*
X207459301Y-62186419D01*
X207531325Y-62069112D01*
X207586101Y-61933036D01*
X207602370Y-61873415D01*
X207615613Y-61782308D01*
X207619767Y-61671757D01*
X207615427Y-61556924D01*
X207603187Y-61452972D01*
X207583642Y-61375064D01*
X207582735Y-61372750D01*
X207564283Y-61331562D01*
X207551188Y-61326171D01*
X207534921Y-61351583D01*
X207479101Y-61419307D01*
X207405047Y-61458939D01*
X207324063Y-61468200D01*
X207247454Y-61444811D01*
X207210982Y-61416906D01*
X207157870Y-61340160D01*
X207143379Y-61260995D01*
X207164771Y-61186009D01*
X207219306Y-61121803D01*
X207304243Y-61074976D01*
X207359250Y-61059739D01*
X207376684Y-61051040D01*
X207362174Y-61035315D01*
X207312016Y-61008808D01*
X207306333Y-61006100D01*
X207214031Y-60970870D01*
X207135088Y-60964301D01*
X207052086Y-60985989D01*
G37*
X207052086Y-60985989D02*
X207020402Y-60999475D01*
X206909000Y-61072250D01*
X206818819Y-61175643D01*
X206750765Y-61303132D01*
X206705745Y-61448193D01*
X206684666Y-61604304D01*
X206688435Y-61764941D01*
X206717960Y-61923582D01*
X206774146Y-62073703D01*
X206853111Y-62202571D01*
X206938196Y-62283161D01*
X207042981Y-62335154D01*
X207156309Y-62355173D01*
X207267026Y-62339842D01*
X207285166Y-62333326D01*
X207375443Y-62277108D01*
X207459301Y-62186419D01*
X207531325Y-62069112D01*
X207586101Y-61933036D01*
X207602370Y-61873415D01*
X207615613Y-61782308D01*
X207619767Y-61671757D01*
X207615427Y-61556924D01*
X207603187Y-61452972D01*
X207583642Y-61375064D01*
X207582735Y-61372750D01*
X207564283Y-61331562D01*
X207551188Y-61326171D01*
X207534921Y-61351583D01*
X207479101Y-61419307D01*
X207405047Y-61458939D01*
X207324063Y-61468200D01*
X207247454Y-61444811D01*
X207210982Y-61416906D01*
X207157870Y-61340160D01*
X207143379Y-61260995D01*
X207164771Y-61186009D01*
X207219306Y-61121803D01*
X207304243Y-61074976D01*
X207359250Y-61059739D01*
X207376684Y-61051040D01*
X207362174Y-61035315D01*
X207312016Y-61008808D01*
X207306333Y-61006100D01*
X207214031Y-60970870D01*
X207135088Y-60964301D01*
X207052086Y-60985989D01*
D13*
%TO.C,R20*%
X174372000Y-101192359D02*
X174372000Y-101499641D01*
X175132000Y-101192359D02*
X175132000Y-101499641D01*
%TO.C,TP9*%
X155382000Y-72136000D02*
G75*
G03*
X155382000Y-72136000I-950000J0D01*
G01*
%TO.C,TP7*%
X140396000Y-72136000D02*
G75*
G03*
X140396000Y-72136000I-950000J0D01*
G01*
%TO.C,R19*%
X156310359Y-70230000D02*
X156617641Y-70230000D01*
X156310359Y-69470000D02*
X156617641Y-69470000D01*
%TO.C,R18*%
X137567641Y-69216000D02*
X137260359Y-69216000D01*
X137567641Y-69976000D02*
X137260359Y-69976000D01*
%TO.C,R17*%
X162967641Y-83694000D02*
X162660359Y-83694000D01*
X162967641Y-84454000D02*
X162660359Y-84454000D01*
%TO.C,R16*%
X162967641Y-84964000D02*
X162660359Y-84964000D01*
X162967641Y-85724000D02*
X162660359Y-85724000D01*
%TO.C,R15*%
X156617641Y-67946000D02*
X156310359Y-67946000D01*
X156617641Y-68706000D02*
X156310359Y-68706000D01*
%TO.C,R8*%
X137258359Y-68706000D02*
X137565641Y-68706000D01*
X137258359Y-67946000D02*
X137565641Y-67946000D01*
%TO.C,D5*%
X138974000Y-70088000D02*
X138974000Y-68088000D01*
X138974000Y-68088000D02*
X142874000Y-68088000D01*
X138974000Y-70088000D02*
X142874000Y-70088000D01*
%TO.C,U2*%
X183364000Y-74121000D02*
X183744000Y-74121000D01*
X183364000Y-67701000D02*
X183364000Y-74121000D01*
X165124000Y-67701000D02*
X165124000Y-74121000D01*
X183364000Y-67701000D02*
X165124000Y-67701000D01*
X165124000Y-93446000D02*
X166124000Y-93446000D01*
X165124000Y-92666000D02*
X165124000Y-93446000D01*
X183364000Y-93446000D02*
X182364000Y-93446000D01*
X183364000Y-92666000D02*
X183364000Y-93446000D01*
%TO.C,R14*%
X155322000Y-91392983D02*
X155322000Y-91700265D01*
X156082000Y-91392983D02*
X156082000Y-91700265D01*
%TO.C,R13*%
X156082000Y-88291641D02*
X156082000Y-87984359D01*
X155322000Y-88291641D02*
X155322000Y-87984359D01*
%TO.C,J6*%
X137206000Y-64838000D02*
X136906000Y-64238000D01*
X136606000Y-64838000D02*
X137206000Y-64838000D01*
X136906000Y-64238000D02*
X136606000Y-64838000D01*
X144656000Y-61138000D02*
X144156000Y-61138000D01*
X144656000Y-55638000D02*
X144656000Y-61138000D01*
X144156000Y-55638000D02*
X144656000Y-55638000D01*
X144156000Y-61138000D02*
X144156000Y-55638000D01*
X142156000Y-61138000D02*
X141656000Y-61138000D01*
X142156000Y-55638000D02*
X142156000Y-61138000D01*
X141656000Y-55638000D02*
X142156000Y-55638000D01*
X141656000Y-61138000D02*
X141656000Y-55638000D01*
X139656000Y-61138000D02*
X139156000Y-61138000D01*
X139656000Y-55638000D02*
X139656000Y-61138000D01*
X139156000Y-55638000D02*
X139656000Y-55638000D01*
X139156000Y-61138000D02*
X139156000Y-55638000D01*
X137156000Y-61138000D02*
X136656000Y-61138000D01*
X137156000Y-55638000D02*
X137156000Y-61138000D01*
X136656000Y-55638000D02*
X137156000Y-55638000D01*
X136656000Y-61138000D02*
X136656000Y-55638000D01*
X145546000Y-66748000D02*
X145546000Y-62248000D01*
X146966000Y-66748000D02*
X145546000Y-66748000D01*
X146966000Y-55028000D02*
X146966000Y-66748000D01*
X140656000Y-55028000D02*
X146966000Y-55028000D01*
X135766000Y-66748000D02*
X135766000Y-62248000D01*
X134346000Y-66748000D02*
X135766000Y-66748000D01*
X134346000Y-55028000D02*
X134346000Y-66748000D01*
X140656000Y-55028000D02*
X134346000Y-55028000D01*
%TO.C,J5*%
X152300000Y-64838000D02*
X152000000Y-64238000D01*
X151700000Y-64838000D02*
X152300000Y-64838000D01*
X152000000Y-64238000D02*
X151700000Y-64838000D01*
X157250000Y-61138000D02*
X156750000Y-61138000D01*
X157250000Y-55638000D02*
X157250000Y-61138000D01*
X156750000Y-55638000D02*
X157250000Y-55638000D01*
X156750000Y-61138000D02*
X156750000Y-55638000D01*
X154750000Y-61138000D02*
X154250000Y-61138000D01*
X154750000Y-55638000D02*
X154750000Y-61138000D01*
X154250000Y-55638000D02*
X154750000Y-55638000D01*
X154250000Y-61138000D02*
X154250000Y-55638000D01*
X152250000Y-61138000D02*
X151750000Y-61138000D01*
X152250000Y-55638000D02*
X152250000Y-61138000D01*
X151750000Y-55638000D02*
X152250000Y-55638000D01*
X151750000Y-61138000D02*
X151750000Y-55638000D01*
X158140000Y-66748000D02*
X158140000Y-62248000D01*
X159560000Y-66748000D02*
X158140000Y-66748000D01*
X159560000Y-55028000D02*
X159560000Y-66748000D01*
X154500000Y-55028000D02*
X159560000Y-55028000D01*
X150860000Y-66748000D02*
X150860000Y-62248000D01*
X149440000Y-66748000D02*
X150860000Y-66748000D01*
X149440000Y-55028000D02*
X149440000Y-66748000D01*
X154500000Y-55028000D02*
X149440000Y-55028000D01*
%TO.C,SW4*%
X161694000Y-92798000D02*
X161694000Y-92698000D01*
X157294000Y-91198000D02*
X161694000Y-91198000D01*
X161694000Y-94298000D02*
X157294000Y-94298000D01*
X157294000Y-92798000D02*
X157294000Y-92698000D01*
%TO.C,SW3*%
X157312000Y-88342000D02*
X157312000Y-88442000D01*
X161712000Y-89942000D02*
X157312000Y-89942000D01*
X157312000Y-86842000D02*
X161712000Y-86842000D01*
X161712000Y-88342000D02*
X161712000Y-88442000D01*
%TO.C,C19*%
X186328164Y-76348000D02*
X186543836Y-76348000D01*
X186328164Y-77068000D02*
X186543836Y-77068000D01*
%TO.C,J8*%
X152206000Y-93786000D02*
X149546000Y-93786000D01*
X152206000Y-86106000D02*
X152206000Y-93786000D01*
X149546000Y-86106000D02*
X149546000Y-93786000D01*
X152206000Y-86106000D02*
X149546000Y-86106000D01*
X152206000Y-84836000D02*
X152206000Y-83506000D01*
X152206000Y-83506000D02*
X150876000Y-83506000D01*
%TO.C,TP12*%
X195260000Y-94742000D02*
G75*
G03*
X195260000Y-94742000I-950000J0D01*
G01*
%TO.C,R12*%
X199541642Y-92838000D02*
X199234360Y-92838000D01*
X199541642Y-93598000D02*
X199234360Y-93598000D01*
%TO.C,Q4*%
X197302000Y-89918000D02*
X198232000Y-89918000D01*
X200462000Y-89918000D02*
X199532000Y-89918000D01*
X200462000Y-89918000D02*
X200462000Y-92078000D01*
X197302000Y-89918000D02*
X197302000Y-91378000D01*
%TO.C,TP5*%
X195260000Y-88138000D02*
G75*
G03*
X195260000Y-88138000I-950000J0D01*
G01*
%TO.C,TP3*%
X195006000Y-84328000D02*
G75*
G03*
X195006000Y-84328000I-950000J0D01*
G01*
%TO.C,TP2*%
X195006000Y-77216000D02*
G75*
G03*
X195006000Y-77216000I-950000J0D01*
G01*
%TO.C,R11*%
X202536359Y-80392000D02*
X202843641Y-80392000D01*
X202536359Y-81152000D02*
X202843641Y-81152000D01*
%TO.C,R10*%
X203097642Y-88010000D02*
X202790360Y-88010000D01*
X203097642Y-87250000D02*
X202790360Y-87250000D01*
%TO.C,R9*%
X202845641Y-82930000D02*
X202538359Y-82930000D01*
X202845641Y-82170000D02*
X202538359Y-82170000D01*
%TO.C,D4*%
X155007274Y-67937274D02*
X151107274Y-67937274D01*
X155007274Y-69937274D02*
X151107274Y-69937274D01*
X155007274Y-67937274D02*
X155007274Y-69937274D01*
%TO.C,C18*%
X202810164Y-86000000D02*
X203025836Y-86000000D01*
X202810164Y-86720000D02*
X203025836Y-86720000D01*
%TO.C,C17*%
X202584164Y-84180000D02*
X202799836Y-84180000D01*
X202584164Y-83460000D02*
X202799836Y-83460000D01*
%TO.C,C16*%
X202556164Y-78888000D02*
X202771836Y-78888000D01*
X202556164Y-79608000D02*
X202771836Y-79608000D01*
%TO.C,J3*%
X147750000Y-94900000D02*
X148800000Y-94900000D01*
X148800000Y-95950000D02*
X148800000Y-94900000D01*
X139400000Y-101000000D02*
X139400000Y-109800000D01*
X139400000Y-109800000D02*
X148600000Y-109800000D01*
X142100000Y-95100000D02*
X139400000Y-95100000D01*
X139400000Y-95100000D02*
X139400000Y-97000000D01*
X148600000Y-109800000D02*
X148600000Y-95100000D01*
X148600000Y-95100000D02*
X146000000Y-95100000D01*
%TO.C,R7*%
X177674000Y-97435641D02*
X177674000Y-97128359D01*
X178434000Y-97435641D02*
X178434000Y-97128359D01*
%TO.C,Q3*%
X177798000Y-99258000D02*
X176338000Y-99258000D01*
X177798000Y-102418000D02*
X175638000Y-102418000D01*
X177798000Y-102418000D02*
X177798000Y-101488000D01*
X177798000Y-99258000D02*
X177798000Y-100188000D01*
%TO.C,K1*%
X196472000Y-102108000D02*
G75*
G03*
X196472000Y-102108000I-130000J0D01*
G01*
X179422000Y-107608000D02*
X200562000Y-107608000D01*
X179422000Y-96608000D02*
X179422000Y-107608000D01*
X200562000Y-96608000D02*
X200562000Y-107608000D01*
X179422000Y-96608000D02*
X200562000Y-96608000D01*
X184152000Y-100588000D02*
X183642000Y-100588000D01*
X184152000Y-103128000D02*
X184152000Y-100588000D01*
X183642000Y-103128000D02*
X184152000Y-103128000D01*
X183132000Y-103128000D02*
X183642000Y-103128000D01*
X183132000Y-100588000D02*
X183132000Y-103128000D01*
X183642000Y-100588000D02*
X183132000Y-100588000D01*
X182372000Y-98298000D02*
X183642000Y-98298000D01*
X183642000Y-98298000D02*
X183642000Y-100588000D01*
X183642000Y-103128000D02*
X183642000Y-105918000D01*
X183642000Y-105918000D02*
X182372000Y-105918000D01*
X183132000Y-101348000D02*
X184152000Y-102358000D01*
X191262000Y-102108000D02*
X196342000Y-102108000D01*
X191262000Y-99568000D02*
X191262000Y-102108000D01*
X198882000Y-99568000D02*
X198882000Y-100838000D01*
X196342000Y-102108000D02*
X199132000Y-103508000D01*
%TO.C,U1*%
X145834277Y-80894000D02*
X145834277Y-82844000D01*
X145834277Y-80894000D02*
X145834277Y-78944000D01*
X140714277Y-80894000D02*
X140714277Y-82844000D01*
X140714277Y-80894000D02*
X140714277Y-77444000D01*
%TO.C,TP1*%
X135316000Y-75438000D02*
G75*
G03*
X135316000Y-75438000I-950000J0D01*
G01*
%TO.C,R5*%
X199262000Y-79401640D02*
X199262000Y-79094358D01*
X198502000Y-79401640D02*
X198502000Y-79094358D01*
%TO.C,L1*%
X138984278Y-82280252D02*
X138984278Y-79507748D01*
X135564278Y-82280252D02*
X135564278Y-79507748D01*
%TO.C,D3*%
X136274277Y-84644000D02*
X138274277Y-84644000D01*
X138274277Y-84644000D02*
X138274277Y-88544000D01*
X136274277Y-84644000D02*
X136274277Y-88544000D01*
%TO.C,C14*%
X148363000Y-69334748D02*
X148363000Y-69857252D01*
X149833000Y-69334748D02*
X149833000Y-69857252D01*
%TO.C,C6*%
X151972000Y-79736000D02*
G75*
G03*
X151972000Y-79736000I-2620000J0D01*
G01*
X146772000Y-79736000D02*
X151932000Y-79736000D01*
X146772000Y-79776000D02*
X151932000Y-79776000D01*
X146773000Y-79816000D02*
X151931000Y-79816000D01*
X146774000Y-79856000D02*
X151930000Y-79856000D01*
X146776000Y-79896000D02*
X151928000Y-79896000D01*
X146779000Y-79936000D02*
X151925000Y-79936000D01*
X146783000Y-79976000D02*
X148312000Y-79976000D01*
X150392000Y-79976000D02*
X151921000Y-79976000D01*
X146787000Y-80016000D02*
X148312000Y-80016000D01*
X150392000Y-80016000D02*
X151917000Y-80016000D01*
X146791000Y-80056000D02*
X148312000Y-80056000D01*
X150392000Y-80056000D02*
X151913000Y-80056000D01*
X146796000Y-80096000D02*
X148312000Y-80096000D01*
X150392000Y-80096000D02*
X151908000Y-80096000D01*
X146802000Y-80136000D02*
X148312000Y-80136000D01*
X150392000Y-80136000D02*
X151902000Y-80136000D01*
X146809000Y-80176000D02*
X148312000Y-80176000D01*
X150392000Y-80176000D02*
X151895000Y-80176000D01*
X146816000Y-80216000D02*
X148312000Y-80216000D01*
X150392000Y-80216000D02*
X151888000Y-80216000D01*
X146824000Y-80256000D02*
X148312000Y-80256000D01*
X150392000Y-80256000D02*
X151880000Y-80256000D01*
X146832000Y-80296000D02*
X148312000Y-80296000D01*
X150392000Y-80296000D02*
X151872000Y-80296000D01*
X146841000Y-80336000D02*
X148312000Y-80336000D01*
X150392000Y-80336000D02*
X151863000Y-80336000D01*
X146851000Y-80376000D02*
X148312000Y-80376000D01*
X150392000Y-80376000D02*
X151853000Y-80376000D01*
X146861000Y-80416000D02*
X148312000Y-80416000D01*
X150392000Y-80416000D02*
X151843000Y-80416000D01*
X146872000Y-80457000D02*
X148312000Y-80457000D01*
X150392000Y-80457000D02*
X151832000Y-80457000D01*
X146884000Y-80497000D02*
X148312000Y-80497000D01*
X150392000Y-80497000D02*
X151820000Y-80497000D01*
X146897000Y-80537000D02*
X148312000Y-80537000D01*
X150392000Y-80537000D02*
X151807000Y-80537000D01*
X146910000Y-80577000D02*
X148312000Y-80577000D01*
X150392000Y-80577000D02*
X151794000Y-80577000D01*
X146924000Y-80617000D02*
X148312000Y-80617000D01*
X150392000Y-80617000D02*
X151780000Y-80617000D01*
X146938000Y-80657000D02*
X148312000Y-80657000D01*
X150392000Y-80657000D02*
X151766000Y-80657000D01*
X146954000Y-80697000D02*
X148312000Y-80697000D01*
X150392000Y-80697000D02*
X151750000Y-80697000D01*
X146970000Y-80737000D02*
X148312000Y-80737000D01*
X150392000Y-80737000D02*
X151734000Y-80737000D01*
X146987000Y-80777000D02*
X148312000Y-80777000D01*
X150392000Y-80777000D02*
X151717000Y-80777000D01*
X147004000Y-80817000D02*
X148312000Y-80817000D01*
X150392000Y-80817000D02*
X151700000Y-80817000D01*
X147023000Y-80857000D02*
X148312000Y-80857000D01*
X150392000Y-80857000D02*
X151681000Y-80857000D01*
X147042000Y-80897000D02*
X148312000Y-80897000D01*
X150392000Y-80897000D02*
X151662000Y-80897000D01*
X147062000Y-80937000D02*
X148312000Y-80937000D01*
X150392000Y-80937000D02*
X151642000Y-80937000D01*
X147084000Y-80977000D02*
X148312000Y-80977000D01*
X150392000Y-80977000D02*
X151620000Y-80977000D01*
X147105000Y-81017000D02*
X148312000Y-81017000D01*
X150392000Y-81017000D02*
X151599000Y-81017000D01*
X147128000Y-81057000D02*
X148312000Y-81057000D01*
X150392000Y-81057000D02*
X151576000Y-81057000D01*
X147152000Y-81097000D02*
X148312000Y-81097000D01*
X150392000Y-81097000D02*
X151552000Y-81097000D01*
X147177000Y-81137000D02*
X148312000Y-81137000D01*
X150392000Y-81137000D02*
X151527000Y-81137000D01*
X147203000Y-81177000D02*
X148312000Y-81177000D01*
X150392000Y-81177000D02*
X151501000Y-81177000D01*
X147230000Y-81217000D02*
X148312000Y-81217000D01*
X150392000Y-81217000D02*
X151474000Y-81217000D01*
X147257000Y-81257000D02*
X148312000Y-81257000D01*
X150392000Y-81257000D02*
X151447000Y-81257000D01*
X147287000Y-81297000D02*
X148312000Y-81297000D01*
X150392000Y-81297000D02*
X151417000Y-81297000D01*
X147317000Y-81337000D02*
X148312000Y-81337000D01*
X150392000Y-81337000D02*
X151387000Y-81337000D01*
X147348000Y-81377000D02*
X148312000Y-81377000D01*
X150392000Y-81377000D02*
X151356000Y-81377000D01*
X147381000Y-81417000D02*
X148312000Y-81417000D01*
X150392000Y-81417000D02*
X151323000Y-81417000D01*
X147415000Y-81457000D02*
X148312000Y-81457000D01*
X150392000Y-81457000D02*
X151289000Y-81457000D01*
X147451000Y-81497000D02*
X148312000Y-81497000D01*
X150392000Y-81497000D02*
X151253000Y-81497000D01*
X147488000Y-81537000D02*
X148312000Y-81537000D01*
X150392000Y-81537000D02*
X151216000Y-81537000D01*
X147526000Y-81577000D02*
X148312000Y-81577000D01*
X150392000Y-81577000D02*
X151178000Y-81577000D01*
X147567000Y-81617000D02*
X148312000Y-81617000D01*
X150392000Y-81617000D02*
X151137000Y-81617000D01*
X147609000Y-81657000D02*
X148312000Y-81657000D01*
X150392000Y-81657000D02*
X151095000Y-81657000D01*
X147653000Y-81697000D02*
X148312000Y-81697000D01*
X150392000Y-81697000D02*
X151051000Y-81697000D01*
X147699000Y-81737000D02*
X148312000Y-81737000D01*
X150392000Y-81737000D02*
X151005000Y-81737000D01*
X147747000Y-81777000D02*
X148312000Y-81777000D01*
X150392000Y-81777000D02*
X150957000Y-81777000D01*
X147798000Y-81817000D02*
X148312000Y-81817000D01*
X150392000Y-81817000D02*
X150906000Y-81817000D01*
X147852000Y-81857000D02*
X148312000Y-81857000D01*
X150392000Y-81857000D02*
X150852000Y-81857000D01*
X147909000Y-81897000D02*
X148312000Y-81897000D01*
X150392000Y-81897000D02*
X150795000Y-81897000D01*
X147969000Y-81937000D02*
X148312000Y-81937000D01*
X150392000Y-81937000D02*
X150735000Y-81937000D01*
X148033000Y-81977000D02*
X148312000Y-81977000D01*
X150392000Y-81977000D02*
X150671000Y-81977000D01*
X148101000Y-82017000D02*
X148312000Y-82017000D01*
X150392000Y-82017000D02*
X150603000Y-82017000D01*
X148174000Y-82057000D02*
X150530000Y-82057000D01*
X148254000Y-82097000D02*
X150450000Y-82097000D01*
X148341000Y-82137000D02*
X150363000Y-82137000D01*
X148437000Y-82177000D02*
X150267000Y-82177000D01*
X148547000Y-82217000D02*
X150157000Y-82217000D01*
X148675000Y-82257000D02*
X150029000Y-82257000D01*
X148834000Y-82297000D02*
X149870000Y-82297000D01*
X149068000Y-82337000D02*
X149636000Y-82337000D01*
X147877000Y-76931225D02*
X147877000Y-77431225D01*
X147627000Y-77181225D02*
X148127000Y-77181225D01*
%TO.C,C5*%
X140514277Y-91654001D02*
X140514277Y-89954001D01*
X140514277Y-86134001D02*
X140514277Y-87834001D01*
X144969840Y-86134001D02*
X140514277Y-86134001D01*
X144969840Y-91654001D02*
X140514277Y-91654001D01*
X146034277Y-90589564D02*
X146034277Y-89954001D01*
X146034277Y-87198438D02*
X146034277Y-87834001D01*
X146034277Y-87198438D02*
X144969840Y-86134001D01*
X146034277Y-90589564D02*
X144969840Y-91654001D01*
X146899277Y-87209001D02*
X146274277Y-87209001D01*
X146586777Y-86896501D02*
X146586777Y-87521501D01*
%TO.C,C1*%
X197972000Y-79355836D02*
X197972000Y-79140164D01*
X197252000Y-79355836D02*
X197252000Y-79140164D01*
%TO.C,R20*%
D11*
X175204380Y-103243142D02*
X174728190Y-102909809D01*
X175204380Y-102671714D02*
X174204380Y-102671714D01*
X174204380Y-103052666D01*
X174252000Y-103147904D01*
X174299619Y-103195523D01*
X174394857Y-103243142D01*
X174537714Y-103243142D01*
X174632952Y-103195523D01*
X174680571Y-103147904D01*
X174728190Y-103052666D01*
X174728190Y-102671714D01*
X174299619Y-103624095D02*
X174252000Y-103671714D01*
X174204380Y-103766952D01*
X174204380Y-104005047D01*
X174252000Y-104100285D01*
X174299619Y-104147904D01*
X174394857Y-104195523D01*
X174490095Y-104195523D01*
X174632952Y-104147904D01*
X175204380Y-103576476D01*
X175204380Y-104195523D01*
X174204380Y-104814571D02*
X174204380Y-104909809D01*
X174252000Y-105005047D01*
X174299619Y-105052666D01*
X174394857Y-105100285D01*
X174585333Y-105147904D01*
X174823428Y-105147904D01*
X175013904Y-105100285D01*
X175109142Y-105052666D01*
X175156761Y-105005047D01*
X175204380Y-104909809D01*
X175204380Y-104814571D01*
X175156761Y-104719333D01*
X175109142Y-104671714D01*
X175013904Y-104624095D01*
X174823428Y-104576476D01*
X174585333Y-104576476D01*
X174394857Y-104624095D01*
X174299619Y-104671714D01*
X174252000Y-104719333D01*
X174204380Y-104814571D01*
%TO.C,TP9*%
X156932000Y-73814571D02*
X157265333Y-73814571D01*
X157265333Y-74338380D02*
X157265333Y-73338380D01*
X156789142Y-73338380D01*
X155932000Y-74338380D02*
X156408190Y-74338380D01*
X156408190Y-73338380D01*
X155408190Y-73338380D02*
X155217714Y-73338380D01*
X155122476Y-73386000D01*
X155027238Y-73481238D01*
X154979619Y-73671714D01*
X154979619Y-74005047D01*
X155027238Y-74195523D01*
X155122476Y-74290761D01*
X155217714Y-74338380D01*
X155408190Y-74338380D01*
X155503428Y-74290761D01*
X155598666Y-74195523D01*
X155646285Y-74005047D01*
X155646285Y-73671714D01*
X155598666Y-73481238D01*
X155503428Y-73386000D01*
X155408190Y-73338380D01*
X154646285Y-73338380D02*
X154408190Y-74338380D01*
X154217714Y-73624095D01*
X154027238Y-74338380D01*
X153789142Y-73338380D01*
X153646285Y-74433619D02*
X152884380Y-74433619D01*
X152646285Y-74338380D02*
X152646285Y-73338380D01*
X152170095Y-74338380D02*
X152170095Y-73338380D01*
X151598666Y-74338380D01*
X151598666Y-73338380D01*
%TO.C,TP7*%
X142017428Y-74338380D02*
X142493619Y-74338380D01*
X142493619Y-73338380D01*
X141684095Y-73814571D02*
X141350761Y-73814571D01*
X141207904Y-74338380D02*
X141684095Y-74338380D01*
X141684095Y-73338380D01*
X141207904Y-73338380D01*
X140922190Y-73338380D02*
X140588857Y-74338380D01*
X140255523Y-73338380D01*
X139922190Y-73814571D02*
X139588857Y-73814571D01*
X139446000Y-74338380D02*
X139922190Y-74338380D01*
X139922190Y-73338380D01*
X139446000Y-73338380D01*
X138541238Y-74338380D02*
X139017428Y-74338380D01*
X139017428Y-73338380D01*
X138446000Y-74433619D02*
X137684095Y-74433619D01*
X137446000Y-74338380D02*
X137446000Y-73338380D01*
X136969809Y-74338380D02*
X136969809Y-73338380D01*
X136398380Y-74338380D01*
X136398380Y-73338380D01*
%TO.C,R19*%
X159392857Y-70302380D02*
X159726190Y-69826190D01*
X159964285Y-70302380D02*
X159964285Y-69302380D01*
X159583333Y-69302380D01*
X159488095Y-69350000D01*
X159440476Y-69397619D01*
X159392857Y-69492857D01*
X159392857Y-69635714D01*
X159440476Y-69730952D01*
X159488095Y-69778571D01*
X159583333Y-69826190D01*
X159964285Y-69826190D01*
X158440476Y-70302380D02*
X159011904Y-70302380D01*
X158726190Y-70302380D02*
X158726190Y-69302380D01*
X158821428Y-69445238D01*
X158916666Y-69540476D01*
X159011904Y-69588095D01*
X157964285Y-70302380D02*
X157773809Y-70302380D01*
X157678571Y-70254761D01*
X157630952Y-70207142D01*
X157535714Y-70064285D01*
X157488095Y-69873809D01*
X157488095Y-69492857D01*
X157535714Y-69397619D01*
X157583333Y-69350000D01*
X157678571Y-69302380D01*
X157869047Y-69302380D01*
X157964285Y-69350000D01*
X158011904Y-69397619D01*
X158059523Y-69492857D01*
X158059523Y-69730952D01*
X158011904Y-69826190D01*
X157964285Y-69873809D01*
X157869047Y-69921428D01*
X157678571Y-69921428D01*
X157583333Y-69873809D01*
X157535714Y-69826190D01*
X157488095Y-69730952D01*
%TO.C,R18*%
X135516857Y-70048380D02*
X135850190Y-69572190D01*
X136088285Y-70048380D02*
X136088285Y-69048380D01*
X135707333Y-69048380D01*
X135612095Y-69096000D01*
X135564476Y-69143619D01*
X135516857Y-69238857D01*
X135516857Y-69381714D01*
X135564476Y-69476952D01*
X135612095Y-69524571D01*
X135707333Y-69572190D01*
X136088285Y-69572190D01*
X134564476Y-70048380D02*
X135135904Y-70048380D01*
X134850190Y-70048380D02*
X134850190Y-69048380D01*
X134945428Y-69191238D01*
X135040666Y-69286476D01*
X135135904Y-69334095D01*
X133993047Y-69476952D02*
X134088285Y-69429333D01*
X134135904Y-69381714D01*
X134183523Y-69286476D01*
X134183523Y-69238857D01*
X134135904Y-69143619D01*
X134088285Y-69096000D01*
X133993047Y-69048380D01*
X133802571Y-69048380D01*
X133707333Y-69096000D01*
X133659714Y-69143619D01*
X133612095Y-69238857D01*
X133612095Y-69286476D01*
X133659714Y-69381714D01*
X133707333Y-69429333D01*
X133802571Y-69476952D01*
X133993047Y-69476952D01*
X134088285Y-69524571D01*
X134135904Y-69572190D01*
X134183523Y-69667428D01*
X134183523Y-69857904D01*
X134135904Y-69953142D01*
X134088285Y-70000761D01*
X133993047Y-70048380D01*
X133802571Y-70048380D01*
X133707333Y-70000761D01*
X133659714Y-69953142D01*
X133612095Y-69857904D01*
X133612095Y-69667428D01*
X133659714Y-69572190D01*
X133707333Y-69524571D01*
X133802571Y-69476952D01*
%TO.C,R17*%
X163456857Y-83356380D02*
X163790190Y-82880190D01*
X164028285Y-83356380D02*
X164028285Y-82356380D01*
X163647333Y-82356380D01*
X163552095Y-82404000D01*
X163504476Y-82451619D01*
X163456857Y-82546857D01*
X163456857Y-82689714D01*
X163504476Y-82784952D01*
X163552095Y-82832571D01*
X163647333Y-82880190D01*
X164028285Y-82880190D01*
X162504476Y-83356380D02*
X163075904Y-83356380D01*
X162790190Y-83356380D02*
X162790190Y-82356380D01*
X162885428Y-82499238D01*
X162980666Y-82594476D01*
X163075904Y-82642095D01*
X162171142Y-82356380D02*
X161504476Y-82356380D01*
X161933047Y-83356380D01*
%TO.C,R16*%
X163774380Y-86733142D02*
X163298190Y-86399809D01*
X163774380Y-86161714D02*
X162774380Y-86161714D01*
X162774380Y-86542666D01*
X162822000Y-86637904D01*
X162869619Y-86685523D01*
X162964857Y-86733142D01*
X163107714Y-86733142D01*
X163202952Y-86685523D01*
X163250571Y-86637904D01*
X163298190Y-86542666D01*
X163298190Y-86161714D01*
X163774380Y-87685523D02*
X163774380Y-87114095D01*
X163774380Y-87399809D02*
X162774380Y-87399809D01*
X162917238Y-87304571D01*
X163012476Y-87209333D01*
X163060095Y-87114095D01*
X162774380Y-88542666D02*
X162774380Y-88352190D01*
X162822000Y-88256952D01*
X162869619Y-88209333D01*
X163012476Y-88114095D01*
X163202952Y-88066476D01*
X163583904Y-88066476D01*
X163679142Y-88114095D01*
X163726761Y-88161714D01*
X163774380Y-88256952D01*
X163774380Y-88447428D01*
X163726761Y-88542666D01*
X163679142Y-88590285D01*
X163583904Y-88637904D01*
X163345809Y-88637904D01*
X163250571Y-88590285D01*
X163202952Y-88542666D01*
X163155333Y-88447428D01*
X163155333Y-88256952D01*
X163202952Y-88161714D01*
X163250571Y-88114095D01*
X163345809Y-88066476D01*
%TO.C,R15*%
X159392857Y-68778380D02*
X159726190Y-68302190D01*
X159964285Y-68778380D02*
X159964285Y-67778380D01*
X159583333Y-67778380D01*
X159488095Y-67826000D01*
X159440476Y-67873619D01*
X159392857Y-67968857D01*
X159392857Y-68111714D01*
X159440476Y-68206952D01*
X159488095Y-68254571D01*
X159583333Y-68302190D01*
X159964285Y-68302190D01*
X158440476Y-68778380D02*
X159011904Y-68778380D01*
X158726190Y-68778380D02*
X158726190Y-67778380D01*
X158821428Y-67921238D01*
X158916666Y-68016476D01*
X159011904Y-68064095D01*
X157535714Y-67778380D02*
X158011904Y-67778380D01*
X158059523Y-68254571D01*
X158011904Y-68206952D01*
X157916666Y-68159333D01*
X157678571Y-68159333D01*
X157583333Y-68206952D01*
X157535714Y-68254571D01*
X157488095Y-68349809D01*
X157488095Y-68587904D01*
X157535714Y-68683142D01*
X157583333Y-68730761D01*
X157678571Y-68778380D01*
X157916666Y-68778380D01*
X158011904Y-68730761D01*
X158059523Y-68683142D01*
%TO.C,R8*%
X135548666Y-68778380D02*
X135882000Y-68302190D01*
X136120095Y-68778380D02*
X136120095Y-67778380D01*
X135739142Y-67778380D01*
X135643904Y-67826000D01*
X135596285Y-67873619D01*
X135548666Y-67968857D01*
X135548666Y-68111714D01*
X135596285Y-68206952D01*
X135643904Y-68254571D01*
X135739142Y-68302190D01*
X136120095Y-68302190D01*
X134977238Y-68206952D02*
X135072476Y-68159333D01*
X135120095Y-68111714D01*
X135167714Y-68016476D01*
X135167714Y-67968857D01*
X135120095Y-67873619D01*
X135072476Y-67826000D01*
X134977238Y-67778380D01*
X134786761Y-67778380D01*
X134691523Y-67826000D01*
X134643904Y-67873619D01*
X134596285Y-67968857D01*
X134596285Y-68016476D01*
X134643904Y-68111714D01*
X134691523Y-68159333D01*
X134786761Y-68206952D01*
X134977238Y-68206952D01*
X135072476Y-68254571D01*
X135120095Y-68302190D01*
X135167714Y-68397428D01*
X135167714Y-68587904D01*
X135120095Y-68683142D01*
X135072476Y-68730761D01*
X134977238Y-68778380D01*
X134786761Y-68778380D01*
X134691523Y-68730761D01*
X134643904Y-68683142D01*
X134596285Y-68587904D01*
X134596285Y-68397428D01*
X134643904Y-68302190D01*
X134691523Y-68254571D01*
X134786761Y-68206952D01*
%TO.C,D5*%
X145264095Y-69540380D02*
X145264095Y-68540380D01*
X145026000Y-68540380D01*
X144883142Y-68588000D01*
X144787904Y-68683238D01*
X144740285Y-68778476D01*
X144692666Y-68968952D01*
X144692666Y-69111809D01*
X144740285Y-69302285D01*
X144787904Y-69397523D01*
X144883142Y-69492761D01*
X145026000Y-69540380D01*
X145264095Y-69540380D01*
X143787904Y-68540380D02*
X144264095Y-68540380D01*
X144311714Y-69016571D01*
X144264095Y-68968952D01*
X144168857Y-68921333D01*
X143930761Y-68921333D01*
X143835523Y-68968952D01*
X143787904Y-69016571D01*
X143740285Y-69111809D01*
X143740285Y-69349904D01*
X143787904Y-69445142D01*
X143835523Y-69492761D01*
X143930761Y-69540380D01*
X144168857Y-69540380D01*
X144264095Y-69492761D01*
X144311714Y-69445142D01*
%TO.C,U2*%
X184306380Y-91234095D02*
X185115904Y-91234095D01*
X185211142Y-91281714D01*
X185258761Y-91329333D01*
X185306380Y-91424571D01*
X185306380Y-91615047D01*
X185258761Y-91710285D01*
X185211142Y-91757904D01*
X185115904Y-91805523D01*
X184306380Y-91805523D01*
X184401619Y-92234095D02*
X184354000Y-92281714D01*
X184306380Y-92376952D01*
X184306380Y-92615047D01*
X184354000Y-92710285D01*
X184401619Y-92757904D01*
X184496857Y-92805523D01*
X184592095Y-92805523D01*
X184734952Y-92757904D01*
X185306380Y-92186476D01*
X185306380Y-92805523D01*
%TO.C,R14*%
X156154380Y-93337142D02*
X155678190Y-93003809D01*
X156154380Y-92765714D02*
X155154380Y-92765714D01*
X155154380Y-93146666D01*
X155202000Y-93241904D01*
X155249619Y-93289523D01*
X155344857Y-93337142D01*
X155487714Y-93337142D01*
X155582952Y-93289523D01*
X155630571Y-93241904D01*
X155678190Y-93146666D01*
X155678190Y-92765714D01*
X156154380Y-94289523D02*
X156154380Y-93718095D01*
X156154380Y-94003809D02*
X155154380Y-94003809D01*
X155297238Y-93908571D01*
X155392476Y-93813333D01*
X155440095Y-93718095D01*
X155487714Y-95146666D02*
X156154380Y-95146666D01*
X155106761Y-94908571D02*
X155821047Y-94670476D01*
X155821047Y-95289523D01*
%TO.C,R13*%
X156154380Y-84955142D02*
X155678190Y-84621809D01*
X156154380Y-84383714D02*
X155154380Y-84383714D01*
X155154380Y-84764666D01*
X155202000Y-84859904D01*
X155249619Y-84907523D01*
X155344857Y-84955142D01*
X155487714Y-84955142D01*
X155582952Y-84907523D01*
X155630571Y-84859904D01*
X155678190Y-84764666D01*
X155678190Y-84383714D01*
X156154380Y-85907523D02*
X156154380Y-85336095D01*
X156154380Y-85621809D02*
X155154380Y-85621809D01*
X155297238Y-85526571D01*
X155392476Y-85431333D01*
X155440095Y-85336095D01*
X155154380Y-86240857D02*
X155154380Y-86859904D01*
X155535333Y-86526571D01*
X155535333Y-86669428D01*
X155582952Y-86764666D01*
X155630571Y-86812285D01*
X155725809Y-86859904D01*
X155963904Y-86859904D01*
X156059142Y-86812285D01*
X156106761Y-86764666D01*
X156154380Y-86669428D01*
X156154380Y-86383714D01*
X156106761Y-86288476D01*
X156059142Y-86240857D01*
%TO.C,SW4*%
X164750285Y-95226571D02*
X165083619Y-95226571D01*
X165083619Y-95750380D02*
X165083619Y-94750380D01*
X164607428Y-94750380D01*
X164083619Y-95750380D02*
X164178857Y-95702761D01*
X164226476Y-95607523D01*
X164226476Y-94750380D01*
X163274095Y-95750380D02*
X163274095Y-95226571D01*
X163321714Y-95131333D01*
X163416952Y-95083714D01*
X163607428Y-95083714D01*
X163702666Y-95131333D01*
X163274095Y-95702761D02*
X163369333Y-95750380D01*
X163607428Y-95750380D01*
X163702666Y-95702761D01*
X163750285Y-95607523D01*
X163750285Y-95512285D01*
X163702666Y-95417047D01*
X163607428Y-95369428D01*
X163369333Y-95369428D01*
X163274095Y-95321809D01*
X162845523Y-95702761D02*
X162750285Y-95750380D01*
X162559809Y-95750380D01*
X162464571Y-95702761D01*
X162416952Y-95607523D01*
X162416952Y-95559904D01*
X162464571Y-95464666D01*
X162559809Y-95417047D01*
X162702666Y-95417047D01*
X162797904Y-95369428D01*
X162845523Y-95274190D01*
X162845523Y-95226571D01*
X162797904Y-95131333D01*
X162702666Y-95083714D01*
X162559809Y-95083714D01*
X162464571Y-95131333D01*
X161988380Y-95750380D02*
X161988380Y-94750380D01*
X161559809Y-95750380D02*
X161559809Y-95226571D01*
X161607428Y-95131333D01*
X161702666Y-95083714D01*
X161845523Y-95083714D01*
X161940761Y-95131333D01*
X161988380Y-95178952D01*
X160321714Y-95750380D02*
X160321714Y-94750380D01*
X159988380Y-95464666D01*
X159655047Y-94750380D01*
X159655047Y-95750380D01*
X159036000Y-95750380D02*
X159131238Y-95702761D01*
X159178857Y-95655142D01*
X159226476Y-95559904D01*
X159226476Y-95274190D01*
X159178857Y-95178952D01*
X159131238Y-95131333D01*
X159036000Y-95083714D01*
X158893142Y-95083714D01*
X158797904Y-95131333D01*
X158750285Y-95178952D01*
X158702666Y-95274190D01*
X158702666Y-95559904D01*
X158750285Y-95655142D01*
X158797904Y-95702761D01*
X158893142Y-95750380D01*
X159036000Y-95750380D01*
X157845523Y-95750380D02*
X157845523Y-94750380D01*
X157845523Y-95702761D02*
X157940761Y-95750380D01*
X158131238Y-95750380D01*
X158226476Y-95702761D01*
X158274095Y-95655142D01*
X158321714Y-95559904D01*
X158321714Y-95274190D01*
X158274095Y-95178952D01*
X158226476Y-95131333D01*
X158131238Y-95083714D01*
X157940761Y-95083714D01*
X157845523Y-95131333D01*
X156988380Y-95702761D02*
X157083619Y-95750380D01*
X157274095Y-95750380D01*
X157369333Y-95702761D01*
X157416952Y-95607523D01*
X157416952Y-95226571D01*
X157369333Y-95131333D01*
X157274095Y-95083714D01*
X157083619Y-95083714D01*
X156988380Y-95131333D01*
X156940761Y-95226571D01*
X156940761Y-95321809D01*
X157416952Y-95417047D01*
%TO.C,SW3*%
X161004095Y-86294380D02*
X161337428Y-85818190D01*
X161575523Y-86294380D02*
X161575523Y-85294380D01*
X161194571Y-85294380D01*
X161099333Y-85342000D01*
X161051714Y-85389619D01*
X161004095Y-85484857D01*
X161004095Y-85627714D01*
X161051714Y-85722952D01*
X161099333Y-85770571D01*
X161194571Y-85818190D01*
X161575523Y-85818190D01*
X160194571Y-86246761D02*
X160289809Y-86294380D01*
X160480285Y-86294380D01*
X160575523Y-86246761D01*
X160623142Y-86151523D01*
X160623142Y-85770571D01*
X160575523Y-85675333D01*
X160480285Y-85627714D01*
X160289809Y-85627714D01*
X160194571Y-85675333D01*
X160146952Y-85770571D01*
X160146952Y-85865809D01*
X160623142Y-85961047D01*
X159766000Y-86246761D02*
X159670761Y-86294380D01*
X159480285Y-86294380D01*
X159385047Y-86246761D01*
X159337428Y-86151523D01*
X159337428Y-86103904D01*
X159385047Y-86008666D01*
X159480285Y-85961047D01*
X159623142Y-85961047D01*
X159718380Y-85913428D01*
X159766000Y-85818190D01*
X159766000Y-85770571D01*
X159718380Y-85675333D01*
X159623142Y-85627714D01*
X159480285Y-85627714D01*
X159385047Y-85675333D01*
X158527904Y-86246761D02*
X158623142Y-86294380D01*
X158813619Y-86294380D01*
X158908857Y-86246761D01*
X158956476Y-86151523D01*
X158956476Y-85770571D01*
X158908857Y-85675333D01*
X158813619Y-85627714D01*
X158623142Y-85627714D01*
X158527904Y-85675333D01*
X158480285Y-85770571D01*
X158480285Y-85865809D01*
X158956476Y-85961047D01*
X158194571Y-85627714D02*
X157813619Y-85627714D01*
X158051714Y-85294380D02*
X158051714Y-86151523D01*
X158004095Y-86246761D01*
X157908857Y-86294380D01*
X157813619Y-86294380D01*
%TO.C,C19*%
X187078857Y-78225142D02*
X187126476Y-78272761D01*
X187269333Y-78320380D01*
X187364571Y-78320380D01*
X187507428Y-78272761D01*
X187602666Y-78177523D01*
X187650285Y-78082285D01*
X187697904Y-77891809D01*
X187697904Y-77748952D01*
X187650285Y-77558476D01*
X187602666Y-77463238D01*
X187507428Y-77368000D01*
X187364571Y-77320380D01*
X187269333Y-77320380D01*
X187126476Y-77368000D01*
X187078857Y-77415619D01*
X186126476Y-78320380D02*
X186697904Y-78320380D01*
X186412190Y-78320380D02*
X186412190Y-77320380D01*
X186507428Y-77463238D01*
X186602666Y-77558476D01*
X186697904Y-77606095D01*
X185650285Y-78320380D02*
X185459809Y-78320380D01*
X185364571Y-78272761D01*
X185316952Y-78225142D01*
X185221714Y-78082285D01*
X185174095Y-77891809D01*
X185174095Y-77510857D01*
X185221714Y-77415619D01*
X185269333Y-77368000D01*
X185364571Y-77320380D01*
X185555047Y-77320380D01*
X185650285Y-77368000D01*
X185697904Y-77415619D01*
X185745523Y-77510857D01*
X185745523Y-77748952D01*
X185697904Y-77844190D01*
X185650285Y-77891809D01*
X185555047Y-77939428D01*
X185364571Y-77939428D01*
X185269333Y-77891809D01*
X185221714Y-77844190D01*
X185174095Y-77748952D01*
%TO.C,TP12*%
X206723619Y-95702380D02*
X207199809Y-95702380D01*
X207199809Y-94702380D01*
X205818857Y-95607142D02*
X205866476Y-95654761D01*
X206009333Y-95702380D01*
X206104571Y-95702380D01*
X206247428Y-95654761D01*
X206342666Y-95559523D01*
X206390285Y-95464285D01*
X206437904Y-95273809D01*
X206437904Y-95130952D01*
X206390285Y-94940476D01*
X206342666Y-94845238D01*
X206247428Y-94750000D01*
X206104571Y-94702380D01*
X206009333Y-94702380D01*
X205866476Y-94750000D01*
X205818857Y-94797619D01*
X205390285Y-95702380D02*
X205390285Y-94702380D01*
X205152190Y-94702380D01*
X205009333Y-94750000D01*
X204914095Y-94845238D01*
X204866476Y-94940476D01*
X204818857Y-95130952D01*
X204818857Y-95273809D01*
X204866476Y-95464285D01*
X204914095Y-95559523D01*
X205009333Y-95654761D01*
X205152190Y-95702380D01*
X205390285Y-95702380D01*
X204628380Y-95797619D02*
X203866476Y-95797619D01*
X203295047Y-95178571D02*
X203152190Y-95226190D01*
X203104571Y-95273809D01*
X203056952Y-95369047D01*
X203056952Y-95511904D01*
X203104571Y-95607142D01*
X203152190Y-95654761D01*
X203247428Y-95702380D01*
X203628380Y-95702380D01*
X203628380Y-94702380D01*
X203295047Y-94702380D01*
X203199809Y-94750000D01*
X203152190Y-94797619D01*
X203104571Y-94892857D01*
X203104571Y-94988095D01*
X203152190Y-95083333D01*
X203199809Y-95130952D01*
X203295047Y-95178571D01*
X203628380Y-95178571D01*
X202675999Y-95416666D02*
X202199809Y-95416666D01*
X202771238Y-95702380D02*
X202437904Y-94702380D01*
X202104571Y-95702380D01*
X201199809Y-95607142D02*
X201247428Y-95654761D01*
X201390285Y-95702380D01*
X201485523Y-95702380D01*
X201628380Y-95654761D01*
X201723619Y-95559523D01*
X201771238Y-95464285D01*
X201818857Y-95273809D01*
X201818857Y-95130952D01*
X201771238Y-94940476D01*
X201723619Y-94845238D01*
X201628380Y-94750000D01*
X201485523Y-94702380D01*
X201390285Y-94702380D01*
X201247428Y-94750000D01*
X201199809Y-94797619D01*
X200771238Y-95702380D02*
X200771238Y-94702380D01*
X200199809Y-95702380D02*
X200628380Y-95130952D01*
X200199809Y-94702380D02*
X200771238Y-95273809D01*
X199295047Y-95702380D02*
X199771238Y-95702380D01*
X199771238Y-94702380D01*
X198961714Y-95702380D02*
X198961714Y-94702380D01*
X197961714Y-94750000D02*
X198056952Y-94702380D01*
X198199809Y-94702380D01*
X198342666Y-94750000D01*
X198437904Y-94845238D01*
X198485523Y-94940476D01*
X198533142Y-95130952D01*
X198533142Y-95273809D01*
X198485523Y-95464285D01*
X198437904Y-95559523D01*
X198342666Y-95654761D01*
X198199809Y-95702380D01*
X198104571Y-95702380D01*
X197961714Y-95654761D01*
X197914095Y-95607142D01*
X197914095Y-95273809D01*
X198104571Y-95273809D01*
X197485523Y-95702380D02*
X197485523Y-94702380D01*
X197485523Y-95178571D02*
X196914095Y-95178571D01*
X196914095Y-95702380D02*
X196914095Y-94702380D01*
X196580761Y-94702380D02*
X196009333Y-94702380D01*
X196295047Y-95702380D02*
X196295047Y-94702380D01*
%TO.C,R12*%
X197492857Y-93670380D02*
X197826190Y-93194190D01*
X198064285Y-93670380D02*
X198064285Y-92670380D01*
X197683333Y-92670380D01*
X197588095Y-92718000D01*
X197540476Y-92765619D01*
X197492857Y-92860857D01*
X197492857Y-93003714D01*
X197540476Y-93098952D01*
X197588095Y-93146571D01*
X197683333Y-93194190D01*
X198064285Y-93194190D01*
X196540476Y-93670380D02*
X197111904Y-93670380D01*
X196826190Y-93670380D02*
X196826190Y-92670380D01*
X196921428Y-92813238D01*
X197016666Y-92908476D01*
X197111904Y-92956095D01*
X196159523Y-92765619D02*
X196111904Y-92718000D01*
X196016666Y-92670380D01*
X195778571Y-92670380D01*
X195683333Y-92718000D01*
X195635714Y-92765619D01*
X195588095Y-92860857D01*
X195588095Y-92956095D01*
X195635714Y-93098952D01*
X196207142Y-93670380D01*
X195588095Y-93670380D01*
%TO.C,Q4*%
X196889619Y-90328761D02*
X196842000Y-90233523D01*
X196746761Y-90138285D01*
X196603904Y-89995428D01*
X196556285Y-89900190D01*
X196556285Y-89804952D01*
X196794380Y-89852571D02*
X196746761Y-89757333D01*
X196651523Y-89662095D01*
X196461047Y-89614476D01*
X196127714Y-89614476D01*
X195937238Y-89662095D01*
X195842000Y-89757333D01*
X195794380Y-89852571D01*
X195794380Y-90043047D01*
X195842000Y-90138285D01*
X195937238Y-90233523D01*
X196127714Y-90281142D01*
X196461047Y-90281142D01*
X196651523Y-90233523D01*
X196746761Y-90138285D01*
X196794380Y-90043047D01*
X196794380Y-89852571D01*
X196127714Y-91138285D02*
X196794380Y-91138285D01*
X195746761Y-90900190D02*
X196461047Y-90662095D01*
X196461047Y-91281142D01*
%TO.C,TP5*%
X191777809Y-88590380D02*
X192111142Y-88114190D01*
X192349238Y-88590380D02*
X192349238Y-87590380D01*
X191968285Y-87590380D01*
X191873047Y-87638000D01*
X191825428Y-87685619D01*
X191777809Y-87780857D01*
X191777809Y-87923714D01*
X191825428Y-88018952D01*
X191873047Y-88066571D01*
X191968285Y-88114190D01*
X192349238Y-88114190D01*
X191349238Y-88066571D02*
X191015904Y-88066571D01*
X190873047Y-88590380D02*
X191349238Y-88590380D01*
X191349238Y-87590380D01*
X190873047Y-87590380D01*
X190682571Y-88685619D02*
X189920666Y-88685619D01*
X189349238Y-88066571D02*
X189206380Y-88114190D01*
X189158761Y-88161809D01*
X189111142Y-88257047D01*
X189111142Y-88399904D01*
X189158761Y-88495142D01*
X189206380Y-88542761D01*
X189301619Y-88590380D01*
X189682571Y-88590380D01*
X189682571Y-87590380D01*
X189349238Y-87590380D01*
X189254000Y-87638000D01*
X189206380Y-87685619D01*
X189158761Y-87780857D01*
X189158761Y-87876095D01*
X189206380Y-87971333D01*
X189254000Y-88018952D01*
X189349238Y-88066571D01*
X189682571Y-88066571D01*
%TO.C,TP3*%
X191452380Y-84780380D02*
X191785714Y-84304190D01*
X192023809Y-84780380D02*
X192023809Y-83780380D01*
X191642857Y-83780380D01*
X191547619Y-83828000D01*
X191500000Y-83875619D01*
X191452380Y-83970857D01*
X191452380Y-84113714D01*
X191500000Y-84208952D01*
X191547619Y-84256571D01*
X191642857Y-84304190D01*
X192023809Y-84304190D01*
X191023809Y-84256571D02*
X190690476Y-84256571D01*
X190547619Y-84780380D02*
X191023809Y-84780380D01*
X191023809Y-83780380D01*
X190547619Y-83780380D01*
X190357142Y-84875619D02*
X189595238Y-84875619D01*
X189404761Y-84494666D02*
X188928571Y-84494666D01*
X189500000Y-84780380D02*
X189166666Y-83780380D01*
X188833333Y-84780380D01*
%TO.C,TP2*%
X194650857Y-79906761D02*
X194508000Y-79954380D01*
X194269904Y-79954380D01*
X194174666Y-79906761D01*
X194127047Y-79859142D01*
X194079428Y-79763904D01*
X194079428Y-79668666D01*
X194127047Y-79573428D01*
X194174666Y-79525809D01*
X194269904Y-79478190D01*
X194460380Y-79430571D01*
X194555619Y-79382952D01*
X194603238Y-79335333D01*
X194650857Y-79240095D01*
X194650857Y-79144857D01*
X194603238Y-79049619D01*
X194555619Y-79002000D01*
X194460380Y-78954380D01*
X194222285Y-78954380D01*
X194079428Y-79002000D01*
X193746095Y-78954380D02*
X193508000Y-79954380D01*
X193317523Y-79240095D01*
X193127047Y-79954380D01*
X192888952Y-78954380D01*
X192746095Y-80049619D02*
X191984190Y-80049619D01*
X191746095Y-79954380D02*
X191746095Y-78954380D01*
X191365142Y-78954380D01*
X191269904Y-79002000D01*
X191222285Y-79049619D01*
X191174666Y-79144857D01*
X191174666Y-79287714D01*
X191222285Y-79382952D01*
X191269904Y-79430571D01*
X191365142Y-79478190D01*
X191746095Y-79478190D01*
X190174666Y-79954380D02*
X190508000Y-79478190D01*
X190746095Y-79954380D02*
X190746095Y-78954380D01*
X190365142Y-78954380D01*
X190269904Y-79002000D01*
X190222285Y-79049619D01*
X190174666Y-79144857D01*
X190174666Y-79287714D01*
X190222285Y-79382952D01*
X190269904Y-79430571D01*
X190365142Y-79478190D01*
X190746095Y-79478190D01*
X189746095Y-79430571D02*
X189412761Y-79430571D01*
X189269904Y-79954380D02*
X189746095Y-79954380D01*
X189746095Y-78954380D01*
X189269904Y-78954380D01*
X188888952Y-79906761D02*
X188746095Y-79954380D01*
X188508000Y-79954380D01*
X188412761Y-79906761D01*
X188365142Y-79859142D01*
X188317523Y-79763904D01*
X188317523Y-79668666D01*
X188365142Y-79573428D01*
X188412761Y-79525809D01*
X188508000Y-79478190D01*
X188698476Y-79430571D01*
X188793714Y-79382952D01*
X188841333Y-79335333D01*
X188888952Y-79240095D01*
X188888952Y-79144857D01*
X188841333Y-79049619D01*
X188793714Y-79002000D01*
X188698476Y-78954380D01*
X188460380Y-78954380D01*
X188317523Y-79002000D01*
X187936571Y-79906761D02*
X187793714Y-79954380D01*
X187555619Y-79954380D01*
X187460380Y-79906761D01*
X187412761Y-79859142D01*
X187365142Y-79763904D01*
X187365142Y-79668666D01*
X187412761Y-79573428D01*
X187460380Y-79525809D01*
X187555619Y-79478190D01*
X187746095Y-79430571D01*
X187841333Y-79382952D01*
X187888952Y-79335333D01*
X187936571Y-79240095D01*
X187936571Y-79144857D01*
X187888952Y-79049619D01*
X187841333Y-79002000D01*
X187746095Y-78954380D01*
X187508000Y-78954380D01*
X187365142Y-79002000D01*
%TO.C,R11*%
X201048857Y-81224380D02*
X201382190Y-80748190D01*
X201620285Y-81224380D02*
X201620285Y-80224380D01*
X201239333Y-80224380D01*
X201144095Y-80272000D01*
X201096476Y-80319619D01*
X201048857Y-80414857D01*
X201048857Y-80557714D01*
X201096476Y-80652952D01*
X201144095Y-80700571D01*
X201239333Y-80748190D01*
X201620285Y-80748190D01*
X200096476Y-81224380D02*
X200667904Y-81224380D01*
X200382190Y-81224380D02*
X200382190Y-80224380D01*
X200477428Y-80367238D01*
X200572666Y-80462476D01*
X200667904Y-80510095D01*
X199144095Y-81224380D02*
X199715523Y-81224380D01*
X199429809Y-81224380D02*
X199429809Y-80224380D01*
X199525047Y-80367238D01*
X199620285Y-80462476D01*
X199715523Y-80510095D01*
%TO.C,R10*%
X200794857Y-88082380D02*
X201128190Y-87606190D01*
X201366285Y-88082380D02*
X201366285Y-87082380D01*
X200985333Y-87082380D01*
X200890095Y-87130000D01*
X200842476Y-87177619D01*
X200794857Y-87272857D01*
X200794857Y-87415714D01*
X200842476Y-87510952D01*
X200890095Y-87558571D01*
X200985333Y-87606190D01*
X201366285Y-87606190D01*
X199842476Y-88082380D02*
X200413904Y-88082380D01*
X200128190Y-88082380D02*
X200128190Y-87082380D01*
X200223428Y-87225238D01*
X200318666Y-87320476D01*
X200413904Y-87368095D01*
X199223428Y-87082380D02*
X199128190Y-87082380D01*
X199032952Y-87130000D01*
X198985333Y-87177619D01*
X198937714Y-87272857D01*
X198890095Y-87463333D01*
X198890095Y-87701428D01*
X198937714Y-87891904D01*
X198985333Y-87987142D01*
X199032952Y-88034761D01*
X199128190Y-88082380D01*
X199223428Y-88082380D01*
X199318666Y-88034761D01*
X199366285Y-87987142D01*
X199413904Y-87891904D01*
X199461523Y-87701428D01*
X199461523Y-87463333D01*
X199413904Y-87272857D01*
X199366285Y-87177619D01*
X199318666Y-87130000D01*
X199223428Y-87082380D01*
%TO.C,R9*%
X200826666Y-83002380D02*
X201160000Y-82526190D01*
X201398095Y-83002380D02*
X201398095Y-82002380D01*
X201017142Y-82002380D01*
X200921904Y-82050000D01*
X200874285Y-82097619D01*
X200826666Y-82192857D01*
X200826666Y-82335714D01*
X200874285Y-82430952D01*
X200921904Y-82478571D01*
X201017142Y-82526190D01*
X201398095Y-82526190D01*
X200350476Y-83002380D02*
X200160000Y-83002380D01*
X200064761Y-82954761D01*
X200017142Y-82907142D01*
X199921904Y-82764285D01*
X199874285Y-82573809D01*
X199874285Y-82192857D01*
X199921904Y-82097619D01*
X199969523Y-82050000D01*
X200064761Y-82002380D01*
X200255238Y-82002380D01*
X200350476Y-82050000D01*
X200398095Y-82097619D01*
X200445714Y-82192857D01*
X200445714Y-82430952D01*
X200398095Y-82526190D01*
X200350476Y-82573809D01*
X200255238Y-82621428D01*
X200064761Y-82621428D01*
X199969523Y-82573809D01*
X199921904Y-82526190D01*
X199874285Y-82430952D01*
%TO.C,D4*%
X152376095Y-71318380D02*
X152376095Y-70318380D01*
X152138000Y-70318380D01*
X151995142Y-70366000D01*
X151899904Y-70461238D01*
X151852285Y-70556476D01*
X151804666Y-70746952D01*
X151804666Y-70889809D01*
X151852285Y-71080285D01*
X151899904Y-71175523D01*
X151995142Y-71270761D01*
X152138000Y-71318380D01*
X152376095Y-71318380D01*
X150947523Y-70651714D02*
X150947523Y-71318380D01*
X151185619Y-70270761D02*
X151423714Y-70985047D01*
X150804666Y-70985047D01*
%TO.C,C18*%
X200794857Y-86971142D02*
X200842476Y-87018761D01*
X200985333Y-87066380D01*
X201080571Y-87066380D01*
X201223428Y-87018761D01*
X201318666Y-86923523D01*
X201366285Y-86828285D01*
X201413904Y-86637809D01*
X201413904Y-86494952D01*
X201366285Y-86304476D01*
X201318666Y-86209238D01*
X201223428Y-86114000D01*
X201080571Y-86066380D01*
X200985333Y-86066380D01*
X200842476Y-86114000D01*
X200794857Y-86161619D01*
X199842476Y-87066380D02*
X200413904Y-87066380D01*
X200128190Y-87066380D02*
X200128190Y-86066380D01*
X200223428Y-86209238D01*
X200318666Y-86304476D01*
X200413904Y-86352095D01*
X199271047Y-86494952D02*
X199366285Y-86447333D01*
X199413904Y-86399714D01*
X199461523Y-86304476D01*
X199461523Y-86256857D01*
X199413904Y-86161619D01*
X199366285Y-86114000D01*
X199271047Y-86066380D01*
X199080571Y-86066380D01*
X198985333Y-86114000D01*
X198937714Y-86161619D01*
X198890095Y-86256857D01*
X198890095Y-86304476D01*
X198937714Y-86399714D01*
X198985333Y-86447333D01*
X199080571Y-86494952D01*
X199271047Y-86494952D01*
X199366285Y-86542571D01*
X199413904Y-86590190D01*
X199461523Y-86685428D01*
X199461523Y-86875904D01*
X199413904Y-86971142D01*
X199366285Y-87018761D01*
X199271047Y-87066380D01*
X199080571Y-87066380D01*
X198985333Y-87018761D01*
X198937714Y-86971142D01*
X198890095Y-86875904D01*
X198890095Y-86685428D01*
X198937714Y-86590190D01*
X198985333Y-86542571D01*
X199080571Y-86494952D01*
%TO.C,C17*%
X201810857Y-85447142D02*
X201858476Y-85494761D01*
X202001333Y-85542380D01*
X202096571Y-85542380D01*
X202239428Y-85494761D01*
X202334666Y-85399523D01*
X202382285Y-85304285D01*
X202429904Y-85113809D01*
X202429904Y-84970952D01*
X202382285Y-84780476D01*
X202334666Y-84685238D01*
X202239428Y-84590000D01*
X202096571Y-84542380D01*
X202001333Y-84542380D01*
X201858476Y-84590000D01*
X201810857Y-84637619D01*
X200858476Y-85542380D02*
X201429904Y-85542380D01*
X201144190Y-85542380D02*
X201144190Y-84542380D01*
X201239428Y-84685238D01*
X201334666Y-84780476D01*
X201429904Y-84828095D01*
X200525142Y-84542380D02*
X199858476Y-84542380D01*
X200287047Y-85542380D01*
%TO.C,C16*%
X201048857Y-79605142D02*
X201096476Y-79652761D01*
X201239333Y-79700380D01*
X201334571Y-79700380D01*
X201477428Y-79652761D01*
X201572666Y-79557523D01*
X201620285Y-79462285D01*
X201667904Y-79271809D01*
X201667904Y-79128952D01*
X201620285Y-78938476D01*
X201572666Y-78843238D01*
X201477428Y-78748000D01*
X201334571Y-78700380D01*
X201239333Y-78700380D01*
X201096476Y-78748000D01*
X201048857Y-78795619D01*
X200096476Y-79700380D02*
X200667904Y-79700380D01*
X200382190Y-79700380D02*
X200382190Y-78700380D01*
X200477428Y-78843238D01*
X200572666Y-78938476D01*
X200667904Y-78986095D01*
X199239333Y-78700380D02*
X199429809Y-78700380D01*
X199525047Y-78748000D01*
X199572666Y-78795619D01*
X199667904Y-78938476D01*
X199715523Y-79128952D01*
X199715523Y-79509904D01*
X199667904Y-79605142D01*
X199620285Y-79652761D01*
X199525047Y-79700380D01*
X199334571Y-79700380D01*
X199239333Y-79652761D01*
X199191714Y-79605142D01*
X199144095Y-79509904D01*
X199144095Y-79271809D01*
X199191714Y-79176571D01*
X199239333Y-79128952D01*
X199334571Y-79081333D01*
X199525047Y-79081333D01*
X199620285Y-79128952D01*
X199667904Y-79176571D01*
X199715523Y-79271809D01*
%TO.C,R7*%
X179776380Y-97115333D02*
X179300190Y-96782000D01*
X179776380Y-96543904D02*
X178776380Y-96543904D01*
X178776380Y-96924857D01*
X178824000Y-97020095D01*
X178871619Y-97067714D01*
X178966857Y-97115333D01*
X179109714Y-97115333D01*
X179204952Y-97067714D01*
X179252571Y-97020095D01*
X179300190Y-96924857D01*
X179300190Y-96543904D01*
X178776380Y-97448666D02*
X178776380Y-98115333D01*
X179776380Y-97686761D01*
%TO.C,Q3*%
X179927238Y-100115619D02*
X180022476Y-100068000D01*
X180117714Y-99972761D01*
X180260571Y-99829904D01*
X180355809Y-99782285D01*
X180451047Y-99782285D01*
X180403428Y-100020380D02*
X180498666Y-99972761D01*
X180593904Y-99877523D01*
X180641523Y-99687047D01*
X180641523Y-99353714D01*
X180593904Y-99163238D01*
X180498666Y-99068000D01*
X180403428Y-99020380D01*
X180212952Y-99020380D01*
X180117714Y-99068000D01*
X180022476Y-99163238D01*
X179974857Y-99353714D01*
X179974857Y-99687047D01*
X180022476Y-99877523D01*
X180117714Y-99972761D01*
X180212952Y-100020380D01*
X180403428Y-100020380D01*
X179641523Y-99020380D02*
X179022476Y-99020380D01*
X179355809Y-99401333D01*
X179212952Y-99401333D01*
X179117714Y-99448952D01*
X179070095Y-99496571D01*
X179022476Y-99591809D01*
X179022476Y-99829904D01*
X179070095Y-99925142D01*
X179117714Y-99972761D01*
X179212952Y-100020380D01*
X179498666Y-100020380D01*
X179593904Y-99972761D01*
X179641523Y-99925142D01*
%TO.C,K1*%
X191340095Y-109250380D02*
X191340095Y-108250380D01*
X190768666Y-109250380D02*
X191197238Y-108678952D01*
X190768666Y-108250380D02*
X191340095Y-108821809D01*
X189816285Y-109250380D02*
X190387714Y-109250380D01*
X190102000Y-109250380D02*
X190102000Y-108250380D01*
X190197238Y-108393238D01*
X190292476Y-108488476D01*
X190387714Y-108536095D01*
%TO.C,U1*%
X144017904Y-75906380D02*
X144017904Y-76715904D01*
X143970285Y-76811142D01*
X143922666Y-76858761D01*
X143827428Y-76906380D01*
X143636952Y-76906380D01*
X143541714Y-76858761D01*
X143494095Y-76811142D01*
X143446476Y-76715904D01*
X143446476Y-75906380D01*
X142446476Y-76906380D02*
X143017904Y-76906380D01*
X142732190Y-76906380D02*
X142732190Y-75906380D01*
X142827428Y-76049238D01*
X142922666Y-76144476D01*
X143017904Y-76192095D01*
%TO.C,TP1*%
X132032190Y-74636380D02*
X131413142Y-74636380D01*
X131746476Y-75017333D01*
X131603619Y-75017333D01*
X131508380Y-75064952D01*
X131460761Y-75112571D01*
X131413142Y-75207809D01*
X131413142Y-75445904D01*
X131460761Y-75541142D01*
X131508380Y-75588761D01*
X131603619Y-75636380D01*
X131889333Y-75636380D01*
X131984571Y-75588761D01*
X132032190Y-75541142D01*
X130984571Y-75541142D02*
X130936952Y-75588761D01*
X130984571Y-75636380D01*
X131032190Y-75588761D01*
X130984571Y-75541142D01*
X130984571Y-75636380D01*
X130603619Y-74636380D02*
X129984571Y-74636380D01*
X130317904Y-75017333D01*
X130175047Y-75017333D01*
X130079809Y-75064952D01*
X130032190Y-75112571D01*
X129984571Y-75207809D01*
X129984571Y-75445904D01*
X130032190Y-75541142D01*
X130079809Y-75588761D01*
X130175047Y-75636380D01*
X130460761Y-75636380D01*
X130556000Y-75588761D01*
X130603619Y-75541142D01*
X129698857Y-74636380D02*
X129365523Y-75636380D01*
X129032190Y-74636380D01*
%TO.C,R5*%
X199334380Y-77049332D02*
X198858190Y-76715999D01*
X199334380Y-76477903D02*
X198334380Y-76477903D01*
X198334380Y-76858856D01*
X198382000Y-76954094D01*
X198429619Y-77001713D01*
X198524857Y-77049332D01*
X198667714Y-77049332D01*
X198762952Y-77001713D01*
X198810571Y-76954094D01*
X198858190Y-76858856D01*
X198858190Y-76477903D01*
X198334380Y-77954094D02*
X198334380Y-77477903D01*
X198810571Y-77430284D01*
X198762952Y-77477903D01*
X198715333Y-77573141D01*
X198715333Y-77811237D01*
X198762952Y-77906475D01*
X198810571Y-77954094D01*
X198905809Y-78001713D01*
X199143904Y-78001713D01*
X199239142Y-77954094D01*
X199286761Y-77906475D01*
X199334380Y-77811237D01*
X199334380Y-77573141D01*
X199286761Y-77477903D01*
X199239142Y-77430284D01*
%TO.C,L1*%
X137866380Y-76541333D02*
X137866380Y-76065142D01*
X136866380Y-76065142D01*
X137866380Y-77398476D02*
X137866380Y-76827047D01*
X137866380Y-77112761D02*
X136866380Y-77112761D01*
X137009238Y-77017523D01*
X137104476Y-76922285D01*
X137152095Y-76827047D01*
%TO.C,D3*%
X135726657Y-86155904D02*
X134726657Y-86155904D01*
X134726657Y-86394000D01*
X134774277Y-86536857D01*
X134869515Y-86632095D01*
X134964753Y-86679714D01*
X135155229Y-86727333D01*
X135298086Y-86727333D01*
X135488562Y-86679714D01*
X135583800Y-86632095D01*
X135679038Y-86536857D01*
X135726657Y-86394000D01*
X135726657Y-86155904D01*
X134726657Y-87060666D02*
X134726657Y-87679714D01*
X135107610Y-87346380D01*
X135107610Y-87489238D01*
X135155229Y-87584476D01*
X135202848Y-87632095D01*
X135298086Y-87679714D01*
X135536181Y-87679714D01*
X135631419Y-87632095D01*
X135679038Y-87584476D01*
X135726657Y-87489238D01*
X135726657Y-87203523D01*
X135679038Y-87108285D01*
X135631419Y-87060666D01*
%TO.C,C14*%
X147775142Y-68953142D02*
X147822761Y-68905523D01*
X147870380Y-68762666D01*
X147870380Y-68667428D01*
X147822761Y-68524571D01*
X147727523Y-68429333D01*
X147632285Y-68381714D01*
X147441809Y-68334095D01*
X147298952Y-68334095D01*
X147108476Y-68381714D01*
X147013238Y-68429333D01*
X146918000Y-68524571D01*
X146870380Y-68667428D01*
X146870380Y-68762666D01*
X146918000Y-68905523D01*
X146965619Y-68953142D01*
X147870380Y-69905523D02*
X147870380Y-69334095D01*
X147870380Y-69619809D02*
X146870380Y-69619809D01*
X147013238Y-69524571D01*
X147108476Y-69429333D01*
X147156095Y-69334095D01*
X147203714Y-70762666D02*
X147870380Y-70762666D01*
X146822761Y-70524571D02*
X147537047Y-70286476D01*
X147537047Y-70905523D01*
%TO.C,C6*%
X153519142Y-79589333D02*
X153566761Y-79541714D01*
X153614380Y-79398857D01*
X153614380Y-79303619D01*
X153566761Y-79160761D01*
X153471523Y-79065523D01*
X153376285Y-79017904D01*
X153185809Y-78970285D01*
X153042952Y-78970285D01*
X152852476Y-79017904D01*
X152757238Y-79065523D01*
X152662000Y-79160761D01*
X152614380Y-79303619D01*
X152614380Y-79398857D01*
X152662000Y-79541714D01*
X152709619Y-79589333D01*
X152614380Y-80446476D02*
X152614380Y-80256000D01*
X152662000Y-80160761D01*
X152709619Y-80113142D01*
X152852476Y-80017904D01*
X153042952Y-79970285D01*
X153423904Y-79970285D01*
X153519142Y-80017904D01*
X153566761Y-80065523D01*
X153614380Y-80160761D01*
X153614380Y-80351238D01*
X153566761Y-80446476D01*
X153519142Y-80494095D01*
X153423904Y-80541714D01*
X153185809Y-80541714D01*
X153090571Y-80494095D01*
X153042952Y-80446476D01*
X152995333Y-80351238D01*
X152995333Y-80160761D01*
X153042952Y-80065523D01*
X153090571Y-80017904D01*
X153185809Y-79970285D01*
%TO.C,C5*%
X147994666Y-86463142D02*
X148042285Y-86510761D01*
X148185142Y-86558380D01*
X148280380Y-86558380D01*
X148423238Y-86510761D01*
X148518476Y-86415523D01*
X148566095Y-86320285D01*
X148613714Y-86129809D01*
X148613714Y-85986952D01*
X148566095Y-85796476D01*
X148518476Y-85701238D01*
X148423238Y-85606000D01*
X148280380Y-85558380D01*
X148185142Y-85558380D01*
X148042285Y-85606000D01*
X147994666Y-85653619D01*
X147089904Y-85558380D02*
X147566095Y-85558380D01*
X147613714Y-86034571D01*
X147566095Y-85986952D01*
X147470857Y-85939333D01*
X147232761Y-85939333D01*
X147137523Y-85986952D01*
X147089904Y-86034571D01*
X147042285Y-86129809D01*
X147042285Y-86367904D01*
X147089904Y-86463142D01*
X147137523Y-86510761D01*
X147232761Y-86558380D01*
X147470857Y-86558380D01*
X147566095Y-86510761D01*
X147613714Y-86463142D01*
%TO.C,C1*%
X197969142Y-77049333D02*
X198016761Y-77001714D01*
X198064380Y-76858857D01*
X198064380Y-76763619D01*
X198016761Y-76620761D01*
X197921523Y-76525523D01*
X197826285Y-76477904D01*
X197635809Y-76430285D01*
X197492952Y-76430285D01*
X197302476Y-76477904D01*
X197207238Y-76525523D01*
X197112000Y-76620761D01*
X197064380Y-76763619D01*
X197064380Y-76858857D01*
X197112000Y-77001714D01*
X197159619Y-77049333D01*
X198064380Y-78001714D02*
X198064380Y-77430285D01*
X198064380Y-77716000D02*
X197064380Y-77716000D01*
X197207238Y-77620761D01*
X197302476Y-77525523D01*
X197350095Y-77430285D01*
%TD*%
M02*
