%TF.GenerationSoftware,KiCad,Pcbnew,(5.1.10-1-10_14)*%
%TF.CreationDate,2022-07-31T12:18:55+02:00*%
%TF.ProjectId,RO Flow Counter,524f2046-6c6f-4772-9043-6f756e746572,rev?*%
%TF.SameCoordinates,Original*%
%TF.FileFunction,Soldermask,Bot*%
%TF.FilePolarity,Negative*%
%FSLAX46Y46*%
G04 Gerber Fmt 4.6, Leading zero omitted, Abs format (unit mm)*
G04 Created by KiCad (PCBNEW (5.1.10-1-10_14)) date 2022-07-31 12:18:55*
%MOMM*%
%LPD*%
G01*
G04 APERTURE LIST*
%ADD10C,3.500000*%
%ADD11C,1.500000*%
%ADD12R,0.900000X1.200000*%
%ADD13O,1.700000X1.700000*%
%ADD14R,1.700000X1.700000*%
%ADD15R,2.000000X0.900000*%
%ADD16R,0.900000X2.000000*%
%ADD17R,5.000000X5.000000*%
%ADD18O,1.700000X1.950000*%
%ADD19R,0.900000X1.000000*%
%ADD20R,0.800000X0.900000*%
%ADD21R,3.500000X3.500000*%
%ADD22O,1.350000X1.350000*%
%ADD23R,1.350000X1.350000*%
%ADD24R,0.900000X0.800000*%
%ADD25C,2.300000*%
%ADD26R,2.300000X2.300000*%
%ADD27R,2.000000X2.000000*%
%ADD28C,2.000000*%
%ADD29C,3.200000*%
%ADD30C,5.600000*%
%ADD31R,1.200000X0.900000*%
%ADD32C,1.600000*%
%ADD33R,1.600000X1.600000*%
G04 APERTURE END LIST*
D10*
%TO.C,J7*%
X212740000Y-99060000D03*
G36*
G01*
X203990000Y-100559999D02*
X203990000Y-97560001D01*
G75*
G02*
X204240001Y-97310000I250001J0D01*
G01*
X207239999Y-97310000D01*
G75*
G02*
X207490000Y-97560001I0J-250001D01*
G01*
X207490000Y-100559999D01*
G75*
G02*
X207239999Y-100810000I-250001J0D01*
G01*
X204240001Y-100810000D01*
G75*
G02*
X203990000Y-100559999I0J250001D01*
G01*
G37*
%TD*%
%TO.C,R20*%
G36*
G01*
X174567000Y-101586000D02*
X174937000Y-101586000D01*
G75*
G02*
X175072000Y-101721000I0J-135000D01*
G01*
X175072000Y-101991000D01*
G75*
G02*
X174937000Y-102126000I-135000J0D01*
G01*
X174567000Y-102126000D01*
G75*
G02*
X174432000Y-101991000I0J135000D01*
G01*
X174432000Y-101721000D01*
G75*
G02*
X174567000Y-101586000I135000J0D01*
G01*
G37*
G36*
G01*
X174567000Y-100566000D02*
X174937000Y-100566000D01*
G75*
G02*
X175072000Y-100701000I0J-135000D01*
G01*
X175072000Y-100971000D01*
G75*
G02*
X174937000Y-101106000I-135000J0D01*
G01*
X174567000Y-101106000D01*
G75*
G02*
X174432000Y-100971000I0J135000D01*
G01*
X174432000Y-100701000D01*
G75*
G02*
X174567000Y-100566000I135000J0D01*
G01*
G37*
%TD*%
D11*
%TO.C,TP9*%
X154432000Y-72136000D03*
%TD*%
%TO.C,TP7*%
X139446000Y-72136000D03*
%TD*%
%TO.C,R19*%
G36*
G01*
X156704000Y-70035000D02*
X156704000Y-69665000D01*
G75*
G02*
X156839000Y-69530000I135000J0D01*
G01*
X157109000Y-69530000D01*
G75*
G02*
X157244000Y-69665000I0J-135000D01*
G01*
X157244000Y-70035000D01*
G75*
G02*
X157109000Y-70170000I-135000J0D01*
G01*
X156839000Y-70170000D01*
G75*
G02*
X156704000Y-70035000I0J135000D01*
G01*
G37*
G36*
G01*
X155684000Y-70035000D02*
X155684000Y-69665000D01*
G75*
G02*
X155819000Y-69530000I135000J0D01*
G01*
X156089000Y-69530000D01*
G75*
G02*
X156224000Y-69665000I0J-135000D01*
G01*
X156224000Y-70035000D01*
G75*
G02*
X156089000Y-70170000I-135000J0D01*
G01*
X155819000Y-70170000D01*
G75*
G02*
X155684000Y-70035000I0J135000D01*
G01*
G37*
%TD*%
%TO.C,R18*%
G36*
G01*
X137174000Y-69411000D02*
X137174000Y-69781000D01*
G75*
G02*
X137039000Y-69916000I-135000J0D01*
G01*
X136769000Y-69916000D01*
G75*
G02*
X136634000Y-69781000I0J135000D01*
G01*
X136634000Y-69411000D01*
G75*
G02*
X136769000Y-69276000I135000J0D01*
G01*
X137039000Y-69276000D01*
G75*
G02*
X137174000Y-69411000I0J-135000D01*
G01*
G37*
G36*
G01*
X138194000Y-69411000D02*
X138194000Y-69781000D01*
G75*
G02*
X138059000Y-69916000I-135000J0D01*
G01*
X137789000Y-69916000D01*
G75*
G02*
X137654000Y-69781000I0J135000D01*
G01*
X137654000Y-69411000D01*
G75*
G02*
X137789000Y-69276000I135000J0D01*
G01*
X138059000Y-69276000D01*
G75*
G02*
X138194000Y-69411000I0J-135000D01*
G01*
G37*
%TD*%
%TO.C,R17*%
G36*
G01*
X162574000Y-83889000D02*
X162574000Y-84259000D01*
G75*
G02*
X162439000Y-84394000I-135000J0D01*
G01*
X162169000Y-84394000D01*
G75*
G02*
X162034000Y-84259000I0J135000D01*
G01*
X162034000Y-83889000D01*
G75*
G02*
X162169000Y-83754000I135000J0D01*
G01*
X162439000Y-83754000D01*
G75*
G02*
X162574000Y-83889000I0J-135000D01*
G01*
G37*
G36*
G01*
X163594000Y-83889000D02*
X163594000Y-84259000D01*
G75*
G02*
X163459000Y-84394000I-135000J0D01*
G01*
X163189000Y-84394000D01*
G75*
G02*
X163054000Y-84259000I0J135000D01*
G01*
X163054000Y-83889000D01*
G75*
G02*
X163189000Y-83754000I135000J0D01*
G01*
X163459000Y-83754000D01*
G75*
G02*
X163594000Y-83889000I0J-135000D01*
G01*
G37*
%TD*%
%TO.C,R16*%
G36*
G01*
X162574000Y-85159000D02*
X162574000Y-85529000D01*
G75*
G02*
X162439000Y-85664000I-135000J0D01*
G01*
X162169000Y-85664000D01*
G75*
G02*
X162034000Y-85529000I0J135000D01*
G01*
X162034000Y-85159000D01*
G75*
G02*
X162169000Y-85024000I135000J0D01*
G01*
X162439000Y-85024000D01*
G75*
G02*
X162574000Y-85159000I0J-135000D01*
G01*
G37*
G36*
G01*
X163594000Y-85159000D02*
X163594000Y-85529000D01*
G75*
G02*
X163459000Y-85664000I-135000J0D01*
G01*
X163189000Y-85664000D01*
G75*
G02*
X163054000Y-85529000I0J135000D01*
G01*
X163054000Y-85159000D01*
G75*
G02*
X163189000Y-85024000I135000J0D01*
G01*
X163459000Y-85024000D01*
G75*
G02*
X163594000Y-85159000I0J-135000D01*
G01*
G37*
%TD*%
%TO.C,R15*%
G36*
G01*
X156224000Y-68141000D02*
X156224000Y-68511000D01*
G75*
G02*
X156089000Y-68646000I-135000J0D01*
G01*
X155819000Y-68646000D01*
G75*
G02*
X155684000Y-68511000I0J135000D01*
G01*
X155684000Y-68141000D01*
G75*
G02*
X155819000Y-68006000I135000J0D01*
G01*
X156089000Y-68006000D01*
G75*
G02*
X156224000Y-68141000I0J-135000D01*
G01*
G37*
G36*
G01*
X157244000Y-68141000D02*
X157244000Y-68511000D01*
G75*
G02*
X157109000Y-68646000I-135000J0D01*
G01*
X156839000Y-68646000D01*
G75*
G02*
X156704000Y-68511000I0J135000D01*
G01*
X156704000Y-68141000D01*
G75*
G02*
X156839000Y-68006000I135000J0D01*
G01*
X157109000Y-68006000D01*
G75*
G02*
X157244000Y-68141000I0J-135000D01*
G01*
G37*
%TD*%
%TO.C,R8*%
G36*
G01*
X137652000Y-68511000D02*
X137652000Y-68141000D01*
G75*
G02*
X137787000Y-68006000I135000J0D01*
G01*
X138057000Y-68006000D01*
G75*
G02*
X138192000Y-68141000I0J-135000D01*
G01*
X138192000Y-68511000D01*
G75*
G02*
X138057000Y-68646000I-135000J0D01*
G01*
X137787000Y-68646000D01*
G75*
G02*
X137652000Y-68511000I0J135000D01*
G01*
G37*
G36*
G01*
X136632000Y-68511000D02*
X136632000Y-68141000D01*
G75*
G02*
X136767000Y-68006000I135000J0D01*
G01*
X137037000Y-68006000D01*
G75*
G02*
X137172000Y-68141000I0J-135000D01*
G01*
X137172000Y-68511000D01*
G75*
G02*
X137037000Y-68646000I-135000J0D01*
G01*
X136767000Y-68646000D01*
G75*
G02*
X136632000Y-68511000I0J135000D01*
G01*
G37*
%TD*%
D12*
%TO.C,D5*%
X142874000Y-69088000D03*
X139574000Y-69088000D03*
%TD*%
D13*
%TO.C,J1*%
X198882000Y-84582000D03*
D14*
X198882000Y-82042000D03*
%TD*%
D15*
%TO.C,U2*%
X165744000Y-75311000D03*
X165744000Y-76581000D03*
X165744000Y-77851000D03*
X165744000Y-79121000D03*
X165744000Y-80391000D03*
X165744000Y-81661000D03*
X165744000Y-82931000D03*
X165744000Y-84201000D03*
X165744000Y-85471000D03*
X165744000Y-86741000D03*
X165744000Y-88011000D03*
X165744000Y-89281000D03*
X165744000Y-90551000D03*
X165744000Y-91821000D03*
D16*
X168529000Y-92821000D03*
X169799000Y-92821000D03*
X171069000Y-92821000D03*
X172339000Y-92821000D03*
X173609000Y-92821000D03*
X174879000Y-92821000D03*
X176149000Y-92821000D03*
X177419000Y-92821000D03*
X178689000Y-92821000D03*
X179959000Y-92821000D03*
D15*
X182744000Y-91821000D03*
X182744000Y-90551000D03*
X182744000Y-89281000D03*
X182744000Y-88011000D03*
X182744000Y-86741000D03*
X182744000Y-85471000D03*
X182744000Y-84201000D03*
X182744000Y-82931000D03*
X182744000Y-81661000D03*
X182744000Y-80391000D03*
X182744000Y-79121000D03*
X182744000Y-77851000D03*
X182744000Y-76581000D03*
X182744000Y-75311000D03*
D17*
X175244000Y-82811000D03*
%TD*%
%TO.C,R14*%
G36*
G01*
X155517000Y-91786624D02*
X155887000Y-91786624D01*
G75*
G02*
X156022000Y-91921624I0J-135000D01*
G01*
X156022000Y-92191624D01*
G75*
G02*
X155887000Y-92326624I-135000J0D01*
G01*
X155517000Y-92326624D01*
G75*
G02*
X155382000Y-92191624I0J135000D01*
G01*
X155382000Y-91921624D01*
G75*
G02*
X155517000Y-91786624I135000J0D01*
G01*
G37*
G36*
G01*
X155517000Y-90766624D02*
X155887000Y-90766624D01*
G75*
G02*
X156022000Y-90901624I0J-135000D01*
G01*
X156022000Y-91171624D01*
G75*
G02*
X155887000Y-91306624I-135000J0D01*
G01*
X155517000Y-91306624D01*
G75*
G02*
X155382000Y-91171624I0J135000D01*
G01*
X155382000Y-90901624D01*
G75*
G02*
X155517000Y-90766624I135000J0D01*
G01*
G37*
%TD*%
%TO.C,R13*%
G36*
G01*
X155887000Y-87898000D02*
X155517000Y-87898000D01*
G75*
G02*
X155382000Y-87763000I0J135000D01*
G01*
X155382000Y-87493000D01*
G75*
G02*
X155517000Y-87358000I135000J0D01*
G01*
X155887000Y-87358000D01*
G75*
G02*
X156022000Y-87493000I0J-135000D01*
G01*
X156022000Y-87763000D01*
G75*
G02*
X155887000Y-87898000I-135000J0D01*
G01*
G37*
G36*
G01*
X155887000Y-88918000D02*
X155517000Y-88918000D01*
G75*
G02*
X155382000Y-88783000I0J135000D01*
G01*
X155382000Y-88513000D01*
G75*
G02*
X155517000Y-88378000I135000J0D01*
G01*
X155887000Y-88378000D01*
G75*
G02*
X156022000Y-88513000I0J-135000D01*
G01*
X156022000Y-88783000D01*
G75*
G02*
X155887000Y-88918000I-135000J0D01*
G01*
G37*
%TD*%
D18*
%TO.C,J6*%
X144406000Y-62738000D03*
X141906000Y-62738000D03*
X139406000Y-62738000D03*
G36*
G01*
X136056000Y-63463000D02*
X136056000Y-62013000D01*
G75*
G02*
X136306000Y-61763000I250000J0D01*
G01*
X137506000Y-61763000D01*
G75*
G02*
X137756000Y-62013000I0J-250000D01*
G01*
X137756000Y-63463000D01*
G75*
G02*
X137506000Y-63713000I-250000J0D01*
G01*
X136306000Y-63713000D01*
G75*
G02*
X136056000Y-63463000I0J250000D01*
G01*
G37*
%TD*%
%TO.C,J5*%
X157000000Y-62738000D03*
X154500000Y-62738000D03*
G36*
G01*
X151150000Y-63463000D02*
X151150000Y-62013000D01*
G75*
G02*
X151400000Y-61763000I250000J0D01*
G01*
X152600000Y-61763000D01*
G75*
G02*
X152850000Y-62013000I0J-250000D01*
G01*
X152850000Y-63463000D01*
G75*
G02*
X152600000Y-63713000I-250000J0D01*
G01*
X151400000Y-63713000D01*
G75*
G02*
X151150000Y-63463000I0J250000D01*
G01*
G37*
%TD*%
D19*
%TO.C,SW4*%
X157444000Y-93548000D03*
X157444000Y-91948000D03*
X161544000Y-93548000D03*
X161544000Y-91948000D03*
%TD*%
%TO.C,SW3*%
X161562000Y-87592000D03*
X161562000Y-89192000D03*
X157462000Y-87592000D03*
X157462000Y-89192000D03*
%TD*%
%TO.C,C19*%
G36*
G01*
X186636000Y-76878000D02*
X186636000Y-76538000D01*
G75*
G02*
X186776000Y-76398000I140000J0D01*
G01*
X187056000Y-76398000D01*
G75*
G02*
X187196000Y-76538000I0J-140000D01*
G01*
X187196000Y-76878000D01*
G75*
G02*
X187056000Y-77018000I-140000J0D01*
G01*
X186776000Y-77018000D01*
G75*
G02*
X186636000Y-76878000I0J140000D01*
G01*
G37*
G36*
G01*
X185676000Y-76878000D02*
X185676000Y-76538000D01*
G75*
G02*
X185816000Y-76398000I140000J0D01*
G01*
X186096000Y-76398000D01*
G75*
G02*
X186236000Y-76538000I0J-140000D01*
G01*
X186236000Y-76878000D01*
G75*
G02*
X186096000Y-77018000I-140000J0D01*
G01*
X185816000Y-77018000D01*
G75*
G02*
X185676000Y-76878000I0J140000D01*
G01*
G37*
%TD*%
D13*
%TO.C,J8*%
X150876000Y-92456000D03*
X150876000Y-89916000D03*
X150876000Y-87376000D03*
D14*
X150876000Y-84836000D03*
%TD*%
D11*
%TO.C,TP12*%
X194310000Y-94742000D03*
%TD*%
%TO.C,R12*%
G36*
G01*
X199148001Y-93033000D02*
X199148001Y-93403000D01*
G75*
G02*
X199013001Y-93538000I-135000J0D01*
G01*
X198743001Y-93538000D01*
G75*
G02*
X198608001Y-93403000I0J135000D01*
G01*
X198608001Y-93033000D01*
G75*
G02*
X198743001Y-92898000I135000J0D01*
G01*
X199013001Y-92898000D01*
G75*
G02*
X199148001Y-93033000I0J-135000D01*
G01*
G37*
G36*
G01*
X200168001Y-93033000D02*
X200168001Y-93403000D01*
G75*
G02*
X200033001Y-93538000I-135000J0D01*
G01*
X199763001Y-93538000D01*
G75*
G02*
X199628001Y-93403000I0J135000D01*
G01*
X199628001Y-93033000D01*
G75*
G02*
X199763001Y-92898000I135000J0D01*
G01*
X200033001Y-92898000D01*
G75*
G02*
X200168001Y-93033000I0J-135000D01*
G01*
G37*
%TD*%
D20*
%TO.C,Q4*%
X198882000Y-89678000D03*
X197932000Y-91678000D03*
X199832000Y-91678000D03*
%TD*%
D11*
%TO.C,TP5*%
X194310000Y-88138000D03*
%TD*%
%TO.C,TP3*%
X194056000Y-84328000D03*
%TD*%
%TO.C,TP2*%
X194056000Y-77216000D03*
%TD*%
%TO.C,R11*%
G36*
G01*
X202930000Y-80957000D02*
X202930000Y-80587000D01*
G75*
G02*
X203065000Y-80452000I135000J0D01*
G01*
X203335000Y-80452000D01*
G75*
G02*
X203470000Y-80587000I0J-135000D01*
G01*
X203470000Y-80957000D01*
G75*
G02*
X203335000Y-81092000I-135000J0D01*
G01*
X203065000Y-81092000D01*
G75*
G02*
X202930000Y-80957000I0J135000D01*
G01*
G37*
G36*
G01*
X201910000Y-80957000D02*
X201910000Y-80587000D01*
G75*
G02*
X202045000Y-80452000I135000J0D01*
G01*
X202315000Y-80452000D01*
G75*
G02*
X202450000Y-80587000I0J-135000D01*
G01*
X202450000Y-80957000D01*
G75*
G02*
X202315000Y-81092000I-135000J0D01*
G01*
X202045000Y-81092000D01*
G75*
G02*
X201910000Y-80957000I0J135000D01*
G01*
G37*
%TD*%
%TO.C,R10*%
G36*
G01*
X202704001Y-87445000D02*
X202704001Y-87815000D01*
G75*
G02*
X202569001Y-87950000I-135000J0D01*
G01*
X202299001Y-87950000D01*
G75*
G02*
X202164001Y-87815000I0J135000D01*
G01*
X202164001Y-87445000D01*
G75*
G02*
X202299001Y-87310000I135000J0D01*
G01*
X202569001Y-87310000D01*
G75*
G02*
X202704001Y-87445000I0J-135000D01*
G01*
G37*
G36*
G01*
X203724001Y-87445000D02*
X203724001Y-87815000D01*
G75*
G02*
X203589001Y-87950000I-135000J0D01*
G01*
X203319001Y-87950000D01*
G75*
G02*
X203184001Y-87815000I0J135000D01*
G01*
X203184001Y-87445000D01*
G75*
G02*
X203319001Y-87310000I135000J0D01*
G01*
X203589001Y-87310000D01*
G75*
G02*
X203724001Y-87445000I0J-135000D01*
G01*
G37*
%TD*%
%TO.C,R9*%
G36*
G01*
X202452000Y-82365000D02*
X202452000Y-82735000D01*
G75*
G02*
X202317000Y-82870000I-135000J0D01*
G01*
X202047000Y-82870000D01*
G75*
G02*
X201912000Y-82735000I0J135000D01*
G01*
X201912000Y-82365000D01*
G75*
G02*
X202047000Y-82230000I135000J0D01*
G01*
X202317000Y-82230000D01*
G75*
G02*
X202452000Y-82365000I0J-135000D01*
G01*
G37*
G36*
G01*
X203472000Y-82365000D02*
X203472000Y-82735000D01*
G75*
G02*
X203337000Y-82870000I-135000J0D01*
G01*
X203067000Y-82870000D01*
G75*
G02*
X202932000Y-82735000I0J135000D01*
G01*
X202932000Y-82365000D01*
G75*
G02*
X203067000Y-82230000I135000J0D01*
G01*
X203337000Y-82230000D01*
G75*
G02*
X203472000Y-82365000I0J-135000D01*
G01*
G37*
%TD*%
D12*
%TO.C,D4*%
X151107274Y-68937274D03*
X154407274Y-68937274D03*
%TD*%
%TO.C,C18*%
G36*
G01*
X203118000Y-86530000D02*
X203118000Y-86190000D01*
G75*
G02*
X203258000Y-86050000I140000J0D01*
G01*
X203538000Y-86050000D01*
G75*
G02*
X203678000Y-86190000I0J-140000D01*
G01*
X203678000Y-86530000D01*
G75*
G02*
X203538000Y-86670000I-140000J0D01*
G01*
X203258000Y-86670000D01*
G75*
G02*
X203118000Y-86530000I0J140000D01*
G01*
G37*
G36*
G01*
X202158000Y-86530000D02*
X202158000Y-86190000D01*
G75*
G02*
X202298000Y-86050000I140000J0D01*
G01*
X202578000Y-86050000D01*
G75*
G02*
X202718000Y-86190000I0J-140000D01*
G01*
X202718000Y-86530000D01*
G75*
G02*
X202578000Y-86670000I-140000J0D01*
G01*
X202298000Y-86670000D01*
G75*
G02*
X202158000Y-86530000I0J140000D01*
G01*
G37*
%TD*%
%TO.C,C17*%
G36*
G01*
X201932000Y-83990000D02*
X201932000Y-83650000D01*
G75*
G02*
X202072000Y-83510000I140000J0D01*
G01*
X202352000Y-83510000D01*
G75*
G02*
X202492000Y-83650000I0J-140000D01*
G01*
X202492000Y-83990000D01*
G75*
G02*
X202352000Y-84130000I-140000J0D01*
G01*
X202072000Y-84130000D01*
G75*
G02*
X201932000Y-83990000I0J140000D01*
G01*
G37*
G36*
G01*
X202892000Y-83990000D02*
X202892000Y-83650000D01*
G75*
G02*
X203032000Y-83510000I140000J0D01*
G01*
X203312000Y-83510000D01*
G75*
G02*
X203452000Y-83650000I0J-140000D01*
G01*
X203452000Y-83990000D01*
G75*
G02*
X203312000Y-84130000I-140000J0D01*
G01*
X203032000Y-84130000D01*
G75*
G02*
X202892000Y-83990000I0J140000D01*
G01*
G37*
%TD*%
%TO.C,C16*%
G36*
G01*
X202864000Y-79418000D02*
X202864000Y-79078000D01*
G75*
G02*
X203004000Y-78938000I140000J0D01*
G01*
X203284000Y-78938000D01*
G75*
G02*
X203424000Y-79078000I0J-140000D01*
G01*
X203424000Y-79418000D01*
G75*
G02*
X203284000Y-79558000I-140000J0D01*
G01*
X203004000Y-79558000D01*
G75*
G02*
X202864000Y-79418000I0J140000D01*
G01*
G37*
G36*
G01*
X201904000Y-79418000D02*
X201904000Y-79078000D01*
G75*
G02*
X202044000Y-78938000I140000J0D01*
G01*
X202324000Y-78938000D01*
G75*
G02*
X202464000Y-79078000I0J-140000D01*
G01*
X202464000Y-79418000D01*
G75*
G02*
X202324000Y-79558000I-140000J0D01*
G01*
X202044000Y-79558000D01*
G75*
G02*
X201904000Y-79418000I0J140000D01*
G01*
G37*
%TD*%
%TO.C,J3*%
G36*
G01*
X140175000Y-100750000D02*
X138425000Y-100750000D01*
G75*
G02*
X137550000Y-99875000I0J875000D01*
G01*
X137550000Y-98125000D01*
G75*
G02*
X138425000Y-97250000I875000J0D01*
G01*
X140175000Y-97250000D01*
G75*
G02*
X141050000Y-98125000I0J-875000D01*
G01*
X141050000Y-99875000D01*
G75*
G02*
X140175000Y-100750000I-875000J0D01*
G01*
G37*
G36*
G01*
X145000000Y-103500000D02*
X143000000Y-103500000D01*
G75*
G02*
X142250000Y-102750000I0J750000D01*
G01*
X142250000Y-101250000D01*
G75*
G02*
X143000000Y-100500000I750000J0D01*
G01*
X145000000Y-100500000D01*
G75*
G02*
X145750000Y-101250000I0J-750000D01*
G01*
X145750000Y-102750000D01*
G75*
G02*
X145000000Y-103500000I-750000J0D01*
G01*
G37*
D21*
X144000000Y-96000000D03*
%TD*%
D22*
%TO.C,J2*%
X150212000Y-97536000D03*
X152212000Y-97536000D03*
X154212000Y-97536000D03*
X156212000Y-97536000D03*
X158212000Y-97536000D03*
X160212000Y-97536000D03*
X162212000Y-97536000D03*
X164212000Y-97536000D03*
X166212000Y-97536000D03*
X168212000Y-97536000D03*
X170212000Y-97536000D03*
D23*
X172212000Y-97536000D03*
%TD*%
%TO.C,R7*%
G36*
G01*
X178239000Y-97042000D02*
X177869000Y-97042000D01*
G75*
G02*
X177734000Y-96907000I0J135000D01*
G01*
X177734000Y-96637000D01*
G75*
G02*
X177869000Y-96502000I135000J0D01*
G01*
X178239000Y-96502000D01*
G75*
G02*
X178374000Y-96637000I0J-135000D01*
G01*
X178374000Y-96907000D01*
G75*
G02*
X178239000Y-97042000I-135000J0D01*
G01*
G37*
G36*
G01*
X178239000Y-98062000D02*
X177869000Y-98062000D01*
G75*
G02*
X177734000Y-97927000I0J135000D01*
G01*
X177734000Y-97657000D01*
G75*
G02*
X177869000Y-97522000I135000J0D01*
G01*
X178239000Y-97522000D01*
G75*
G02*
X178374000Y-97657000I0J-135000D01*
G01*
X178374000Y-97927000D01*
G75*
G02*
X178239000Y-98062000I-135000J0D01*
G01*
G37*
%TD*%
D24*
%TO.C,Q3*%
X178038000Y-100838000D03*
X176038000Y-99888000D03*
X176038000Y-101788000D03*
%TD*%
D25*
%TO.C,K1*%
X181102000Y-105918000D03*
X198882000Y-98298000D03*
X191262000Y-98298000D03*
D26*
X181102000Y-98298000D03*
%TD*%
%TO.C,U1*%
G36*
G01*
X141219277Y-82394000D02*
X141519277Y-82394000D01*
G75*
G02*
X141669277Y-82544000I0J-150000D01*
G01*
X141669277Y-84194000D01*
G75*
G02*
X141519277Y-84344000I-150000J0D01*
G01*
X141219277Y-84344000D01*
G75*
G02*
X141069277Y-84194000I0J150000D01*
G01*
X141069277Y-82544000D01*
G75*
G02*
X141219277Y-82394000I150000J0D01*
G01*
G37*
G36*
G01*
X142489277Y-82394000D02*
X142789277Y-82394000D01*
G75*
G02*
X142939277Y-82544000I0J-150000D01*
G01*
X142939277Y-84194000D01*
G75*
G02*
X142789277Y-84344000I-150000J0D01*
G01*
X142489277Y-84344000D01*
G75*
G02*
X142339277Y-84194000I0J150000D01*
G01*
X142339277Y-82544000D01*
G75*
G02*
X142489277Y-82394000I150000J0D01*
G01*
G37*
G36*
G01*
X143759277Y-82394000D02*
X144059277Y-82394000D01*
G75*
G02*
X144209277Y-82544000I0J-150000D01*
G01*
X144209277Y-84194000D01*
G75*
G02*
X144059277Y-84344000I-150000J0D01*
G01*
X143759277Y-84344000D01*
G75*
G02*
X143609277Y-84194000I0J150000D01*
G01*
X143609277Y-82544000D01*
G75*
G02*
X143759277Y-82394000I150000J0D01*
G01*
G37*
G36*
G01*
X145029277Y-82394000D02*
X145329277Y-82394000D01*
G75*
G02*
X145479277Y-82544000I0J-150000D01*
G01*
X145479277Y-84194000D01*
G75*
G02*
X145329277Y-84344000I-150000J0D01*
G01*
X145029277Y-84344000D01*
G75*
G02*
X144879277Y-84194000I0J150000D01*
G01*
X144879277Y-82544000D01*
G75*
G02*
X145029277Y-82394000I150000J0D01*
G01*
G37*
G36*
G01*
X145029277Y-77444000D02*
X145329277Y-77444000D01*
G75*
G02*
X145479277Y-77594000I0J-150000D01*
G01*
X145479277Y-79244000D01*
G75*
G02*
X145329277Y-79394000I-150000J0D01*
G01*
X145029277Y-79394000D01*
G75*
G02*
X144879277Y-79244000I0J150000D01*
G01*
X144879277Y-77594000D01*
G75*
G02*
X145029277Y-77444000I150000J0D01*
G01*
G37*
G36*
G01*
X143759277Y-77444000D02*
X144059277Y-77444000D01*
G75*
G02*
X144209277Y-77594000I0J-150000D01*
G01*
X144209277Y-79244000D01*
G75*
G02*
X144059277Y-79394000I-150000J0D01*
G01*
X143759277Y-79394000D01*
G75*
G02*
X143609277Y-79244000I0J150000D01*
G01*
X143609277Y-77594000D01*
G75*
G02*
X143759277Y-77444000I150000J0D01*
G01*
G37*
G36*
G01*
X142489277Y-77444000D02*
X142789277Y-77444000D01*
G75*
G02*
X142939277Y-77594000I0J-150000D01*
G01*
X142939277Y-79244000D01*
G75*
G02*
X142789277Y-79394000I-150000J0D01*
G01*
X142489277Y-79394000D01*
G75*
G02*
X142339277Y-79244000I0J150000D01*
G01*
X142339277Y-77594000D01*
G75*
G02*
X142489277Y-77444000I150000J0D01*
G01*
G37*
G36*
G01*
X141219277Y-77444000D02*
X141519277Y-77444000D01*
G75*
G02*
X141669277Y-77594000I0J-150000D01*
G01*
X141669277Y-79244000D01*
G75*
G02*
X141519277Y-79394000I-150000J0D01*
G01*
X141219277Y-79394000D01*
G75*
G02*
X141069277Y-79244000I0J150000D01*
G01*
X141069277Y-77594000D01*
G75*
G02*
X141219277Y-77444000I150000J0D01*
G01*
G37*
%TD*%
D11*
%TO.C,TP1*%
X134366000Y-75438000D03*
%TD*%
D27*
%TO.C,SW2*%
X205994000Y-80518000D03*
D28*
X205994000Y-83018000D03*
X205994000Y-85518000D03*
D29*
X213494000Y-77418000D03*
X213494000Y-88618000D03*
D28*
X220494000Y-80518000D03*
X220494000Y-85518000D03*
%TD*%
%TO.C,R5*%
G36*
G01*
X199067000Y-79007999D02*
X198697000Y-79007999D01*
G75*
G02*
X198562000Y-78872999I0J135000D01*
G01*
X198562000Y-78602999D01*
G75*
G02*
X198697000Y-78467999I135000J0D01*
G01*
X199067000Y-78467999D01*
G75*
G02*
X199202000Y-78602999I0J-135000D01*
G01*
X199202000Y-78872999D01*
G75*
G02*
X199067000Y-79007999I-135000J0D01*
G01*
G37*
G36*
G01*
X199067000Y-80027999D02*
X198697000Y-80027999D01*
G75*
G02*
X198562000Y-79892999I0J135000D01*
G01*
X198562000Y-79622999D01*
G75*
G02*
X198697000Y-79487999I135000J0D01*
G01*
X199067000Y-79487999D01*
G75*
G02*
X199202000Y-79622999I0J-135000D01*
G01*
X199202000Y-79892999D01*
G75*
G02*
X199067000Y-80027999I-135000J0D01*
G01*
G37*
%TD*%
%TO.C,L1*%
G36*
G01*
X138724281Y-79319000D02*
X135824275Y-79319000D01*
G75*
G02*
X135574278Y-79069003I0J249997D01*
G01*
X135574278Y-78443997D01*
G75*
G02*
X135824275Y-78194000I249997J0D01*
G01*
X138724281Y-78194000D01*
G75*
G02*
X138974278Y-78443997I0J-249997D01*
G01*
X138974278Y-79069003D01*
G75*
G02*
X138724281Y-79319000I-249997J0D01*
G01*
G37*
G36*
G01*
X138724281Y-83594000D02*
X135824275Y-83594000D01*
G75*
G02*
X135574278Y-83344003I0J249997D01*
G01*
X135574278Y-82718997D01*
G75*
G02*
X135824275Y-82469000I249997J0D01*
G01*
X138724281Y-82469000D01*
G75*
G02*
X138974278Y-82718997I0J-249997D01*
G01*
X138974278Y-83344003D01*
G75*
G02*
X138724281Y-83594000I-249997J0D01*
G01*
G37*
%TD*%
D30*
%TO.C,H4*%
X129000000Y-60000000D03*
%TD*%
%TO.C,H3*%
X129000000Y-105000000D03*
%TD*%
%TO.C,H2*%
X219000000Y-60000000D03*
%TD*%
%TO.C,H1*%
X219000000Y-105000000D03*
%TD*%
D31*
%TO.C,D3*%
X137274277Y-88544000D03*
X137274277Y-85244000D03*
%TD*%
%TO.C,C14*%
G36*
G01*
X148623000Y-70046000D02*
X149573000Y-70046000D01*
G75*
G02*
X149823000Y-70296000I0J-250000D01*
G01*
X149823000Y-70796000D01*
G75*
G02*
X149573000Y-71046000I-250000J0D01*
G01*
X148623000Y-71046000D01*
G75*
G02*
X148373000Y-70796000I0J250000D01*
G01*
X148373000Y-70296000D01*
G75*
G02*
X148623000Y-70046000I250000J0D01*
G01*
G37*
G36*
G01*
X148623000Y-68146000D02*
X149573000Y-68146000D01*
G75*
G02*
X149823000Y-68396000I0J-250000D01*
G01*
X149823000Y-68896000D01*
G75*
G02*
X149573000Y-69146000I-250000J0D01*
G01*
X148623000Y-69146000D01*
G75*
G02*
X148373000Y-68896000I0J250000D01*
G01*
X148373000Y-68396000D01*
G75*
G02*
X148623000Y-68146000I250000J0D01*
G01*
G37*
%TD*%
D32*
%TO.C,C6*%
X149352000Y-80986000D03*
D33*
X149352000Y-78486000D03*
%TD*%
%TO.C,C5*%
G36*
G01*
X142574277Y-88344001D02*
X142574277Y-89444001D01*
G75*
G02*
X142324277Y-89694001I-250000J0D01*
G01*
X139824277Y-89694001D01*
G75*
G02*
X139574277Y-89444001I0J250000D01*
G01*
X139574277Y-88344001D01*
G75*
G02*
X139824277Y-88094001I250000J0D01*
G01*
X142324277Y-88094001D01*
G75*
G02*
X142574277Y-88344001I0J-250000D01*
G01*
G37*
G36*
G01*
X146974277Y-88344001D02*
X146974277Y-89444001D01*
G75*
G02*
X146724277Y-89694001I-250000J0D01*
G01*
X144224277Y-89694001D01*
G75*
G02*
X143974277Y-89444001I0J250000D01*
G01*
X143974277Y-88344001D01*
G75*
G02*
X144224277Y-88094001I250000J0D01*
G01*
X146724277Y-88094001D01*
G75*
G02*
X146974277Y-88344001I0J-250000D01*
G01*
G37*
%TD*%
%TO.C,C1*%
G36*
G01*
X197782000Y-79048000D02*
X197442000Y-79048000D01*
G75*
G02*
X197302000Y-78908000I0J140000D01*
G01*
X197302000Y-78628000D01*
G75*
G02*
X197442000Y-78488000I140000J0D01*
G01*
X197782000Y-78488000D01*
G75*
G02*
X197922000Y-78628000I0J-140000D01*
G01*
X197922000Y-78908000D01*
G75*
G02*
X197782000Y-79048000I-140000J0D01*
G01*
G37*
G36*
G01*
X197782000Y-80008000D02*
X197442000Y-80008000D01*
G75*
G02*
X197302000Y-79868000I0J140000D01*
G01*
X197302000Y-79588000D01*
G75*
G02*
X197442000Y-79448000I140000J0D01*
G01*
X197782000Y-79448000D01*
G75*
G02*
X197922000Y-79588000I0J-140000D01*
G01*
X197922000Y-79868000D01*
G75*
G02*
X197782000Y-80008000I-140000J0D01*
G01*
G37*
%TD*%
M02*
