M48
; DRILL file {KiCad (5.1.10-1-10_14)} date Sunday, July 31, 2022 at 12:18:57 PM
; FORMAT={-:-/ absolute / inch / decimal}
; #@! TF.CreationDate,2022-07-31T12:18:57+02:00
; #@! TF.GenerationSoftware,Kicad,Pcbnew,(5.1.10-1-10_14)
; #@! TF.FileFunction,Plated,1,2,PTH
FMAT,2
INCH
T1C0.0157
T2C0.0315
T3C0.0374
T4C0.0394
T5C0.0512
T6C0.0610
T7C0.1024
T8C0.1260
%
G90
G05
T1
X6.07Y-3.13
X6.11Y-3.1
X6.18Y-3.24
X6.18Y-3.24
X6.2Y-3.36
X6.22Y-3.21
X6.25Y-3.51
X6.25Y-3.68
X6.3076Y-3.5724
X6.62Y-3.42
X6.67Y-3.42
X6.73Y-3.51
X7.0Y-3.07
X7.01Y-3.89
X7.28Y-3.02
X7.28Y-3.67
X7.72Y-3.19
X7.83Y-3.48
X7.8899Y-3.0999
X7.89Y-3.4
X7.95Y-2.72
X7.95Y-2.87
X8.0194Y-2.5706
X8.05Y-3.59
T2
X5.88Y-3.09
X5.88Y-3.1884
X5.9139Y-3.84
X5.9926Y-3.84
X6.0713Y-3.84
X6.1501Y-3.84
X6.2288Y-3.84
X6.3076Y-3.84
X6.3863Y-3.84
X6.465Y-3.84
X6.5438Y-3.84
X6.6225Y-3.84
X6.7013Y-3.84
X6.78Y-3.84
T3
X5.39Y-2.47
X5.4884Y-2.47
X5.5869Y-2.47
X5.6853Y-2.47
X5.9843Y-2.47
X6.0827Y-2.47
X6.1811Y-2.47
T4
X5.94Y-3.34
X5.94Y-3.44
X5.94Y-3.54
X5.94Y-3.64
X7.83Y-3.23
X7.83Y-3.33
X8.11Y-3.17
X8.11Y-3.2684
X8.11Y-3.3669
X8.6809Y-3.17
X8.6809Y-3.3669
T5
X7.13Y-3.87
X7.13Y-4.17
X7.53Y-3.87
X7.83Y-3.87
T6
X8.1Y-3.9
X8.3756Y-3.9
T7
X8.4053Y-3.048
X8.4053Y-3.4889
T8
X5.0787Y-2.3622
X5.0787Y-4.1339
X8.622Y-2.3622
X8.622Y-4.1339
T4
G00X5.4843Y-3.937
M15
G01X5.4843Y-3.8583
M16
G05
G00X5.6299Y-3.7795
M15
G01X5.7087Y-3.7795
M16
G05
G00X5.6299Y-4.0157
M15
G01X5.7087Y-4.0157
M16
G05
T0
M30
